<svg width="329" height="249" viewBox="0 0 329 249" fill="none" xmlns="http://www.w3.org/2000/svg">
<g clip-path="url(#clip0_4236_107)">
<path d="M328 1H1V248H328V1Z" fill="#E4FDFF" stroke="#92E3A9" stroke-width="2"/>
<path d="M292 28L281.5 44.5L303.5 46.5L294 38.5L292 28Z" fill="#A4EFFF" fill-opacity="0.79"/>
<path d="M149.955 188.85C312.255 76.2284 118.097 56.5565 1 0V231.144C1 244.75 36.6082 267.501 149.955 188.85Z" fill="#2DD4BF"/>
<path d="M270.5 38L262 56.5C267.2 60.5 279.5 59.1667 285 58C273.4 56 271.5 42.8333 272 36.5L270.5 38Z" fill="#E9F4BC"/>
<path d="M288.629 63.0404C278.298 62.5036 268.121 61.9748 257.79 61.438C256.248 61.3578 255.565 59.6217 256.246 58.4202C260.72 49.6852 265.348 40.9583 269.529 31.899C270.048 30.8439 271.273 31.0619 271.696 31.8572C272.206 30.9561 273.895 31.1982 273.83 32.432C273.867 37.6906 273.424 43.2335 275.959 48.0036C278.502 52.6194 285.321 55.2929 289.842 57.5377C290.898 58.0564 290.842 59.1358 290.339 59.8827C291.046 61.156 290.479 63.1365 288.629 63.0404ZM272.779 49.6934C269.919 45.2157 270.881 38.6175 271.462 33.3909C268.708 41.7511 264.891 49.7474 260.928 57.5809C268.792 57.9895 276.656 58.3981 284.52 58.8068C279.99 56.7163 275.492 54.0091 272.779 49.6934Z" fill="black"/>
<path d="M311.992 47.8661C302.115 47.5073 292.369 47.6196 282.751 45.2645C281.379 44.8837 281.005 43.1638 281.677 42.1165C286.379 34.9395 290.635 27.4302 295.791 20.4314C296.124 19.9849 296.594 19.855 297.057 19.879C297.422 18.8157 299.418 19.0738 299.2 20.2995C298.561 23.6678 299.164 26.9459 299.612 30.216C300.053 33.6403 300.069 33.3319 302.91 35.1803C306.052 37.1991 310.526 40.3692 312.825 43.7352C314.789 44.6101 314.459 47.9943 311.992 47.8661ZM297.279 36.4333C296.678 36.0929 296.402 35.4601 296.434 34.8433C296.748 31.7677 296.3 28.4973 296.306 25.4054C293.234 30.9666 290 36.6735 286.628 42.0645C293.356 43.4964 300.311 43.5485 307.258 43.7546C306.965 43.4302 306.519 43.0981 306.226 42.7734C303.579 40.1621 300.599 37.9973 297.279 36.4333Z" fill="black"/>
<path d="M240.002 55.2552C238.027 54.7616 233.417 74.3938 231.359 84.2716C241.031 82.6252 260.499 78.8386 260.993 76.8631C261.487 74.8875 250.909 70.6894 245.559 68.8373C244.53 64.5156 241.978 55.7489 240.002 55.2552Z" fill="#92E3A9"/>
<path d="M263.459 80.2858C252.091 81.8596 241.356 86.0948 230.134 87.8309C229.046 87.929 227.546 87.0779 227.764 85.8524C229.769 74.0515 234.516 63.0117 239.564 52.1424C240.091 50.9329 241.925 51.3374 241.707 52.5629C245.45 54.9219 246.583 62.8659 246.805 67.5158C253.68 69.1099 259.411 71.8814 264.405 76.9339C265.429 78.0691 264.863 80.0495 263.459 80.2858ZM243.016 69.0194C243.078 64.8481 241.104 61.1895 240.063 57.4248C236.839 65.9154 233.769 74.4141 232.062 83.4474C241.118 81.7534 249.775 78.8018 258.838 76.9536C254.673 73.7995 249.819 72.0012 244.47 70.7956C243.383 70.8937 242.968 69.9445 243.016 69.0194Z" fill="black"/>
<path d="M247 136H23V158H247V136Z" fill="#E9F4BC"/>
<path d="M295 163H23V185H295V163Z" fill="#E9F4BC"/>
<path d="M217 189H23V211H217V189Z" fill="#E9F4BC"/>
<path d="M37.2395 141.06C37.1662 141.18 37.0895 141.27 37.0095 141.33C36.9295 141.383 36.8295 141.41 36.7095 141.41C36.5828 141.41 36.4395 141.357 36.2795 141.25C36.1262 141.143 35.9328 141.027 35.6995 140.9C35.4728 140.767 35.2028 140.647 34.8895 140.54C34.5762 140.427 34.2028 140.37 33.7695 140.37C33.3695 140.37 33.0162 140.42 32.7095 140.52C32.4095 140.62 32.1562 140.76 31.9495 140.94C31.7428 141.12 31.5862 141.333 31.4795 141.58C31.3795 141.82 31.3295 142.083 31.3295 142.37C31.3295 142.737 31.4262 143.043 31.6195 143.29C31.8128 143.53 32.0662 143.737 32.3795 143.91C32.6995 144.083 33.0628 144.237 33.4695 144.37C33.8762 144.497 34.2895 144.633 34.7095 144.78C35.1362 144.927 35.5528 145.093 35.9595 145.28C36.3662 145.467 36.7262 145.703 37.0395 145.99C37.3595 146.277 37.6162 146.627 37.8095 147.04C38.0028 147.453 38.0995 147.957 38.0995 148.55C38.0995 149.19 37.9895 149.79 37.7695 150.35C37.5495 150.91 37.2295 151.4 36.8095 151.82C36.3962 152.233 35.8828 152.56 35.2695 152.8C34.6628 153.04 33.9695 153.16 33.1895 153.16C32.7295 153.16 32.2795 153.113 31.8395 153.02C31.4062 152.933 30.9895 152.81 30.5895 152.65C30.1962 152.483 29.8262 152.283 29.4795 152.05C29.1328 151.817 28.8228 151.557 28.5495 151.27L29.2295 150.15C29.2895 150.057 29.3662 149.983 29.4595 149.93C29.5528 149.877 29.6562 149.85 29.7695 149.85C29.9228 149.85 30.0928 149.923 30.2795 150.07C30.4662 150.21 30.6895 150.367 30.9495 150.54C31.2162 150.707 31.5362 150.863 31.9095 151.01C32.2828 151.15 32.7295 151.22 33.2495 151.22C34.0962 151.22 34.7495 151.013 35.2095 150.6C35.6762 150.187 35.9095 149.617 35.9095 148.89C35.9095 148.483 35.8128 148.153 35.6195 147.9C35.4262 147.64 35.1695 147.423 34.8495 147.25C34.5362 147.077 34.1762 146.93 33.7695 146.81C33.3628 146.69 32.9495 146.563 32.5295 146.43C32.1095 146.29 31.6962 146.13 31.2895 145.95C30.8828 145.763 30.5195 145.523 30.1995 145.23C29.8862 144.93 29.6328 144.563 29.4395 144.13C29.2462 143.69 29.1495 143.143 29.1495 142.49C29.1495 141.97 29.2495 141.467 29.4495 140.98C29.6562 140.493 29.9528 140.063 30.3395 139.69C30.7328 139.31 31.2162 139.007 31.7895 138.78C32.3628 138.553 33.0162 138.44 33.7495 138.44C34.5762 138.44 35.3328 138.57 36.0195 138.83C36.7128 139.09 37.3095 139.46 37.8095 139.94L37.2395 141.06ZM48.6322 142.8V153H47.3322C47.0455 153 46.8622 152.863 46.7822 152.59L46.6222 151.64C46.4088 151.867 46.1822 152.073 45.9422 152.26C45.7088 152.447 45.4588 152.607 45.1922 152.74C44.9255 152.873 44.6388 152.977 44.3322 153.05C44.0322 153.123 43.7088 153.16 43.3622 153.16C42.8022 153.16 42.3088 153.067 41.8822 152.88C41.4555 152.693 41.0955 152.43 40.8022 152.09C40.5155 151.75 40.2988 151.343 40.1522 150.87C40.0055 150.39 39.9322 149.863 39.9322 149.29V142.8H42.0822V149.29C42.0822 149.977 42.2388 150.51 42.5522 150.89C42.8722 151.27 43.3555 151.46 44.0022 151.46C44.4755 151.46 44.9155 151.353 45.3222 151.14C45.7355 150.92 46.1222 150.62 46.4822 150.24V142.8H48.6322ZM53.3931 150.44C53.6931 150.827 54.0198 151.1 54.3731 151.26C54.7331 151.413 55.1298 151.49 55.5631 151.49C56.4031 151.49 57.0564 151.183 57.5231 150.57C57.9964 149.957 58.2331 149.043 58.2331 147.83C58.2331 147.203 58.1798 146.67 58.0731 146.23C57.9664 145.783 57.8131 145.42 57.6131 145.14C57.4131 144.86 57.1698 144.657 56.8831 144.53C56.5964 144.403 56.2731 144.34 55.9131 144.34C55.3664 144.34 54.8931 144.46 54.4931 144.7C54.0998 144.933 53.7331 145.27 53.3931 145.71V150.44ZM53.2831 144.28C53.7098 143.78 54.1931 143.377 54.7331 143.07C55.2798 142.763 55.9131 142.61 56.6331 142.61C57.2064 142.61 57.7264 142.727 58.1931 142.96C58.6598 143.187 59.0598 143.52 59.3931 143.96C59.7264 144.4 59.9831 144.947 60.1631 145.6C60.3498 146.247 60.4431 146.99 60.4431 147.83C60.4431 148.583 60.3398 149.287 60.1331 149.94C59.9331 150.587 59.6431 151.15 59.2631 151.63C58.8831 152.103 58.4231 152.477 57.8831 152.75C57.3431 153.017 56.7331 153.15 56.0531 153.15C55.4531 153.15 54.9431 153.053 54.5231 152.86C54.1098 152.667 53.7331 152.4 53.3931 152.06V156.39H51.2431V142.8H52.5431C52.8364 142.8 53.0231 142.937 53.1031 143.21L53.2831 144.28ZM64.6822 150.44C64.9822 150.827 65.3087 151.1 65.6621 151.26C66.0221 151.413 66.4187 151.49 66.8521 151.49C67.6921 151.49 68.3454 151.183 68.8121 150.57C69.2854 149.957 69.5221 149.043 69.5221 147.83C69.5221 147.203 69.4688 146.67 69.3622 146.23C69.2555 145.783 69.1022 145.42 68.9022 145.14C68.7022 144.86 68.4587 144.657 68.1721 144.53C67.8854 144.403 67.5621 144.34 67.2021 144.34C66.6554 144.34 66.1822 144.46 65.7822 144.7C65.3888 144.933 65.0222 145.27 64.6822 145.71V150.44ZM64.5722 144.28C64.9988 143.78 65.4821 143.377 66.0221 143.07C66.5687 142.763 67.2021 142.61 67.9221 142.61C68.4954 142.61 69.0154 142.727 69.4821 142.96C69.9487 143.187 70.3488 143.52 70.6822 143.96C71.0155 144.4 71.2721 144.947 71.4521 145.6C71.6387 146.247 71.7321 146.99 71.7321 147.83C71.7321 148.583 71.6287 149.287 71.4221 149.94C71.2221 150.587 70.9321 151.15 70.5521 151.63C70.1721 152.103 69.7121 152.477 69.1721 152.75C68.6321 153.017 68.0221 153.15 67.3421 153.15C66.7421 153.15 66.2321 153.053 65.8121 152.86C65.3987 152.667 65.0222 152.4 64.6822 152.06V156.39H62.5322V142.8H63.8322C64.1255 142.8 64.3122 142.937 64.3922 143.21L64.5722 144.28ZM78.2311 142.64C78.9845 142.64 79.6645 142.763 80.2711 143.01C80.8845 143.257 81.4046 143.607 81.8312 144.06C82.2646 144.513 82.5979 145.063 82.8312 145.71C83.0646 146.357 83.1812 147.083 83.1812 147.89C83.1812 148.697 83.0646 149.423 82.8312 150.07C82.5979 150.717 82.2646 151.27 81.8312 151.73C81.4046 152.183 80.8845 152.533 80.2711 152.78C79.6645 153.027 78.9845 153.15 78.2311 153.15C77.4711 153.15 76.7846 153.027 76.1712 152.78C75.5646 152.533 75.0446 152.183 74.6112 151.73C74.1779 151.27 73.8446 150.717 73.6112 150.07C73.3779 149.423 73.2612 148.697 73.2612 147.89C73.2612 147.083 73.3779 146.357 73.6112 145.71C73.8446 145.063 74.1779 144.513 74.6112 144.06C75.0446 143.607 75.5646 143.257 76.1712 143.01C76.7846 142.763 77.4711 142.64 78.2311 142.64ZM78.2311 151.47C79.1511 151.47 79.8346 151.163 80.2812 150.55C80.7346 149.93 80.9612 149.047 80.9612 147.9C80.9612 146.753 80.7346 145.87 80.2812 145.25C79.8346 144.623 79.1511 144.31 78.2311 144.31C77.2978 144.31 76.6046 144.623 76.1512 145.25C75.6979 145.87 75.4712 146.753 75.4712 147.9C75.4712 149.047 75.6979 149.93 76.1512 150.55C76.6046 151.163 77.2978 151.47 78.2311 151.47ZM87.2769 144.69C87.5969 144.043 87.9837 143.537 88.437 143.17C88.8903 142.797 89.4336 142.61 90.0669 142.61C90.2869 142.61 90.4937 142.637 90.687 142.69C90.8803 142.737 91.0536 142.81 91.2069 142.91L91.057 144.53C91.0303 144.643 90.9869 144.723 90.9269 144.77C90.8736 144.81 90.8002 144.83 90.7069 144.83C90.6069 144.83 90.4636 144.813 90.2769 144.78C90.0902 144.74 89.8937 144.72 89.687 144.72C89.387 144.72 89.1202 144.763 88.8869 144.85C88.6602 144.937 88.4537 145.063 88.267 145.23C88.087 145.397 87.9269 145.6 87.7869 145.84C87.6469 146.08 87.5169 146.353 87.3969 146.66V153H85.2469V142.8H86.4969C86.7236 142.8 86.8802 142.843 86.9669 142.93C87.0536 143.01 87.1136 143.153 87.1469 143.36L87.2769 144.69ZM102.529 153H100.379V144.49H95.4098V150.28C95.4098 150.647 95.4997 150.927 95.6797 151.12C95.8597 151.313 96.0997 151.41 96.3997 151.41C96.5664 151.41 96.7098 151.39 96.8298 151.35C96.9498 151.303 97.053 151.257 97.1397 151.21C97.2264 151.157 97.2997 151.11 97.3597 151.07C97.4264 151.023 97.4898 151 97.5498 151C97.6698 151 97.7665 151.067 97.8398 151.2L98.4798 152.25C98.1465 152.543 97.7531 152.77 97.2998 152.93C96.8465 153.083 96.3797 153.16 95.8997 153.16C95.053 153.16 94.3998 152.923 93.9398 152.45C93.4865 151.97 93.2598 151.297 93.2598 150.43V144.49H92.1397C92.0197 144.49 91.9165 144.453 91.8298 144.38C91.7431 144.3 91.6998 144.183 91.6998 144.03V143.16L93.3498 142.92L93.8197 139.97C93.853 139.857 93.9098 139.767 93.9898 139.7C94.0698 139.627 94.1765 139.59 94.3098 139.59H95.4098V142.94H102.529V153ZM102.969 139.67C102.969 139.863 102.929 140.047 102.849 140.22C102.776 140.387 102.673 140.537 102.539 140.67C102.406 140.797 102.249 140.9 102.069 140.98C101.896 141.053 101.713 141.09 101.519 141.09C101.326 141.09 101.143 141.053 100.969 140.98C100.803 140.9 100.653 140.797 100.519 140.67C100.393 140.537 100.289 140.387 100.209 140.22C100.136 140.047 100.099 139.863 100.099 139.67C100.099 139.47 100.136 139.283 100.209 139.11C100.289 138.93 100.393 138.777 100.519 138.65C100.653 138.517 100.803 138.413 100.969 138.34C101.143 138.26 101.326 138.22 101.519 138.22C101.713 138.22 101.896 138.26 102.069 138.34C102.249 138.413 102.406 138.517 102.539 138.65C102.673 138.777 102.776 138.93 102.849 139.11C102.929 139.283 102.969 139.47 102.969 139.67ZM107.257 144.15C107.477 143.923 107.703 143.72 107.937 143.54C108.177 143.353 108.43 143.193 108.697 143.06C108.963 142.927 109.247 142.823 109.547 142.75C109.847 142.677 110.173 142.64 110.527 142.64C111.087 142.64 111.577 142.733 111.997 142.92C112.423 143.107 112.78 143.37 113.067 143.71C113.36 144.05 113.58 144.46 113.727 144.94C113.873 145.413 113.947 145.937 113.947 146.51V153H111.807V146.51C111.807 145.823 111.647 145.29 111.327 144.91C111.013 144.53 110.533 144.34 109.887 144.34C109.407 144.34 108.96 144.45 108.547 144.67C108.14 144.89 107.757 145.19 107.397 145.57V153H105.247V142.8H106.547C106.84 142.8 107.027 142.937 107.107 143.21L107.257 144.15ZM120.097 147.81C120.764 147.81 121.264 147.64 121.597 147.3C121.931 146.96 122.097 146.517 122.097 145.97C122.097 145.41 121.931 144.967 121.597 144.64C121.264 144.313 120.764 144.15 120.097 144.15C119.437 144.15 118.937 144.313 118.597 144.64C118.264 144.967 118.097 145.41 118.097 145.97C118.097 146.237 118.141 146.483 118.227 146.71C118.314 146.937 118.441 147.133 118.607 147.3C118.774 147.46 118.981 147.587 119.227 147.68C119.481 147.767 119.771 147.81 120.097 147.81ZM123.087 153.5C123.087 153.273 123.021 153.093 122.887 152.96C122.761 152.82 122.587 152.713 122.367 152.64C122.147 152.56 121.891 152.503 121.597 152.47C121.304 152.43 120.991 152.403 120.657 152.39C120.331 152.37 119.994 152.353 119.647 152.34C119.307 152.32 118.977 152.287 118.657 152.24C118.337 152.407 118.074 152.607 117.867 152.84C117.667 153.073 117.567 153.343 117.567 153.65C117.567 153.85 117.617 154.037 117.717 154.21C117.824 154.383 117.984 154.533 118.197 154.66C118.417 154.787 118.694 154.887 119.027 154.96C119.367 155.033 119.774 155.07 120.247 155.07C121.194 155.07 121.904 154.923 122.377 154.63C122.851 154.337 123.087 153.96 123.087 153.5ZM125.247 143.17V143.97C125.247 144.237 125.087 144.4 124.767 144.46L123.747 144.63C123.921 145.017 124.007 145.447 124.007 145.92C124.007 146.42 123.907 146.873 123.707 147.28C123.514 147.687 123.244 148.033 122.897 148.32C122.551 148.607 122.137 148.827 121.657 148.98C121.177 149.133 120.657 149.21 120.097 149.21C119.884 149.21 119.674 149.2 119.467 149.18C119.267 149.153 119.071 149.12 118.877 149.08C118.684 149.193 118.541 149.313 118.447 149.44C118.354 149.567 118.307 149.697 118.307 149.83C118.307 150.05 118.404 150.213 118.597 150.32C118.791 150.427 119.044 150.503 119.357 150.55C119.677 150.597 120.041 150.627 120.447 150.64C120.854 150.653 121.267 150.677 121.687 150.71C122.107 150.743 122.521 150.8 122.927 150.88C123.334 150.953 123.694 151.08 124.007 151.26C124.327 151.433 124.584 151.67 124.777 151.97C124.971 152.27 125.067 152.66 125.067 153.14C125.067 153.58 124.957 154.01 124.737 154.43C124.517 154.85 124.197 155.223 123.777 155.55C123.364 155.877 122.857 156.137 122.257 156.33C121.657 156.53 120.974 156.63 120.207 156.63C119.447 156.63 118.784 156.557 118.217 156.41C117.657 156.263 117.187 156.063 116.807 155.81C116.434 155.563 116.154 155.277 115.967 154.95C115.787 154.623 115.697 154.283 115.697 153.93C115.697 153.45 115.847 153.04 116.147 152.7C116.454 152.36 116.867 152.093 117.387 151.9C117.107 151.767 116.881 151.583 116.707 151.35C116.541 151.117 116.457 150.81 116.457 150.43C116.457 150.13 116.567 149.817 116.787 149.49C117.007 149.163 117.337 148.887 117.777 148.66C117.271 148.38 116.871 148.01 116.577 147.55C116.284 147.083 116.137 146.54 116.137 145.92C116.137 145.413 116.234 144.957 116.427 144.55C116.627 144.143 116.904 143.797 117.257 143.51C117.611 143.223 118.027 143.003 118.507 142.85C118.994 142.697 119.524 142.62 120.097 142.62C120.977 142.62 121.744 142.803 122.397 143.17H125.247ZM134.076 150.44C134.376 150.827 134.703 151.1 135.056 151.26C135.416 151.413 135.813 151.49 136.246 151.49C137.086 151.49 137.74 151.183 138.206 150.57C138.68 149.957 138.916 149.043 138.916 147.83C138.916 147.203 138.863 146.67 138.756 146.23C138.65 145.783 138.496 145.42 138.296 145.14C138.096 144.86 137.853 144.657 137.566 144.53C137.28 144.403 136.956 144.34 136.596 144.34C136.05 144.34 135.576 144.46 135.176 144.7C134.783 144.933 134.416 145.27 134.076 145.71V150.44ZM133.966 144.28C134.393 143.78 134.876 143.377 135.416 143.07C135.963 142.763 136.596 142.61 137.316 142.61C137.89 142.61 138.41 142.727 138.876 142.96C139.343 143.187 139.743 143.52 140.076 143.96C140.41 144.4 140.666 144.947 140.846 145.6C141.033 146.247 141.126 146.99 141.126 147.83C141.126 148.583 141.023 149.287 140.816 149.94C140.616 150.587 140.326 151.15 139.946 151.63C139.566 152.103 139.106 152.477 138.566 152.75C138.026 153.017 137.416 153.15 136.736 153.15C136.136 153.15 135.626 153.053 135.206 152.86C134.793 152.667 134.416 152.4 134.076 152.06V156.39H131.926V142.8H133.226C133.52 142.8 133.706 142.937 133.786 143.21L133.966 144.28ZM149.905 146.75C149.905 146.39 149.852 146.057 149.745 145.75C149.645 145.437 149.495 145.167 149.295 144.94C149.095 144.707 148.845 144.527 148.545 144.4C148.252 144.267 147.912 144.2 147.525 144.2C146.745 144.2 146.132 144.423 145.685 144.87C145.239 145.317 144.955 145.943 144.835 146.75H149.905ZM144.775 148.07C144.802 148.65 144.892 149.153 145.045 149.58C145.199 150 145.402 150.35 145.655 150.63C145.915 150.91 146.222 151.12 146.575 151.26C146.935 151.393 147.335 151.46 147.775 151.46C148.195 151.46 148.559 151.413 148.865 151.32C149.172 151.22 149.439 151.113 149.665 151C149.892 150.88 150.085 150.773 150.245 150.68C150.405 150.58 150.552 150.53 150.685 150.53C150.859 150.53 150.992 150.597 151.085 150.73L151.695 151.52C151.442 151.82 151.155 152.073 150.835 152.28C150.515 152.487 150.175 152.657 149.815 152.79C149.455 152.917 149.085 153.007 148.705 153.06C148.325 153.12 147.955 153.15 147.595 153.15C146.889 153.15 146.232 153.033 145.625 152.8C145.025 152.56 144.502 152.21 144.055 151.75C143.615 151.29 143.269 150.72 143.015 150.04C142.769 149.36 142.645 148.577 142.645 147.69C142.645 146.983 142.755 146.323 142.975 145.71C143.202 145.097 143.522 144.563 143.935 144.11C144.355 143.657 144.862 143.3 145.455 143.04C146.055 142.773 146.732 142.64 147.485 142.64C148.112 142.64 148.692 142.743 149.225 142.95C149.759 143.15 150.219 143.447 150.605 143.84C150.992 144.233 151.292 144.717 151.505 145.29C151.725 145.857 151.835 146.503 151.835 147.23C151.835 147.563 151.799 147.787 151.725 147.9C151.652 148.013 151.519 148.07 151.325 148.07H144.775ZM158.25 142.64C159.004 142.64 159.684 142.763 160.29 143.01C160.904 143.257 161.424 143.607 161.85 144.06C162.284 144.513 162.617 145.063 162.85 145.71C163.084 146.357 163.2 147.083 163.2 147.89C163.2 148.697 163.084 149.423 162.85 150.07C162.617 150.717 162.284 151.27 161.85 151.73C161.424 152.183 160.904 152.533 160.29 152.78C159.684 153.027 159.004 153.15 158.25 153.15C157.49 153.15 156.804 153.027 156.19 152.78C155.584 152.533 155.064 152.183 154.63 151.73C154.197 151.27 153.864 150.717 153.63 150.07C153.397 149.423 153.28 148.697 153.28 147.89C153.28 147.083 153.397 146.357 153.63 145.71C153.864 145.063 154.197 144.513 154.63 144.06C155.064 143.607 155.584 143.257 156.19 143.01C156.804 142.763 157.49 142.64 158.25 142.64ZM158.25 151.47C159.17 151.47 159.854 151.163 160.3 150.55C160.754 149.93 160.98 149.047 160.98 147.9C160.98 146.753 160.754 145.87 160.3 145.25C159.854 144.623 159.17 144.31 158.25 144.31C157.317 144.31 156.624 144.623 156.17 145.25C155.717 145.87 155.49 146.753 155.49 147.9C155.49 149.047 155.717 149.93 156.17 150.55C156.624 151.163 157.317 151.47 158.25 151.47ZM167.416 150.44C167.716 150.827 168.043 151.1 168.396 151.26C168.756 151.413 169.153 151.49 169.586 151.49C170.426 151.49 171.079 151.183 171.546 150.57C172.019 149.957 172.256 149.043 172.256 147.83C172.256 147.203 172.203 146.67 172.096 146.23C171.989 145.783 171.836 145.42 171.636 145.14C171.436 144.86 171.193 144.657 170.906 144.53C170.619 144.403 170.296 144.34 169.936 144.34C169.389 144.34 168.916 144.46 168.516 144.7C168.123 144.933 167.756 145.27 167.416 145.71V150.44ZM167.306 144.28C167.733 143.78 168.216 143.377 168.756 143.07C169.303 142.763 169.936 142.61 170.656 142.61C171.229 142.61 171.749 142.727 172.216 142.96C172.683 143.187 173.083 143.52 173.416 143.96C173.749 144.4 174.006 144.947 174.186 145.6C174.373 146.247 174.466 146.99 174.466 147.83C174.466 148.583 174.363 149.287 174.156 149.94C173.956 150.587 173.666 151.15 173.286 151.63C172.906 152.103 172.446 152.477 171.906 152.75C171.366 153.017 170.756 153.15 170.076 153.15C169.476 153.15 168.966 153.053 168.546 152.86C168.133 152.667 167.756 152.4 167.416 152.06V156.39H165.266V142.8H166.566C166.859 142.8 167.046 142.937 167.126 143.21L167.306 144.28ZM178.745 138.2V153H176.595V138.2H178.745ZM188.089 146.75C188.089 146.39 188.036 146.057 187.929 145.75C187.829 145.437 187.679 145.167 187.479 144.94C187.279 144.707 187.029 144.527 186.729 144.4C186.436 144.267 186.096 144.2 185.709 144.2C184.929 144.2 184.316 144.423 183.869 144.87C183.422 145.317 183.139 145.943 183.019 146.75H188.089ZM182.959 148.07C182.986 148.65 183.076 149.153 183.229 149.58C183.382 150 183.586 150.35 183.839 150.63C184.099 150.91 184.406 151.12 184.759 151.26C185.119 151.393 185.519 151.46 185.959 151.46C186.379 151.46 186.742 151.413 187.049 151.32C187.356 151.22 187.622 151.113 187.849 151C188.076 150.88 188.269 150.773 188.429 150.68C188.589 150.58 188.736 150.53 188.869 150.53C189.042 150.53 189.176 150.597 189.269 150.73L189.879 151.52C189.626 151.82 189.339 152.073 189.019 152.28C188.699 152.487 188.359 152.657 187.999 152.79C187.639 152.917 187.269 153.007 186.889 153.06C186.509 153.12 186.139 153.15 185.779 153.15C185.072 153.15 184.416 153.033 183.809 152.8C183.209 152.56 182.686 152.21 182.239 151.75C181.799 151.29 181.452 150.72 181.199 150.04C180.952 149.36 180.829 148.577 180.829 147.69C180.829 146.983 180.939 146.323 181.159 145.71C181.386 145.097 181.706 144.563 182.119 144.11C182.539 143.657 183.046 143.3 183.639 143.04C184.239 142.773 184.916 142.64 185.669 142.64C186.296 142.64 186.876 142.743 187.409 142.95C187.942 143.15 188.402 143.447 188.789 143.84C189.176 144.233 189.476 144.717 189.689 145.29C189.909 145.857 190.019 146.503 190.019 147.23C190.019 147.563 189.982 147.787 189.909 147.9C189.836 148.013 189.702 148.07 189.509 148.07H182.959ZM202.454 148.54C201.688 148.567 201.041 148.63 200.514 148.73C199.988 148.823 199.561 148.947 199.234 149.1C198.908 149.247 198.671 149.423 198.524 149.63C198.384 149.837 198.314 150.063 198.314 150.31C198.314 150.55 198.351 150.757 198.424 150.93C198.504 151.097 198.611 151.237 198.744 151.35C198.884 151.457 199.044 151.537 199.224 151.59C199.411 151.637 199.614 151.66 199.834 151.66C200.394 151.66 200.874 151.557 201.274 151.35C201.681 151.137 202.074 150.83 202.454 150.43V148.54ZM196.754 144.22C197.908 143.147 199.281 142.61 200.874 142.61C201.461 142.61 201.981 142.707 202.434 142.9C202.894 143.087 203.278 143.353 203.584 143.7C203.898 144.047 204.134 144.46 204.294 144.94C204.461 145.413 204.544 145.94 204.544 146.52V153H203.584C203.378 153 203.221 152.97 203.114 152.91C203.008 152.843 202.918 152.713 202.844 152.52L202.634 151.69C202.374 151.923 202.118 152.133 201.864 152.32C201.611 152.5 201.348 152.653 201.074 152.78C200.808 152.907 200.518 153 200.204 153.06C199.898 153.127 199.558 153.16 199.184 153.16C198.771 153.16 198.384 153.103 198.024 152.99C197.671 152.877 197.364 152.707 197.104 152.48C196.844 152.247 196.638 151.96 196.484 151.62C196.338 151.28 196.264 150.88 196.264 150.42C196.264 150.027 196.368 149.643 196.574 149.27C196.788 148.897 197.134 148.563 197.614 148.27C198.101 147.97 198.738 147.723 199.524 147.53C200.318 147.337 201.294 147.227 202.454 147.2V146.52C202.454 145.787 202.298 145.24 201.984 144.88C201.671 144.52 201.211 144.34 200.604 144.34C200.191 144.34 199.844 144.393 199.564 144.5C199.284 144.6 199.041 144.71 198.834 144.83C198.628 144.95 198.444 145.063 198.284 145.17C198.124 145.27 197.954 145.32 197.774 145.32C197.628 145.32 197.501 145.283 197.394 145.21C197.294 145.13 197.211 145.033 197.144 144.92L196.754 144.22ZM209.073 144.15C209.293 143.923 209.52 143.72 209.753 143.54C209.993 143.353 210.246 143.193 210.513 143.06C210.78 142.927 211.063 142.823 211.363 142.75C211.663 142.677 211.99 142.64 212.343 142.64C212.903 142.64 213.393 142.733 213.813 142.92C214.24 143.107 214.596 143.37 214.883 143.71C215.176 144.05 215.396 144.46 215.543 144.94C215.69 145.413 215.763 145.937 215.763 146.51V153H213.623V146.51C213.623 145.823 213.463 145.29 213.143 144.91C212.83 144.53 212.35 144.34 211.703 144.34C211.223 144.34 210.776 144.45 210.363 144.67C209.956 144.89 209.573 145.19 209.213 145.57V153H207.063V142.8H208.363C208.656 142.8 208.843 142.937 208.923 143.21L209.073 144.15ZM224.784 145.31C224.484 144.923 224.154 144.653 223.794 144.5C223.434 144.347 223.044 144.27 222.624 144.27C221.784 144.27 221.127 144.58 220.654 145.2C220.181 145.813 219.944 146.723 219.944 147.93C219.944 148.557 219.997 149.093 220.104 149.54C220.211 149.98 220.364 150.34 220.564 150.62C220.764 150.9 221.007 151.103 221.294 151.23C221.581 151.357 221.904 151.42 222.264 151.42C222.811 151.42 223.281 151.303 223.674 151.07C224.074 150.83 224.444 150.493 224.784 150.06V145.31ZM226.934 138.2V153H225.634C225.347 153 225.164 152.863 225.084 152.59L224.894 151.48C224.467 151.98 223.981 152.383 223.434 152.69C222.894 152.997 222.264 153.15 221.544 153.15C220.971 153.15 220.451 153.037 219.984 152.81C219.517 152.577 219.117 152.24 218.784 151.8C218.451 151.36 218.191 150.817 218.004 150.17C217.824 149.517 217.734 148.77 217.734 147.93C217.734 147.17 217.834 146.467 218.034 145.82C218.241 145.173 218.534 144.613 218.914 144.14C219.294 143.66 219.754 143.287 220.294 143.02C220.841 142.747 221.451 142.61 222.124 142.61C222.724 142.61 223.234 142.707 223.654 142.9C224.074 143.087 224.451 143.35 224.784 143.69V138.2H226.934ZM33.7195 169.64C34.4728 169.64 35.1528 169.763 35.7595 170.01C36.3728 170.257 36.8928 170.607 37.3195 171.06C37.7528 171.513 38.0862 172.063 38.3195 172.71C38.5528 173.357 38.6695 174.083 38.6695 174.89C38.6695 175.697 38.5528 176.423 38.3195 177.07C38.0862 177.717 37.7528 178.27 37.3195 178.73C36.8928 179.183 36.3728 179.533 35.7595 179.78C35.1528 180.027 34.4728 180.15 33.7195 180.15C32.9595 180.15 32.2728 180.027 31.6595 179.78C31.0528 179.533 30.5328 179.183 30.0995 178.73C29.6662 178.27 29.3328 177.717 29.0995 177.07C28.8662 176.423 28.7495 175.697 28.7495 174.89C28.7495 174.083 28.8662 173.357 29.0995 172.71C29.3328 172.063 29.6662 171.513 30.0995 171.06C30.5328 170.607 31.0528 170.257 31.6595 170.01C32.2728 169.763 32.9595 169.64 33.7195 169.64ZM33.7195 178.47C34.6395 178.47 35.3228 178.163 35.7695 177.55C36.2228 176.93 36.4495 176.047 36.4495 174.9C36.4495 173.753 36.2228 172.87 35.7695 172.25C35.3228 171.623 34.6395 171.31 33.7195 171.31C32.7862 171.31 32.0928 171.623 31.6395 172.25C31.1862 172.87 30.9595 173.753 30.9595 174.9C30.9595 176.047 31.1862 176.93 31.6395 177.55C32.0928 178.163 32.7862 178.47 33.7195 178.47ZM42.7653 171.69C43.0853 171.043 43.4719 170.537 43.9253 170.17C44.3786 169.797 44.9219 169.61 45.5553 169.61C45.7753 169.61 45.9819 169.637 46.1753 169.69C46.3686 169.737 46.5419 169.81 46.6953 169.91L46.5453 171.53C46.5186 171.643 46.4753 171.723 46.4153 171.77C46.3619 171.81 46.2886 171.83 46.1953 171.83C46.0953 171.83 45.9519 171.813 45.7653 171.78C45.5786 171.74 45.3819 171.72 45.1753 171.72C44.8753 171.72 44.6086 171.763 44.3753 171.85C44.1486 171.937 43.9419 172.063 43.7553 172.23C43.5753 172.397 43.4153 172.6 43.2753 172.84C43.1353 173.08 43.0053 173.353 42.8853 173.66V180H40.7353V169.8H41.9853C42.2119 169.8 42.3686 169.843 42.4553 169.93C42.5419 170.01 42.6019 170.153 42.6353 170.36L42.7653 171.69ZM51.5823 174.81C52.249 174.81 52.749 174.64 53.0823 174.3C53.4156 173.96 53.5823 173.517 53.5823 172.97C53.5823 172.41 53.4156 171.967 53.0823 171.64C52.749 171.313 52.249 171.15 51.5823 171.15C50.9223 171.15 50.4223 171.313 50.0823 171.64C49.749 171.967 49.5823 172.41 49.5823 172.97C49.5823 173.237 49.6256 173.483 49.7123 173.71C49.799 173.937 49.9256 174.133 50.0923 174.3C50.259 174.46 50.4656 174.587 50.7123 174.68C50.9656 174.767 51.2556 174.81 51.5823 174.81ZM54.5723 180.5C54.5723 180.273 54.5056 180.093 54.3723 179.96C54.2456 179.82 54.0723 179.713 53.8523 179.64C53.6323 179.56 53.3756 179.503 53.0823 179.47C52.789 179.43 52.4756 179.403 52.1423 179.39C51.8156 179.37 51.479 179.353 51.1323 179.34C50.7923 179.32 50.4623 179.287 50.1423 179.24C49.8223 179.407 49.559 179.607 49.3523 179.84C49.1523 180.073 49.0523 180.343 49.0523 180.65C49.0523 180.85 49.1023 181.037 49.2023 181.21C49.309 181.383 49.469 181.533 49.6823 181.66C49.9023 181.787 50.179 181.887 50.5123 181.96C50.8523 182.033 51.259 182.07 51.7323 182.07C52.679 182.07 53.389 181.923 53.8623 181.63C54.3356 181.337 54.5723 180.96 54.5723 180.5ZM56.7323 170.17V170.97C56.7323 171.237 56.5723 171.4 56.2523 171.46L55.2323 171.63C55.4056 172.017 55.4923 172.447 55.4923 172.92C55.4923 173.42 55.3923 173.873 55.1923 174.28C54.999 174.687 54.729 175.033 54.3823 175.32C54.0356 175.607 53.6223 175.827 53.1423 175.98C52.6623 176.133 52.1423 176.21 51.5823 176.21C51.369 176.21 51.159 176.2 50.9523 176.18C50.7523 176.153 50.5556 176.12 50.3623 176.08C50.169 176.193 50.0256 176.313 49.9323 176.44C49.839 176.567 49.7923 176.697 49.7923 176.83C49.7923 177.05 49.889 177.213 50.0823 177.32C50.2756 177.427 50.529 177.503 50.8423 177.55C51.1623 177.597 51.5256 177.627 51.9323 177.64C52.339 177.653 52.7523 177.677 53.1723 177.71C53.5923 177.743 54.0056 177.8 54.4123 177.88C54.819 177.953 55.179 178.08 55.4923 178.26C55.8123 178.433 56.069 178.67 56.2623 178.97C56.4556 179.27 56.5523 179.66 56.5523 180.14C56.5523 180.58 56.4423 181.01 56.2223 181.43C56.0023 181.85 55.6823 182.223 55.2623 182.55C54.849 182.877 54.3423 183.137 53.7423 183.33C53.1423 183.53 52.459 183.63 51.6923 183.63C50.9323 183.63 50.269 183.557 49.7023 183.41C49.1423 183.263 48.6723 183.063 48.2923 182.81C47.919 182.563 47.639 182.277 47.4523 181.95C47.2723 181.623 47.1823 181.283 47.1823 180.93C47.1823 180.45 47.3323 180.04 47.6323 179.7C47.939 179.36 48.3523 179.093 48.8723 178.9C48.5923 178.767 48.3656 178.583 48.1923 178.35C48.0256 178.117 47.9423 177.81 47.9423 177.43C47.9423 177.13 48.0523 176.817 48.2723 176.49C48.4923 176.163 48.8223 175.887 49.2623 175.66C48.7556 175.38 48.3556 175.01 48.0623 174.55C47.769 174.083 47.6223 173.54 47.6223 172.92C47.6223 172.413 47.719 171.957 47.9123 171.55C48.1123 171.143 48.389 170.797 48.7423 170.51C49.0956 170.223 49.5123 170.003 49.9923 169.85C50.479 169.697 51.009 169.62 51.5823 169.62C52.4623 169.62 53.229 169.803 53.8823 170.17H56.7323ZM63.8806 175.54C63.1139 175.567 62.4673 175.63 61.9406 175.73C61.4139 175.823 60.9873 175.947 60.6606 176.1C60.3339 176.247 60.0973 176.423 59.9506 176.63C59.8106 176.837 59.7406 177.063 59.7406 177.31C59.7406 177.55 59.7773 177.757 59.8506 177.93C59.9306 178.097 60.0373 178.237 60.1706 178.35C60.3106 178.457 60.4706 178.537 60.6506 178.59C60.8373 178.637 61.0406 178.66 61.2606 178.66C61.8206 178.66 62.3006 178.557 62.7006 178.35C63.1073 178.137 63.5006 177.83 63.8806 177.43V175.54ZM58.1806 171.22C59.3339 170.147 60.7073 169.61 62.3006 169.61C62.8873 169.61 63.4072 169.707 63.8605 169.9C64.3205 170.087 64.7039 170.353 65.0106 170.7C65.3239 171.047 65.5606 171.46 65.7206 171.94C65.8873 172.413 65.9706 172.94 65.9706 173.52V180H65.0106C64.8039 180 64.6473 179.97 64.5406 179.91C64.4339 179.843 64.3439 179.713 64.2706 179.52L64.0605 178.69C63.8005 178.923 63.5439 179.133 63.2906 179.32C63.0373 179.5 62.7738 179.653 62.5005 179.78C62.2338 179.907 61.9439 180 61.6306 180.06C61.3239 180.127 60.9838 180.16 60.6105 180.16C60.1972 180.16 59.8106 180.103 59.4506 179.99C59.0973 179.877 58.7906 179.707 58.5306 179.48C58.2706 179.247 58.0639 178.96 57.9106 178.62C57.7639 178.28 57.6906 177.88 57.6906 177.42C57.6906 177.027 57.7939 176.643 58.0006 176.27C58.2139 175.897 58.5606 175.563 59.0406 175.27C59.5273 174.97 60.1639 174.723 60.9506 174.53C61.7439 174.337 62.7206 174.227 63.8806 174.2V173.52C63.8806 172.787 63.7239 172.24 63.4106 171.88C63.0973 171.52 62.6373 171.34 62.0306 171.34C61.6173 171.34 61.2706 171.393 60.9906 171.5C60.7106 171.6 60.4673 171.71 60.2606 171.83C60.0539 171.95 59.8706 172.063 59.7106 172.17C59.5506 172.27 59.3806 172.32 59.2006 172.32C59.0539 172.32 58.9273 172.283 58.8206 172.21C58.7206 172.13 58.6373 172.033 58.5706 171.92L58.1806 171.22ZM70.4992 171.15C70.7192 170.923 70.9459 170.72 71.1792 170.54C71.4192 170.353 71.6724 170.193 71.9391 170.06C72.2058 169.927 72.4892 169.823 72.7892 169.75C73.0892 169.677 73.4158 169.64 73.7691 169.64C74.3291 169.64 74.8192 169.733 75.2392 169.92C75.6659 170.107 76.0225 170.37 76.3092 170.71C76.6025 171.05 76.8225 171.46 76.9692 171.94C77.1159 172.413 77.1891 172.937 77.1891 173.51V180H75.0491V173.51C75.0491 172.823 74.8892 172.29 74.5692 171.91C74.2559 171.53 73.7759 171.34 73.1292 171.34C72.6492 171.34 72.2025 171.45 71.7892 171.67C71.3825 171.89 70.9992 172.19 70.6392 172.57V180H68.4892V169.8H69.7892C70.0825 169.8 70.2692 169.937 70.3492 170.21L70.4992 171.15ZM81.94 169.8V180H79.7901V169.8H81.94ZM82.3 166.72C82.3 166.913 82.2601 167.097 82.1801 167.27C82.1068 167.443 82.0034 167.597 81.87 167.73C81.7367 167.857 81.58 167.96 81.4 168.04C81.2267 168.113 81.04 168.15 80.84 168.15C80.6467 168.15 80.4635 168.113 80.2901 168.04C80.1235 167.96 79.9768 167.857 79.8501 167.73C79.7235 167.597 79.6201 167.443 79.5401 167.27C79.4668 167.097 79.4301 166.913 79.4301 166.72C79.4301 166.52 79.4668 166.333 79.5401 166.16C79.6201 165.987 79.7235 165.837 79.8501 165.71C79.9768 165.577 80.1235 165.473 80.2901 165.4C80.4635 165.32 80.6467 165.28 80.84 165.28C81.04 165.28 81.2267 165.32 81.4 165.4C81.58 165.473 81.7367 165.577 81.87 165.71C82.0034 165.837 82.1068 165.987 82.1801 166.16C82.2601 166.333 82.3 166.52 82.3 166.72ZM91.8315 170.7C91.8315 170.853 91.8048 171.003 91.7514 171.15C91.7048 171.297 91.6349 171.42 91.5415 171.52L86.3715 178.33H91.6615V180H83.8815V179.1C83.8815 179 83.9049 178.88 83.9515 178.74C83.9982 178.6 84.0682 178.467 84.1615 178.34L89.3715 171.47H84.1814V169.8H91.8315V170.7ZM99.2125 175.54C98.4459 175.567 97.7993 175.63 97.2726 175.73C96.746 175.823 96.3193 175.947 95.9926 176.1C95.666 176.247 95.4292 176.423 95.2825 176.63C95.1425 176.837 95.0725 177.063 95.0725 177.31C95.0725 177.55 95.1092 177.757 95.1825 177.93C95.2625 178.097 95.3692 178.237 95.5025 178.35C95.6425 178.457 95.8026 178.537 95.9826 178.59C96.1693 178.637 96.3726 178.66 96.5926 178.66C97.1526 178.66 97.6325 178.557 98.0325 178.35C98.4392 178.137 98.8325 177.83 99.2125 177.43V175.54ZM93.5126 171.22C94.666 170.147 96.0393 169.61 97.6326 169.61C98.2193 169.61 98.7393 169.707 99.1926 169.9C99.6526 170.087 100.035 170.353 100.342 170.7C100.655 171.047 100.892 171.46 101.052 171.94C101.219 172.413 101.302 172.94 101.302 173.52V180H100.342C100.135 180 99.9793 179.97 99.8726 179.91C99.766 179.843 99.676 179.713 99.6026 179.52L99.3925 178.69C99.1325 178.923 98.876 179.133 98.6226 179.32C98.3693 179.5 98.106 179.653 97.8326 179.78C97.566 179.907 97.2759 180 96.9625 180.06C96.6559 180.127 96.316 180.16 95.9426 180.16C95.5293 180.16 95.1425 180.103 94.7825 179.99C94.4292 179.877 94.1225 179.707 93.8625 179.48C93.6025 179.247 93.396 178.96 93.2426 178.62C93.096 178.28 93.0226 177.88 93.0226 177.42C93.0226 177.027 93.126 176.643 93.3326 176.27C93.546 175.897 93.8926 175.563 94.3726 175.27C94.8593 174.97 95.4959 174.723 96.2825 174.53C97.0759 174.337 98.0525 174.227 99.2125 174.2V173.52C99.2125 172.787 99.056 172.24 98.7426 171.88C98.4293 171.52 97.9692 171.34 97.3625 171.34C96.9492 171.34 96.6025 171.393 96.3225 171.5C96.0425 171.6 95.7993 171.71 95.5926 171.83C95.386 171.95 95.2025 172.063 95.0425 172.17C94.8825 172.27 94.7125 172.32 94.5325 172.32C94.3859 172.32 94.2592 172.283 94.1525 172.21C94.0525 172.13 93.9692 172.033 93.9025 171.92L93.5126 171.22ZM113.584 180H111.434V171.49H106.464V177.28C106.464 177.647 106.554 177.927 106.734 178.12C106.914 178.313 107.154 178.41 107.454 178.41C107.621 178.41 107.764 178.39 107.884 178.35C108.004 178.303 108.107 178.257 108.194 178.21C108.281 178.157 108.354 178.11 108.414 178.07C108.481 178.023 108.544 178 108.604 178C108.724 178 108.821 178.067 108.894 178.2L109.534 179.25C109.201 179.543 108.807 179.77 108.354 179.93C107.901 180.083 107.434 180.16 106.954 180.16C106.107 180.16 105.454 179.923 104.994 179.45C104.541 178.97 104.314 178.297 104.314 177.43V171.49H103.194C103.074 171.49 102.971 171.453 102.884 171.38C102.797 171.3 102.754 171.183 102.754 171.03V170.16L104.404 169.92L104.874 166.97C104.907 166.857 104.964 166.767 105.044 166.7C105.124 166.627 105.231 166.59 105.364 166.59H106.464V169.94H113.584V180ZM114.024 166.67C114.024 166.863 113.984 167.047 113.904 167.22C113.831 167.387 113.727 167.537 113.594 167.67C113.461 167.797 113.304 167.9 113.124 167.98C112.951 168.053 112.767 168.09 112.574 168.09C112.381 168.09 112.197 168.053 112.024 167.98C111.857 167.9 111.707 167.797 111.574 167.67C111.447 167.537 111.344 167.387 111.264 167.22C111.191 167.047 111.154 166.863 111.154 166.67C111.154 166.47 111.191 166.283 111.264 166.11C111.344 165.93 111.447 165.777 111.574 165.65C111.707 165.517 111.857 165.413 112.024 165.34C112.197 165.26 112.381 165.22 112.574 165.22C112.767 165.22 112.951 165.26 113.124 165.34C113.304 165.413 113.461 165.517 113.594 165.65C113.727 165.777 113.831 165.93 113.904 166.11C113.984 166.283 114.024 166.47 114.024 166.67ZM120.711 169.64C121.465 169.64 122.145 169.763 122.751 170.01C123.365 170.257 123.885 170.607 124.311 171.06C124.745 171.513 125.078 172.063 125.311 172.71C125.545 173.357 125.661 174.083 125.661 174.89C125.661 175.697 125.545 176.423 125.311 177.07C125.078 177.717 124.745 178.27 124.311 178.73C123.885 179.183 123.365 179.533 122.751 179.78C122.145 180.027 121.465 180.15 120.711 180.15C119.951 180.15 119.265 180.027 118.651 179.78C118.045 179.533 117.525 179.183 117.091 178.73C116.658 178.27 116.325 177.717 116.091 177.07C115.858 176.423 115.741 175.697 115.741 174.89C115.741 174.083 115.858 173.357 116.091 172.71C116.325 172.063 116.658 171.513 117.091 171.06C117.525 170.607 118.045 170.257 118.651 170.01C119.265 169.763 119.951 169.64 120.711 169.64ZM120.711 178.47C121.631 178.47 122.315 178.163 122.761 177.55C123.215 176.93 123.441 176.047 123.441 174.9C123.441 173.753 123.215 172.87 122.761 172.25C122.315 171.623 121.631 171.31 120.711 171.31C119.778 171.31 119.085 171.623 118.631 172.25C118.178 172.87 117.951 173.753 117.951 174.9C117.951 176.047 118.178 176.93 118.631 177.55C119.085 178.163 119.778 178.47 120.711 178.47ZM129.737 171.15C129.957 170.923 130.184 170.72 130.417 170.54C130.657 170.353 130.91 170.193 131.177 170.06C131.444 169.927 131.727 169.823 132.027 169.75C132.327 169.677 132.654 169.64 133.007 169.64C133.567 169.64 134.057 169.733 134.477 169.92C134.904 170.107 135.26 170.37 135.547 170.71C135.84 171.05 136.06 171.46 136.207 171.94C136.354 172.413 136.427 172.937 136.427 173.51V180H134.287V173.51C134.287 172.823 134.127 172.29 133.807 171.91C133.494 171.53 133.014 171.34 132.367 171.34C131.887 171.34 131.44 171.45 131.027 171.67C130.62 171.89 130.237 172.19 129.877 172.57V180H127.727V169.8H129.027C129.32 169.8 129.507 169.937 129.587 170.21L129.737 171.15ZM145.028 171.65C144.975 171.743 144.915 171.81 144.848 171.85C144.781 171.89 144.698 171.91 144.598 171.91C144.485 171.91 144.361 171.877 144.228 171.81C144.095 171.737 143.938 171.657 143.758 171.57C143.578 171.483 143.365 171.407 143.118 171.34C142.878 171.267 142.595 171.23 142.268 171.23C142.001 171.23 141.758 171.263 141.538 171.33C141.325 171.39 141.141 171.48 140.988 171.6C140.841 171.713 140.728 171.85 140.648 172.01C140.568 172.163 140.528 172.33 140.528 172.51C140.528 172.75 140.601 172.95 140.748 173.11C140.895 173.27 141.088 173.41 141.328 173.53C141.568 173.643 141.841 173.747 142.148 173.84C142.455 173.933 142.768 174.033 143.088 174.14C143.408 174.247 143.721 174.37 144.028 174.51C144.335 174.65 144.608 174.823 144.848 175.03C145.088 175.23 145.281 175.477 145.428 175.77C145.575 176.057 145.648 176.407 145.648 176.82C145.648 177.3 145.561 177.743 145.388 178.15C145.215 178.557 144.961 178.91 144.628 179.21C144.295 179.51 143.878 179.743 143.378 179.91C142.885 180.077 142.318 180.16 141.678 180.16C141.325 180.16 140.981 180.127 140.648 180.06C140.321 180 140.008 179.917 139.708 179.81C139.415 179.697 139.138 179.563 138.878 179.41C138.625 179.257 138.398 179.09 138.198 178.91L138.698 178.09C138.758 177.99 138.831 177.913 138.918 177.86C139.011 177.8 139.125 177.77 139.258 177.77C139.398 177.77 139.535 177.817 139.668 177.91C139.808 177.997 139.968 178.093 140.148 178.2C140.335 178.307 140.558 178.407 140.818 178.5C141.078 178.587 141.401 178.63 141.788 178.63C142.108 178.63 142.385 178.593 142.618 178.52C142.851 178.44 143.045 178.333 143.198 178.2C143.351 178.067 143.465 177.917 143.538 177.75C143.611 177.577 143.648 177.393 143.648 177.2C143.648 176.94 143.575 176.727 143.428 176.56C143.281 176.393 143.085 176.25 142.838 176.13C142.598 176.01 142.321 175.903 142.008 175.81C141.701 175.717 141.388 175.617 141.068 175.51C140.748 175.403 140.431 175.28 140.118 175.14C139.811 175 139.535 174.823 139.288 174.61C139.048 174.39 138.855 174.127 138.708 173.82C138.561 173.507 138.488 173.127 138.488 172.68C138.488 172.273 138.568 171.887 138.728 171.52C138.895 171.153 139.135 170.83 139.448 170.55C139.768 170.27 140.158 170.05 140.618 169.89C141.085 169.723 141.621 169.64 142.228 169.64C142.915 169.64 143.538 169.75 144.098 169.97C144.658 170.19 145.128 170.49 145.508 170.87L145.028 171.65ZM155.919 180.16C155.072 180.16 154.419 179.923 153.959 179.45C153.506 178.97 153.279 178.297 153.279 177.43V171.49H152.159C152.039 171.49 151.936 171.453 151.849 171.38C151.762 171.3 151.719 171.183 151.719 171.03V170.16L153.369 169.92L153.839 166.97C153.872 166.857 153.929 166.767 154.009 166.7C154.089 166.627 154.196 166.59 154.329 166.59H155.429V169.94H158.259V171.49H155.429V177.28C155.429 177.647 155.519 177.927 155.699 178.12C155.879 178.313 156.119 178.41 156.419 178.41C156.586 178.41 156.729 178.39 156.849 178.35C156.969 178.303 157.072 178.257 157.159 178.21C157.246 178.157 157.319 178.11 157.379 178.07C157.446 178.023 157.509 178 157.569 178C157.689 178 157.786 178.067 157.859 178.2L158.499 179.25C158.166 179.543 157.772 179.77 157.319 179.93C156.866 180.083 156.399 180.16 155.919 180.16ZM164.285 169.64C165.039 169.64 165.719 169.763 166.325 170.01C166.939 170.257 167.459 170.607 167.885 171.06C168.319 171.513 168.652 172.063 168.885 172.71C169.119 173.357 169.235 174.083 169.235 174.89C169.235 175.697 169.119 176.423 168.885 177.07C168.652 177.717 168.319 178.27 167.885 178.73C167.459 179.183 166.939 179.533 166.325 179.78C165.719 180.027 165.039 180.15 164.285 180.15C163.525 180.15 162.839 180.027 162.225 179.78C161.619 179.533 161.099 179.183 160.665 178.73C160.232 178.27 159.899 177.717 159.665 177.07C159.432 176.423 159.315 175.697 159.315 174.89C159.315 174.083 159.432 173.357 159.665 172.71C159.899 172.063 160.232 171.513 160.665 171.06C161.099 170.607 161.619 170.257 162.225 170.01C162.839 169.763 163.525 169.64 164.285 169.64ZM164.285 178.47C165.205 178.47 165.889 178.163 166.335 177.55C166.789 176.93 167.015 176.047 167.015 174.9C167.015 173.753 166.789 172.87 166.335 172.25C165.889 171.623 165.205 171.31 164.285 171.31C163.352 171.31 162.659 171.623 162.205 172.25C161.752 172.87 161.525 173.753 161.525 174.9C161.525 176.047 161.752 176.93 162.205 177.55C162.659 178.163 163.352 178.47 164.285 178.47ZM183.492 171.8C183.425 171.887 183.362 171.953 183.302 172C183.242 172.047 183.155 172.07 183.042 172.07C182.928 172.07 182.808 172.03 182.682 171.95C182.562 171.87 182.415 171.783 182.242 171.69C182.075 171.59 181.872 171.5 181.632 171.42C181.392 171.34 181.092 171.3 180.732 171.3C180.265 171.3 179.855 171.383 179.502 171.55C179.155 171.717 178.862 171.957 178.622 172.27C178.388 172.577 178.212 172.953 178.092 173.4C177.978 173.84 177.922 174.337 177.922 174.89C177.922 175.463 177.985 175.973 178.112 176.42C178.238 176.867 178.418 177.243 178.652 177.55C178.892 177.857 179.178 178.09 179.512 178.25C179.852 178.41 180.232 178.49 180.652 178.49C181.065 178.49 181.402 178.44 181.662 178.34C181.922 178.24 182.138 178.13 182.312 178.01C182.485 177.89 182.632 177.78 182.752 177.68C182.878 177.58 183.012 177.53 183.152 177.53C183.325 177.53 183.458 177.597 183.552 177.73L184.162 178.52C183.915 178.82 183.642 179.073 183.342 179.28C183.042 179.487 182.725 179.657 182.392 179.79C182.058 179.917 181.712 180.007 181.352 180.06C180.992 180.12 180.628 180.15 180.262 180.15C179.628 180.15 179.035 180.033 178.482 179.8C177.935 179.56 177.455 179.217 177.042 178.77C176.635 178.317 176.312 177.767 176.072 177.12C175.838 176.467 175.722 175.723 175.722 174.89C175.722 174.137 175.828 173.44 176.042 172.8C176.255 172.153 176.565 171.597 176.972 171.13C177.385 170.663 177.895 170.3 178.502 170.04C179.108 169.773 179.808 169.64 180.602 169.64C181.342 169.64 181.992 169.76 182.552 170C183.118 170.24 183.622 170.58 184.062 171.02L183.492 171.8ZM187.921 171.69C188.241 171.043 188.628 170.537 189.081 170.17C189.534 169.797 190.078 169.61 190.711 169.61C190.931 169.61 191.138 169.637 191.331 169.69C191.524 169.737 191.698 169.81 191.851 169.91L191.701 171.53C191.674 171.643 191.631 171.723 191.571 171.77C191.518 171.81 191.444 171.83 191.351 171.83C191.251 171.83 191.108 171.813 190.921 171.78C190.734 171.74 190.538 171.72 190.331 171.72C190.031 171.72 189.764 171.763 189.531 171.85C189.304 171.937 189.098 172.063 188.911 172.23C188.731 172.397 188.571 172.6 188.431 172.84C188.291 173.08 188.161 173.353 188.041 173.66V180H185.891V169.8H187.141C187.368 169.8 187.524 169.843 187.611 169.93C187.698 170.01 187.758 170.153 187.791 170.36L187.921 171.69ZM199.612 173.75C199.612 173.39 199.559 173.057 199.452 172.75C199.352 172.437 199.202 172.167 199.002 171.94C198.802 171.707 198.552 171.527 198.252 171.4C197.959 171.267 197.619 171.2 197.232 171.2C196.452 171.2 195.839 171.423 195.392 171.87C194.946 172.317 194.662 172.943 194.542 173.75H199.612ZM194.482 175.07C194.509 175.65 194.599 176.153 194.752 176.58C194.906 177 195.109 177.35 195.362 177.63C195.622 177.91 195.929 178.12 196.282 178.26C196.642 178.393 197.042 178.46 197.482 178.46C197.902 178.46 198.266 178.413 198.572 178.32C198.879 178.22 199.146 178.113 199.372 178C199.599 177.88 199.792 177.773 199.952 177.68C200.112 177.58 200.259 177.53 200.392 177.53C200.566 177.53 200.699 177.597 200.792 177.73L201.402 178.52C201.149 178.82 200.862 179.073 200.542 179.28C200.222 179.487 199.882 179.657 199.522 179.79C199.162 179.917 198.792 180.007 198.412 180.06C198.032 180.12 197.662 180.15 197.302 180.15C196.596 180.15 195.939 180.033 195.332 179.8C194.732 179.56 194.209 179.21 193.762 178.75C193.322 178.29 192.976 177.72 192.722 177.04C192.476 176.36 192.352 175.577 192.352 174.69C192.352 173.983 192.462 173.323 192.682 172.71C192.909 172.097 193.229 171.563 193.642 171.11C194.062 170.657 194.569 170.3 195.162 170.04C195.762 169.773 196.439 169.64 197.192 169.64C197.819 169.64 198.399 169.743 198.932 169.95C199.466 170.15 199.926 170.447 200.312 170.84C200.699 171.233 200.999 171.717 201.212 172.29C201.432 172.857 201.542 173.503 201.542 174.23C201.542 174.563 201.506 174.787 201.432 174.9C201.359 175.013 201.226 175.07 201.032 175.07H194.482ZM208.997 175.54C208.231 175.567 207.584 175.63 207.057 175.73C206.531 175.823 206.104 175.947 205.777 176.1C205.451 176.247 205.214 176.423 205.067 176.63C204.927 176.837 204.857 177.063 204.857 177.31C204.857 177.55 204.894 177.757 204.967 177.93C205.047 178.097 205.154 178.237 205.287 178.35C205.427 178.457 205.587 178.537 205.767 178.59C205.954 178.637 206.157 178.66 206.377 178.66C206.937 178.66 207.417 178.557 207.817 178.35C208.224 178.137 208.617 177.83 208.997 177.43V175.54ZM203.297 171.22C204.451 170.147 205.824 169.61 207.417 169.61C208.004 169.61 208.524 169.707 208.977 169.9C209.437 170.087 209.821 170.353 210.127 170.7C210.441 171.047 210.677 171.46 210.837 171.94C211.004 172.413 211.087 172.94 211.087 173.52V180H210.127C209.921 180 209.764 179.97 209.657 179.91C209.551 179.843 209.461 179.713 209.387 179.52L209.177 178.69C208.917 178.923 208.661 179.133 208.407 179.32C208.154 179.5 207.891 179.653 207.617 179.78C207.351 179.907 207.061 180 206.747 180.06C206.441 180.127 206.101 180.16 205.727 180.16C205.314 180.16 204.927 180.103 204.567 179.99C204.214 179.877 203.907 179.707 203.647 179.48C203.387 179.247 203.181 178.96 203.027 178.62C202.881 178.28 202.807 177.88 202.807 177.42C202.807 177.027 202.911 176.643 203.117 176.27C203.331 175.897 203.677 175.563 204.157 175.27C204.644 174.97 205.281 174.723 206.067 174.53C206.861 174.337 207.837 174.227 208.997 174.2V173.52C208.997 172.787 208.841 172.24 208.527 171.88C208.214 171.52 207.754 171.34 207.147 171.34C206.734 171.34 206.387 171.393 206.107 171.5C205.827 171.6 205.584 171.71 205.377 171.83C205.171 171.95 204.987 172.063 204.827 172.17C204.667 172.27 204.497 172.32 204.317 172.32C204.171 172.32 204.044 172.283 203.937 172.21C203.837 172.13 203.754 172.033 203.687 171.92L203.297 171.22ZM216.739 180.16C215.892 180.16 215.239 179.923 214.779 179.45C214.326 178.97 214.099 178.297 214.099 177.43V171.49H212.979C212.859 171.49 212.756 171.453 212.669 171.38C212.582 171.3 212.539 171.183 212.539 171.03V170.16L214.189 169.92L214.659 166.97C214.692 166.857 214.749 166.767 214.829 166.7C214.909 166.627 215.016 166.59 215.149 166.59H216.249V169.94H219.079V171.49H216.249V177.28C216.249 177.647 216.339 177.927 216.519 178.12C216.699 178.313 216.939 178.41 217.239 178.41C217.406 178.41 217.549 178.39 217.669 178.35C217.789 178.303 217.892 178.257 217.979 178.21C218.066 178.157 218.139 178.11 218.199 178.07C218.266 178.023 218.329 178 218.389 178C218.509 178 218.606 178.067 218.679 178.2L219.319 179.25C218.986 179.543 218.592 179.77 218.139 179.93C217.686 180.083 217.219 180.16 216.739 180.16ZM227.386 173.75C227.386 173.39 227.332 173.057 227.226 172.75C227.126 172.437 226.976 172.167 226.776 171.94C226.576 171.707 226.326 171.527 226.026 171.4C225.732 171.267 225.392 171.2 225.006 171.2C224.226 171.2 223.612 171.423 223.166 171.87C222.719 172.317 222.436 172.943 222.316 173.75H227.386ZM222.256 175.07C222.282 175.65 222.372 176.153 222.526 176.58C222.679 177 222.882 177.35 223.136 177.63C223.396 177.91 223.702 178.12 224.056 178.26C224.416 178.393 224.816 178.46 225.256 178.46C225.676 178.46 226.039 178.413 226.346 178.32C226.652 178.22 226.919 178.113 227.146 178C227.372 177.88 227.566 177.773 227.726 177.68C227.886 177.58 228.032 177.53 228.166 177.53C228.339 177.53 228.472 177.597 228.566 177.73L229.176 178.52C228.922 178.82 228.636 179.073 228.316 179.28C227.996 179.487 227.656 179.657 227.296 179.79C226.936 179.917 226.566 180.007 226.186 180.06C225.806 180.12 225.436 180.15 225.076 180.15C224.369 180.15 223.712 180.033 223.106 179.8C222.506 179.56 221.982 179.21 221.536 178.75C221.096 178.29 220.749 177.72 220.496 177.04C220.249 176.36 220.126 175.577 220.126 174.69C220.126 173.983 220.236 173.323 220.456 172.71C220.682 172.097 221.002 171.563 221.416 171.11C221.836 170.657 222.342 170.3 222.936 170.04C223.536 169.773 224.212 169.64 224.966 169.64C225.592 169.64 226.172 169.743 226.706 169.95C227.239 170.15 227.699 170.447 228.086 170.84C228.472 171.233 228.772 171.717 228.986 172.29C229.206 172.857 229.316 173.503 229.316 174.23C229.316 174.563 229.279 174.787 229.206 174.9C229.132 175.013 228.999 175.07 228.806 175.07H222.256ZM241.751 175.54C240.985 175.567 240.338 175.63 239.811 175.73C239.285 175.823 238.858 175.947 238.531 176.1C238.205 176.247 237.968 176.423 237.821 176.63C237.681 176.837 237.611 177.063 237.611 177.31C237.611 177.55 237.648 177.757 237.721 177.93C237.801 178.097 237.908 178.237 238.041 178.35C238.181 178.457 238.341 178.537 238.521 178.59C238.708 178.637 238.911 178.66 239.131 178.66C239.691 178.66 240.171 178.557 240.571 178.35C240.978 178.137 241.371 177.83 241.751 177.43V175.54ZM236.051 171.22C237.205 170.147 238.578 169.61 240.171 169.61C240.758 169.61 241.278 169.707 241.731 169.9C242.191 170.087 242.575 170.353 242.881 170.7C243.195 171.047 243.431 171.46 243.591 171.94C243.758 172.413 243.841 172.94 243.841 173.52V180H242.881C242.675 180 242.518 179.97 242.411 179.91C242.305 179.843 242.215 179.713 242.141 179.52L241.931 178.69C241.671 178.923 241.415 179.133 241.161 179.32C240.908 179.5 240.645 179.653 240.371 179.78C240.105 179.907 239.815 180 239.501 180.06C239.195 180.127 238.855 180.16 238.481 180.16C238.068 180.16 237.681 180.103 237.321 179.99C236.968 179.877 236.661 179.707 236.401 179.48C236.141 179.247 235.935 178.96 235.781 178.62C235.635 178.28 235.561 177.88 235.561 177.42C235.561 177.027 235.665 176.643 235.871 176.27C236.085 175.897 236.431 175.563 236.911 175.27C237.398 174.97 238.035 174.723 238.821 174.53C239.615 174.337 240.591 174.227 241.751 174.2V173.52C241.751 172.787 241.595 172.24 241.281 171.88C240.968 171.52 240.508 171.34 239.901 171.34C239.488 171.34 239.141 171.393 238.861 171.5C238.581 171.6 238.338 171.71 238.131 171.83C237.925 171.95 237.741 172.063 237.581 172.17C237.421 172.27 237.251 172.32 237.071 172.32C236.925 172.32 236.798 172.283 236.691 172.21C236.591 172.13 236.508 172.033 236.441 171.92L236.051 171.22ZM252.03 180V171.51L251.03 171.37C250.864 171.337 250.727 171.277 250.62 171.19C250.52 171.103 250.47 170.98 250.47 170.82V169.94H252.03V169.08C252.03 168.5 252.114 167.98 252.28 167.52C252.454 167.06 252.697 166.67 253.01 166.35C253.33 166.03 253.717 165.787 254.17 165.62C254.624 165.447 255.134 165.36 255.7 165.36C255.934 165.36 256.154 165.377 256.36 165.41C256.574 165.443 256.78 165.493 256.98 165.56L256.94 166.64C256.927 166.82 256.837 166.927 256.67 166.96C256.51 166.993 256.307 167.01 256.06 167.01C255.76 167.01 255.49 167.047 255.25 167.12C255.01 167.187 254.804 167.303 254.63 167.47C254.464 167.637 254.334 167.857 254.24 168.13C254.154 168.403 254.11 168.743 254.11 169.15V169.94H256.9V171.49H254.18V180H252.03ZM260.46 171.69C260.78 171.043 261.167 170.537 261.62 170.17C262.073 169.797 262.617 169.61 263.25 169.61C263.47 169.61 263.677 169.637 263.87 169.69C264.063 169.737 264.237 169.81 264.39 169.91L264.24 171.53C264.213 171.643 264.17 171.723 264.11 171.77C264.057 171.81 263.983 171.83 263.89 171.83C263.79 171.83 263.647 171.813 263.46 171.78C263.273 171.74 263.077 171.72 262.87 171.72C262.57 171.72 262.303 171.763 262.07 171.85C261.843 171.937 261.637 172.063 261.45 172.23C261.27 172.397 261.11 172.6 260.97 172.84C260.83 173.08 260.7 173.353 260.58 173.66V180H258.43V169.8H259.68C259.907 169.8 260.063 169.843 260.15 169.93C260.237 170.01 260.297 170.153 260.33 170.36L260.46 171.69ZM272.151 173.75C272.151 173.39 272.098 173.057 271.991 172.75C271.891 172.437 271.741 172.167 271.541 171.94C271.341 171.707 271.091 171.527 270.791 171.4C270.498 171.267 270.158 171.2 269.771 171.2C268.991 171.2 268.378 171.423 267.931 171.87C267.485 172.317 267.201 172.943 267.081 173.75H272.151ZM267.021 175.07C267.048 175.65 267.138 176.153 267.291 176.58C267.445 177 267.648 177.35 267.901 177.63C268.161 177.91 268.468 178.12 268.821 178.26C269.181 178.393 269.581 178.46 270.021 178.46C270.441 178.46 270.805 178.413 271.111 178.32C271.418 178.22 271.685 178.113 271.911 178C272.138 177.88 272.331 177.773 272.491 177.68C272.651 177.58 272.798 177.53 272.931 177.53C273.105 177.53 273.238 177.597 273.331 177.73L273.941 178.52C273.688 178.82 273.401 179.073 273.081 179.28C272.761 179.487 272.421 179.657 272.061 179.79C271.701 179.917 271.331 180.007 270.951 180.06C270.571 180.12 270.201 180.15 269.841 180.15C269.135 180.15 268.478 180.033 267.871 179.8C267.271 179.56 266.748 179.21 266.301 178.75C265.861 178.29 265.515 177.72 265.261 177.04C265.015 176.36 264.891 175.577 264.891 174.69C264.891 173.983 265.001 173.323 265.221 172.71C265.448 172.097 265.768 171.563 266.181 171.11C266.601 170.657 267.108 170.3 267.701 170.04C268.301 169.773 268.978 169.64 269.731 169.64C270.358 169.64 270.938 169.743 271.471 169.95C272.005 170.15 272.465 170.447 272.851 170.84C273.238 171.233 273.538 171.717 273.751 172.29C273.971 172.857 274.081 173.503 274.081 174.23C274.081 174.563 274.045 174.787 273.971 174.9C273.898 175.013 273.765 175.07 273.571 175.07H267.021ZM282.776 173.75C282.776 173.39 282.723 173.057 282.616 172.75C282.516 172.437 282.366 172.167 282.166 171.94C281.966 171.707 281.716 171.527 281.416 171.4C281.123 171.267 280.783 171.2 280.396 171.2C279.616 171.2 279.003 171.423 278.556 171.87C278.11 172.317 277.826 172.943 277.706 173.75H282.776ZM277.646 175.07C277.673 175.65 277.763 176.153 277.916 176.58C278.07 177 278.273 177.35 278.526 177.63C278.786 177.91 279.093 178.12 279.446 178.26C279.806 178.393 280.206 178.46 280.646 178.46C281.066 178.46 281.43 178.413 281.736 178.32C282.043 178.22 282.31 178.113 282.536 178C282.763 177.88 282.956 177.773 283.116 177.68C283.276 177.58 283.423 177.53 283.556 177.53C283.73 177.53 283.863 177.597 283.956 177.73L284.566 178.52C284.313 178.82 284.026 179.073 283.706 179.28C283.386 179.487 283.046 179.657 282.686 179.79C282.326 179.917 281.956 180.007 281.576 180.06C281.196 180.12 280.826 180.15 280.466 180.15C279.76 180.15 279.103 180.033 278.496 179.8C277.896 179.56 277.373 179.21 276.926 178.75C276.486 178.29 276.14 177.72 275.886 177.04C275.64 176.36 275.516 175.577 275.516 174.69C275.516 173.983 275.626 173.323 275.846 172.71C276.073 172.097 276.393 171.563 276.806 171.11C277.226 170.657 277.733 170.3 278.326 170.04C278.926 169.773 279.603 169.64 280.356 169.64C280.983 169.64 281.563 169.743 282.096 169.95C282.63 170.15 283.09 170.447 283.476 170.84C283.863 171.233 284.163 171.717 284.376 172.29C284.596 172.857 284.706 173.503 284.706 174.23C284.706 174.563 284.67 174.787 284.596 174.9C284.523 175.013 284.39 175.07 284.196 175.07H277.646ZM287.671 179.99C287.478 179.99 287.301 179.957 287.141 179.89C286.981 179.817 286.841 179.72 286.721 179.6C286.608 179.473 286.518 179.327 286.451 179.16C286.391 178.993 286.361 178.81 286.361 178.61C286.361 178.437 286.391 178.273 286.451 178.12C286.518 177.967 286.608 177.833 286.721 177.72C286.841 177.607 286.981 177.52 287.141 177.46C287.308 177.393 287.488 177.36 287.681 177.36C287.908 177.36 288.108 177.403 288.281 177.49C288.455 177.57 288.598 177.683 288.711 177.83C288.831 177.97 288.918 178.137 288.971 178.33C289.031 178.517 289.061 178.717 289.061 178.93C289.061 179.237 289.015 179.56 288.921 179.9C288.835 180.24 288.701 180.577 288.521 180.91C288.348 181.25 288.131 181.58 287.871 181.9C287.618 182.22 287.328 182.513 287.001 182.78L286.631 182.44C286.578 182.387 286.538 182.337 286.511 182.29C286.491 182.243 286.481 182.183 286.481 182.11C286.481 181.997 286.538 181.89 286.651 181.79C286.718 181.717 286.805 181.62 286.911 181.5C287.018 181.38 287.125 181.243 287.231 181.09C287.338 180.937 287.435 180.767 287.521 180.58C287.615 180.393 287.681 180.197 287.721 179.99H287.671ZM29.9995 207V198.51L28.9995 198.37C28.8328 198.337 28.6962 198.277 28.5895 198.19C28.4895 198.103 28.4395 197.98 28.4395 197.82V196.94H29.9995V196.08C29.9995 195.5 30.0828 194.98 30.2495 194.52C30.4228 194.06 30.6662 193.67 30.9795 193.35C31.2995 193.03 31.6862 192.787 32.1395 192.62C32.5928 192.447 33.1028 192.36 33.6695 192.36C33.9028 192.36 34.1228 192.377 34.3295 192.41C34.5428 192.443 34.7495 192.493 34.9495 192.56L34.9095 193.64C34.8962 193.82 34.8062 193.927 34.6395 193.96C34.4795 193.993 34.2762 194.01 34.0295 194.01C33.7295 194.01 33.4595 194.047 33.2195 194.12C32.9795 194.187 32.7728 194.303 32.5995 194.47C32.4328 194.637 32.3028 194.857 32.2095 195.13C32.1228 195.403 32.0795 195.743 32.0795 196.15V196.94H34.8695V198.49H32.1495V207H29.9995ZM41.8103 202.54C41.0436 202.567 40.3969 202.63 39.8703 202.73C39.3436 202.823 38.9169 202.947 38.5903 203.1C38.2636 203.247 38.0269 203.423 37.8803 203.63C37.7403 203.837 37.6703 204.063 37.6703 204.31C37.6703 204.55 37.7069 204.757 37.7803 204.93C37.8603 205.097 37.9669 205.237 38.1003 205.35C38.2403 205.457 38.4003 205.537 38.5803 205.59C38.7669 205.637 38.9703 205.66 39.1903 205.66C39.7503 205.66 40.2303 205.557 40.6303 205.35C41.0369 205.137 41.4303 204.83 41.8103 204.43V202.54ZM36.1103 198.22C37.2636 197.147 38.6369 196.61 40.2303 196.61C40.8169 196.61 41.3369 196.707 41.7903 196.9C42.2503 197.087 42.6336 197.353 42.9403 197.7C43.2536 198.047 43.4903 198.46 43.6503 198.94C43.8169 199.413 43.9003 199.94 43.9003 200.52V207H42.9403C42.7336 207 42.5769 206.97 42.4703 206.91C42.3636 206.843 42.2736 206.713 42.2003 206.52L41.9903 205.69C41.7303 205.923 41.4736 206.133 41.2203 206.32C40.9669 206.5 40.7036 206.653 40.4303 206.78C40.1636 206.907 39.8736 207 39.5603 207.06C39.2536 207.127 38.9136 207.16 38.5403 207.16C38.1269 207.16 37.7403 207.103 37.3803 206.99C37.0269 206.877 36.7203 206.707 36.4603 206.48C36.2003 206.247 35.9936 205.96 35.8403 205.62C35.6936 205.28 35.6203 204.88 35.6203 204.42C35.6203 204.027 35.7236 203.643 35.9303 203.27C36.1436 202.897 36.4903 202.563 36.9703 202.27C37.4569 201.97 38.0936 201.723 38.8803 201.53C39.6736 201.337 40.6503 201.227 41.8103 201.2V200.52C41.8103 199.787 41.6536 199.24 41.3403 198.88C41.0269 198.52 40.5669 198.34 39.9603 198.34C39.5469 198.34 39.2003 198.393 38.9203 198.5C38.6403 198.6 38.3969 198.71 38.1903 198.83C37.9836 198.95 37.8003 199.063 37.6403 199.17C37.4803 199.27 37.3103 199.32 37.1303 199.32C36.9836 199.32 36.8569 199.283 36.7503 199.21C36.6503 199.13 36.5669 199.033 36.5003 198.92L36.1103 198.22ZM48.6589 196.8V207H46.5089V196.8H48.6589ZM49.0189 193.72C49.0189 193.913 48.9789 194.097 48.8989 194.27C48.8255 194.443 48.7222 194.597 48.5889 194.73C48.4555 194.857 48.2989 194.96 48.1189 195.04C47.9455 195.113 47.7589 195.15 47.5589 195.15C47.3655 195.15 47.1822 195.113 47.0089 195.04C46.8422 194.96 46.6955 194.857 46.5689 194.73C46.4422 194.597 46.3389 194.443 46.2589 194.27C46.1855 194.097 46.1489 193.913 46.1489 193.72C46.1489 193.52 46.1855 193.333 46.2589 193.16C46.3389 192.987 46.4422 192.837 46.5689 192.71C46.6955 192.577 46.8422 192.473 47.0089 192.4C47.1822 192.32 47.3655 192.28 47.5589 192.28C47.7589 192.28 47.9455 192.32 48.1189 192.4C48.2989 192.473 48.4555 192.577 48.5889 192.71C48.7222 192.837 48.8255 192.987 48.8989 193.16C48.9789 193.333 49.0189 193.52 49.0189 193.72ZM53.3903 198.69C53.7103 198.043 54.0969 197.537 54.5503 197.17C55.0036 196.797 55.5469 196.61 56.1803 196.61C56.4003 196.61 56.6069 196.637 56.8003 196.69C56.9936 196.737 57.1669 196.81 57.3203 196.91L57.1703 198.53C57.1436 198.643 57.1003 198.723 57.0403 198.77C56.9869 198.81 56.9136 198.83 56.8203 198.83C56.7203 198.83 56.5769 198.813 56.3903 198.78C56.2036 198.74 56.0069 198.72 55.8003 198.72C55.5003 198.72 55.2336 198.763 55.0003 198.85C54.7736 198.937 54.5669 199.063 54.3803 199.23C54.2003 199.397 54.0403 199.6 53.9003 199.84C53.7603 200.08 53.6303 200.353 53.5103 200.66V207H51.3603V196.8H52.6103C52.8369 196.8 52.9936 196.843 53.0803 196.93C53.1669 197.01 53.2269 197.153 53.2603 197.36L53.3903 198.69ZM68.7439 202.54C67.9772 202.567 67.3304 202.63 66.8038 202.73C66.2771 202.823 65.8504 202.947 65.5238 203.1C65.1971 203.247 64.9605 203.423 64.8139 203.63C64.6739 203.837 64.6039 204.063 64.6039 204.31C64.6039 204.55 64.6405 204.757 64.7139 204.93C64.7939 205.097 64.9005 205.237 65.0339 205.35C65.1739 205.457 65.3338 205.537 65.5138 205.59C65.7004 205.637 65.9038 205.66 66.1238 205.66C66.6838 205.66 67.1639 205.557 67.5639 205.35C67.9705 205.137 68.3639 204.83 68.7439 204.43V202.54ZM63.0439 198.22C64.1972 197.147 65.5704 196.61 67.1638 196.61C67.7504 196.61 68.2705 196.707 68.7239 196.9C69.1839 197.087 69.5671 197.353 69.8738 197.7C70.1871 198.047 70.4238 198.46 70.5838 198.94C70.7504 199.413 70.8338 199.94 70.8338 200.52V207H69.8738C69.6671 207 69.5105 206.97 69.4039 206.91C69.2972 206.843 69.2072 206.713 69.1339 206.52L68.9239 205.69C68.6639 205.923 68.4072 206.133 68.1539 206.32C67.9005 206.5 67.6372 206.653 67.3639 206.78C67.0972 206.907 66.8072 207 66.4939 207.06C66.1872 207.127 65.8472 207.16 65.4739 207.16C65.0605 207.16 64.6739 207.103 64.3139 206.99C63.9605 206.877 63.6539 206.707 63.3939 206.48C63.1339 206.247 62.9271 205.96 62.7738 205.62C62.6271 205.28 62.5539 204.88 62.5539 204.42C62.5539 204.027 62.6572 203.643 62.8639 203.27C63.0772 202.897 63.4239 202.563 63.9039 202.27C64.3905 201.97 65.0272 201.723 65.8139 201.53C66.6072 201.337 67.5839 201.227 68.7439 201.2V200.52C68.7439 199.787 68.5871 199.24 68.2738 198.88C67.9604 198.52 67.5005 198.34 66.8939 198.34C66.4805 198.34 66.1339 198.393 65.8539 198.5C65.5739 198.6 65.3304 198.71 65.1238 198.83C64.9171 198.95 64.7339 199.063 64.5739 199.17C64.4139 199.27 64.2439 199.32 64.0639 199.32C63.9172 199.32 63.7905 199.283 63.6839 199.21C63.5839 199.13 63.5005 199.033 63.4339 198.92L63.0439 198.22ZM75.3624 198.15C75.5824 197.923 75.809 197.72 76.0424 197.54C76.2824 197.353 76.5358 197.193 76.8025 197.06C77.0691 196.927 77.3525 196.823 77.6525 196.75C77.9525 196.677 78.2791 196.64 78.6325 196.64C79.1925 196.64 79.6824 196.733 80.1024 196.92C80.529 197.107 80.8857 197.37 81.1724 197.71C81.4657 198.05 81.6858 198.46 81.8325 198.94C81.9791 199.413 82.0525 199.937 82.0525 200.51V207H79.9125V200.51C79.9125 199.823 79.7524 199.29 79.4324 198.91C79.119 198.53 78.639 198.34 77.9924 198.34C77.5124 198.34 77.0658 198.45 76.6525 198.67C76.2458 198.89 75.8624 199.19 75.5024 199.57V207H73.3524V196.8H74.6525C74.9458 196.8 75.1324 196.937 75.2124 197.21L75.3624 198.15ZM91.0733 199.31C90.7733 198.923 90.4434 198.653 90.0834 198.5C89.7234 198.347 89.3334 198.27 88.9134 198.27C88.0734 198.27 87.4167 198.58 86.9434 199.2C86.4701 199.813 86.2334 200.723 86.2334 201.93C86.2334 202.557 86.2866 203.093 86.3933 203.54C86.5 203.98 86.6533 204.34 86.8533 204.62C87.0533 204.9 87.2967 205.103 87.5834 205.23C87.8701 205.357 88.1934 205.42 88.5534 205.42C89.1001 205.42 89.57 205.303 89.9633 205.07C90.3633 204.83 90.7333 204.493 91.0733 204.06V199.31ZM93.2234 192.2V207H91.9233C91.6366 207 91.4534 206.863 91.3734 206.59L91.1833 205.48C90.7566 205.98 90.2701 206.383 89.7234 206.69C89.1834 206.997 88.5534 207.15 87.8334 207.15C87.2601 207.15 86.7401 207.037 86.2734 206.81C85.8067 206.577 85.4066 206.24 85.0733 205.8C84.74 205.36 84.4801 204.817 84.2934 204.17C84.1134 203.517 84.0234 202.77 84.0234 201.93C84.0234 201.17 84.1233 200.467 84.3233 199.82C84.53 199.173 84.8234 198.613 85.2034 198.14C85.5834 197.66 86.0434 197.287 86.5834 197.02C87.1301 196.747 87.7401 196.61 88.4134 196.61C89.0134 196.61 89.5234 196.707 89.9434 196.9C90.3634 197.087 90.74 197.35 91.0733 197.69V192.2H93.2234ZM105.242 196.64C105.996 196.64 106.676 196.763 107.282 197.01C107.896 197.257 108.416 197.607 108.842 198.06C109.276 198.513 109.609 199.063 109.842 199.71C110.076 200.357 110.192 201.083 110.192 201.89C110.192 202.697 110.076 203.423 109.842 204.07C109.609 204.717 109.276 205.27 108.842 205.73C108.416 206.183 107.896 206.533 107.282 206.78C106.676 207.027 105.996 207.15 105.242 207.15C104.482 207.15 103.796 207.027 103.182 206.78C102.576 206.533 102.056 206.183 101.622 205.73C101.189 205.27 100.856 204.717 100.622 204.07C100.389 203.423 100.272 202.697 100.272 201.89C100.272 201.083 100.389 200.357 100.622 199.71C100.856 199.063 101.189 198.513 101.622 198.06C102.056 197.607 102.576 197.257 103.182 197.01C103.796 196.763 104.482 196.64 105.242 196.64ZM105.242 205.47C106.162 205.47 106.846 205.163 107.292 204.55C107.746 203.93 107.972 203.047 107.972 201.9C107.972 200.753 107.746 199.87 107.292 199.25C106.846 198.623 106.162 198.31 105.242 198.31C104.309 198.31 103.616 198.623 103.162 199.25C102.709 199.87 102.482 200.753 102.482 201.9C102.482 203.047 102.709 203.93 103.162 204.55C103.616 205.163 104.309 205.47 105.242 205.47ZM114.408 204.44C114.708 204.827 115.035 205.1 115.388 205.26C115.748 205.413 116.145 205.49 116.578 205.49C117.418 205.49 118.072 205.183 118.538 204.57C119.012 203.957 119.248 203.043 119.248 201.83C119.248 201.203 119.195 200.67 119.088 200.23C118.982 199.783 118.828 199.42 118.628 199.14C118.428 198.86 118.185 198.657 117.898 198.53C117.612 198.403 117.288 198.34 116.928 198.34C116.382 198.34 115.908 198.46 115.508 198.7C115.115 198.933 114.748 199.27 114.408 199.71V204.44ZM114.298 198.28C114.725 197.78 115.208 197.377 115.748 197.07C116.295 196.763 116.928 196.61 117.648 196.61C118.222 196.61 118.742 196.727 119.208 196.96C119.675 197.187 120.075 197.52 120.408 197.96C120.742 198.4 120.998 198.947 121.178 199.6C121.365 200.247 121.458 200.99 121.458 201.83C121.458 202.583 121.355 203.287 121.148 203.94C120.948 204.587 120.658 205.15 120.278 205.63C119.898 206.103 119.438 206.477 118.898 206.75C118.358 207.017 117.748 207.15 117.068 207.15C116.468 207.15 115.958 207.053 115.538 206.86C115.125 206.667 114.748 206.4 114.408 206.06V210.39H112.258V196.8H113.558C113.852 196.8 114.038 196.937 114.118 197.21L114.298 198.28ZM130.237 200.75C130.237 200.39 130.184 200.057 130.077 199.75C129.977 199.437 129.827 199.167 129.627 198.94C129.427 198.707 129.177 198.527 128.877 198.4C128.584 198.267 128.244 198.2 127.857 198.2C127.077 198.2 126.464 198.423 126.017 198.87C125.571 199.317 125.287 199.943 125.167 200.75H130.237ZM125.107 202.07C125.134 202.65 125.224 203.153 125.377 203.58C125.531 204 125.734 204.35 125.987 204.63C126.247 204.91 126.554 205.12 126.907 205.26C127.267 205.393 127.667 205.46 128.107 205.46C128.527 205.46 128.891 205.413 129.197 205.32C129.504 205.22 129.771 205.113 129.997 205C130.224 204.88 130.417 204.773 130.577 204.68C130.737 204.58 130.884 204.53 131.017 204.53C131.191 204.53 131.324 204.597 131.417 204.73L132.027 205.52C131.774 205.82 131.487 206.073 131.167 206.28C130.847 206.487 130.507 206.657 130.147 206.79C129.787 206.917 129.417 207.007 129.037 207.06C128.657 207.12 128.287 207.15 127.927 207.15C127.221 207.15 126.564 207.033 125.957 206.8C125.357 206.56 124.834 206.21 124.387 205.75C123.947 205.29 123.601 204.72 123.347 204.04C123.101 203.36 122.977 202.577 122.977 201.69C122.977 200.983 123.087 200.323 123.307 199.71C123.534 199.097 123.854 198.563 124.267 198.11C124.687 197.657 125.194 197.3 125.787 197.04C126.387 196.773 127.064 196.64 127.817 196.64C128.444 196.64 129.024 196.743 129.557 196.95C130.091 197.15 130.551 197.447 130.937 197.84C131.324 198.233 131.624 198.717 131.837 199.29C132.057 199.857 132.167 200.503 132.167 201.23C132.167 201.563 132.131 201.787 132.057 201.9C131.984 202.013 131.851 202.07 131.657 202.07H125.107ZM136.182 198.15C136.402 197.923 136.629 197.72 136.862 197.54C137.102 197.353 137.356 197.193 137.622 197.06C137.889 196.927 138.172 196.823 138.472 196.75C138.772 196.677 139.099 196.64 139.452 196.64C140.012 196.64 140.502 196.733 140.922 196.92C141.349 197.107 141.706 197.37 141.992 197.71C142.286 198.05 142.506 198.46 142.652 198.94C142.799 199.413 142.872 199.937 142.872 200.51V207H140.732V200.51C140.732 199.823 140.572 199.29 140.252 198.91C139.939 198.53 139.459 198.34 138.812 198.34C138.332 198.34 137.886 198.45 137.472 198.67C137.066 198.89 136.682 199.19 136.322 199.57V207H134.172V196.8H135.472C135.766 196.8 135.952 196.937 136.032 197.21L136.182 198.15ZM151.054 207V198.51L150.054 198.37C149.887 198.337 149.75 198.277 149.644 198.19C149.544 198.103 149.494 197.98 149.494 197.82V196.94H151.054V196.08C151.054 195.5 151.137 194.98 151.304 194.52C151.477 194.06 151.72 193.67 152.034 193.35C152.354 193.03 152.74 192.787 153.194 192.62C153.647 192.447 154.157 192.36 154.724 192.36C154.957 192.36 155.177 192.377 155.384 192.41C155.597 192.443 155.804 192.493 156.004 192.56L155.964 193.64C155.95 193.82 155.86 193.927 155.694 193.96C155.534 193.993 155.33 194.01 155.084 194.01C154.784 194.01 154.514 194.047 154.274 194.12C154.034 194.187 153.827 194.303 153.654 194.47C153.487 194.637 153.357 194.857 153.264 195.13C153.177 195.403 153.134 195.743 153.134 196.15V196.94H155.924V198.49H153.204V207H151.054ZM166.054 196.8V207H164.754C164.467 207 164.284 206.863 164.204 206.59L164.044 205.64C163.83 205.867 163.604 206.073 163.364 206.26C163.13 206.447 162.88 206.607 162.614 206.74C162.347 206.873 162.06 206.977 161.754 207.05C161.454 207.123 161.13 207.16 160.784 207.16C160.224 207.16 159.73 207.067 159.304 206.88C158.877 206.693 158.517 206.43 158.224 206.09C157.937 205.75 157.72 205.343 157.574 204.87C157.427 204.39 157.354 203.863 157.354 203.29V196.8H159.504V203.29C159.504 203.977 159.66 204.51 159.974 204.89C160.294 205.27 160.777 205.46 161.424 205.46C161.897 205.46 162.337 205.353 162.744 205.14C163.157 204.92 163.544 204.62 163.904 204.24V196.8H166.054ZM171.934 207.16C171.088 207.16 170.434 206.923 169.974 206.45C169.521 205.97 169.294 205.297 169.294 204.43V198.49H168.174C168.054 198.49 167.951 198.453 167.864 198.38C167.778 198.3 167.734 198.183 167.734 198.03V197.16L169.384 196.92L169.854 193.97C169.888 193.857 169.944 193.767 170.024 193.7C170.104 193.627 170.211 193.59 170.344 193.59H171.444V196.94H174.274V198.49H171.444V204.28C171.444 204.647 171.534 204.927 171.714 205.12C171.894 205.313 172.134 205.41 172.434 205.41C172.601 205.41 172.744 205.39 172.864 205.35C172.984 205.303 173.088 205.257 173.174 205.21C173.261 205.157 173.334 205.11 173.394 205.07C173.461 205.023 173.524 205 173.584 205C173.704 205 173.801 205.067 173.874 205.2L174.514 206.25C174.181 206.543 173.788 206.77 173.334 206.93C172.881 207.083 172.414 207.16 171.934 207.16ZM184.569 196.8V207H183.269C182.982 207 182.799 206.863 182.719 206.59L182.559 205.64C182.346 205.867 182.119 206.073 181.879 206.26C181.646 206.447 181.396 206.607 181.129 206.74C180.862 206.873 180.576 206.977 180.269 207.05C179.969 207.123 179.646 207.16 179.299 207.16C178.739 207.16 178.246 207.067 177.819 206.88C177.392 206.693 177.032 206.43 176.739 206.09C176.452 205.75 176.236 205.343 176.089 204.87C175.942 204.39 175.869 203.863 175.869 203.29V196.8H178.019V203.29C178.019 203.977 178.176 204.51 178.489 204.89C178.809 205.27 179.292 205.46 179.939 205.46C180.412 205.46 180.852 205.353 181.259 205.14C181.672 204.92 182.059 204.62 182.419 204.24V196.8H184.569ZM189.21 198.69C189.53 198.043 189.917 197.537 190.37 197.17C190.823 196.797 191.367 196.61 192 196.61C192.22 196.61 192.427 196.637 192.62 196.69C192.813 196.737 192.987 196.81 193.14 196.91L192.99 198.53C192.963 198.643 192.92 198.723 192.86 198.77C192.807 198.81 192.733 198.83 192.64 198.83C192.54 198.83 192.397 198.813 192.21 198.78C192.023 198.74 191.827 198.72 191.62 198.72C191.32 198.72 191.053 198.763 190.82 198.85C190.593 198.937 190.387 199.063 190.2 199.23C190.02 199.397 189.86 199.6 189.72 199.84C189.58 200.08 189.45 200.353 189.33 200.66V207H187.18V196.8H188.43C188.657 196.8 188.813 196.843 188.9 196.93C188.987 197.01 189.047 197.153 189.08 197.36L189.21 198.69ZM200.901 200.75C200.901 200.39 200.848 200.057 200.741 199.75C200.641 199.437 200.491 199.167 200.291 198.94C200.091 198.707 199.841 198.527 199.541 198.4C199.248 198.267 198.908 198.2 198.521 198.2C197.741 198.2 197.128 198.423 196.681 198.87C196.235 199.317 195.951 199.943 195.831 200.75H200.901ZM195.771 202.07C195.798 202.65 195.888 203.153 196.041 203.58C196.195 204 196.398 204.35 196.651 204.63C196.911 204.91 197.218 205.12 197.571 205.26C197.931 205.393 198.331 205.46 198.771 205.46C199.191 205.46 199.555 205.413 199.861 205.32C200.168 205.22 200.435 205.113 200.661 205C200.888 204.88 201.081 204.773 201.241 204.68C201.401 204.58 201.548 204.53 201.681 204.53C201.855 204.53 201.988 204.597 202.081 204.73L202.691 205.52C202.438 205.82 202.151 206.073 201.831 206.28C201.511 206.487 201.171 206.657 200.811 206.79C200.451 206.917 200.081 207.007 199.701 207.06C199.321 207.12 198.951 207.15 198.591 207.15C197.885 207.15 197.228 207.033 196.621 206.8C196.021 206.56 195.498 206.21 195.051 205.75C194.611 205.29 194.265 204.72 194.011 204.04C193.765 203.36 193.641 202.577 193.641 201.69C193.641 200.983 193.751 200.323 193.971 199.71C194.198 199.097 194.518 198.563 194.931 198.11C195.351 197.657 195.858 197.3 196.451 197.04C197.051 196.773 197.728 196.64 198.481 196.64C199.108 196.64 199.688 196.743 200.221 196.95C200.755 197.15 201.215 197.447 201.601 197.84C201.988 198.233 202.288 198.717 202.501 199.29C202.721 199.857 202.831 200.503 202.831 201.23C202.831 201.563 202.795 201.787 202.721 201.9C202.648 202.013 202.515 202.07 202.321 202.07H195.771ZM204.506 205.76C204.506 205.567 204.54 205.387 204.606 205.22C204.68 205.047 204.776 204.897 204.896 204.77C205.023 204.643 205.17 204.543 205.336 204.47C205.51 204.397 205.693 204.36 205.886 204.36C206.08 204.36 206.26 204.397 206.426 204.47C206.6 204.543 206.75 204.643 206.876 204.77C207.003 204.897 207.103 205.047 207.176 205.22C207.25 205.387 207.286 205.567 207.286 205.76C207.286 205.96 207.25 206.143 207.176 206.31C207.103 206.477 207.003 206.623 206.876 206.75C206.75 206.877 206.6 206.973 206.426 207.04C206.26 207.113 206.08 207.15 205.886 207.15C205.693 207.15 205.51 207.113 205.336 207.04C205.17 206.973 205.023 206.877 204.896 206.75C204.776 206.623 204.68 206.477 204.606 206.31C204.54 206.143 204.506 205.96 204.506 205.76Z" fill="#231F20"/>
<path d="M48.0801 47.4815C48.0801 64.9117 62.2046 79.0362 79.6348 79.0362C84.5033 79.0362 89.0862 77.9092 93.2034 75.9408V38H49.5376C48.5909 40.9902 48.0801 44.1757 48.0801 47.4815Z" fill="#74DAF0"/>
<path d="M37.0662 91.7785C40.6678 91.7785 43.5875 88.8588 43.5875 85.2572C43.5875 81.6555 40.6678 78.7358 37.0662 78.7358C33.4645 78.7358 30.5449 81.6555 30.5449 85.2572C30.5449 88.8588 33.4645 91.7785 37.0662 91.7785Z" fill="white"/>
<path d="M50.0175 108.623C49.5818 101.846 43.962 96.4819 37.0801 96.4819C30.1981 96.4819 24.5634 101.846 24.1426 108.623H50.0175Z" fill="#2DD4BF"/>
<path d="M77.2303 91.7785C80.832 91.7785 83.7517 88.8588 83.7517 85.2572C83.7517 81.6555 80.832 78.7358 77.2303 78.7358C73.6287 78.7358 70.709 81.6555 70.709 85.2572C70.709 88.8588 73.6287 91.7785 77.2303 91.7785Z" fill="white"/>
<path d="M90.1679 108.623C89.7321 101.846 84.1124 96.4819 77.2304 96.4819C70.3485 96.4819 64.7137 101.846 64.293 108.623H90.1679Z" fill="#92E3A9"/>
<path d="M62.4598 47.316V39.5024H30.1387V59.1716H34.7667V66.2338L40.8072 59.1716H46.2917" fill="#2DD4BF"/>
<path d="M78.6271 47.3159V66.985H73.9991V74.0473L67.9586 66.985H46.291V47.3159H78.6271Z" fill="#E9F4BC"/>
<path d="M29.418 85.2572C29.418 89.4795 32.8439 92.9054 37.0663 92.9054C41.2886 92.9054 44.7145 89.4795 44.7145 85.2572C44.7145 81.0348 41.2886 77.6089 37.0663 77.6089C32.8439 77.6089 29.418 81.0499 29.418 85.2572ZM42.4606 85.2572C42.4606 88.2323 40.0414 90.6515 37.0663 90.6515C34.0911 90.6515 31.6719 88.2323 31.6719 85.2572C31.6719 82.282 34.0911 79.8628 37.0663 79.8628C40.0414 79.8628 42.4606 82.282 42.4606 85.2572Z" fill="black"/>
<path d="M37.0658 95.3394C29.658 95.3394 23.4672 101.139 23.0014 108.547C22.9864 108.863 23.0916 109.163 23.3019 109.389C23.5123 109.614 23.8128 109.749 24.1284 109.749H50.0183C50.3338 109.749 50.6344 109.614 50.8447 109.389C51.0551 109.163 51.1603 108.863 51.1452 108.547C50.6644 101.139 44.4737 95.3394 37.0658 95.3394ZM25.3906 107.48C26.3372 101.846 31.2507 97.5933 37.0658 97.5933C42.8809 97.5933 47.8095 101.846 48.7411 107.48H25.3906Z" fill="black"/>
<path d="M69.582 85.2572C69.582 89.4795 73.0079 92.9054 77.2302 92.9054C81.4526 92.9054 84.8785 89.4795 84.8785 85.2572C84.8785 81.0348 81.4526 77.6089 77.2302 77.6089C73.0079 77.6089 69.582 81.0499 69.582 85.2572ZM82.6246 85.2572C82.6246 88.2323 80.2054 90.6515 77.2302 90.6515C74.2551 90.6515 71.8359 88.2323 71.8359 85.2572C71.8359 82.282 74.2551 79.8628 77.2302 79.8628C80.2054 79.8628 82.6246 82.282 82.6246 85.2572Z" fill="black"/>
<path d="M77.2299 95.3394C69.822 95.3394 63.6313 101.139 63.1655 108.547C63.1504 108.863 63.2556 109.163 63.466 109.389C63.6763 109.614 63.9769 109.749 64.2924 109.749H90.1823C90.4979 109.749 90.7984 109.614 91.0088 109.389C91.2191 109.163 91.3243 108.863 91.3093 108.547C90.8134 101.139 84.6377 95.3394 77.2299 95.3394ZM65.5396 107.48C66.4862 101.846 71.3998 97.5933 77.2148 97.5933C83.045 97.5933 87.9585 101.846 88.8901 107.48H65.5396Z" fill="black"/>
<path d="M46.3067 53.7925C46.9291 53.7925 47.4336 53.2879 47.4336 52.6655C47.4336 52.0431 46.9291 51.5386 46.3067 51.5386C45.6843 51.5386 45.1797 52.0431 45.1797 52.6655C45.1797 53.2879 45.6843 53.7925 46.3067 53.7925Z" fill="black"/>
<path d="M30.1387 60.2989H33.6398V66.2342C33.6398 66.7 33.9403 67.1207 34.376 67.286C34.4963 67.3311 34.6315 67.3612 34.7667 67.3612C35.0823 67.3612 35.3978 67.2259 35.6232 66.9705L41.3331 60.2989H45.1798V67.0005C45.1798 67.3011 45.3 67.5866 45.5104 67.7969C45.7207 68.0073 46.0062 68.1275 46.3068 68.1275H67.4484L73.1433 74.7991C73.3687 75.0545 73.6692 75.1897 73.9998 75.1897C74.135 75.1897 74.2703 75.1747 74.3905 75.1146C74.8413 74.9644 75.1268 74.5286 75.1268 74.0628V68.1275H78.6278C78.9284 68.1275 79.2139 68.0073 79.4242 67.7969C79.6346 67.5866 79.7548 67.3011 79.7548 67.0005V47.3164C79.7548 47.0159 79.6346 46.7304 79.4242 46.52C79.2139 46.3096 78.9284 46.1894 78.6278 46.1894H63.6018V39.4878C63.6018 38.8717 63.0909 38.3608 62.4748 38.3608H30.1387C29.5226 38.3608 29.0117 38.8717 29.0117 39.4878V59.1569C29.0117 59.788 29.5226 60.2989 30.1387 60.2989ZM31.2657 40.6148H61.3328V46.1894H46.3068C46.0062 46.1894 45.7207 46.3096 45.5104 46.52C45.3 46.7153 45.1798 47.0159 45.1798 47.3164V49.6604C45.1798 50.2915 45.6757 50.7874 46.3068 50.7874C46.9228 50.7874 47.4337 50.2915 47.4337 49.6604V48.4433H77.5009V65.8586H73.9998C73.7143 65.8586 73.4138 65.9788 73.2034 66.1891C72.9931 66.3995 72.8729 66.685 72.8729 66.9855V70.9975L68.8158 66.2492C68.6054 65.9938 68.2899 65.8586 67.9593 65.8586H47.4337V55.6709C47.4337 55.0548 46.9228 54.5439 46.3068 54.5439C45.6757 54.5439 45.1798 55.0548 45.1798 55.6709V58.03H40.8072C40.4766 58.03 40.1611 58.1802 39.9507 58.4206L35.8937 63.1689V59.1569C35.8937 58.5409 35.3828 58.03 34.7667 58.03H31.2657V40.6148Z" fill="black"/>
<path d="M51.8965 53.9878H73.0231C73.6392 53.9878 74.1501 53.4769 74.1501 52.8608C74.1501 52.2448 73.6392 51.7339 73.0231 51.7339H51.8965C51.2804 51.7339 50.7695 52.2448 50.7695 52.8608C50.7695 53.4769 51.2654 53.9878 51.8965 53.9878Z" fill="black"/>
<path d="M51.8965 58.6314H73.0231C73.6392 58.6314 74.1501 58.1205 74.1501 57.5044C74.1501 56.8883 73.6392 56.3774 73.0231 56.3774H51.8965C51.2804 56.3774 50.7695 56.8883 50.7695 57.5044C50.7695 58.1205 51.2654 58.6314 51.8965 58.6314Z" fill="black"/>
<path d="M51.8965 63.2886H64.9692C65.5852 63.2886 66.0961 62.7777 66.0961 62.1616C66.0961 61.5456 65.5852 61.0347 64.9692 61.0347H51.8965C51.2804 61.0347 50.7695 61.5456 50.7695 62.1616C50.7695 62.7777 51.2654 63.2886 51.8965 63.2886Z" fill="black"/>
</g>
<defs>
<clipPath id="clip0_4236_107">
<rect width="329" height="249" fill="white"/>
</clipPath>
</defs>
</svg>
