<svg width="20" height="20" viewBox="0 0 20 20" fill="none" xmlns="http://www.w3.org/2000/svg">
<path d="M17.8308 12.207L14.0814 15.9564C14.0379 15.9999 13.9862 16.0345 13.9294 16.058C13.8725 16.0816 13.8116 16.0937 13.75 16.0937C13.6884 16.0937 13.6275 16.0816 13.5706 16.058C13.5138 16.0345 13.4621 15.9999 13.4186 15.9564C13.3751 15.9129 13.3405 15.8612 13.317 15.8044C13.2934 15.7475 13.2813 15.6866 13.2813 15.625C13.2813 15.5634 13.2934 15.5025 13.317 15.4456C13.3405 15.3888 13.3751 15.3371 13.4186 15.2936L16.3683 12.3438H10C7.88729 12.3414 5.86179 11.501 4.36788 10.0071C2.87396 8.51321 2.03363 6.48771 2.03125 4.375C2.03125 4.25068 2.08064 4.13145 2.16854 4.04354C2.25645 3.95564 2.37568 3.90625 2.5 3.90625C2.62432 3.90625 2.74355 3.95564 2.83146 4.04354C2.91936 4.13145 2.96875 4.25068 2.96875 4.375C2.97086 6.23915 3.71233 8.02635 5.03049 9.34451C6.34865 10.6627 8.13585 11.4041 10 11.4062H16.3683L13.4186 8.45642C13.3307 8.36852 13.2813 8.24931 13.2813 8.125C13.2813 8.00069 13.3307 7.88148 13.4186 7.79358C13.5065 7.70568 13.6257 7.6563 13.75 7.6563C13.8743 7.6563 13.9935 7.70568 14.0814 7.79358L17.8308 11.543C17.8531 11.5652 17.873 11.5896 17.8904 11.6158C17.8915 11.6173 17.8923 11.619 17.8933 11.6205C17.909 11.6447 17.9225 11.6702 17.9335 11.6969C17.9343 11.6988 17.9349 11.7008 17.9356 11.7027C17.9462 11.7291 17.9542 11.7564 17.9598 11.7842C17.9601 11.7857 17.9602 11.7872 17.9605 11.7888C17.9715 11.8457 17.9715 11.9043 17.9605 11.9613C17.9602 11.9628 17.9601 11.9643 17.9598 11.9658C17.9542 11.9936 17.9462 12.0209 17.9356 12.0473C17.9349 12.0493 17.9343 12.0512 17.9335 12.0531C17.9225 12.0798 17.909 12.1054 17.8933 12.1295C17.8923 12.131 17.8915 12.1327 17.8904 12.1342C17.873 12.1604 17.8531 12.1848 17.8308 12.207Z" fill="black"/>
</svg>
