<svg width="88" height="50" viewBox="0 0 88 50" fill="none" xmlns="http://www.w3.org/2000/svg">
<path d="M87.9128 10.8496L65.283 45.6255L27.2637 34.0335L87.9128 10.8496Z" fill="#D4E5F1"/>
<path d="M34.4015 49.5221L27.2637 34.2207L65.378 45.5987L34.4015 49.5221Z" fill="#CADBE9"/>
<path d="M0 8.3457L27.2643 33.9402L19.8699 38.9485L0 8.3457Z" fill="#ABC1D7"/>
<path d="M34.2187 49.5221L27.0459 34.2207L19.752 39.1676L34.2187 49.5221Z" fill="#95B0C4"/>
<path d="M22.8125 30.1048L38.9485 0L36.4491 30.6257L27.0973 34.2195L22.8125 30.1048Z" fill="#EAE735"/>
<path d="M55.9198 23.1603L38.978 0L36.4453 30.6028L55.9198 23.1603Z" fill="#ED5248"/>
<path d="M30.3246 15.9509L0 8.3457L22.6739 29.7676L30.3246 15.9509Z" fill="#E0E9F5"/>
<path opacity="0.1" d="M26.4659 15.0215L22.8125 29.7665L30.3241 15.9988L26.4659 15.0215Z" fill="black"/>
<path opacity="0.1" d="M38.9408 0L40.3402 29.0935L36.4453 30.6028L38.9408 0Z" fill="black"/>
<path opacity="0.1" d="M34.498 31.1592L38.9494 0L36.4445 30.4177L34.498 31.1592Z" fill="black"/>
<path d="M26.8979 34.219L0 8.58703L0.224005 8.3457L26.9668 33.8225L87.7928 10.8624L87.9134 11.1726L26.8979 34.219Z" fill="white"/>
</svg>
