<svg width="607" height="348" viewBox="0 0 607 348" fill="none" xmlns="http://www.w3.org/2000/svg">
<path d="M606.495 347.763C606.495 347.901 470.826 348.001 303.518 348.001C136.211 348.001 0.505493 347.901 0.505493 347.763C0.505493 347.626 136.147 347.525 303.518 347.525C470.89 347.525 606.495 347.635 606.495 347.763Z" fill="#263238"/>
<path d="M412.733 12.0127H167.859V172.633H412.733V12.0127Z" fill="#FAFAFA"/>
<path d="M412.733 172.633C412.733 171.085 412.66 109.979 412.541 12.0127L412.733 12.2051H167.877L168.115 11.9669C168.115 69.0887 168.115 123.444 168.115 172.587L167.895 172.368L412.77 172.587L167.895 172.807H167.676V172.587C167.676 123.444 167.676 69.0795 167.676 11.9669V11.7288H167.932L412.788 11.7837H412.98V11.9669C412.806 109.979 412.733 171.076 412.733 172.633Z" fill="#263238"/>
<path d="M242.696 100.709L266.778 101.048C266.594 113.872 255.786 124.342 242.696 124.342H242.549L242.696 100.709Z" fill="#455A64"/>
<path d="M282.524 133.328C282.35 133.343 282.175 133.343 282.002 133.328H280.536L275.15 133.392H275.104L275.058 133.337C272.906 130.635 270.139 127.135 267.117 123.325L260.705 115.163L260.833 115.218L253.743 115.154L251.746 115.2C251.512 115.225 251.275 115.225 251.041 115.2C251.274 115.165 251.51 115.15 251.746 115.154H253.725L260.814 115.09H260.888V115.145L267.3 123.288L275.177 133.364L275.067 133.309L280.454 133.373H281.919C282.118 133.332 282.321 133.317 282.524 133.328Z" fill="#263238"/>
<path d="M291.161 136.103C291.161 136.204 287.672 136.286 283.366 136.286C279.061 136.286 275.571 136.204 275.571 136.103C275.571 136.002 279.061 135.92 283.366 135.92C287.672 135.92 291.161 136.002 291.161 136.103Z" fill="#263238"/>
<path d="M291.161 139.016C291.161 139.117 287.672 139.199 283.366 139.199C279.061 139.199 275.571 139.117 275.571 139.016C275.571 138.915 279.061 138.833 283.366 138.833C287.672 138.833 291.161 138.888 291.161 139.016Z" fill="#263238"/>
<path d="M238.885 97.2831L238.546 120.916C225.466 120.733 214.795 110.125 214.795 97.2831C214.795 84.4408 225.667 73.6594 238.885 73.6594C252.103 73.6594 262.976 84.3217 262.976 97.2831H238.885Z" fill="#92E3A9"/>
<path d="M229.478 89.552C229.345 89.5994 229.206 89.6301 229.066 89.6437L227.866 89.836L223.542 90.4497H223.469L223.414 90.3948L217.643 84.7797C214.895 82.0317 212.376 79.586 210.581 77.7814L208.474 75.6289C208.203 75.3765 207.955 75.1006 207.732 74.8044C208.035 75.0185 208.317 75.2608 208.575 75.5281L210.764 77.5891C212.596 79.3478 215.124 81.7935 217.9 84.514L223.625 90.1749H223.497L227.848 89.6986L229.047 89.5887C229.188 89.5501 229.333 89.5377 229.478 89.552Z" fill="#263238"/>
<path d="M201.632 73.7784C201.632 73.8792 198.142 73.9616 193.837 73.9616C189.531 73.9616 186.051 73.8792 186.051 73.7784C186.051 73.6777 189.531 73.5952 193.837 73.5952C198.142 73.5952 201.632 73.6777 201.632 73.7784Z" fill="#263238"/>
<path d="M201.632 76.6639C201.632 76.7647 198.142 76.8471 193.837 76.8471C189.531 76.8471 186.051 76.7647 186.051 76.6639C186.051 76.5632 189.531 76.4807 193.837 76.4807C198.142 76.4807 201.632 76.5632 201.632 76.6639Z" fill="#263238"/>
<path d="M323.148 50.6037L323.057 35.9478C318.583 36.0291 314.285 37.7053 310.938 40.6743C308.799 42.5408 307.149 44.9021 306.132 47.5525C305.115 50.2028 304.762 53.0617 305.103 55.8799C305.181 56.597 305.297 57.3095 305.451 58.0142C305.447 58.0323 305.447 58.0511 305.451 58.0692L323.139 54.0845L323.148 50.6037Z" fill="#92E3A9"/>
<g opacity="0.3">
<path d="M323.148 50.6037L323.057 35.9478C318.583 36.0291 314.285 37.7053 310.938 40.6743C308.799 42.5408 307.149 44.9021 306.132 47.5525C305.115 50.2028 304.762 53.0617 305.103 55.8799C305.181 56.597 305.297 57.3095 305.451 58.0142C305.447 58.0323 305.447 58.0511 305.451 58.0692L323.139 54.0845L323.148 50.6037Z" fill="white"/>
</g>
<path d="M341.386 46.0878C340.094 43.3137 338.094 40.9291 335.587 39.1745C333.08 37.42 330.154 36.3575 327.105 36.0943L326.547 36.0393H326.189C325.841 36.0393 325.484 36.0393 325.127 36.0393H325.026L325.127 50.6953V54.1395L342.888 57.9775C343.162 56.7292 343.294 55.454 343.282 54.1761C343.255 51.373 342.608 48.6107 341.386 46.0878Z" fill="#92E3A9"/>
<g opacity="0.3">
<path d="M340.932 46.2989L340.932 46.2989L340.936 46.3058C342.125 48.7621 342.756 51.4516 342.782 54.1808C342.792 55.2549 342.697 56.327 342.499 57.3819L325.627 53.736L325.627 50.6953L325.627 50.6919L325.529 36.5393H325.53H325.532H325.534H325.537H325.539H325.541H325.543H325.545H325.547H325.549H325.551H325.553H325.555H325.557H325.559H325.562H325.564H325.566H325.568H325.57H325.572H325.574H325.576H325.578H325.58H325.582H325.584H325.587H325.589H325.591H325.593H325.595H325.597H325.599H325.601H325.603H325.605H325.607H325.609H325.612H325.614H325.616H325.618H325.62H325.622H325.624H325.626H325.628H325.63H325.632H325.634H325.636H325.639H325.641H325.643H325.645H325.647H325.649H325.651H325.653H325.655H325.657H325.659H325.661H325.664H325.666H325.668H325.67H325.672H325.674H325.676H325.678H325.68H325.682H325.684H325.686H325.688H325.691H325.693H325.695H325.697H325.699H325.701H325.703H325.705H325.707H325.709H325.711H325.713H325.716H325.718H325.72H325.722H325.724H325.726H325.728H325.73H325.732H325.734H325.736H325.738H325.74H325.742H325.745H325.747H325.749H325.751H325.753H325.755H325.757H325.759H325.761H325.763H325.765H325.767H325.769H325.772H325.774H325.776H325.778H325.78H325.782H325.784H325.786H325.788H325.79H325.792H325.794H325.796H325.798H325.801H325.803H325.805H325.807H325.809H325.811H325.813H325.815H325.817H325.819H325.821H325.823H325.825H325.827H325.83H325.832H325.834H325.836H325.838H325.84H325.842H325.844H325.846H325.848H325.85H325.852H325.854H325.856H325.859H325.861H325.863H325.865H325.867H325.869H325.871H325.873H325.875H325.877H325.879H325.881H325.883H325.885H325.887H325.89H325.892H325.894H325.896H325.898H325.9H325.902H325.904H325.906H325.908H325.91H325.912H325.914H325.916H325.918H325.92H325.923H325.925H325.927H325.929H325.931H325.933H325.935H325.937H325.939H325.941H325.943H325.945H325.947H325.949H325.951H325.953H325.956H325.958H325.96H325.962H325.964H325.966H325.968H325.97H325.972H325.974H325.976H325.978H325.98H325.982H325.984H325.986H325.988H325.991H325.993H325.995H325.997H325.999H326.001H326.003H326.005H326.007H326.009H326.011H326.013H326.015H326.017H326.019H326.021H326.023H326.026H326.028H326.03H326.032H326.034H326.036H326.038H326.04H326.042H326.044H326.046H326.048H326.05H326.052H326.054H326.056H326.058H326.06H326.062H326.065H326.067H326.069H326.071H326.073H326.075H326.077H326.079H326.081H326.083H326.085H326.087H326.089H326.091H326.093H326.095H326.097H326.099H326.101H326.103H326.106H326.108H326.11H326.112H326.114H326.116H326.118H326.12H326.122H326.124H326.126H326.128H326.13H326.132H326.134H326.136H326.138H326.14H326.142H326.144H326.146H326.148H326.151H326.153H326.155H326.157H326.159H326.161H326.163H326.165H326.167H326.169H326.171H326.173H326.175H326.177H326.179H326.181H326.183H326.185H326.187H326.189H326.522L327.056 36.5919L327.056 36.5919L327.062 36.5924C330.023 36.8481 332.865 37.8801 335.3 39.5842C337.735 41.2883 339.678 43.6044 340.932 46.2989Z" fill="black" stroke="black"/>
</g>
<path d="M324.101 55.8892L306.404 59.8738C307.311 63.9005 309.565 67.4973 312.793 70.0699C316.021 72.6425 320.03 74.037 324.158 74.0231C328.286 74.0093 332.285 72.5878 335.496 69.9935C338.706 67.3993 340.936 63.7874 341.816 59.7547L324.119 55.8892" fill="#92E3A9"/>
<path d="M392.966 53.251C392.966 53.3792 383.806 53.4891 372.539 53.4891C361.272 53.4891 352.103 53.3792 352.103 53.251C352.103 53.1227 361.263 53.0037 372.539 53.0037C383.815 53.0037 392.966 53.1136 392.966 53.251Z" fill="#263238"/>
<path d="M392.966 48.5885C392.966 48.7167 383.806 48.8267 372.539 48.8267C361.272 48.8267 352.103 48.7167 352.103 48.5885C352.103 48.4603 361.263 48.3503 372.539 48.3503C383.815 48.3503 392.966 48.4603 392.966 48.5885Z" fill="#263238"/>
<path d="M392.966 43.9352C392.966 44.0634 383.806 44.1733 372.539 44.1733C361.272 44.1733 352.103 44.0634 352.103 43.9352C352.103 43.8069 361.263 43.697 372.539 43.697C383.815 43.697 392.966 43.7978 392.966 43.9352Z" fill="#263238"/>
<path d="M392.966 57.5837C392.966 57.712 383.806 57.8219 372.539 57.8219C361.272 57.8219 352.103 57.712 352.103 57.5837C352.103 57.4555 361.263 57.3364 372.539 57.3364C383.815 57.3364 392.966 57.4921 392.966 57.5837Z" fill="#263238"/>
<path d="M380.316 62.2919C380.316 62.4293 374.032 62.53 366.283 62.53C358.533 62.53 352.25 62.4293 352.25 62.2919C352.25 62.1545 358.533 62.0537 366.283 62.0537C374.032 62.0537 380.316 62.1636 380.316 62.2919Z" fill="#263238"/>
<path d="M313.466 96.0098H309.262V143.01H313.466V96.0098Z" fill="#92E3A9"/>
<path d="M321.591 111.967H317.387V143.001H321.591V111.967Z" fill="#92E3A9"/>
<path d="M329.716 101.845H325.511V143.239H329.716V101.845Z" fill="#92E3A9"/>
<path d="M337.841 97.8235H333.636V143.01H337.841V97.8235Z" fill="#92E3A9"/>
<path d="M345.957 112.919H341.752V143.001H345.957V112.919Z" fill="#92E3A9"/>
<path d="M354.082 118.818H349.877V143.001H354.082V118.818Z" fill="#92E3A9"/>
<path d="M362.207 100.828H358.002V143.001H362.207V100.828Z" fill="#92E3A9"/>
<path d="M370.331 108.431H366.127V143.001H370.331V108.431Z" fill="#92E3A9"/>
<path d="M378.456 102.358H374.252V143.001H378.456V102.358Z" fill="#92E3A9"/>
<path d="M386.581 115.31H382.377V143.001H386.581V115.31Z" fill="#92E3A9"/>
<path d="M394.706 110.043H390.502V143.001H394.706V110.043Z" fill="#92E3A9"/>
<path d="M396.428 146.28C396.428 146.372 376.469 146.454 351.847 146.454C327.224 146.454 307.265 146.372 307.265 146.28C307.265 146.188 327.224 146.106 351.847 146.106C376.469 146.106 396.428 146.179 396.428 146.28Z" fill="#263238"/>
<path d="M315.261 150.008C313.185 150.228 311.091 150.228 309.014 150.008C311.09 149.776 313.185 149.776 315.261 150.008Z" fill="#263238"/>
<path d="M325.621 150.164C323.138 150.396 320.639 150.396 318.156 150.164C320.639 149.932 323.138 149.932 325.621 150.164Z" fill="#263238"/>
<path d="M334.461 150.164C331.978 150.396 329.478 150.396 326.995 150.164C329.478 149.932 331.978 149.932 334.461 150.164Z" fill="#263238"/>
<path d="M343.291 150.164C340.808 150.396 338.309 150.396 335.826 150.164C338.309 149.932 340.808 149.932 343.291 150.164Z" fill="#263238"/>
<path d="M352.13 150.164C349.647 150.396 347.148 150.396 344.665 150.164C347.148 149.932 349.647 149.932 352.13 150.164Z" fill="#263238"/>
<path d="M360.961 150.164C358.478 150.396 355.978 150.396 353.495 150.164C355.978 149.932 358.478 149.932 360.961 150.164Z" fill="#263238"/>
<path d="M369.8 150.164C367.317 150.396 364.818 150.396 362.335 150.164C364.818 149.932 367.317 149.932 369.8 150.164Z" fill="#263238"/>
<path d="M378.612 150.164C376.129 150.396 373.63 150.396 371.147 150.164C373.63 149.932 376.129 149.932 378.612 150.164Z" fill="#263238"/>
<path d="M387.47 150.164C384.987 150.396 382.487 150.396 380.004 150.164C382.487 149.932 384.987 149.932 387.47 150.164Z" fill="#263238"/>
<path d="M396.309 150.164C393.826 150.396 391.327 150.396 388.844 150.164C391.327 149.932 393.826 149.932 396.309 150.164Z" fill="#263238"/>
<g opacity="0.3">
<path d="M321.591 111.967H317.387V143.001H321.591V111.967Z" fill="white"/>
</g>
<g opacity="0.3">
<path d="M337.841 97.8235H333.636V143.01H337.841V97.8235Z" fill="white"/>
</g>
<g opacity="0.3">
<path d="M354.082 118.818H349.877V143.001H354.082V118.818Z" fill="white"/>
</g>
<g opacity="0.3">
<path d="M370.331 108.431H366.127V143.001H370.331V108.431Z" fill="white"/>
</g>
<g opacity="0.3">
<path d="M386.581 115.31H382.377V143.001H386.581V115.31Z" fill="white"/>
</g>
<path d="M197.61 42.204C197.612 43.0074 197.376 43.7932 196.93 44.4619C196.485 45.1306 195.851 45.6521 195.11 45.9604C194.368 46.2687 193.551 46.3498 192.763 46.1935C191.975 46.0372 191.251 45.6506 190.683 45.0825C190.115 44.5145 189.728 43.7906 189.572 43.0026C189.416 42.2146 189.497 41.3979 189.805 40.656C190.114 39.9142 190.635 39.2805 191.304 38.8353C191.972 38.3902 192.758 38.1535 193.562 38.1553C194.635 38.1553 195.665 38.5818 196.425 39.3411C197.184 40.1004 197.61 41.1302 197.61 42.204Z" fill="#92E3A9"/>
<path d="M267.254 39.0072C267.254 39.1446 253.596 39.2454 236.751 39.2454C219.906 39.2454 206.248 39.1446 206.248 39.0072C206.248 38.8698 219.897 38.769 236.751 38.769C253.606 38.769 267.254 38.879 267.254 39.0072Z" fill="#92E3A9"/>
<path d="M230.733 43.9078C230.433 43.98 230.125 44.0108 229.817 43.9994L227.243 44.0819C225.063 44.0819 222.058 44.146 218.743 44.146C215.427 44.146 212.413 44.146 210.242 44.0819L207.659 43.9994C207.351 44.0099 207.043 43.9791 206.743 43.9078C207.044 43.842 207.351 43.8113 207.659 43.8162C208.273 43.8162 209.152 43.7613 210.242 43.743C212.413 43.743 215.417 43.6697 218.743 43.6697C222.068 43.6697 225.063 43.6697 227.243 43.743C228.333 43.743 229.212 43.7888 229.817 43.8162C230.125 43.8104 230.432 43.8412 230.733 43.9078Z" fill="#92E3A9"/>
<path d="M162.867 26.5588H34.709V172.826H162.867V26.5588Z" fill="#FAFAFA"/>
<path d="M162.876 172.817C162.876 172.817 162.876 172.578 162.876 172.13C162.876 171.681 162.876 170.985 162.876 170.096C162.876 168.264 162.876 165.653 162.876 162.2C162.876 155.293 162.876 145.19 162.821 132.357C162.821 106.709 162.757 70.1696 162.72 26.5588L162.931 26.7695H34.7823L35.0204 26.5313C35.0204 80.4563 35.0204 130.745 35.0204 172.789L34.8189 172.588L127.628 172.725L153.624 172.78H160.476H162.839H160.512H153.707L127.756 172.835L34.6723 172.936H34.4708V172.725C34.4708 130.681 34.4708 80.3921 34.4708 26.4672V26.3481H34.7273H162.876H163.086V26.5588C163.041 70.2245 163.004 106.81 162.976 132.494C162.976 145.318 162.931 155.394 162.922 162.283C162.922 165.718 162.922 168.356 162.922 170.142C162.922 171.058 162.922 171.69 162.922 172.148C162.922 172.606 162.876 172.817 162.876 172.817Z" fill="#263238"/>
<path d="M151.856 101.24C151.856 101.332 150.436 100.526 147.734 99.6739C143.915 98.4825 139.875 98.1694 135.918 98.7579C133.203 99.1771 130.572 100.024 128.123 101.268C125.339 102.758 122.761 104.606 120.456 106.764C117.946 108.98 115.445 111.499 112.569 113.826C109.635 116.335 106.2 118.189 102.493 119.267C100.579 119.773 98.583 119.894 96.6214 119.624C94.7319 119.338 92.8952 118.773 91.1712 117.948C88.0197 116.308 84.9617 114.495 82.0112 112.516C79.3884 110.766 76.4901 109.468 73.4375 108.678C70.7691 108.027 68.0127 107.813 65.2759 108.046C61.2898 108.391 57.4356 109.644 54.0091 111.71C51.5909 113.185 50.455 114.293 50.3451 114.22C50.582 113.918 50.8559 113.647 51.1603 113.414C51.9776 112.678 52.8538 112.01 53.7801 111.417C56.6768 109.545 59.9199 108.274 63.3171 107.68C66.7142 107.085 70.1962 107.178 73.5565 107.954C76.6945 108.743 79.6789 110.049 82.3868 111.82C85.309 113.763 88.3364 115.543 91.4552 117.151C94.7684 118.85 98.5828 119.299 102.2 118.415C105.814 117.393 109.173 115.62 112.056 113.212C114.896 110.931 117.396 108.431 119.952 106.205C122.321 104.018 124.966 102.152 127.82 100.654C130.91 99.1205 134.273 98.2159 137.716 97.9926C141.158 97.7693 144.61 98.2318 147.872 99.3533C148.913 99.7041 149.924 100.139 150.894 100.654C151.233 100.818 151.555 101.015 151.856 101.24Z" fill="#92E3A9"/>
<path d="M80.8754 120.888H69.9841V150.356H80.8754V120.888Z" fill="#92E3A9"/>
<path d="M127.115 120.888H116.224V150.356H127.115V120.888Z" fill="#92E3A9"/>
<path d="M142.522 103.576H131.631V150.347H142.522V103.576Z" fill="#92E3A9"/>
<path d="M66.7781 141.077H55.8869V150.997H66.7781V141.077Z" fill="#92E3A9"/>
<path d="M96.3008 134.189H85.4004V150.347H96.3008V134.189Z" fill="#92E3A9"/>
<path d="M111.699 130.479H100.808V150.347H111.699V130.479Z" fill="#92E3A9"/>
<path d="M81.3242 153.828C81.3242 154.066 78.6861 154.268 75.4343 154.268C72.1825 154.268 69.5444 154.066 69.5444 153.828C69.5444 153.59 72.1825 153.388 75.4343 153.388C78.6861 153.388 81.3242 153.581 81.3242 153.828Z" fill="#263238"/>
<path d="M67.7674 153.828C67.7674 154.066 65.1294 154.268 61.8776 154.268C58.6258 154.268 55.9877 154.066 55.9877 153.828C55.9877 153.59 58.6258 153.388 61.8776 153.388C65.1294 153.388 67.7674 153.581 67.7674 153.828Z" fill="#263238"/>
<path d="M144.675 153.828C144.675 154.066 141.698 154.268 138.025 154.268C134.351 154.268 131.365 154.066 131.365 153.828C131.365 153.59 134.342 153.388 138.025 153.388C141.707 153.388 144.675 153.581 144.675 153.828Z" fill="#263238"/>
<path d="M121.839 154.268C125.512 154.268 128.489 154.071 128.489 153.828C128.489 153.585 125.512 153.388 121.839 153.388C118.166 153.388 115.189 153.585 115.189 153.828C115.189 154.071 118.166 154.268 121.839 154.268Z" fill="#263238"/>
<path d="M111.708 153.828C111.708 154.066 109.07 154.268 105.818 154.268C102.566 154.268 99.9282 154.066 99.9282 153.828C99.9282 153.59 102.566 153.388 105.818 153.388C109.07 153.388 111.708 153.581 111.708 153.828Z" fill="#263238"/>
<path d="M95.7787 153.828C95.7787 154.066 93.1498 154.268 89.898 154.268C86.6462 154.268 84.0081 154.066 84.0081 153.828C84.0081 153.59 86.6462 153.388 89.898 153.388C93.1498 153.388 95.7787 153.581 95.7787 153.828Z" fill="#263238"/>
<path d="M144.675 47.8833H55.6304V84.8622H144.675V47.8833Z" fill="#E0E0E0"/>
<path d="M74.1336 59.5621C74.1354 60.385 73.8931 61.1899 73.4372 61.875C72.9814 62.5601 72.3325 63.0945 71.5728 63.4107C70.813 63.7268 69.9766 63.8105 69.1693 63.6511C68.362 63.4917 67.6201 63.0963 67.0376 62.5151C66.4551 61.9338 66.0581 61.1929 65.8969 60.3859C65.7357 59.579 65.8175 58.7423 66.132 57.9819C66.4465 57.2215 66.9795 56.5715 67.6636 56.1141C68.3477 55.6567 69.1521 55.4126 69.975 55.4126C71.0763 55.4126 72.1327 55.8495 72.9123 56.6274C73.692 57.4053 74.1312 58.4607 74.1336 59.5621Z" fill="#263238"/>
<path d="M107.21 56.6951H78.2831V58.2981H107.21V56.6951Z" fill="#263238"/>
<path d="M134.553 60.3499H78.2831V61.9529H134.553V60.3499Z" fill="white"/>
<path d="M74.1336 72.3311C74.1354 73.154 73.8931 73.9589 73.4372 74.644C72.9814 75.3291 72.3325 75.8636 71.5728 76.1797C70.813 76.4959 69.9766 76.5796 69.1693 76.4201C68.362 76.2607 67.6201 75.8654 67.0376 75.2841C66.4551 74.7029 66.0581 73.9619 65.8969 73.155C65.7357 72.348 65.8175 71.5114 66.132 70.751C66.4465 69.9905 66.9795 69.3405 67.6636 68.8831C68.3477 68.4258 69.1521 68.1817 69.975 68.1817C70.5207 68.1804 71.0612 68.2869 71.5657 68.4949C72.0702 68.7029 72.5287 69.0083 72.915 69.3938C73.3013 69.7792 73.6078 70.237 73.8169 70.7411C74.026 71.2451 74.1336 71.7854 74.1336 72.3311Z" fill="#92E3A9"/>
<path d="M93.049 69.4641H78.2831V71.0671H93.049V69.4641Z" fill="#92E3A9"/>
<path d="M134.553 73.1099H78.2831V74.7129H134.553V73.1099Z" fill="white"/>
<path d="M565.476 0.296875H424.742V160.917H565.476V0.296875Z" fill="#FAFAFA"/>
<g filter="url(#filter0_d_233_99)">
<path d="M565.476 160.918C565.476 160.918 565.476 160.652 565.476 160.157C565.476 159.663 565.476 158.902 565.476 157.922C565.476 155.953 565.476 153.049 565.476 149.257C565.476 141.672 565.476 130.58 565.421 116.492C565.421 88.3246 565.357 48.1946 565.32 0.296993L565.531 0.507676H424.806L425.053 0.269514C425.053 59.4889 425.053 114.715 425.007 160.89L424.806 160.689L526.894 160.789L555.428 160.844H562.948H565.549C565.549 160.844 564.688 160.844 562.994 160.844H555.51L527.004 161L424.788 161.101H424.586V160.899C424.586 114.724 424.586 59.4981 424.586 0.278676V0.0588379H424.843H565.568H565.778V0.269514C565.778 48.2221 565.696 88.3979 565.668 116.602C565.668 130.68 565.668 141.755 565.613 149.33C565.613 153.095 565.613 155.99 565.613 157.95V160.157C565.476 160.67 565.476 160.918 565.476 160.918Z" fill="#263238"/>
</g>
<path d="M544.875 118.195C544.875 118.333 520.821 118.434 491.152 118.434C461.482 118.434 437.419 118.333 437.419 118.195C437.419 118.058 461.473 117.957 491.152 117.957C520.83 117.957 544.875 118.067 544.875 118.195Z" fill="#263238"/>
<path d="M544.875 124.003C544.875 124.14 520.821 124.241 491.152 124.241C461.482 124.241 437.419 124.14 437.419 124.003C437.419 123.865 461.473 123.765 491.152 123.765C520.83 123.765 544.875 123.875 544.875 124.003Z" fill="#263238"/>
<path d="M544.875 129.856C544.875 129.984 520.821 130.094 491.152 130.094C461.482 130.094 437.419 129.984 437.419 129.856C437.419 129.728 461.473 129.618 491.152 129.618C520.83 129.618 544.875 129.682 544.875 129.856Z" fill="#263238"/>
<path d="M544.875 135.627C544.875 135.755 520.821 135.865 491.152 135.865C461.482 135.865 437.419 135.755 437.419 135.627C437.419 135.499 461.473 135.389 491.152 135.389C520.83 135.389 544.875 135.489 544.875 135.627Z" fill="#263238"/>
<path d="M502.437 133.346C505.377 128.409 506.238 121.832 507.017 116.134C507.365 113.45 507.988 109.64 506.101 107.954C504.214 106.269 503.902 103.374 501.585 101.991C500.435 101.272 499.103 100.896 497.747 100.907C496.39 100.919 495.065 101.317 493.927 102.055" fill="#263238"/>
<path d="M494.285 150.832C493.22 150.915 492.151 150.781 491.139 150.44C490.128 150.099 489.196 149.557 488.398 148.847C487.601 148.137 486.956 147.274 486.5 146.309C486.045 145.343 485.789 144.296 485.747 143.23C485.583 138.906 485.436 134.546 485.436 134.546C485.436 134.546 478.896 133.932 478.419 127.456C477.943 120.98 478.163 106.031 478.163 106.031C481.751 104.222 485.757 103.404 489.766 103.662C493.776 103.919 497.645 105.243 500.971 107.496L500.568 130.286V142.552C500.523 146.665 498.388 150.521 494.285 150.832Z" fill="#FFBE9D"/>
<path d="M484.868 119.551C485.345 118.858 486.067 118.373 486.889 118.192C487.71 118.012 488.569 118.151 489.292 118.58C490.024 119.09 490.552 119.843 490.781 120.704C491.011 121.566 490.928 122.482 490.547 123.288C490.211 123.886 489.756 124.407 489.209 124.82C488.662 125.233 488.035 125.529 487.369 125.688C486.772 125.82 486.243 126.165 485.884 126.66C485.524 127.154 485.359 127.764 485.418 128.372C485.61 129.993 488.312 130.607 489.531 131.954C491.427 134.042 495.594 134.931 498.407 135.26C501.219 135.59 500.825 135.608 502.428 133.346C503.512 131.812 504.065 129.966 504.003 128.088L504.306 113.762C504.412 112.042 504.301 110.315 503.976 108.623C503.632 106.909 502.65 105.39 501.228 104.373C499.652 103.338 497.655 103.246 495.869 102.669C493.625 101.945 491.72 100.452 489.622 99.3807C487.524 98.3089 484.95 97.6677 482.844 98.7211C481.332 99.4814 480.316 100.993 478.841 101.826C476.752 103.017 473.904 102.742 472.887 105.829C472.525 106.896 472.525 108.051 472.887 109.118C474.307 113.313 479.491 114.998 483.228 113.185C483.302 113.899 482.606 115.475 483.348 117.719C483.586 118.433 483.677 119.551 484.795 119.551" fill="#263238"/>
<path d="M486.031 123.591C486.086 123.591 486.306 123.93 486.847 123.902C487.188 123.831 487.494 123.644 487.714 123.374C487.934 123.104 488.055 122.767 488.056 122.418C488.072 122.065 487.972 121.717 487.772 121.426C487.572 121.135 487.282 120.917 486.947 120.806C486.407 120.614 486.031 120.714 486.031 120.641C486.031 120.568 486.389 120.348 487.057 120.485C487.447 120.574 487.802 120.778 488.074 121.072C488.408 121.449 488.579 121.943 488.55 122.446C488.565 122.911 488.397 123.363 488.082 123.706C487.767 124.049 487.33 124.254 486.865 124.278C486.726 124.273 486.589 124.239 486.464 124.178C486.339 124.116 486.229 124.028 486.141 123.92C486.004 123.71 486.004 123.6 486.031 123.591Z" fill="#EB996E"/>
<path d="M492.773 104.061C492.773 104.061 492.91 103.814 493.313 103.512C493.899 103.104 494.575 102.843 495.283 102.751C496.338 102.613 497.411 102.775 498.379 103.219C499.548 103.792 500.537 104.676 501.237 105.774C502.423 107.768 503.114 110.017 503.252 112.333C503.388 113.27 503.446 114.217 503.426 115.163C503.174 114.264 503.003 113.345 502.913 112.415C502.689 110.178 501.983 108.015 500.843 106.077C500.189 105.051 499.276 104.217 498.196 103.658C497.339 103.227 496.379 103.04 495.423 103.118C494.466 103.195 493.55 103.534 492.773 104.098V104.061Z" fill="#455A64"/>
<path d="M474.536 110.693C474.454 110.71 474.37 110.71 474.288 110.693C474.059 110.635 473.841 110.536 473.647 110.4C473.333 110.184 473.075 109.895 472.896 109.557C472.648 109.098 472.576 108.564 472.694 108.055C472.835 107.436 473.209 106.894 473.739 106.544C474.366 106.206 475.082 106.065 475.79 106.141C476.48 106.223 477.175 106.047 477.742 105.646C478.317 105.124 478.847 104.554 479.326 103.942C480.413 102.784 481.819 101.974 483.366 101.616C484.607 101.305 485.903 101.273 487.158 101.524C488.003 101.687 488.812 101.997 489.549 102.44C489.825 102.588 490.075 102.78 490.291 103.008C489.291 102.467 488.217 102.078 487.103 101.854C485.883 101.648 484.634 101.708 483.439 102.028C481.991 102.392 480.677 103.164 479.656 104.254C479.157 104.888 478.602 105.477 477.998 106.013C477.669 106.264 477.287 106.437 476.881 106.516C476.508 106.575 476.13 106.593 475.754 106.571C475.128 106.485 474.49 106.587 473.922 106.864C473.467 107.154 473.14 107.606 473.006 108.129C472.913 108.514 472.933 108.919 473.063 109.294C473.193 109.668 473.427 109.998 473.739 110.244C473.991 110.416 474.258 110.567 474.536 110.693Z" fill="#455A64"/>
<path d="M491.866 128.711C491.866 128.665 492.187 128.546 492.718 128.189C493.466 127.683 494.074 126.996 494.486 126.192C494.785 125.611 494.965 124.977 495.016 124.326C495.066 123.674 494.986 123.02 494.779 122.4C494.549 121.666 494.147 120.997 493.607 120.449C493 119.869 492.32 119.374 491.582 118.974C490.822 118.534 490.053 118.122 489.356 117.646C488.654 117.189 488.035 116.616 487.524 115.951C486.685 114.834 486.16 113.512 486.004 112.122C485.898 111.201 485.973 110.267 486.224 109.374C486.28 109.13 486.366 108.893 486.48 108.669C486.554 108.504 486.599 108.431 486.608 108.44C486.289 109.634 486.199 110.877 486.343 112.104C486.535 113.418 487.061 114.661 487.873 115.713C488.354 116.324 488.929 116.856 489.576 117.289C490.254 117.737 491.014 118.14 491.784 118.589C492.562 119.01 493.277 119.537 493.909 120.156C494.491 120.757 494.921 121.489 495.164 122.29C495.376 122.965 495.449 123.677 495.376 124.381C495.304 125.085 495.088 125.767 494.743 126.384C494.281 127.205 493.603 127.884 492.782 128.345C492.504 128.526 492.193 128.65 491.866 128.711Z" fill="#455A64"/>
<path d="M503.096 119.203C502.83 119.309 502.549 119.374 502.263 119.395C501.488 119.488 500.706 119.51 499.927 119.459C497.341 119.299 494.847 118.441 492.709 116.977C490.493 115.589 488.819 113.485 487.964 111.014C487.747 110.251 487.715 109.447 487.873 108.669C487.915 108.382 488.025 108.109 488.193 107.872C487.953 108.88 487.988 109.933 488.294 110.922C489.206 113.263 490.847 115.247 492.975 116.583C495.056 117.993 497.454 118.865 499.955 119.121C501.878 119.331 503.087 119.111 503.096 119.203Z" fill="#455A64"/>
<path d="M504.104 114.77C505.2 113.476 506.57 112.442 508.115 111.742C509.659 111.041 511.34 110.693 513.035 110.721C516.406 110.913 519.694 113.249 520.519 116.519C521.142 118.992 520.381 121.566 520.07 124.085C519.758 126.604 520.07 129.581 522.113 131.056C523.358 131.972 524.961 132.119 526.454 132.485C527.948 132.851 529.532 133.593 530.045 135.041C530.631 136.699 529.431 138.576 527.819 139.282C526.144 139.863 524.326 139.889 522.635 139.355C522.968 140.308 522.959 141.347 522.608 142.294C522.256 143.241 521.586 144.035 520.711 144.54C519.817 145.011 518.813 145.238 517.803 145.196C516.792 145.154 515.811 144.846 514.959 144.301C513.262 143.179 512.019 141.491 511.45 139.538C510.342 141.489 507.429 141.901 505.561 140.656C504.661 139.981 503.963 139.073 503.543 138.03C503.124 136.986 502.997 135.848 503.179 134.738C503.569 132.515 504.608 130.456 506.165 128.821C506.957 128.017 507.654 127.126 508.244 126.165C508.536 125.68 508.701 125.129 508.723 124.564C508.746 123.999 508.625 123.437 508.373 122.931C508.235 122.689 508.047 122.48 507.822 122.317C507.597 122.154 507.339 122.041 507.066 121.986C506.793 121.932 506.512 121.936 506.241 122C505.97 122.063 505.716 122.184 505.496 122.354" fill="#263238"/>
<path d="M508.015 121.612C507.713 121.758 507.381 121.834 507.044 121.834C506.708 121.834 506.376 121.758 506.073 121.612C505.325 121.299 504.671 120.797 504.177 120.154C503.682 119.512 503.363 118.751 503.252 117.948C503.105 117.061 503.209 116.15 503.554 115.319C503.836 114.649 504.261 114.048 504.8 113.56C505.258 113.083 505.854 112.763 506.504 112.644C505.991 113.01 505.501 113.407 505.038 113.835C504.518 114.366 504.128 115.01 503.899 115.718C503.67 116.425 503.608 117.176 503.719 117.911C503.824 118.643 504.105 119.339 504.537 119.938C504.97 120.538 505.541 121.024 506.202 121.355C506.784 121.558 507.4 121.646 508.015 121.612Z" fill="#92E3A9"/>
<path d="M485.225 134.436C484.726 134.511 484.216 134.46 483.741 134.29C482.574 133.964 481.496 133.377 480.589 132.575C479.681 131.772 478.967 130.773 478.502 129.655C478.273 129.207 478.16 128.71 478.172 128.207C478.413 128.629 478.624 129.067 478.804 129.517C479.324 130.557 480.035 131.49 480.902 132.265C481.767 133.023 482.763 133.616 483.842 134.015C484.313 134.119 484.776 134.26 485.225 134.436Z" fill="#EB996E"/>
<path d="M510.159 139.74C510.159 139.74 510.04 139.74 509.838 139.74C509.54 139.658 509.256 139.531 508.995 139.364C508.055 138.697 507.401 137.699 507.163 136.57C506.978 135.799 506.95 134.998 507.081 134.216C507.243 133.33 507.533 132.472 507.942 131.67C508.757 129.957 510.04 128.335 510.992 126.458C511.456 125.553 511.765 124.578 511.908 123.572C512.085 122.31 511.824 121.025 511.169 119.932C510.514 118.839 509.505 118.003 508.308 117.563C507.278 117.206 506.169 117.139 505.102 117.371C504.342 117.527 503.957 117.737 503.939 117.701C503.921 117.664 504.022 117.627 504.205 117.517C504.478 117.381 504.763 117.271 505.057 117.188C506.44 116.794 507.92 116.933 509.206 117.575C510.493 118.217 511.492 119.317 512.009 120.659C512.377 121.602 512.503 122.623 512.376 123.627C512.213 124.689 511.876 125.717 511.377 126.668C510.388 128.61 509.096 130.213 508.29 131.862C507.476 133.261 507.178 134.901 507.447 136.497C507.639 137.576 508.211 138.551 509.06 139.245C509.411 139.441 509.779 139.606 510.159 139.74Z" fill="#455A64"/>
<path d="M519.923 144.512C519.789 144.526 519.654 144.526 519.52 144.512C519.129 144.495 518.741 144.427 518.366 144.311C516.976 143.839 515.785 142.913 514.986 141.682C513.847 139.835 513.339 137.668 513.539 135.508C513.792 132.928 514.208 130.368 514.785 127.841C515.019 126.539 515.111 125.215 515.059 123.893C514.994 122.674 514.712 121.477 514.226 120.357C513.825 119.402 513.2 118.558 512.402 117.898C511.604 117.238 510.659 116.78 509.646 116.565C508.274 116.251 506.85 116.251 505.478 116.565C504.498 116.785 503.985 117.005 503.967 116.959C503.948 116.913 504.086 116.876 504.324 116.766C504.685 116.616 505.055 116.487 505.432 116.382C506.828 115.988 508.298 115.935 509.719 116.226C510.715 116.425 511.654 116.844 512.467 117.453C513.397 118.177 514.131 119.122 514.601 120.201C515.129 121.356 515.439 122.598 515.517 123.865C515.587 125.221 515.498 126.58 515.252 127.914C514.686 130.426 514.258 132.967 513.969 135.526C513.759 137.602 514.215 139.69 515.27 141.489C516.006 142.688 517.112 143.614 518.421 144.127C518.911 144.294 519.413 144.423 519.923 144.512Z" fill="#455A64"/>
<path d="M521.874 173.98L508.089 184.734L513.869 194.242L530.485 182.004L521.874 173.98Z" fill="#FFBE9D"/>
<path d="M484.978 137.825C484.978 137.825 485.051 136.671 482.038 136.506C480.926 136.409 479.81 136.372 478.694 136.396C478.032 135.588 477.543 134.653 477.256 133.648C477.304 132.672 477.521 131.711 477.897 130.809L480.948 130.534L480.123 128.464L477.971 128.61L471.916 129.343L469.507 139.932L452.964 170.801C452.332 171.749 451.91 172.822 451.727 173.947C451.544 175.072 451.605 176.223 451.904 177.323C452.204 178.422 452.735 179.445 453.463 180.322C454.191 181.199 455.098 181.91 456.124 182.407C460.402 184.477 466.127 180.089 467.711 175.61L476.871 141.269L480.096 138.759L484.676 137.917" fill="#FFBE9D"/>
<path d="M447.312 343.284L469.8 213.762C469.855 213.569 469.901 213.386 469.946 213.203C473.784 198.006 479.693 193.142 479.693 193.142L514.143 195.304C517.075 200.571 517.45 213.203 517.45 213.203C517.853 214.751 510.168 340.27 510.168 340.27L498.608 339.913L492.361 221.163L458.826 343.788L447.312 343.284Z" fill="#FFBE9D"/>
<path d="M447.01 344.457L447.056 343.293L458.909 343.632L458.808 347.488H458.075C454.814 347.571 441.486 347.681 439.325 347.012C436.925 346.289 447.01 344.457 447.01 344.457Z" fill="#92E3A9"/>
<g opacity="0.6">
<path d="M454.53 347.287C454.748 346.35 455.31 345.529 456.106 344.988C456.911 344.436 457.882 344.181 458.854 344.264L458.762 347.333L454.53 347.287Z" fill="white"/>
</g>
<g opacity="0.6">
<path d="M442.073 345.519C442.073 345.519 438.537 346.362 438.958 346.911C439.379 347.461 452.854 347.827 458.808 347.488V347.241L443.08 346.948C443.08 346.948 442.732 345.565 442.073 345.519Z" fill="white"/>
</g>
<path d="M458.982 347.241H458.78H458.194H456.051C454.219 347.241 451.727 347.241 448.961 347.168C446.195 347.095 443.694 346.985 441.88 346.875L439.737 346.737H439.16C439.022 346.737 438.958 346.737 438.958 346.737H439.16H439.746L441.889 346.829C443.721 346.911 446.204 347.012 448.97 347.085C451.736 347.159 454.237 347.177 456.051 347.195H458.982V347.241Z" fill="#263238"/>
<path d="M443.071 347.122C442.949 346.424 442.561 345.801 441.99 345.382C442.349 345.504 442.647 345.76 442.824 346.096C442.93 346.242 443.007 346.408 443.05 346.584C443.092 346.76 443.099 346.943 443.071 347.122Z" fill="#263238"/>
<path d="M446.607 345.574C446.607 345.574 446.414 345.4 446.25 345.144C446.085 344.887 445.975 344.667 446.011 344.649C446.048 344.631 446.204 344.823 446.369 345.079C446.533 345.336 446.643 345.556 446.607 345.574Z" fill="#263238"/>
<path d="M447.578 345.116C447.578 345.116 447.367 345.015 447.165 344.841C446.964 344.667 446.826 344.502 446.854 344.475C447.01 344.534 447.151 344.628 447.266 344.75C447.468 344.942 447.605 345.116 447.578 345.116Z" fill="#263238"/>
<path d="M448.228 344.108C448.03 344.172 447.821 344.194 447.614 344.172C447.406 344.189 447.197 344.161 447.001 344.09C447.199 344.027 447.408 344.008 447.614 344.035C447.822 344.019 448.03 344.044 448.228 344.108Z" fill="#263238"/>
<path d="M448.439 343.385C448.233 343.511 447.993 343.572 447.752 343.559C447.508 343.592 447.26 343.554 447.037 343.449C447.272 343.429 447.508 343.429 447.743 343.449C447.972 343.406 448.205 343.385 448.439 343.385Z" fill="#263238"/>
<path d="M446.231 344.612C445.982 344.648 445.729 344.648 445.48 344.612C445.207 344.572 444.938 344.51 444.674 344.429C444.516 344.379 444.363 344.315 444.216 344.237C444.128 344.187 444.062 344.105 444.033 344.008C444.024 343.954 444.031 343.899 444.054 343.85C444.077 343.801 444.114 343.76 444.161 343.733C444.452 343.607 444.776 343.58 445.084 343.656C445.392 343.732 445.666 343.907 445.865 344.154C445.979 344.293 446.06 344.456 446.103 344.631C446.103 344.759 446.103 344.823 446.103 344.823C446.034 344.601 445.926 344.393 445.782 344.209C445.609 344.02 445.387 343.88 445.141 343.806C444.847 343.69 444.519 343.69 444.225 343.806C444.106 343.879 444.152 344.017 444.28 344.09C444.414 344.166 444.555 344.227 444.702 344.273C444.956 344.362 445.216 344.433 445.48 344.484C445.947 344.576 446.231 344.585 446.231 344.612Z" fill="#263238"/>
<path d="M446.039 344.64C445.95 344.491 445.924 344.313 445.966 344.145C445.994 343.958 446.07 343.782 446.185 343.632C446.258 343.529 446.354 343.444 446.465 343.385C446.577 343.327 446.701 343.295 446.827 343.293C446.901 343.307 446.966 343.349 447.009 343.411C447.052 343.473 447.069 343.549 447.056 343.623C447.034 343.736 446.987 343.842 446.918 343.934C446.809 344.089 446.683 344.23 446.543 344.356C446.418 344.479 446.268 344.572 446.103 344.631C446.103 344.631 446.259 344.502 446.469 344.292C446.597 344.166 446.708 344.025 446.799 343.87C446.909 343.724 446.991 343.458 446.799 343.421C446.699 343.432 446.602 343.463 446.516 343.514C446.429 343.564 446.354 343.633 446.295 343.715C446.182 343.842 446.103 343.997 446.066 344.163C446.039 344.321 446.03 344.48 446.039 344.64Z" fill="#263238"/>
<path d="M458.835 344.2C458.835 344.2 458.496 344.2 457.919 344.2C457.232 344.263 456.571 344.496 455.996 344.878C455.449 345.266 455.02 345.799 454.759 346.417C454.567 346.875 454.539 347.195 454.512 347.186C454.498 347.114 454.498 347.039 454.512 346.966C454.538 346.766 454.588 346.569 454.658 346.38C454.9 345.731 455.334 345.171 455.904 344.777C456.497 344.37 457.192 344.139 457.91 344.108C458.123 344.086 458.338 344.086 458.551 344.108C458.652 344.115 458.75 344.146 458.835 344.2Z" fill="#263238"/>
<path d="M453.083 346.179C452.513 346.291 451.931 346.331 451.352 346.298C450.773 346.304 450.195 346.246 449.63 346.124C449.63 346.078 450.408 346.124 451.352 346.124C452.295 346.124 453.074 346.142 453.083 346.179Z" fill="#263238"/>
<path d="M455.391 346.243C455.391 346.243 455.327 346.389 455.245 346.554C455.162 346.719 455.107 346.856 455.071 346.856C455.034 346.856 455.016 346.682 455.071 346.49C455.126 346.298 455.364 346.215 455.391 346.243Z" fill="#263238"/>
<path d="M456.298 345.253C456.298 345.253 456.243 345.391 456.115 345.501C455.987 345.611 455.868 345.684 455.84 345.656C455.813 345.629 455.895 345.519 456.014 345.409C456.133 345.299 456.271 345.226 456.298 345.253Z" fill="#263238"/>
<path d="M457.553 344.823C457.553 344.823 457.388 344.823 457.214 344.905C457.04 344.988 456.912 345.043 456.884 345.015C456.857 344.988 456.958 344.841 457.168 344.777C457.379 344.713 457.571 344.795 457.553 344.823Z" fill="#263238"/>
<path d="M458.451 344.631C458.451 344.631 458.396 344.722 458.295 344.75C458.194 344.777 458.103 344.75 458.093 344.75C458.084 344.75 458.148 344.658 458.249 344.631C458.35 344.603 458.432 344.594 458.451 344.631Z" fill="#263238"/>
<path d="M504.901 141.471C508.18 141.984 511.307 143.21 514.061 145.062C524.952 152.124 543.171 167.046 541.66 173.98C540.341 179.861 526.088 187.014 526.088 187.014L516.928 175.913L522.58 172.679L508.684 163.427L504.901 141.471Z" fill="#263238"/>
<path d="M511.112 163.959L510.663 165.608L509.06 173.265L508.684 184.486C516.928 195.13 517.075 204.089 517.075 204.089L475.333 208.962C475.333 200.718 478.346 190.33 478.346 190.33C480.755 186.236 480.645 173.98 480.178 173.531C477.577 170.948 476.945 169.052 479.024 165.745C479.024 165.745 466.081 179.338 464.753 180.557C460.173 184.752 455.776 183.579 453.761 181.757C448.045 176.654 453.907 170.078 453.907 170.078L475.708 145.098C477.189 143.386 479.168 142.179 481.369 141.645C482.911 141.292 484.471 141.017 486.041 140.821L500.596 140.94C502.053 140.988 503.503 141.166 504.929 141.471C506.572 142.134 508.018 143.205 509.131 144.584C510.243 145.962 510.985 147.603 511.286 149.349C512.559 155.605 511.112 163.959 511.112 163.959Z" fill="#263238"/>
<path d="M511.569 153.947C511.644 154.345 511.675 154.751 511.661 155.156C511.661 155.934 511.661 157.07 511.579 158.463C511.325 162.083 510.845 165.684 510.14 169.244C509.875 170.664 509.582 172.038 509.279 173.311V173.265C509.151 176.508 509.023 179.311 508.913 181.308C508.849 182.224 508.803 183.011 508.766 183.634C508.764 183.919 508.727 184.202 508.657 184.477C508.605 184.199 508.589 183.916 508.611 183.634C508.611 183.002 508.611 182.224 508.611 181.299C508.611 179.302 508.712 176.49 508.812 173.247V173.201C509.096 171.946 509.38 170.572 509.646 169.152C510.443 164.994 510.974 161.192 511.221 158.426C511.34 157.043 511.405 155.925 511.45 155.147C511.452 154.744 511.492 154.342 511.569 153.947Z" fill="#455A64"/>
<path d="M511.707 165.168C516.876 168.358 521.875 171.816 526.683 175.528C524.055 174.005 521.511 172.341 519.062 170.545C516.519 168.881 514.063 167.087 511.707 165.168Z" fill="#455A64"/>
<path d="M484.721 148.808C484.721 148.808 484.813 148.854 484.941 148.973C485.129 149.147 485.3 149.337 485.454 149.541C486.022 150.306 486.411 151.188 486.59 152.124C486.86 153.517 486.778 154.956 486.352 156.31C485.806 157.946 485.015 159.49 484.007 160.89C483.489 161.611 482.913 162.288 482.285 162.915C481.68 163.528 481.03 164.032 480.453 164.554C479.299 165.589 478.309 166.569 477.485 167.412C476.661 168.255 476.01 168.942 475.561 169.418C475.113 169.894 474.856 170.169 474.829 170.142C474.994 169.839 475.194 169.556 475.424 169.299C475.827 168.786 476.441 168.053 477.256 167.174C478.071 166.295 479.024 165.342 480.178 164.234C480.755 163.693 481.387 163.18 482.01 162.585C482.618 161.971 483.175 161.309 483.677 160.606C484.651 159.257 485.428 157.777 485.985 156.209C486.41 154.923 486.523 153.554 486.315 152.216C486.083 150.963 485.534 149.79 484.721 148.808Z" fill="#455A64"/>
<path d="M479.867 185.714L480.352 180.108H508.822L508.666 184.486L479.867 185.714Z" fill="#455A64"/>
<path d="M455.556 168.978C454.994 169.494 454.465 170.045 453.971 170.627C452.828 172.054 452.239 173.845 452.313 175.672C452.387 177.498 453.119 179.237 454.374 180.566C454.919 181.102 455.49 181.61 456.087 182.086C456.087 182.086 455.858 182.086 455.501 181.839C455.002 181.556 454.543 181.208 454.136 180.804C452.739 179.459 451.916 177.627 451.837 175.69C451.759 173.753 452.431 171.86 453.715 170.407C454.085 169.969 454.513 169.584 454.988 169.262C455.355 169.042 455.556 168.951 455.556 168.978Z" fill="#455A64"/>
<path d="M510.131 340.234L513.365 347.745L498.91 347.571L498.608 339.913L510.131 340.234Z" fill="#92E3A9"/>
<path d="M498.81 346.27C499.478 346.355 500.151 346.389 500.825 346.371C502.08 346.371 503.811 346.371 505.716 346.371L510.589 346.27C511.266 346.282 511.942 346.245 512.614 346.16C511.942 346.082 511.265 346.051 510.589 346.069C509.334 346.069 507.612 346.069 505.707 346.069L500.825 346.16C500.151 346.157 499.479 346.194 498.81 346.27Z" fill="#263238"/>
<path d="M504.828 340.069C504.653 341.074 504.635 342.099 504.773 343.11C504.752 344.132 504.885 345.151 505.167 346.133C505.341 345.128 505.359 344.102 505.222 343.092C505.242 342.07 505.11 341.051 504.828 340.069Z" fill="#263238"/>
<path opacity="0.6" d="M513.337 347.901L498.901 347.415L498.81 346.041L512.614 346.16L513.347 347.736" fill="white"/>
<path d="M516.131 196.852C527.004 231.157 512.989 272.798 516.351 312.772C516.681 316.702 518.275 321.392 514.601 323.627C513.599 324.214 512.446 324.498 511.285 324.442C508.354 324.341 505.899 322.821 503.28 321.776C498.25 319.789 492.694 319.572 487.524 321.163C484.062 322.244 480.618 324.158 477.027 323.618C472.255 322.894 469.168 318.177 464.78 316.18C460.667 314.348 455.922 315.007 451.407 314.897H451.269C449.743 314.837 448.251 314.432 446.904 313.713C445.557 312.995 444.389 311.981 443.489 310.748C442.589 309.514 441.979 308.094 441.705 306.592C441.431 305.089 441.501 303.545 441.908 302.073C448.475 278.037 470.23 199.976 479.867 185.741L508.684 184.486C511.322 187.692 514.73 192.483 516.131 196.852Z" fill="#92E3A9"/>
<path d="M506.046 213.001C505.59 213.707 505.065 214.367 504.48 214.971C503.159 216.512 501.739 217.966 500.229 219.322C498.684 220.646 497.001 221.801 495.21 222.766C494.488 223.204 493.72 223.56 492.92 223.828C492.819 223.663 496.345 221.996 499.909 218.955C501.686 217.416 503.142 215.85 504.232 214.742C504.779 214.104 505.386 213.521 506.046 213.001Z" fill="#263238"/>
<g opacity="0.1">
<path d="M493.332 225.944C484.254 249.352 482.579 274.981 488.532 299.371C489.045 301.469 489.576 303.85 488.376 305.655C486.838 307.981 483.091 307.826 480.975 305.994C478.859 304.162 478.016 301.295 477.485 298.547C473.528 278.083 480.691 257.51 488.422 238.155" fill="black"/>
</g>
<path d="M329.991 237.504H275.406V240.161H329.991V237.504Z" fill="#263238"/>
<path d="M266.942 240.161L256.711 201.799H299.323L308.593 240.161H266.942Z" fill="#263238"/>
<path d="M306.037 237.257H267.968L259.111 203.567H297.372L306.037 237.257Z" fill="#F5F5F5"/>
<path d="M259.743 205.994H298.004L297.354 203.567H259.111L259.743 205.994Z" fill="#EBEBEB"/>
<path d="M263.874 204.785C263.874 204.868 263.899 204.95 263.945 205.019C263.991 205.088 264.057 205.142 264.134 205.174C264.211 205.206 264.296 205.214 264.377 205.198C264.459 205.182 264.534 205.142 264.593 205.083C264.652 205.024 264.692 204.949 264.708 204.867C264.725 204.785 264.716 204.701 264.684 204.624C264.653 204.547 264.599 204.481 264.529 204.435C264.46 204.388 264.378 204.364 264.295 204.364C264.183 204.364 264.076 204.408 263.997 204.487C263.918 204.566 263.874 204.673 263.874 204.785Z" fill="#FAFAFA"/>
<path d="M262.436 204.785C262.436 204.868 262.46 204.95 262.507 205.019C262.553 205.088 262.619 205.142 262.696 205.174C262.773 205.206 262.857 205.214 262.939 205.198C263.021 205.182 263.096 205.142 263.155 205.083C263.214 205.024 263.254 204.949 263.27 204.867C263.287 204.785 263.278 204.701 263.246 204.624C263.214 204.547 263.16 204.481 263.091 204.435C263.022 204.388 262.94 204.364 262.857 204.364C262.745 204.364 262.638 204.408 262.559 204.487C262.48 204.566 262.436 204.673 262.436 204.785Z" fill="#FAFAFA"/>
<path d="M260.998 204.785C261 204.895 261.045 205 261.124 205.077C261.203 205.154 261.309 205.197 261.419 205.197C261.519 205.182 261.61 205.132 261.676 205.055C261.742 204.979 261.778 204.881 261.778 204.78C261.778 204.679 261.742 204.582 261.676 204.505C261.61 204.429 261.519 204.378 261.419 204.364C261.364 204.364 261.309 204.374 261.258 204.396C261.207 204.417 261.16 204.448 261.121 204.487C261.082 204.526 261.051 204.573 261.03 204.624C261.008 204.675 260.998 204.73 260.998 204.785Z" fill="#FAFAFA"/>
<path d="M288.505 220.751L292.7 225.551C293.482 225.01 294.123 224.289 294.567 223.449C295.012 222.609 295.248 221.674 295.256 220.723C295.256 217.371 292.178 214.623 288.468 214.641C284.759 214.66 281.708 217.389 281.727 220.778L288.505 220.751Z" fill="#92E3A9"/>
<path d="M287.974 221.52C288.409 221.883 288.811 222.285 289.174 222.72C289.925 223.526 291.006 224.699 292.27 226.128L292.416 226.293L292.233 226.421C291.216 227.136 290.031 227.576 288.794 227.698C287.556 227.82 286.308 227.62 285.171 227.117C284.005 226.618 282.998 225.811 282.258 224.781C281.609 223.854 281.237 222.761 281.186 221.63V221.456H281.397C283.403 221.456 285.061 221.456 286.215 221.456C286.806 221.436 287.397 221.463 287.983 221.539C287.377 221.632 286.764 221.681 286.151 221.685C284.997 221.74 283.403 221.795 281.406 221.85L281.608 221.63C281.685 222.675 282.046 223.679 282.652 224.534C283.353 225.492 284.303 226.24 285.4 226.696C286.466 227.164 287.634 227.357 288.794 227.256C289.955 227.155 291.071 226.764 292.041 226.119V226.412C290.823 224.992 289.824 223.792 289.128 222.94C288.708 222.496 288.322 222.022 287.974 221.52Z" fill="#263238"/>
<path d="M285.235 217.133C285.237 217.234 285.279 217.33 285.35 217.402C285.422 217.474 285.518 217.515 285.62 217.517C285.72 217.515 285.816 217.473 285.886 217.401C285.956 217.329 285.995 217.233 285.995 217.133C285.995 217.083 285.986 217.034 285.967 216.989C285.948 216.943 285.92 216.902 285.885 216.867C285.85 216.832 285.809 216.804 285.763 216.786C285.718 216.767 285.669 216.757 285.62 216.757C285.57 216.756 285.52 216.765 285.473 216.783C285.427 216.801 285.384 216.829 285.348 216.864C285.312 216.899 285.284 216.94 285.264 216.987C285.245 217.033 285.235 217.082 285.235 217.133Z" fill="#263238"/>
<path d="M277.696 214.394C279.194 214.147 280.714 214.061 282.231 214.137H282.927L283 214.201C283.977 215.081 284.855 216.064 285.62 217.133C284.544 216.376 283.552 215.507 282.661 214.54L282.835 214.604H282.231C280.716 214.69 279.196 214.619 277.696 214.394Z" fill="#263238"/>
<path d="M269.132 219.185C268.94 218.607 268.793 218.016 268.692 217.417C268.435 216.253 268.078 214.559 267.657 212.479L267.611 212.25H267.849L277.321 212.168C277.266 212.168 277.77 212.544 277.559 212.369V212.47V212.58V212.809L277.641 213.258C277.696 213.56 277.76 213.853 277.815 214.174C277.925 214.76 278.026 215.337 278.136 215.905C278.347 217.032 278.539 218.113 278.731 219.139L278.777 219.395H278.521C275.672 219.395 273.281 219.349 271.614 219.322L269.7 219.267C269.481 219.275 269.263 219.257 269.049 219.212C269.291 219.172 269.537 219.154 269.782 219.157L271.742 219.093C273.419 219.047 275.754 218.992 278.521 218.965L278.31 219.221L277.76 215.96C277.65 215.401 277.541 214.824 277.431 214.238C277.376 213.945 277.312 213.643 277.257 213.322L277.174 212.873L277.128 212.644V212.534V212.443C276.918 212.269 277.412 212.681 277.357 212.644H267.849L268.042 212.415C268.399 214.421 268.674 216.079 268.866 217.288C269.058 218.498 269.15 219.157 269.132 219.185Z" fill="#263238"/>
<path d="M284.676 224.763C284.69 224.854 284.736 224.936 284.806 224.996C284.876 225.056 284.964 225.088 285.056 225.088C285.148 225.088 285.237 225.056 285.307 224.996C285.376 224.936 285.422 224.854 285.436 224.763C285.436 224.661 285.396 224.563 285.324 224.491C285.252 224.419 285.154 224.378 285.052 224.378C285.002 224.378 284.952 224.388 284.906 224.408C284.86 224.427 284.818 224.456 284.783 224.491C284.748 224.527 284.72 224.57 284.702 224.616C284.684 224.663 284.675 224.713 284.676 224.763Z" fill="#263238"/>
<path d="M278.173 224.79C279.303 224.544 280.462 224.458 281.617 224.534C282.767 224.447 283.923 224.524 285.052 224.763C283.924 225.003 282.768 225.086 281.617 225.01C280.464 225.092 279.306 225.018 278.173 224.79Z" fill="#263238"/>
<path d="M269.159 227.777C268.989 227.367 268.851 226.944 268.747 226.513C268.5 225.67 268.142 224.424 267.712 222.849L267.657 222.629H267.886C270.469 222.583 273.904 222.546 277.66 222.537L277.889 222.711V222.784V222.867V223.032L277.971 223.362L278.136 224.003C278.246 224.433 278.356 224.855 278.457 225.267C278.667 226.091 278.869 226.897 279.061 227.667L279.134 227.942H278.85C275.956 227.942 273.483 227.942 271.761 227.868L269.764 227.813C269.533 227.82 269.303 227.802 269.077 227.758C269.331 227.718 269.588 227.697 269.846 227.694L271.889 227.63C273.62 227.575 276.029 227.529 278.85 227.502L278.631 227.777C278.429 227.007 278.218 226.21 278.008 225.386L277.678 224.122L277.513 223.471L277.431 223.151L277.385 222.986V222.904V222.839C277.33 222.839 277.824 223.178 277.614 223.023C273.858 223.023 270.423 223.023 267.849 223.023L268.014 222.794C268.381 224.296 268.655 225.542 268.848 226.393C268.987 226.846 269.091 227.308 269.159 227.777Z" fill="#263238"/>
<path d="M269.883 214.504C270.944 214.269 272.032 214.186 273.116 214.256C274.203 214.169 275.296 214.246 276.359 214.485C275.295 214.72 274.203 214.804 273.116 214.733C272.033 214.82 270.943 214.743 269.883 214.504Z" fill="#263238"/>
<path d="M269.956 215.566C271.026 215.332 272.124 215.249 273.217 215.319C274.309 215.237 275.407 215.311 276.478 215.539C274.316 215.863 272.118 215.863 269.956 215.539V215.566Z" fill="#263238"/>
<path d="M270.148 216.592C271.18 216.346 272.242 216.26 273.299 216.336C274.352 216.26 275.411 216.337 276.441 216.565C275.413 216.811 274.354 216.897 273.299 216.821C272.244 216.897 271.182 216.82 270.148 216.592Z" fill="#263238"/>
<path d="M270.075 224.699C271.086 224.463 272.127 224.38 273.162 224.451C274.197 224.364 275.239 224.442 276.249 224.68C275.238 224.915 274.198 224.998 273.162 224.928C272.128 225.015 271.086 224.937 270.075 224.699Z" fill="#263238"/>
<path d="M270.451 225.871C272.195 225.554 273.982 225.554 275.727 225.871C273.982 226.189 272.195 226.189 270.451 225.871Z" fill="#263238"/>
<path d="M210.764 240.042V245.071H214.062V346.939H220.822V245.071H256.702V346.939H263.462V245.071H419.118V346.911H425.887V245.071H428.809V240.042H210.764Z" fill="#263238"/>
<path d="M357.361 277.992C360.286 278.248 363.229 278.248 366.154 277.992C363.228 277.747 360.287 277.747 357.361 277.992Z" fill="#263238"/>
<path d="M293.323 279.036C293.455 279.036 293.561 278.983 293.561 278.917C293.561 278.851 293.455 278.798 293.323 278.798C293.192 278.798 293.085 278.851 293.085 278.917C293.085 278.983 293.192 279.036 293.323 279.036Z" fill="#455A64"/>
<path d="M336.403 188.361L311.158 162.713L310.608 159.965C310.507 159.461 310.397 158.893 310.297 158.243C310.188 157.495 310.204 156.733 310.343 155.99C310.475 155.06 310.737 154.154 311.121 153.297C311.542 152.555 310.865 151.657 310.159 151.968C309.454 152.28 308.236 154.286 307.97 157.061C307.704 159.837 305.341 156.145 304.462 154.826C303.582 153.507 300.651 149.541 300.038 149.495C299.122 149.422 298.92 150.411 299.827 151.694C300.734 152.976 303.216 157.098 302.52 157.529C301.83 157.409 301.119 157.512 300.492 157.824C299.864 158.135 299.352 158.638 299.03 159.26C298.389 160.478 297.683 162.219 298.26 163.015C299.511 164.524 300.857 165.949 302.291 167.284L303.134 168.008C303.134 168.008 324.98 199.665 329.743 200.7C332.702 201.332 378.484 205.133 378.484 205.133L381.937 192.52L336.403 188.361Z" fill="#FFBE9D"/>
<path d="M298.004 162.447L300.34 164.692C300.6 164.966 300.911 165.187 301.256 165.342C301.425 165.415 301.611 165.438 301.793 165.408C301.974 165.379 302.144 165.299 302.282 165.177C302.378 165.047 302.44 164.896 302.464 164.736C302.488 164.577 302.473 164.413 302.419 164.261C302.29 163.956 302.107 163.677 301.879 163.437L299.607 160.689" fill="#FFBE9D"/>
<path d="M299.607 160.68C299.662 160.634 300.092 161.064 300.761 161.806C301.137 162.228 301.521 162.658 301.915 163.116C302.169 163.377 302.387 163.669 302.566 163.986C302.674 164.187 302.726 164.413 302.714 164.641C302.703 164.869 302.629 165.089 302.502 165.278C302.344 165.453 302.136 165.575 301.907 165.627C301.677 165.679 301.437 165.66 301.219 165.571C300.871 165.426 300.558 165.208 300.303 164.93L299.085 163.684C298.398 162.97 297.995 162.502 298.041 162.447C298.512 162.716 298.94 163.053 299.314 163.446L300.605 164.609C300.822 164.836 301.084 165.014 301.375 165.131C301.501 165.182 301.639 165.195 301.772 165.169C301.905 165.143 302.028 165.079 302.126 164.985C302.196 164.864 302.233 164.726 302.233 164.586C302.233 164.446 302.196 164.309 302.126 164.188C301.969 163.903 301.782 163.636 301.567 163.391C301.192 162.924 300.834 162.475 300.486 162.017C300.127 161.618 299.831 161.167 299.607 160.68Z" fill="#AA6550"/>
<path d="M299.699 160.817L302.034 163.061C302.293 163.335 302.604 163.554 302.95 163.702C303.118 163.782 303.306 163.809 303.489 163.779C303.672 163.75 303.842 163.666 303.976 163.537C304.074 163.408 304.137 163.257 304.161 163.097C304.185 162.937 304.169 162.773 304.114 162.621C303.983 162.314 303.8 162.032 303.573 161.788L301.302 159.04" fill="#FFBE9D"/>
<path d="M301.265 159.04C301.32 159.04 301.75 159.434 302.419 160.176L303.573 161.476C303.827 161.737 304.045 162.03 304.224 162.347C304.332 162.549 304.383 162.777 304.372 163.006C304.361 163.235 304.287 163.457 304.16 163.647C304.002 163.822 303.794 163.944 303.565 163.996C303.335 164.049 303.095 164.029 302.877 163.94C302.529 163.796 302.216 163.577 301.961 163.299L300.752 162.053C300.347 161.693 299.995 161.277 299.708 160.817C300.177 161.084 300.606 161.417 300.981 161.806L302.273 162.979C302.489 163.205 302.751 163.383 303.042 163.501C303.168 163.551 303.306 163.564 303.439 163.538C303.572 163.512 303.695 163.448 303.793 163.354C303.863 163.231 303.9 163.092 303.9 162.951C303.9 162.81 303.863 162.671 303.793 162.548C303.636 162.264 303.445 161.999 303.225 161.76L302.153 160.386C301.788 159.988 301.488 159.533 301.265 159.04Z" fill="#AA6550"/>
<path d="M301.521 159.48L303.857 161.724C304.111 162.003 304.424 162.222 304.773 162.365C304.929 162.453 305.108 162.488 305.285 162.466C305.462 162.443 305.627 162.365 305.757 162.242C305.886 162.119 305.972 161.958 306.003 161.782C306.034 161.606 306.007 161.425 305.927 161.266C305.799 160.957 305.616 160.675 305.387 160.432C304.636 159.516 303.876 158.6 303.124 157.684" fill="#FFBE9D"/>
<path d="M303.088 157.703C303.522 158.024 303.91 158.403 304.242 158.829L305.396 160.139C305.646 160.4 305.862 160.693 306.037 161.009C306.151 161.21 306.205 161.439 306.194 161.669C306.182 161.899 306.106 162.122 305.973 162.31C305.818 162.485 305.612 162.608 305.383 162.66C305.155 162.713 304.916 162.693 304.7 162.603C304.352 162.459 304.039 162.24 303.784 161.962L302.584 160.716C302.179 160.358 301.83 159.941 301.549 159.48C302.02 159.745 302.449 160.078 302.822 160.469L304.114 161.641C304.329 161.866 304.587 162.044 304.874 162.164C305 162.215 305.138 162.229 305.272 162.203C305.405 162.177 305.528 162.112 305.625 162.017C305.7 161.896 305.739 161.756 305.739 161.614C305.739 161.472 305.7 161.332 305.625 161.211C305.468 160.929 305.281 160.665 305.066 160.423L303.995 159.049C303.622 158.652 303.316 158.197 303.088 157.703Z" fill="#AA6550"/>
<path d="M305.213 163.364C305.213 163.281 305.79 163.171 306.633 163.428L306.367 163.657C306.237 163.132 306.216 162.587 306.303 162.054C306.428 161.333 306.744 160.659 307.219 160.103C307.576 159.681 307.878 159.516 307.915 159.562C307.406 160.349 307.035 161.216 306.816 162.127C306.743 162.607 306.743 163.094 306.816 163.574L306.862 163.941L306.55 163.803C305.762 163.492 305.204 163.455 305.213 163.364Z" fill="#AA6550"/>
<path d="M369.452 149.898L369.562 185.045L355.822 185.695L355.272 177.277C355.272 177.277 348.659 178.276 347.276 173.302C346.36 170.123 346.616 145.575 346.616 145.575L369.452 149.898Z" fill="#FFBE9D"/>
<path d="M343.273 149.037C344.29 151.144 349.126 154.982 349.126 154.982L351.315 160.835C353.211 159.351 355.758 159.434 356.243 162.768C356.591 165.186 353.596 165.672 353.596 165.672C355.336 168.64 356.518 171.039 359.092 173.861C361.84 176.92 363.379 177.222 366.365 177.277H369.654C369.654 177.277 376.377 171.653 375.049 156.851C373.721 142.048 360.374 146.344 357.196 142.68C352.048 136.644 339.884 142.03 343.273 149.037Z" fill="#263238"/>
<path d="M374.261 169.244C373.72 169.314 373.172 169.29 372.64 169.171C371.174 168.86 369.818 168.165 368.71 167.156C367.126 165.621 365.788 163.85 364.744 161.907C363.461 159.809 362.06 157.373 359.706 155.742C357.352 154.112 354.521 153.828 352.112 153.333C349.917 153.037 347.82 152.238 345.984 150.997C344.768 150.096 343.901 148.801 343.529 147.333C343.387 146.805 343.365 146.251 343.465 145.712C343.425 146.25 343.471 146.792 343.603 147.315C343.998 148.744 344.867 149.997 346.067 150.869C347.896 152.076 349.976 152.85 352.149 153.132C354.549 153.617 357.37 153.929 359.816 155.559C362.261 157.19 363.617 159.69 364.89 161.788C365.922 163.722 367.241 165.488 368.802 167.027C369.886 168.029 371.212 168.733 372.649 169.07C373.041 169.155 373.439 169.204 373.84 169.217L374.261 169.244Z" fill="#455A64"/>
<path d="M375.04 157.19L374.334 156.97C373.659 156.756 372.966 156.602 372.264 156.512C371.156 156.355 370.028 156.609 369.095 157.226C368.809 157.417 368.564 157.663 368.374 157.949C368.184 158.235 368.052 158.556 367.986 158.893C367.913 159.269 367.932 159.657 368.044 160.023C368.156 160.388 368.356 160.721 368.628 160.991C368.938 161.257 369.328 161.412 369.736 161.431C370.166 161.436 370.589 161.319 370.954 161.092C371.751 160.617 372.342 159.863 372.612 158.976C372.862 158.232 372.942 157.441 372.845 156.663C372.748 155.884 372.477 155.137 372.052 154.477C371.627 153.817 371.059 153.262 370.39 152.851C369.721 152.441 368.969 152.186 368.188 152.106C367.038 152.04 365.885 152.189 364.79 152.546C363.637 152.917 362.458 153.202 361.263 153.397C360.023 153.562 358.766 153.562 357.526 153.397C356.279 153.249 355.062 152.912 353.917 152.399C353.344 152.166 352.829 151.813 352.404 151.364C351.979 150.916 351.655 150.382 351.453 149.798C351.286 149.219 351.276 148.607 351.422 148.023C351.569 147.439 351.867 146.904 352.286 146.472C352.717 146.084 353.253 145.833 353.827 145.75C354.401 145.667 354.987 145.755 355.51 146.005C356.024 146.23 356.445 146.624 356.701 147.123C356.941 147.611 357.03 148.159 356.958 148.698C356.885 149.207 356.704 149.694 356.428 150.127C356.151 150.56 355.785 150.928 355.355 151.208C354.528 151.714 353.576 151.977 352.607 151.968C351.736 151.977 350.87 151.844 350.042 151.575C348.614 151.116 347.319 150.317 346.268 149.248C345.47 148.453 344.819 147.522 344.344 146.5C344.044 145.855 343.814 145.179 343.657 144.485C343.575 144.008 343.547 143.752 343.547 143.752C343.547 143.752 343.602 143.999 343.694 144.476C343.865 145.16 344.105 145.826 344.409 146.463C344.882 147.488 345.537 148.419 346.341 149.211C347.382 150.263 348.666 151.043 350.079 151.483C350.894 151.749 351.749 151.879 352.607 151.868C353.531 151.865 354.438 151.608 355.226 151.126C355.637 150.858 355.986 150.505 356.248 150.091C356.51 149.677 356.681 149.212 356.747 148.726C356.83 148.216 356.743 147.694 356.499 147.239C356.256 146.784 355.87 146.421 355.401 146.207C354.909 145.974 354.359 145.892 353.821 145.972C353.283 146.052 352.781 146.29 352.378 146.656C351.982 147.062 351.702 147.566 351.563 148.116C351.425 148.666 351.434 149.243 351.59 149.788C351.788 150.346 352.102 150.856 352.511 151.283C352.919 151.711 353.414 152.048 353.962 152.271C355.1 152.769 356.308 153.087 357.544 153.214C358.76 153.377 359.992 153.377 361.208 153.214C362.394 153.026 363.564 152.748 364.707 152.381C365.828 152.011 367.01 151.858 368.188 151.932C368.996 152.015 369.775 152.278 370.467 152.703C371.159 153.127 371.747 153.702 372.186 154.385C372.626 155.068 372.907 155.84 373.008 156.646C373.108 157.452 373.026 158.27 372.768 159.04C372.477 159.959 371.858 160.739 371.027 161.229C370.639 161.465 370.191 161.586 369.736 161.577C369.293 161.564 368.868 161.395 368.536 161.101C368.252 160.814 368.043 160.462 367.926 160.076C367.81 159.689 367.789 159.28 367.867 158.884C368.01 158.173 368.428 157.548 369.031 157.144C369.992 156.528 371.144 156.28 372.273 156.448C372.979 156.54 373.672 156.706 374.343 156.942C374.801 157.089 375.04 157.19 375.04 157.19Z" fill="#455A64"/>
<path d="M357.617 338.356L353.147 332.613L363.855 324.158L370.496 332.494L369.864 333.061C367.043 335.553 355.318 345.565 352.872 346.527C350.143 347.598 357.617 338.356 357.617 338.356Z" fill="#92E3A9"/>
<g opacity="0.4">
<path d="M354.091 343.028C354.091 343.028 351.627 346.472 352.442 346.692C353.257 346.912 365.477 337.239 370.496 332.503L370.286 332.274L356.124 343.669C356.124 343.669 354.732 342.561 354.091 343.028Z" fill="white"/>
</g>
<path d="M370.45 332.127C370.402 332.188 370.346 332.243 370.286 332.292L369.782 332.741L367.904 334.362C366.301 335.718 364.075 337.568 361.565 339.556C359.055 341.544 356.747 343.293 355.062 344.53L353.046 345.995L352.497 346.38L352.295 346.499L352.478 346.353L353.01 345.94L354.988 344.438C356.655 343.174 358.955 341.415 361.464 339.428C363.974 337.44 366.209 335.608 367.821 334.271L369.736 332.695L370.258 332.265L370.45 332.127Z" fill="#263238"/>
<path d="M356.262 343.824C355.921 343.57 355.552 343.355 355.162 343.183C354.757 343.061 354.339 342.987 353.917 342.963C354.343 342.825 354.806 342.848 355.217 343.028C355.652 343.155 356.024 343.439 356.262 343.824Z" fill="#263238"/>
<path d="M358.158 339.721C358.158 339.767 357.846 339.721 357.489 339.583C357.132 339.446 356.866 339.327 356.884 339.281C356.903 339.235 357.196 339.281 357.544 339.428C357.768 339.479 357.977 339.579 358.158 339.721Z" fill="#263238"/>
<path d="M358.661 338.576C358.661 338.622 358.396 338.649 358.084 338.631C357.773 338.613 357.516 338.558 357.516 338.512C357.516 338.466 357.773 338.439 358.094 338.466C358.289 338.458 358.483 338.495 358.661 338.576Z" fill="#263238"/>
<path d="M358.405 337.138C358.405 337.138 358.213 337.403 357.901 337.651C357.59 337.898 357.324 338.072 357.297 338.035C357.269 337.999 357.498 337.77 357.8 337.522C358.103 337.275 358.378 337.101 358.405 337.138Z" fill="#263238"/>
<path d="M358.029 336.277C357.917 336.532 357.753 336.761 357.548 336.95C357.343 337.139 357.102 337.284 356.839 337.376C356.839 337.33 357.113 337.129 357.443 336.826C357.773 336.524 357.993 336.249 358.029 336.277Z" fill="#263238"/>
<path d="M357.049 339.08C356.856 339.301 356.623 339.484 356.362 339.62C356.088 339.783 355.8 339.921 355.501 340.032C355.323 340.11 355.135 340.166 354.943 340.197C354.824 340.209 354.704 340.18 354.604 340.115C354.552 340.073 354.515 340.016 354.495 339.953C354.475 339.889 354.475 339.821 354.494 339.758C354.653 339.425 354.923 339.158 355.257 339.001C355.59 338.845 355.968 338.808 356.326 338.897C356.539 338.945 356.739 339.039 356.912 339.171C357.031 339.272 357.086 339.336 357.077 339.345C356.84 339.185 356.576 339.07 356.298 339.007C355.992 338.94 355.672 338.969 355.382 339.089C355.04 339.212 354.759 339.465 354.604 339.794C354.604 339.959 354.704 340.06 354.888 340.032C355.062 340 355.233 339.954 355.401 339.895C355.695 339.787 355.982 339.661 356.262 339.52C356.775 339.263 357.031 339.052 357.049 339.08Z" fill="#263238"/>
<path d="M356.903 339.254C356.903 339.254 356.655 339.171 356.445 338.842C356.323 338.642 356.251 338.415 356.234 338.182C356.215 338.035 356.232 337.886 356.283 337.748C356.334 337.609 356.418 337.484 356.527 337.385C356.609 337.343 356.703 337.335 356.791 337.362C356.878 337.39 356.951 337.451 356.994 337.532C357.066 337.655 357.109 337.793 357.123 337.935C357.15 338.157 357.15 338.381 357.123 338.603C357.115 338.813 357.055 339.018 356.949 339.199C356.949 339.199 356.949 338.961 357.004 338.594C357.029 338.381 357.029 338.166 357.004 337.953C357.004 337.733 356.839 337.422 356.646 337.532C356.562 337.616 356.498 337.718 356.46 337.831C356.422 337.944 356.41 338.064 356.426 338.182C356.434 338.39 356.487 338.593 356.582 338.777C356.675 338.945 356.782 339.105 356.903 339.254Z" fill="#263238"/>
<path d="M367.913 329.37C367.913 329.37 367.583 329.581 367.153 330.02C366.578 330.59 366.175 331.309 365.991 332.096C365.806 332.884 365.847 333.707 366.109 334.472C366.31 335.058 366.539 335.388 366.512 335.388C366.484 335.388 366.438 335.324 366.338 335.178C366.206 334.965 366.092 334.741 365.999 334.509C365.703 333.725 365.642 332.872 365.825 332.054C366.015 331.236 366.449 330.494 367.07 329.929C367.253 329.759 367.452 329.609 367.666 329.48C367.741 329.43 367.825 329.393 367.913 329.37Z" fill="#263238"/>
<path d="M363.287 325.789C363.937 326.462 364.549 327.172 365.119 327.914C366.09 329.123 366.851 330.121 366.823 330.149C366.17 329.478 365.558 328.768 364.991 328.024C364.374 327.317 363.805 326.57 363.287 325.789Z" fill="#263238"/>
<path d="M364.368 335.498C363.955 336.026 363.471 336.494 362.93 336.89C362.427 337.329 361.87 337.702 361.272 337.999C361.272 337.999 361.977 337.449 362.829 336.753C363.681 336.057 364.341 335.462 364.368 335.498Z" fill="#263238"/>
<path d="M366.466 333.831C366.512 333.831 366.53 334.023 366.585 334.243C366.64 334.463 366.713 334.637 366.677 334.664C366.64 334.692 366.484 334.536 366.42 334.28C366.356 334.023 366.429 333.822 366.466 333.831Z" fill="#263238"/>
<path d="M366.484 332.228C366.53 332.228 366.548 332.393 366.484 332.594C366.42 332.796 366.411 332.952 366.365 332.952C366.319 332.952 366.301 332.778 366.319 332.576C366.338 332.374 366.438 332.219 366.484 332.228Z" fill="#263238"/>
<path d="M367.254 330.882C367.254 330.882 367.135 331.037 367.025 331.211C366.915 331.385 366.86 331.569 366.814 331.559C366.768 331.55 366.741 331.34 366.878 331.12C367.015 330.9 367.244 330.836 367.254 330.882Z" fill="#263238"/>
<path d="M367.895 330.03C367.895 330.03 367.895 330.158 367.895 330.259C367.895 330.359 367.748 330.433 367.712 330.414C367.675 330.396 367.712 330.286 367.712 330.176C367.712 330.066 367.858 330.011 367.895 330.03Z" fill="#263238"/>
<g opacity="0.3">
<path d="M367.675 329.095L356.839 337.376L355.84 336.066L367.226 328.353L367.675 329.095Z" fill="black"/>
</g>
<path d="M308.373 344.127V336.845L322.021 336.79L322.104 347.452L321.252 347.507C317.487 347.736 302.098 348.377 299.579 347.626C296.786 346.783 308.373 344.127 308.373 344.127Z" fill="#92E3A9"/>
<g opacity="0.4">
<path d="M302.712 345.629C302.712 345.629 298.645 346.811 299.158 347.461C299.671 348.112 315.252 348.066 322.122 347.461V347.159L303.949 347.388C303.949 347.388 303.5 345.657 302.712 345.629Z" fill="white"/>
</g>
<path d="M322.315 347.14H322.076H321.399L318.925 347.259C316.828 347.342 313.933 347.424 310.736 347.443C307.539 347.461 304.636 347.443 302.538 347.342L300.065 347.25H299.387H299.149H300.065H302.547C304.636 347.25 307.539 347.314 310.736 347.305C313.933 347.296 316.828 347.223 318.916 347.168L321.399 347.104H322.315V347.14Z" fill="#263238"/>
<path d="M303.93 347.589C303.816 347.179 303.657 346.783 303.454 346.408C303.21 346.07 302.928 345.763 302.611 345.492C303.036 345.647 303.389 345.953 303.601 346.353C303.856 346.712 303.973 347.151 303.93 347.589Z" fill="#263238"/>
<path d="M307.943 345.528C307.943 345.528 307.714 345.318 307.512 345.006C307.31 344.695 307.182 344.42 307.219 344.402C307.256 344.383 307.448 344.603 307.649 344.924C307.851 345.244 307.979 345.51 307.943 345.528Z" fill="#263238"/>
<path d="M309.051 344.942C309.051 344.942 308.804 344.832 308.565 344.622C308.327 344.411 308.162 344.219 308.19 344.182C308.217 344.145 308.437 344.292 308.675 344.502C308.914 344.713 309.078 344.906 309.051 344.942Z" fill="#263238"/>
<path d="M309.738 343.65C309.514 343.737 309.272 343.769 309.033 343.742C308.792 343.774 308.547 343.749 308.318 343.669C308.544 343.587 308.784 343.556 309.023 343.577C309.264 343.551 309.508 343.576 309.738 343.65Z" fill="#263238"/>
<path d="M309.976 342.744C309.739 342.897 309.462 342.976 309.179 342.973C308.903 343.023 308.619 342.988 308.364 342.872C308.63 342.825 308.9 342.804 309.17 342.808C309.436 342.763 309.706 342.742 309.976 342.744Z" fill="#263238"/>
<path d="M307.475 344.347C307.172 344.4 306.862 344.4 306.559 344.347C306.248 344.31 305.941 344.242 305.643 344.145C305.459 344.096 305.28 344.025 305.112 343.935C305.009 343.872 304.931 343.774 304.892 343.66C304.878 343.595 304.884 343.527 304.909 343.465C304.933 343.403 304.975 343.35 305.03 343.312C305.363 343.145 305.743 343.1 306.106 343.184C306.468 343.267 306.791 343.474 307.017 343.77C307.153 343.942 307.25 344.142 307.301 344.356C307.32 344.434 307.32 344.516 307.301 344.594C307.212 344.322 307.075 344.068 306.898 343.843C306.698 343.614 306.438 343.446 306.147 343.357C305.977 343.3 305.796 343.278 305.617 343.292C305.437 343.306 305.262 343.357 305.103 343.44C304.966 343.541 305.02 343.706 305.176 343.797C305.332 343.885 305.498 343.952 305.671 343.999C305.969 344.104 306.275 344.184 306.587 344.237C307.164 344.319 307.475 344.319 307.475 344.347Z" fill="#263238"/>
<path d="M307.246 344.383C307.144 344.199 307.109 343.986 307.146 343.779C307.172 343.549 307.253 343.329 307.384 343.138C307.459 343.01 307.564 342.902 307.69 342.824C307.816 342.746 307.96 342.699 308.108 342.689C308.152 342.696 308.195 342.713 308.234 342.738C308.272 342.762 308.305 342.794 308.331 342.832C308.356 342.869 308.374 342.912 308.383 342.957C308.392 343.001 308.392 343.047 308.382 343.092C308.362 343.232 308.312 343.366 308.236 343.486C308.122 343.68 307.983 343.858 307.824 344.017C307.549 344.283 307.338 344.392 307.32 344.374C307.301 344.356 307.494 344.218 307.741 343.934C307.88 343.773 308.003 343.598 308.108 343.412C308.227 343.22 308.3 342.89 308.108 342.854C307.915 342.817 307.668 343.046 307.54 343.22C307.415 343.391 307.33 343.589 307.292 343.797C307.267 343.992 307.251 344.187 307.246 344.383Z" fill="#263238"/>
<path d="M322.012 343.403C322.012 343.403 321.628 343.403 321.005 343.403C320.206 343.506 319.449 343.822 318.816 344.319C318.187 344.829 317.715 345.505 317.451 346.27C317.348 346.592 317.262 346.919 317.194 347.25C317.176 347.16 317.176 347.066 317.194 346.975C317.211 346.724 317.257 346.475 317.332 346.234C317.583 345.435 318.061 344.725 318.706 344.191C319.36 343.662 320.158 343.343 320.996 343.275C321.245 343.245 321.497 343.245 321.747 343.275C321.844 343.297 321.935 343.341 322.012 343.403Z" fill="#263238"/>
<path d="M320.574 337.733C320.677 338.664 320.723 339.6 320.712 340.536C320.763 341.47 320.763 342.405 320.712 343.339C320.61 342.408 320.567 341.472 320.583 340.536C320.527 339.603 320.524 338.667 320.574 337.733Z" fill="#263238"/>
<path d="M315.408 346.032C314.757 346.183 314.089 346.251 313.42 346.234C312.751 346.267 312.08 346.218 311.423 346.087C311.423 346.041 312.339 346.087 313.42 346.087C314.501 346.087 315.408 346.032 315.408 346.032Z" fill="#263238"/>
<path d="M318.156 346.032C318.156 346.032 318.092 346.225 318 346.426C317.909 346.628 317.854 346.811 317.808 346.811C317.762 346.811 317.744 346.591 317.808 346.362C317.872 346.133 318.092 346.032 318.156 346.032Z" fill="#263238"/>
<path d="M319.127 344.768C319.127 344.768 319.072 344.942 318.935 345.08C318.797 345.217 318.651 345.318 318.614 345.29C318.577 345.263 318.669 345.107 318.816 344.97C318.962 344.832 319.072 344.731 319.127 344.768Z" fill="#263238"/>
<path d="M320.565 344.2C320.565 344.2 320.373 344.2 320.171 344.319C319.97 344.438 319.832 344.502 319.796 344.466C319.759 344.429 319.869 344.246 320.125 344.163C320.382 344.081 320.583 344.145 320.565 344.2Z" fill="#263238"/>
<path d="M321.591 343.907C321.591 343.953 321.527 344.026 321.417 344.072C321.307 344.118 321.197 344.118 321.179 344.072C321.161 344.026 321.243 343.962 321.353 343.916C321.463 343.87 321.573 343.87 321.591 343.907Z" fill="#263238"/>
<g opacity="0.3">
<path d="M322.122 342.854L308.364 342.872L308.373 341.223L322.067 341.141L322.122 342.854Z" fill="black"/>
</g>
<path d="M342.054 218.378L336.558 234.866C335.084 239.309 331.2 240.069 326.482 240.069H296.172V233.254L323.945 229.288L330.559 212.379L342.054 218.378Z" fill="#FFBE9D"/>
<path d="M292.81 231.798L290.401 230.662C290.401 230.662 287.8 225.633 287.204 225.835C286.609 226.036 286.426 227.511 287.47 229.828L284.273 228.912C284.273 228.912 277.321 232.118 277.632 232.576C277.726 232.795 277.867 232.991 278.045 233.149C278.224 233.307 278.435 233.423 278.664 233.488C278.893 233.554 279.134 233.568 279.369 233.529C279.604 233.49 279.827 233.399 280.023 233.263C281.534 232.485 283.513 231.578 283.513 231.578L287.259 232.65L282.432 233.263L277.852 237.394C278.252 237.692 278.74 237.846 279.239 237.833C279.737 237.819 280.216 237.639 280.6 237.321L292.508 239.831L296.172 240.033V233.217L292.81 231.798Z" fill="#FFBE9D"/>
<path d="M280.664 237.294C280.719 237.294 280.939 236.982 281.36 236.515C281.609 236.25 281.9 236.027 282.221 235.856C282.621 235.665 283.053 235.55 283.494 235.517C284.691 235.443 285.877 235.24 287.03 234.912C285.831 234.872 284.632 234.951 283.449 235.15C282.958 235.189 282.481 235.33 282.047 235.562C281.691 235.76 281.38 236.028 281.131 236.35C280.904 236.624 280.744 236.947 280.664 237.294Z" fill="#AA6550"/>
<path d="M282.514 237.77C282.56 237.77 282.597 237.523 282.927 237.449C283.256 237.376 283.797 237.33 284.356 237.275C285.05 237.262 285.743 237.192 286.426 237.065C285.749 236.829 285.024 236.772 284.319 236.9C283.814 236.944 283.315 237.049 282.835 237.211C282.752 237.242 282.677 237.291 282.615 237.354C282.553 237.418 282.506 237.494 282.478 237.578C282.432 237.706 282.487 237.77 282.514 237.77Z" fill="#AA6550"/>
<path d="M344.628 214.788L342.293 222.711L327.453 215.96C327.994 214.302 330.449 206.919 335.139 195.204C336.422 191.99 338.51 189.16 341.204 186.988C343.898 184.816 347.106 183.374 350.518 182.801C355.208 181.953 359.96 181.488 364.725 181.409C373.052 181.5 385.299 186.703 386.938 194.856C388.202 201.084 386.984 212.076 386.984 225.432L385.94 250.979L343.3 252.417L344.628 214.788Z" fill="#92E3A9"/>
<g opacity="0.3">
<path d="M386.938 219.551C381.754 220.613 376.423 219.551 371.137 219.23C367.931 219.038 364.377 218.69 361.84 220.659C359.834 222.226 359.028 224.855 358.442 227.328C356.234 236.781 355.831 243.11 355.336 252.802L380.984 254.359L386.938 219.551Z" fill="black"/>
</g>
<path d="M343.538 187.097C343.538 187.097 343.969 187.161 344.674 187.436C345.658 187.862 346.507 188.549 347.129 189.424C348.036 190.732 348.545 192.275 348.595 193.866C348.654 195.825 348.503 197.784 348.146 199.71C347.541 203.235 346.746 206.724 345.764 210.162C345.416 211.444 345.123 212.498 344.903 213.304C344.777 213.683 344.685 214.072 344.628 214.467C344.8 214.105 344.938 213.728 345.041 213.34C345.279 212.608 345.618 211.554 346.012 210.235C347.08 206.805 347.916 203.308 348.512 199.765C348.872 197.811 349.013 195.824 348.934 193.839C348.863 192.189 348.308 190.596 347.34 189.259C346.671 188.366 345.763 187.683 344.72 187.289C344.437 187.196 344.145 187.129 343.85 187.088C343.648 187.088 343.538 187.079 343.538 187.097Z" fill="#263238"/>
<path d="M327.921 213.972C328.583 214.428 329.282 214.829 330.009 215.172C331.328 215.859 333.169 216.766 335.239 217.701C337.31 218.635 339.215 219.413 340.607 219.945C341.342 220.272 342.105 220.53 342.888 220.714C342.182 220.328 341.451 219.992 340.699 219.707C339.343 219.111 337.456 218.296 335.395 217.362C333.334 216.427 331.475 215.53 330.128 214.934C329.417 214.559 328.679 214.238 327.921 213.972Z" fill="#263238"/>
<path d="M321.124 254.359C317.632 256.265 315.026 259.464 313.867 263.269C312.707 267.075 313.086 271.183 314.923 274.712L352.048 338.429L369.168 328.088L340.351 270.563L361.208 256.924" fill="#263238"/>
<path d="M366.31 251.199L315.362 253.031C311.386 253.172 307.624 254.866 304.884 257.75C302.144 260.635 300.644 264.478 300.706 268.456L302.822 341.214H324.247L323.533 272.422L366.31 271.296V251.199Z" fill="#263238"/>
<path d="M323.533 274.832C323.576 275.055 323.597 275.282 323.597 275.509C323.597 275.998 323.624 276.639 323.679 277.433C323.744 279.109 323.808 281.537 323.872 284.541C324 290.541 324.082 298.831 324.128 307.982C324.174 317.132 324.22 325.386 324.247 331.422C324.247 334.39 324.247 336.799 324.293 338.53C324.293 339.336 324.293 339.977 324.293 340.463C324.315 340.688 324.315 340.915 324.293 341.141C324.251 340.917 324.229 340.69 324.229 340.463C324.229 339.977 324.183 339.336 324.147 338.53C324.082 336.854 324.018 334.427 323.954 331.431C323.826 325.431 323.744 317.142 323.698 307.982C323.652 298.822 323.606 290.578 323.579 284.541C323.579 281.582 323.579 279.173 323.579 277.442V275.5C323.542 275.279 323.527 275.055 323.533 274.832Z" fill="#455A64"/>
<path d="M388.377 205.032H372.96C369.982 205.032 367.125 206.215 365.019 208.322C362.913 210.428 361.73 213.284 361.73 216.262V270.004H330.98C328.917 270.004 326.939 270.824 325.481 272.282C324.022 273.74 323.203 275.718 323.203 277.781H393.506C395.16 277.712 396.724 277.007 397.869 275.812C399.015 274.616 399.654 273.025 399.652 271.369V216.262C399.652 214.784 399.361 213.32 398.793 211.954C398.226 210.589 397.395 209.349 396.347 208.305C395.299 207.262 394.056 206.436 392.688 205.874C391.32 205.312 389.855 205.026 388.377 205.032Z" fill="#455A64"/>
<path d="M366.209 206.8C366.338 206.8 366.448 222.601 366.448 242.094C366.448 261.586 366.338 277.387 366.209 277.387C366.081 277.387 365.971 261.586 365.971 242.094C365.971 222.601 366.081 206.8 366.209 206.8Z" fill="#263238"/>
<path d="M364.258 334.252V277.845H359.248V334.252C356.188 340.28 348.998 344.328 340.241 347.699H384.905C375.864 344.017 367.62 341.186 364.258 334.252Z" fill="#455A64"/>
<path d="M82.0753 326.943L82.2218 326.613L82.6707 325.651C83.2119 324.412 83.653 323.132 83.9897 321.822C85.0417 316.943 85.001 311.891 83.8706 307.029C83.169 303.66 82.2511 300.341 81.1226 297.09C79.9593 293.564 78.6128 289.826 77.4586 285.778C76.2165 281.556 75.6175 277.171 75.6816 272.77C75.8465 268.19 77.2113 263.61 78.7044 259.03C80.1975 254.45 81.7455 249.98 82.2127 245.474C82.7259 241.141 81.8537 236.758 79.7212 232.952C77.7426 229.288 75.2511 226.173 73.3824 222.94C71.6362 219.939 70.3487 216.694 69.5627 213.313C68.4418 208.413 68.3607 203.333 69.3246 198.4C69.6664 196.597 70.1881 194.833 70.8818 193.133C70.8594 193.251 70.8288 193.368 70.7902 193.481C70.7077 193.729 70.607 194.058 70.4696 194.489C70.0972 195.785 69.7915 197.1 69.5536 198.428C68.6581 203.329 68.7828 208.362 69.92 213.212C70.7164 216.554 72.0069 219.759 73.7488 222.72C75.5808 225.917 78.1182 229.031 80.1608 232.732C82.3465 236.609 83.2446 241.08 82.7256 245.501C82.2585 250.081 80.7013 254.588 79.2082 259.159C77.7151 263.729 76.3686 268.319 76.1946 272.798C76.1312 277.153 76.7178 281.494 77.935 285.677C79.025 289.698 80.3532 293.444 81.5074 296.98C82.6259 300.248 83.5256 303.587 84.2004 306.974C85.3204 311.878 85.3204 316.972 84.2004 321.877C83.8331 323.192 83.3456 324.471 82.744 325.697C82.5333 326.091 82.3776 326.402 82.2493 326.613C82.207 326.73 82.1484 326.841 82.0753 326.943Z" fill="#263238"/>
<path d="M75.9748 226.1C75.9748 226.1 72.1825 213.981 78.9792 206.864C79.0324 206.807 79.1005 206.765 79.1759 206.744C79.2513 206.723 79.331 206.724 79.4061 206.746C79.4813 206.768 79.5488 206.81 79.6012 206.868C79.6536 206.926 79.6888 206.998 79.7029 207.075C80.0601 209.09 80.5181 215.19 75.9748 226.1Z" fill="#92E3A9"/>
<path d="M78.2465 210.922C78.2357 211.674 78.1498 212.423 77.99 213.157C77.7335 214.696 77.4404 216.51 77.074 218.507C76.7076 220.503 76.4694 222.317 76.2313 223.856C76.1612 224.602 76.0264 225.341 75.8282 226.064C75.7581 225.313 75.7796 224.556 75.8923 223.81C76.0206 222.427 76.2587 220.522 76.6068 218.433C76.9549 216.345 77.3121 214.458 77.6144 213.093C77.7362 212.346 77.9484 211.617 78.2465 210.922Z" fill="#263238"/>
<path d="M80.4265 254.698C80.4265 254.698 82.744 242.213 92.078 239.126C92.1513 239.099 92.2306 239.093 92.3069 239.11C92.3831 239.126 92.4532 239.164 92.5088 239.219C92.5644 239.273 92.6034 239.343 92.6212 239.419C92.639 239.495 92.6349 239.574 92.6093 239.648C91.9956 241.608 89.5499 247.177 80.4265 254.698Z" fill="#92E3A9"/>
<path d="M89.5315 242.341C89.171 242.993 88.7444 243.607 88.2583 244.173L84.9973 248.496L81.7455 252.82C81.3407 253.453 80.8743 254.046 80.3532 254.588C80.6462 253.892 81.0214 253.234 81.4707 252.628C82.231 251.464 83.3027 249.88 84.6126 248.203C85.9225 246.527 87.1041 245.025 87.9926 243.962C88.4405 243.363 88.957 242.819 89.5315 242.341Z" fill="#263238"/>
<path d="M77.8984 286.025C77.8984 286.025 76.4969 273.402 84.521 267.705C84.5844 267.659 84.6593 267.631 84.7374 267.626C84.8154 267.62 84.8935 267.636 84.963 267.672C85.0324 267.708 85.0904 267.763 85.1304 267.83C85.1705 267.898 85.191 267.975 85.1897 268.053C85.1622 270.114 84.4478 276.187 77.8984 286.025Z" fill="#92E3A9"/>
<path d="M83.0279 271.561C82.8752 272.297 82.6481 273.015 82.3501 273.705L80.5181 278.789C79.8219 280.694 79.1991 282.453 78.6861 283.881C78.4764 284.6 78.2036 285.299 77.8708 285.97C77.9446 285.22 78.1108 284.481 78.3655 283.772C78.7502 282.434 79.3548 280.611 80.0876 278.624C80.8204 276.636 81.544 274.859 82.0936 273.586C82.3254 272.877 82.639 272.198 83.0279 271.561Z" fill="#263238"/>
<path d="M84.9332 317.544C84.9332 317.544 84.0172 304.876 92.2062 299.499C92.27 299.454 92.3454 299.427 92.4236 299.423C92.5019 299.419 92.5796 299.437 92.6479 299.476C92.7161 299.514 92.772 299.571 92.809 299.64C92.8459 299.709 92.8624 299.787 92.8566 299.866C92.7558 301.899 91.8215 307.936 84.9332 317.544Z" fill="#92E3A9"/>
<path d="M90.5758 303.264C90.3931 303.996 90.1385 304.708 89.8155 305.389C89.2293 306.836 88.5331 308.531 87.7728 310.4C87.0126 312.268 86.3164 313.972 85.7301 315.419C85.4927 316.134 85.1859 316.825 84.8141 317.48C84.9235 316.734 85.1171 316.003 85.3912 315.3C85.8218 313.981 86.4904 312.186 87.3057 310.226C88.1209 308.265 88.8904 306.507 89.4858 305.252C89.7714 304.549 90.1372 303.882 90.5758 303.264Z" fill="#263238"/>
<path d="M70.5245 215.456C70.5245 215.456 59.2669 209.548 59.0379 199.747C59.0344 199.669 59.0527 199.591 59.0909 199.522C59.1291 199.454 59.1857 199.397 59.2542 199.359C59.3227 199.321 59.4005 199.303 59.4788 199.307C59.5571 199.311 59.6328 199.336 59.6974 199.38C61.3737 200.535 66.0087 204.528 70.5245 215.456Z" fill="#92E3A9"/>
<path d="M61.3829 203.136C61.9084 203.677 62.378 204.269 62.7844 204.904L65.9537 209.292L69.1414 213.67C69.6268 214.238 70.0562 214.851 70.4238 215.502C69.8413 215.022 69.3212 214.471 68.8758 213.862C67.9598 212.8 66.8056 211.279 65.569 209.557C64.3324 207.835 63.2607 206.25 62.5096 205.078C62.062 204.475 61.684 203.824 61.3829 203.136Z" fill="#263238"/>
<path d="M82.6158 241.489C82.6158 241.489 71.0192 236.304 70.204 226.503C70.1951 226.426 70.2084 226.347 70.2423 226.277C70.2762 226.207 70.3293 226.148 70.3955 226.107C70.4617 226.065 70.5382 226.044 70.6162 226.044C70.6941 226.045 70.7704 226.067 70.836 226.109C72.5764 227.163 77.4404 230.854 82.6158 241.489Z" fill="#92E3A9"/>
<path d="M72.7413 229.7C73.2956 230.205 73.7988 230.763 74.2435 231.367L77.6785 235.562C78.9701 237.12 80.1334 238.53 81.1227 239.739C81.6399 240.281 82.106 240.87 82.515 241.498C81.9089 241.052 81.3585 240.536 80.8754 239.959C79.9594 238.952 78.6495 237.504 77.3121 235.855C75.9748 234.207 74.8023 232.695 73.9779 231.578C73.4969 231 73.0821 230.37 72.7413 229.7Z" fill="#263238"/>
<path d="M75.9381 270.535C75.9381 270.535 67.9781 260.633 71.7154 251.537C71.7426 251.464 71.79 251.401 71.8521 251.353C71.9142 251.306 71.9884 251.278 72.0661 251.271C72.1438 251.264 72.2218 251.28 72.291 251.315C72.3603 251.351 72.4179 251.406 72.4573 251.473C73.529 253.205 76.1854 258.71 75.9381 270.535Z" fill="#92E3A9"/>
<path d="M72.5031 255.568C72.7678 256.273 72.9611 257.004 73.0802 257.748C73.4191 259.269 73.8038 261.064 74.2343 263.042C74.6648 265.021 75.0587 266.798 75.3976 268.328C75.6123 269.048 75.7595 269.787 75.8373 270.535C75.4926 269.863 75.237 269.149 75.077 268.41C74.6832 267.073 74.216 265.213 73.7672 263.134C73.3183 261.055 72.9702 259.177 72.7504 257.812C72.5841 257.076 72.5012 256.323 72.5031 255.568Z" fill="#263238"/>
<path d="M83.8249 304.711C83.8249 304.711 72.3199 299.316 71.6695 289.515C71.6648 289.438 71.6813 289.361 71.7173 289.293C71.7532 289.225 71.8072 289.168 71.8733 289.128C71.9395 289.088 72.0152 289.067 72.0924 289.068C72.1695 289.068 72.245 289.09 72.3107 289.13C74.0328 290.211 78.8418 293.985 83.8249 304.711Z" fill="#92E3A9"/>
<path d="M74.1519 292.785C74.6974 293.304 75.1913 293.874 75.6267 294.489L78.9976 298.73C80.2525 300.314 81.3975 301.743 82.3684 302.962C82.876 303.531 83.3327 304.144 83.7333 304.794C83.1344 304.332 82.5904 303.804 82.112 303.218C81.196 302.192 79.9319 300.727 78.622 299.06C77.3121 297.392 76.1671 295.863 75.361 294.727C74.8848 294.128 74.4791 293.476 74.1519 292.785Z" fill="#263238"/>
<path d="M106.743 254.762C106.743 254.762 106.743 254.863 106.743 255.046C106.743 255.229 106.743 255.531 106.743 255.861C106.707 256.618 106.661 257.644 106.606 258.939C106.459 261.687 106.249 265.424 106.001 269.931C105.177 274.511 102.841 279.613 99.69 284.587C97.3817 288.251 94.9726 291.548 92.8841 294.663C90.9874 297.355 89.2825 300.177 87.782 303.108C86.7921 305.093 85.9917 307.166 85.3912 309.3C85.1897 310.061 85.034 310.647 84.9516 311.05C84.9129 311.259 84.8546 311.465 84.7775 311.664C84.7793 311.451 84.8039 311.239 84.8508 311.032C84.9149 310.619 85.034 310.024 85.208 309.255C85.7487 307.085 86.5099 304.976 87.4797 302.962C88.9439 299.994 90.6279 297.141 92.5177 294.425C94.5879 291.319 96.997 288.013 99.287 284.349C102.42 279.43 104.783 274.41 105.598 269.885C105.91 265.369 106.175 261.641 106.368 258.893C106.468 257.61 106.551 256.585 106.615 255.824C106.615 255.504 106.679 255.238 106.697 255.018C106.702 254.931 106.717 254.845 106.743 254.762Z" fill="#263238"/>
<path d="M99.8915 283.652C99.8915 283.652 104.765 271.928 98.6366 264.242C98.5908 264.179 98.528 264.13 98.4554 264.101C98.3828 264.072 98.3035 264.064 98.2267 264.079C98.1499 264.093 98.0787 264.129 98.0216 264.182C97.9644 264.236 97.9236 264.304 97.9038 264.38C97.4 266.34 96.3558 272.376 99.8915 283.652Z" fill="#92E3A9"/>
<path d="M99.0122 268.328C99.2201 269.051 99.3491 269.794 99.3969 270.545C99.5709 271.928 99.7633 273.833 99.9098 275.949C100.056 278.065 100.139 279.989 100.13 281.372C100.172 282.125 100.129 282.881 100.001 283.625C99.8625 282.888 99.795 282.14 99.7999 281.39C99.69 279.833 99.5709 278.001 99.4335 275.986C99.2961 273.97 99.1679 272.138 99.058 270.581C98.9619 269.834 98.9466 269.078 99.0122 268.328Z" fill="#263238"/>
<g opacity="0.3">
<path d="M99.8915 283.652C99.8915 283.652 104.765 271.928 98.6366 264.242C98.5908 264.179 98.528 264.13 98.4554 264.101C98.3828 264.072 98.3035 264.064 98.2267 264.079C98.1499 264.093 98.0787 264.129 98.0216 264.182C97.9644 264.236 97.9236 264.304 97.9038 264.38C97.4 266.34 96.3558 272.376 99.8915 283.652Z" fill="black"/>
</g>
<path d="M84.805 311.92C84.805 311.92 88.7072 299.838 81.9746 292.684C81.922 292.627 81.8546 292.585 81.7799 292.564C81.7051 292.542 81.6259 292.542 81.551 292.563C81.476 292.584 81.4084 292.625 81.3554 292.682C81.3025 292.739 81.2663 292.81 81.2509 292.886C80.912 294.873 80.3533 300.965 84.805 311.92Z" fill="#92E3A9"/>
<path d="M82.6707 296.724C82.9432 297.426 83.1337 298.158 83.2386 298.904C83.5226 300.26 83.8707 302.147 84.1546 304.244C84.4386 306.342 84.7042 308.247 84.8141 309.63C84.9069 310.379 84.9069 311.135 84.8141 311.884C84.6237 311.157 84.498 310.415 84.4386 309.667C84.2096 308.128 83.9348 306.314 83.6417 304.317C83.3485 302.321 83.0646 300.498 82.8264 298.959C82.6994 298.221 82.6472 297.472 82.6707 296.724Z" fill="#263238"/>
<g opacity="0.3">
<path d="M84.805 311.92C84.805 311.92 88.7072 299.838 81.9746 292.684C81.922 292.627 81.8546 292.585 81.7799 292.564C81.7051 292.542 81.6259 292.542 81.551 292.563C81.476 292.584 81.4084 292.625 81.3554 292.682C81.3025 292.739 81.2663 292.81 81.2509 292.886C80.912 294.873 80.3533 300.965 84.805 311.92Z" fill="black"/>
</g>
<path d="M106.102 269.317C106.102 269.317 116.508 262.035 115.454 252.261C115.447 252.184 115.418 252.111 115.371 252.05C115.324 251.988 115.262 251.94 115.19 251.912C115.118 251.884 115.04 251.876 114.964 251.889C114.887 251.902 114.816 251.936 114.758 251.986C113.247 253.351 109.171 257.904 106.102 269.317Z" fill="#92E3A9"/>
<g opacity="0.3">
<path d="M106.102 269.317C106.102 269.317 116.508 262.035 115.454 252.261C115.447 252.184 115.418 252.111 115.371 252.05C115.324 251.988 115.262 251.94 115.19 251.912C115.118 251.884 115.04 251.876 114.964 251.889C114.887 251.902 114.816 251.936 114.758 251.986C113.247 253.351 109.171 257.904 106.102 269.317Z" fill="black"/>
</g>
<path d="M113.577 255.907C113.363 256.629 113.071 257.327 112.706 257.986C112.12 259.241 111.259 260.963 110.251 262.823C109.244 264.682 108.273 266.349 107.503 267.522C107.145 268.187 106.701 268.802 106.184 269.354C106.473 268.66 106.82 267.992 107.22 267.357C107.971 265.992 108.841 264.389 109.812 262.612C110.783 260.835 111.644 259.223 112.395 257.849C112.719 257.162 113.115 256.511 113.577 255.907Z" fill="#263238"/>
<path d="M89.0002 299.939C89.0002 299.939 101.549 297.979 104.911 288.745C104.939 288.673 104.947 288.594 104.933 288.517C104.919 288.44 104.883 288.369 104.831 288.311C104.779 288.253 104.712 288.211 104.637 288.189C104.562 288.167 104.483 288.166 104.407 288.187C102.447 288.755 96.7771 291.072 89.0002 299.939Z" fill="#92E3A9"/>
<g opacity="0.3">
<path d="M89.0002 299.939C89.0002 299.939 101.549 297.979 104.911 288.745C104.939 288.673 104.947 288.594 104.933 288.517C104.919 288.44 104.883 288.369 104.831 288.311C104.779 288.253 104.712 288.211 104.637 288.189C104.562 288.167 104.483 288.166 104.407 288.187C102.447 288.755 96.7771 291.072 89.0002 299.939Z" fill="black"/>
</g>
<path d="M101.614 291.191C101.106 291.751 100.538 292.252 99.919 292.684C98.8381 293.545 97.3084 294.709 95.5771 295.936C93.8459 297.163 92.2521 298.226 91.0704 298.959C90.4518 299.393 89.7809 299.747 89.0735 300.012C89.6377 299.506 90.2514 299.058 90.9055 298.675L95.3207 295.551L99.7358 292.409C100.321 291.944 100.95 291.536 101.614 291.191Z" fill="#263238"/>
<path d="M77.0281 323.041L73.3641 347.681H96.1817L93.223 323.041H77.0281Z" fill="#455A64"/>
<path d="M94.1299 330.671C91.0828 330.911 88.0253 330.99 84.9699 330.909C81.9145 330.99 78.8569 330.911 75.8099 330.671C78.8572 330.436 81.9145 330.356 84.9699 330.432C88.0253 330.356 91.0826 330.436 94.1299 330.671Z" fill="#263238"/>
<path d="M94.5879 332.631C91.4246 332.872 88.2511 332.952 85.0798 332.869C81.9115 332.952 78.741 332.873 75.5809 332.631C75.5809 332.503 79.8311 332.393 85.0798 332.393C90.3285 332.393 94.5879 332.503 94.5879 332.631Z" fill="#263238"/>
<path d="M546.618 89.1253H456.262L454.794 15.8406H545.15L546.618 89.1253ZM457.055 88.1496H545.781L544.357 16.8163H455.616L457.055 88.1496Z" fill="#D1D1D7"/>
<path d="M544.959 26.8288H455.41L455.396 25.853H544.944L544.959 26.8288Z" fill="#D1D1D7"/>
<path d="M545.135 35.7455H455.601L455.572 34.7698H545.121L545.135 35.7455Z" fill="#D1D1D7"/>
<path d="M545.311 44.6771H455.777L455.748 43.7014H545.297L545.311 44.6771Z" fill="#D1D1D7"/>
<path d="M545.502 53.5936H455.953L455.939 52.6179H545.473L545.502 53.5936Z" fill="#D1D1D7"/>
<path d="M545.678 62.5253H456.13L456.115 61.5496H545.649L545.678 62.5253Z" fill="#D1D1D7"/>
<path d="M545.855 71.442H456.306L456.291 70.4663H545.84L545.855 71.442Z" fill="#D1D1D7"/>
<path d="M546.031 80.3588H456.482L456.467 79.3831H546.016L546.031 80.3588Z" fill="#D1D1D7"/>
<path d="M464.381 88.6298H463.574L462.12 16.3208H462.928L464.381 88.6298Z" fill="#D1D1D7"/>
<path d="M473.631 88.6298H472.824L471.385 16.3208H472.192L473.631 88.6298Z" fill="#D1D1D7"/>
<path d="M482.896 88.6298H482.088L480.635 16.3208H481.457L482.896 88.6298Z" fill="#D1D1D7"/>
<path d="M492.161 88.6298H491.353L489.899 16.3208H490.707L492.161 88.6298Z" fill="#D1D1D7"/>
<path d="M501.425 88.6298H500.603L499.164 16.3208H499.972L501.425 88.6298Z" fill="#D1D1D7"/>
<path d="M510.675 88.6298H509.868L508.429 16.3208H509.236L510.675 88.6298Z" fill="#D1D1D7"/>
<path d="M519.94 88.6298H519.132L517.679 16.3208H518.501L519.94 88.6298Z" fill="#D1D1D7"/>
<path d="M529.205 88.6298H528.397L526.943 16.3208H527.751L529.205 88.6298Z" fill="#D1D1D7"/>
<path d="M538.469 88.6298H537.647L536.208 16.3208H537.016L538.469 88.6298Z" fill="#D1D1D7"/>
<path d="M451.343 17.657H446.087C445.5 17.657 445.015 17.1016 445 16.4111V16.2459C444.986 15.5704 445.455 15 446.043 15H451.299C451.886 15 452.371 15.5554 452.386 16.2459V16.4111C452.4 17.0866 451.93 17.657 451.343 17.657Z" fill="#92E3A9"/>
<path d="M451.534 27.6697H446.278C445.69 27.6697 445.206 27.1143 445.191 26.4237V26.2586C445.176 25.5831 445.646 25.0127 446.234 25.0127H451.49C452.077 25.0127 452.562 25.5681 452.576 26.2586V26.4237C452.591 27.1143 452.121 27.6697 451.534 27.6697Z" fill="#92E3A9"/>
<path d="M451.74 37.6819H446.483C445.896 37.6819 445.411 37.1265 445.397 36.4359V36.2708C445.382 35.5953 445.852 35.0249 446.439 35.0249H451.695C452.283 35.0249 452.767 35.5803 452.782 36.2708V36.4359C452.797 37.1265 452.327 37.6819 451.74 37.6819Z" fill="#92E3A9"/>
<path d="M451.945 47.6946H446.689C446.102 47.6946 445.617 47.1392 445.602 46.4486V46.2835C445.588 45.608 446.057 45.0376 446.645 45.0376H451.901C452.488 45.0376 452.973 45.593 452.988 46.2835V46.4486C453.002 47.1392 452.532 47.6946 451.945 47.6946Z" fill="#92E3A9"/>
<path d="M452.136 57.7068H446.88C446.292 57.7068 445.808 57.1514 445.793 56.4609V56.2957C445.778 55.6202 446.248 55.0498 446.836 55.0498H452.092C452.679 55.0498 453.164 55.6052 453.178 56.2957V56.4609C453.193 57.1514 452.723 57.7068 452.136 57.7068Z" fill="#92E3A9"/>
<path d="M452.342 67.7195H447.085C446.498 67.7195 446.013 67.1641 445.999 66.4736V66.3084C445.984 65.6329 446.454 65.0625 447.041 65.0625H452.298C452.885 65.0625 453.369 65.6179 453.384 66.3084V66.4736C453.399 67.1641 452.929 67.7195 452.342 67.7195Z" fill="#92E3A9"/>
<path d="M452.547 77.7319H447.291C446.703 77.7319 446.219 77.1765 446.204 76.486V76.3209C446.19 75.6453 446.659 75.075 447.247 75.075H452.503C453.09 75.075 453.575 75.6303 453.59 76.3209V76.486C453.604 77.1765 453.134 77.7319 452.547 77.7319Z" fill="#92E3A9"/>
<path d="M456.526 70.8717L456.012 67.9896L463.295 66.2783L472.016 61.5948L481.266 51.0119H491.001L499.605 48.6401L508.678 37.802L518.266 31.7075L536.37 29.4408L544.063 21.4849L545.678 23.7215L537.427 32.2629L518.824 34.5896L510.029 40.2939L500.882 51.3121L491.324 53.9091L482.279 53.9391L473.235 64.1767L464.073 69.0554L456.526 70.8717Z" fill="#92E3A9"/>
<path d="M482.69 77.942L472.853 76.546L456.511 77.867L456.306 74.9548L472.853 73.6188L481.809 74.8798L490.751 65.0024L500.765 63.3812L509.016 59.7635L518.296 47.6494L528.75 50.4265L537.324 57.737L544.548 48.9854L546.295 51.087L537.632 61.5648L527.575 52.9784L519.191 50.8468L510.161 62.4054L501.381 66.2183L491.867 67.7795L482.69 77.942Z" fill="#92E3A9"/>
<defs>
<filter id="filter0_d_233_99" x="420.586" y="0.0588379" width="149.192" height="169.042" filterUnits="userSpaceOnUse" color-interpolation-filters="sRGB">
<feFlood flood-opacity="0" result="BackgroundImageFix"/>
<feColorMatrix in="SourceAlpha" type="matrix" values="0 0 0 0 0 0 0 0 0 0 0 0 0 0 0 0 0 0 127 0" result="hardAlpha"/>
<feOffset dy="4"/>
<feGaussianBlur stdDeviation="2"/>
<feComposite in2="hardAlpha" operator="out"/>
<feColorMatrix type="matrix" values="0 0 0 0 0 0 0 0 0 0 0 0 0 0 0 0 0 0 0.25 0"/>
<feBlend mode="normal" in2="BackgroundImageFix" result="effect1_dropShadow_233_99"/>
<feBlend mode="normal" in="SourceGraphic" in2="effect1_dropShadow_233_99" result="shape"/>
</filter>
</defs>
</svg>
