<svg width="687" height="458" viewBox="0 0 687 458" fill="none" xmlns="http://www.w3.org/2000/svg">
<path d="M646.495 415.763C646.495 415.901 510.826 416.001 343.518 416.001C176.211 416.001 40.5055 415.901 40.5055 415.763C40.5055 415.626 176.147 415.525 343.518 415.525C510.89 415.525 646.495 415.635 646.495 415.763Z" fill="#263238"/>
<path d="M452.733 80.0127H207.859V240.633H452.733V80.0127Z" fill="#FAFAFA"/>
<path d="M452.733 240.633C452.733 239.085 452.66 177.979 452.541 80.0127L452.733 80.2051H207.877L208.115 79.9669C208.115 137.089 208.115 191.444 208.115 240.587L207.895 240.368L452.77 240.587L207.895 240.807H207.676V240.587C207.676 191.444 207.676 137.08 207.676 79.9669V79.7288H207.932L452.788 79.7837H452.98V79.9669C452.806 177.979 452.733 239.076 452.733 240.633Z" fill="#263238"/>
<path d="M282.696 168.709L306.778 169.048C306.594 181.872 295.786 192.342 282.696 192.342H282.549L282.696 168.709Z" fill="#455A64"/>
<path d="M322.524 201.328C322.35 201.343 322.175 201.343 322.002 201.328H320.536L315.15 201.392H315.104L315.058 201.337C312.906 198.635 310.139 195.135 307.117 191.325L300.705 183.163L300.833 183.218L293.743 183.154L291.746 183.2C291.512 183.225 291.275 183.225 291.041 183.2C291.274 183.165 291.51 183.15 291.746 183.154H293.725L300.814 183.09H300.888V183.145L307.3 191.288L315.177 201.364L315.067 201.309L320.454 201.373H321.919C322.118 201.332 322.321 201.317 322.524 201.328Z" fill="#263238"/>
<path d="M331.161 204.103C331.161 204.204 327.672 204.286 323.366 204.286C319.061 204.286 315.571 204.204 315.571 204.103C315.571 204.002 319.061 203.92 323.366 203.92C327.672 203.92 331.161 204.002 331.161 204.103Z" fill="#263238"/>
<path d="M331.161 207.016C331.161 207.117 327.672 207.199 323.366 207.199C319.061 207.199 315.571 207.117 315.571 207.016C315.571 206.915 319.061 206.833 323.366 206.833C327.672 206.833 331.161 206.888 331.161 207.016Z" fill="#263238"/>
<path d="M278.885 165.283L278.546 188.916C265.466 188.733 254.795 178.125 254.795 165.283C254.795 152.441 265.667 141.659 278.885 141.659C292.103 141.659 302.976 152.322 302.976 165.283H278.885Z" fill="#92E3A9"/>
<path d="M269.478 157.552C269.345 157.599 269.206 157.63 269.066 157.644L267.866 157.836L263.542 158.45H263.469L263.414 158.395L257.643 152.78C254.895 150.032 252.376 147.586 250.581 145.781L248.474 143.629C248.203 143.376 247.955 143.101 247.732 142.804C248.035 143.019 248.317 143.261 248.575 143.528L250.764 145.589C252.596 147.348 255.124 149.794 257.9 152.514L263.625 158.175H263.497L267.848 157.699L269.047 157.589C269.188 157.55 269.333 157.538 269.478 157.552Z" fill="#263238"/>
<path d="M241.632 141.778C241.632 141.879 238.142 141.962 233.837 141.962C229.531 141.962 226.051 141.879 226.051 141.778C226.051 141.678 229.531 141.595 233.837 141.595C238.142 141.595 241.632 141.678 241.632 141.778Z" fill="#263238"/>
<path d="M241.632 144.664C241.632 144.765 238.142 144.847 233.837 144.847C229.531 144.847 226.051 144.765 226.051 144.664C226.051 144.563 229.531 144.481 233.837 144.481C238.142 144.481 241.632 144.563 241.632 144.664Z" fill="#263238"/>
<path d="M363.148 118.604L363.057 103.948C358.583 104.029 354.285 105.705 350.938 108.674C348.799 110.541 347.149 112.902 346.132 115.552C345.115 118.203 344.762 121.062 345.103 123.88C345.181 124.597 345.297 125.309 345.451 126.014C345.447 126.032 345.447 126.051 345.451 126.069L363.139 122.085L363.148 118.604Z" fill="#92E3A9"/>
<g opacity="0.3">
<path d="M363.148 118.604L363.057 103.948C358.583 104.029 354.285 105.705 350.938 108.674C348.799 110.541 347.149 112.902 346.132 115.552C345.115 118.203 344.762 121.062 345.103 123.88C345.181 124.597 345.297 125.309 345.451 126.014C345.447 126.032 345.447 126.051 345.451 126.069L363.139 122.085L363.148 118.604Z" fill="white"/>
</g>
<path d="M381.386 114.088C380.094 111.314 378.094 108.929 375.587 107.175C373.08 105.42 370.154 104.358 367.105 104.094L366.547 104.039H366.189C365.841 104.039 365.484 104.039 365.127 104.039H365.026L365.127 118.695V122.139L382.888 125.978C383.162 124.729 383.294 123.454 383.282 122.176C383.255 119.373 382.608 116.611 381.386 114.088Z" fill="#92E3A9"/>
<g opacity="0.3">
<path d="M380.932 114.299L380.932 114.299L380.936 114.306C382.125 116.762 382.756 119.452 382.782 122.181C382.792 123.255 382.697 124.327 382.499 125.382L365.627 121.736L365.627 118.695L365.627 118.692L365.529 104.539H365.53H365.532H365.534H365.537H365.539H365.541H365.543H365.545H365.547H365.549H365.551H365.553H365.555H365.557H365.559H365.562H365.564H365.566H365.568H365.57H365.572H365.574H365.576H365.578H365.58H365.582H365.584H365.587H365.589H365.591H365.593H365.595H365.597H365.599H365.601H365.603H365.605H365.607H365.609H365.612H365.614H365.616H365.618H365.62H365.622H365.624H365.626H365.628H365.63H365.632H365.634H365.636H365.639H365.641H365.643H365.645H365.647H365.649H365.651H365.653H365.655H365.657H365.659H365.661H365.664H365.666H365.668H365.67H365.672H365.674H365.676H365.678H365.68H365.682H365.684H365.686H365.688H365.691H365.693H365.695H365.697H365.699H365.701H365.703H365.705H365.707H365.709H365.711H365.713H365.716H365.718H365.72H365.722H365.724H365.726H365.728H365.73H365.732H365.734H365.736H365.738H365.74H365.742H365.745H365.747H365.749H365.751H365.753H365.755H365.757H365.759H365.761H365.763H365.765H365.767H365.769H365.772H365.774H365.776H365.778H365.78H365.782H365.784H365.786H365.788H365.79H365.792H365.794H365.796H365.798H365.801H365.803H365.805H365.807H365.809H365.811H365.813H365.815H365.817H365.819H365.821H365.823H365.825H365.827H365.83H365.832H365.834H365.836H365.838H365.84H365.842H365.844H365.846H365.848H365.85H365.852H365.854H365.856H365.859H365.861H365.863H365.865H365.867H365.869H365.871H365.873H365.875H365.877H365.879H365.881H365.883H365.885H365.887H365.89H365.892H365.894H365.896H365.898H365.9H365.902H365.904H365.906H365.908H365.91H365.912H365.914H365.916H365.918H365.92H365.923H365.925H365.927H365.929H365.931H365.933H365.935H365.937H365.939H365.941H365.943H365.945H365.947H365.949H365.951H365.953H365.956H365.958H365.96H365.962H365.964H365.966H365.968H365.97H365.972H365.974H365.976H365.978H365.98H365.982H365.984H365.986H365.988H365.991H365.993H365.995H365.997H365.999H366.001H366.003H366.005H366.007H366.009H366.011H366.013H366.015H366.017H366.019H366.021H366.023H366.026H366.028H366.03H366.032H366.034H366.036H366.038H366.04H366.042H366.044H366.046H366.048H366.05H366.052H366.054H366.056H366.058H366.06H366.062H366.065H366.067H366.069H366.071H366.073H366.075H366.077H366.079H366.081H366.083H366.085H366.087H366.089H366.091H366.093H366.095H366.097H366.099H366.101H366.103H366.106H366.108H366.11H366.112H366.114H366.116H366.118H366.12H366.122H366.124H366.126H366.128H366.13H366.132H366.134H366.136H366.138H366.14H366.142H366.144H366.146H366.148H366.151H366.153H366.155H366.157H366.159H366.161H366.163H366.165H366.167H366.169H366.171H366.173H366.175H366.177H366.179H366.181H366.183H366.185H366.187H366.189H366.522L367.056 104.592L367.056 104.592L367.062 104.592C370.023 104.848 372.865 105.88 375.3 107.584C377.735 109.288 379.678 111.604 380.932 114.299Z" fill="black" stroke="black"/>
</g>
<path d="M364.101 123.889L346.404 127.874C347.311 131.901 349.565 135.497 352.793 138.07C356.021 140.642 360.03 142.037 364.158 142.023C368.286 142.009 372.285 140.588 375.496 137.994C378.706 135.399 380.936 131.787 381.816 127.755L364.119 123.889" fill="#92E3A9"/>
<path d="M432.966 121.251C432.966 121.379 423.806 121.489 412.539 121.489C401.272 121.489 392.103 121.379 392.103 121.251C392.103 121.123 401.263 121.004 412.539 121.004C423.815 121.004 432.966 121.114 432.966 121.251Z" fill="#263238"/>
<path d="M432.966 116.589C432.966 116.717 423.806 116.827 412.539 116.827C401.272 116.827 392.103 116.717 392.103 116.589C392.103 116.46 401.263 116.35 412.539 116.35C423.815 116.35 432.966 116.46 432.966 116.589Z" fill="#263238"/>
<path d="M432.966 111.935C432.966 112.063 423.806 112.173 412.539 112.173C401.272 112.173 392.103 112.063 392.103 111.935C392.103 111.807 401.263 111.697 412.539 111.697C423.815 111.697 432.966 111.798 432.966 111.935Z" fill="#263238"/>
<path d="M432.966 125.584C432.966 125.712 423.806 125.822 412.539 125.822C401.272 125.822 392.103 125.712 392.103 125.584C392.103 125.456 401.263 125.336 412.539 125.336C423.815 125.336 432.966 125.492 432.966 125.584Z" fill="#263238"/>
<path d="M420.316 130.292C420.316 130.429 414.032 130.53 406.283 130.53C398.533 130.53 392.25 130.429 392.25 130.292C392.25 130.154 398.533 130.054 406.283 130.054C414.032 130.054 420.316 130.164 420.316 130.292Z" fill="#263238"/>
<path d="M353.466 164.01H349.262V211.01H353.466V164.01Z" fill="#92E3A9"/>
<path d="M361.591 179.967H357.387V211.001H361.591V179.967Z" fill="#92E3A9"/>
<path d="M369.716 169.845H365.511V211.239H369.716V169.845Z" fill="#92E3A9"/>
<path d="M377.841 165.823H373.636V211.01H377.841V165.823Z" fill="#92E3A9"/>
<path d="M385.957 180.919H381.752V211.001H385.957V180.919Z" fill="#92E3A9"/>
<path d="M394.082 186.818H389.877V211.001H394.082V186.818Z" fill="#92E3A9"/>
<path d="M402.207 168.828H398.002V211.001H402.207V168.828Z" fill="#92E3A9"/>
<path d="M410.331 176.431H406.127V211.001H410.331V176.431Z" fill="#92E3A9"/>
<path d="M418.456 170.358H414.252V211.001H418.456V170.358Z" fill="#92E3A9"/>
<path d="M426.581 183.31H422.377V211.001H426.581V183.31Z" fill="#92E3A9"/>
<path d="M434.706 178.043H430.502V211.001H434.706V178.043Z" fill="#92E3A9"/>
<path d="M436.428 214.28C436.428 214.372 416.469 214.454 391.847 214.454C367.224 214.454 347.265 214.372 347.265 214.28C347.265 214.188 367.224 214.106 391.847 214.106C416.469 214.106 436.428 214.179 436.428 214.28Z" fill="#263238"/>
<path d="M355.261 218.008C353.185 218.228 351.091 218.228 349.014 218.008C351.09 217.776 353.185 217.776 355.261 218.008Z" fill="#263238"/>
<path d="M365.621 218.164C363.138 218.396 360.639 218.396 358.156 218.164C360.639 217.932 363.138 217.932 365.621 218.164Z" fill="#263238"/>
<path d="M374.461 218.164C371.978 218.396 369.478 218.396 366.995 218.164C369.478 217.932 371.978 217.932 374.461 218.164Z" fill="#263238"/>
<path d="M383.291 218.164C380.808 218.396 378.309 218.396 375.826 218.164C378.309 217.932 380.808 217.932 383.291 218.164Z" fill="#263238"/>
<path d="M392.13 218.164C389.647 218.396 387.148 218.396 384.665 218.164C387.148 217.932 389.647 217.932 392.13 218.164Z" fill="#263238"/>
<path d="M400.961 218.164C398.478 218.396 395.978 218.396 393.495 218.164C395.978 217.932 398.478 217.932 400.961 218.164Z" fill="#263238"/>
<path d="M409.8 218.164C407.317 218.396 404.818 218.396 402.335 218.164C404.818 217.932 407.317 217.932 409.8 218.164Z" fill="#263238"/>
<path d="M418.612 218.164C416.129 218.396 413.63 218.396 411.147 218.164C413.63 217.932 416.129 217.932 418.612 218.164Z" fill="#263238"/>
<path d="M427.47 218.164C424.987 218.396 422.487 218.396 420.004 218.164C422.487 217.932 424.987 217.932 427.47 218.164Z" fill="#263238"/>
<path d="M436.309 218.164C433.826 218.396 431.327 218.396 428.844 218.164C431.327 217.932 433.826 217.932 436.309 218.164Z" fill="#263238"/>
<g opacity="0.3">
<path d="M361.591 179.967H357.387V211.001H361.591V179.967Z" fill="white"/>
</g>
<g opacity="0.3">
<path d="M377.841 165.823H373.636V211.01H377.841V165.823Z" fill="white"/>
</g>
<g opacity="0.3">
<path d="M394.082 186.818H389.877V211.001H394.082V186.818Z" fill="white"/>
</g>
<g opacity="0.3">
<path d="M410.331 176.431H406.127V211.001H410.331V176.431Z" fill="white"/>
</g>
<g opacity="0.3">
<path d="M426.581 183.31H422.377V211.001H426.581V183.31Z" fill="white"/>
</g>
<path d="M237.61 110.204C237.612 111.007 237.376 111.793 236.93 112.462C236.485 113.131 235.851 113.652 235.11 113.96C234.368 114.269 233.551 114.35 232.763 114.194C231.975 114.037 231.251 113.651 230.683 113.083C230.115 112.514 229.728 111.791 229.572 111.003C229.416 110.215 229.497 109.398 229.805 108.656C230.114 107.914 230.635 107.281 231.304 106.835C231.972 106.39 232.758 106.153 233.562 106.155C234.635 106.155 235.665 106.582 236.425 107.341C237.184 108.1 237.61 109.13 237.61 110.204Z" fill="#92E3A9"/>
<path d="M307.254 107.007C307.254 107.145 293.596 107.245 276.751 107.245C259.906 107.245 246.248 107.145 246.248 107.007C246.248 106.87 259.897 106.769 276.751 106.769C293.606 106.769 307.254 106.879 307.254 107.007Z" fill="#92E3A9"/>
<path d="M270.733 111.908C270.433 111.98 270.125 112.011 269.817 111.999L267.243 112.082C265.063 112.082 262.058 112.146 258.743 112.146C255.427 112.146 252.413 112.146 250.242 112.082L247.659 111.999C247.351 112.01 247.043 111.979 246.743 111.908C247.044 111.842 247.351 111.811 247.659 111.816C248.273 111.816 249.152 111.761 250.242 111.743C252.413 111.743 255.417 111.67 258.743 111.67C262.068 111.67 265.063 111.67 267.243 111.743C268.333 111.743 269.212 111.789 269.817 111.816C270.125 111.81 270.432 111.841 270.733 111.908Z" fill="#92E3A9"/>
<path d="M202.867 94.5588H74.709V240.826H202.867V94.5588Z" fill="#FAFAFA"/>
<path d="M202.876 240.817C202.876 240.817 202.876 240.578 202.876 240.13C202.876 239.681 202.876 238.985 202.876 238.096C202.876 236.264 202.876 233.653 202.876 230.2C202.876 223.293 202.876 213.19 202.821 200.357C202.821 174.709 202.757 138.17 202.72 94.5588L202.931 94.7695H74.7823L75.0204 94.5313C75.0204 148.456 75.0204 198.745 75.0204 240.789L74.8189 240.588L167.628 240.725L193.624 240.78H200.476H202.839H200.512H193.707L167.756 240.835L74.6723 240.936H74.4708V240.725C74.4708 198.681 74.4708 148.392 74.4708 94.4672V94.3481H74.7273H202.876H203.086V94.5588C203.041 138.225 203.004 174.81 202.976 200.494C202.976 213.318 202.931 223.394 202.922 230.283C202.922 233.718 202.922 236.356 202.922 238.142C202.922 239.058 202.922 239.69 202.922 240.148C202.922 240.606 202.876 240.817 202.876 240.817Z" fill="#263238"/>
<path d="M191.856 169.24C191.856 169.332 190.436 168.526 187.734 167.674C183.915 166.483 179.875 166.169 175.918 166.758C173.203 167.177 170.572 168.024 168.123 169.268C165.339 170.758 162.761 172.606 160.456 174.764C157.946 176.98 155.445 179.499 152.569 181.826C149.635 184.335 146.2 186.189 142.493 187.267C140.579 187.773 138.583 187.894 136.621 187.624C134.732 187.338 132.895 186.773 131.171 185.948C128.02 184.308 124.962 182.495 122.011 180.516C119.388 178.766 116.49 177.468 113.437 176.678C110.769 176.027 108.013 175.813 105.276 176.046C101.29 176.391 97.4356 177.644 94.0091 179.71C91.5909 181.185 90.455 182.293 90.3451 182.22C90.582 181.918 90.8559 181.647 91.1603 181.414C91.9776 180.678 92.8538 180.01 93.7801 179.417C96.6768 177.545 99.9199 176.274 103.317 175.68C106.714 175.085 110.196 175.178 113.557 175.954C116.694 176.743 119.679 178.049 122.387 179.82C125.309 181.763 128.336 183.543 131.455 185.151C134.768 186.85 138.583 187.299 142.2 186.415C145.814 185.393 149.173 183.62 152.056 181.212C154.896 178.931 157.396 176.431 159.952 174.205C162.321 172.018 164.966 170.152 167.82 168.654C170.91 167.121 174.273 166.216 177.716 165.993C181.158 165.769 184.61 166.232 187.872 167.353C188.913 167.704 189.924 168.139 190.894 168.654C191.233 168.818 191.555 169.015 191.856 169.24Z" fill="#92E3A9"/>
<path d="M120.875 188.888H109.984V218.356H120.875V188.888Z" fill="#92E3A9"/>
<path d="M167.115 188.888H156.224V218.356H167.115V188.888Z" fill="#92E3A9"/>
<path d="M182.522 171.576H171.631V218.347H182.522V171.576Z" fill="#92E3A9"/>
<path d="M106.778 209.077H95.8869V218.997H106.778V209.077Z" fill="#92E3A9"/>
<path d="M136.301 202.189H125.4V218.347H136.301V202.189Z" fill="#92E3A9"/>
<path d="M151.699 198.479H140.808V218.347H151.699V198.479Z" fill="#92E3A9"/>
<path d="M121.324 221.828C121.324 222.066 118.686 222.268 115.434 222.268C112.183 222.268 109.544 222.066 109.544 221.828C109.544 221.59 112.183 221.388 115.434 221.388C118.686 221.388 121.324 221.581 121.324 221.828Z" fill="#263238"/>
<path d="M107.767 221.828C107.767 222.066 105.129 222.268 101.878 222.268C98.6258 222.268 95.9877 222.066 95.9877 221.828C95.9877 221.59 98.6258 221.388 101.878 221.388C105.129 221.388 107.767 221.581 107.767 221.828Z" fill="#263238"/>
<path d="M184.675 221.828C184.675 222.066 181.698 222.268 178.025 222.268C174.351 222.268 171.365 222.066 171.365 221.828C171.365 221.59 174.342 221.388 178.025 221.388C181.707 221.388 184.675 221.581 184.675 221.828Z" fill="#263238"/>
<path d="M161.839 222.268C165.512 222.268 168.489 222.071 168.489 221.828C168.489 221.585 165.512 221.388 161.839 221.388C158.166 221.388 155.189 221.585 155.189 221.828C155.189 222.071 158.166 222.268 161.839 222.268Z" fill="#263238"/>
<path d="M151.708 221.828C151.708 222.066 149.07 222.268 145.818 222.268C142.566 222.268 139.928 222.066 139.928 221.828C139.928 221.59 142.566 221.388 145.818 221.388C149.07 221.388 151.708 221.581 151.708 221.828Z" fill="#263238"/>
<path d="M135.779 221.828C135.779 222.066 133.15 222.268 129.898 222.268C126.646 222.268 124.008 222.066 124.008 221.828C124.008 221.59 126.646 221.388 129.898 221.388C133.15 221.388 135.779 221.581 135.779 221.828Z" fill="#263238"/>
<path d="M184.675 115.883H95.6304V152.862H184.675V115.883Z" fill="#E0E0E0"/>
<path d="M114.134 127.562C114.135 128.385 113.893 129.19 113.437 129.875C112.981 130.56 112.333 131.095 111.573 131.411C110.813 131.727 109.977 131.811 109.169 131.651C108.362 131.492 107.62 131.096 107.038 130.515C106.455 129.934 106.058 129.193 105.897 128.386C105.736 127.579 105.818 126.742 106.132 125.982C106.447 125.221 106.98 124.571 107.664 124.114C108.348 123.657 109.152 123.413 109.975 123.413C111.076 123.413 112.133 123.849 112.912 124.627C113.692 125.405 114.131 126.461 114.134 127.562Z" fill="#263238"/>
<path d="M147.21 124.695H118.283V126.298H147.21V124.695Z" fill="#263238"/>
<path d="M174.553 128.35H118.283V129.953H174.553V128.35Z" fill="white"/>
<path d="M114.134 140.331C114.135 141.154 113.893 141.959 113.437 142.644C112.981 143.329 112.333 143.864 111.573 144.18C110.813 144.496 109.977 144.58 109.169 144.42C108.362 144.261 107.62 143.865 107.038 143.284C106.455 142.703 106.058 141.962 105.897 141.155C105.736 140.348 105.818 139.511 106.132 138.751C106.447 137.991 106.98 137.341 107.664 136.883C108.348 136.426 109.152 136.182 109.975 136.182C110.521 136.18 111.061 136.287 111.566 136.495C112.07 136.703 112.529 137.008 112.915 137.394C113.301 137.779 113.608 138.237 113.817 138.741C114.026 139.245 114.134 139.785 114.134 140.331Z" fill="#92E3A9"/>
<path d="M133.049 137.464H118.283V139.067H133.049V137.464Z" fill="#92E3A9"/>
<path d="M174.553 141.11H118.283V142.713H174.553V141.11Z" fill="white"/>
<path d="M605.476 68.2969H464.742V228.917H605.476V68.2969Z" fill="#FAFAFA"/>
<g filter="url(#filter0_d_226_99)">
<path d="M605.476 228.918C605.476 228.918 605.476 228.652 605.476 228.157C605.476 227.663 605.476 226.902 605.476 225.922C605.476 223.953 605.476 221.049 605.476 217.257C605.476 209.672 605.476 198.58 605.421 184.492C605.421 156.325 605.357 116.195 605.32 68.297L605.531 68.5077H464.806L465.053 68.2695C465.053 127.489 465.053 182.715 465.007 228.89L464.806 228.689L566.894 228.789L595.428 228.844H602.948H605.549C605.549 228.844 604.688 228.844 602.994 228.844H595.51L567.004 229L464.788 229.101H464.586V228.899C464.586 182.724 464.586 127.498 464.586 68.2787V68.0588H464.843H605.568H605.778V68.2695C605.778 116.222 605.696 156.398 605.668 184.602C605.668 198.68 605.668 209.755 605.613 217.33C605.613 221.095 605.613 223.99 605.613 225.95V228.157C605.476 228.67 605.476 228.918 605.476 228.918Z" fill="#263238"/>
</g>
<path d="M584.875 186.195C584.875 186.333 560.821 186.434 531.152 186.434C501.482 186.434 477.419 186.333 477.419 186.195C477.419 186.058 501.473 185.957 531.152 185.957C560.83 185.957 584.875 186.067 584.875 186.195Z" fill="#263238"/>
<path d="M584.875 192.003C584.875 192.14 560.821 192.241 531.152 192.241C501.482 192.241 477.419 192.14 477.419 192.003C477.419 191.865 501.473 191.765 531.152 191.765C560.83 191.765 584.875 191.875 584.875 192.003Z" fill="#263238"/>
<path d="M584.875 197.856C584.875 197.984 560.821 198.094 531.152 198.094C501.482 198.094 477.419 197.984 477.419 197.856C477.419 197.728 501.473 197.618 531.152 197.618C560.83 197.618 584.875 197.682 584.875 197.856Z" fill="#263238"/>
<path d="M584.875 203.627C584.875 203.755 560.821 203.865 531.152 203.865C501.482 203.865 477.419 203.755 477.419 203.627C477.419 203.499 501.473 203.389 531.152 203.389C560.83 203.389 584.875 203.489 584.875 203.627Z" fill="#263238"/>
<path d="M542.437 201.346C545.377 196.409 546.238 189.832 547.017 184.134C547.365 181.45 547.988 177.64 546.101 175.954C544.214 174.269 543.902 171.374 541.585 169.991C540.435 169.272 539.103 168.896 537.747 168.907C536.39 168.919 535.065 169.317 533.927 170.055" fill="#263238"/>
<path d="M534.285 218.832C533.22 218.915 532.151 218.781 531.139 218.44C530.128 218.099 529.196 217.557 528.398 216.847C527.601 216.137 526.956 215.274 526.5 214.309C526.045 213.343 525.789 212.296 525.747 211.23C525.583 206.906 525.436 202.546 525.436 202.546C525.436 202.546 518.896 201.932 518.419 195.456C517.943 188.98 518.163 174.031 518.163 174.031C521.751 172.222 525.757 171.404 529.766 171.662C533.776 171.919 537.645 173.243 540.971 175.496L540.568 198.286V210.552C540.523 214.665 538.388 218.521 534.285 218.832Z" fill="#FFBE9D"/>
<path d="M524.868 187.551C525.345 186.858 526.067 186.373 526.889 186.192C527.71 186.012 528.569 186.151 529.292 186.58C530.024 187.09 530.552 187.843 530.781 188.704C531.011 189.566 530.928 190.482 530.547 191.288C530.211 191.886 529.756 192.407 529.209 192.82C528.662 193.233 528.035 193.529 527.369 193.688C526.772 193.82 526.243 194.165 525.884 194.66C525.524 195.154 525.359 195.764 525.418 196.372C525.61 197.993 528.312 198.607 529.531 199.954C531.427 202.042 535.594 202.931 538.407 203.26C541.219 203.59 540.825 203.608 542.428 201.346C543.512 199.812 544.065 197.966 544.003 196.088L544.306 181.762C544.412 180.042 544.301 178.315 543.976 176.623C543.632 174.909 542.65 173.39 541.228 172.373C539.652 171.338 537.655 171.246 535.869 170.669C533.625 169.945 531.72 168.452 529.622 167.381C527.524 166.309 524.95 165.668 522.844 166.721C521.332 167.481 520.316 168.993 518.841 169.826C516.752 171.017 513.904 170.742 512.887 173.829C512.525 174.896 512.525 176.051 512.887 177.118C514.307 181.313 519.491 182.998 523.228 181.185C523.302 181.899 522.606 183.475 523.348 185.719C523.586 186.433 523.677 187.551 524.795 187.551" fill="#263238"/>
<path d="M526.031 191.591C526.086 191.591 526.306 191.93 526.847 191.902C527.188 191.831 527.494 191.644 527.714 191.374C527.934 191.104 528.055 190.767 528.056 190.418C528.072 190.065 527.972 189.717 527.772 189.426C527.572 189.135 527.282 188.917 526.947 188.806C526.407 188.614 526.031 188.714 526.031 188.641C526.031 188.568 526.389 188.348 527.057 188.485C527.447 188.574 527.802 188.778 528.074 189.072C528.408 189.449 528.579 189.943 528.55 190.446C528.565 190.911 528.397 191.363 528.082 191.706C527.767 192.049 527.33 192.254 526.865 192.278C526.726 192.273 526.589 192.239 526.464 192.178C526.339 192.116 526.229 192.028 526.141 191.92C526.004 191.71 526.004 191.6 526.031 191.591Z" fill="#EB996E"/>
<path d="M532.773 172.061C532.773 172.061 532.91 171.814 533.313 171.512C533.899 171.104 534.575 170.843 535.283 170.751C536.338 170.613 537.411 170.775 538.379 171.219C539.548 171.792 540.537 172.676 541.237 173.774C542.423 175.768 543.114 178.017 543.252 180.333C543.388 181.27 543.446 182.217 543.426 183.163C543.174 182.264 543.003 181.345 542.913 180.415C542.689 178.178 541.983 176.015 540.843 174.077C540.189 173.051 539.276 172.217 538.196 171.658C537.339 171.227 536.379 171.04 535.423 171.118C534.466 171.195 533.55 171.534 532.773 172.098V172.061Z" fill="#455A64"/>
<path d="M514.536 178.693C514.454 178.71 514.37 178.71 514.288 178.693C514.059 178.635 513.841 178.536 513.647 178.4C513.333 178.184 513.075 177.895 512.896 177.557C512.648 177.098 512.576 176.564 512.694 176.055C512.835 175.436 513.209 174.894 513.739 174.544C514.366 174.206 515.082 174.065 515.79 174.141C516.48 174.223 517.175 174.047 517.742 173.646C518.317 173.124 518.847 172.554 519.326 171.942C520.413 170.784 521.819 169.974 523.366 169.616C524.607 169.305 525.903 169.273 527.158 169.524C528.003 169.687 528.812 169.997 529.549 170.44C529.825 170.588 530.075 170.78 530.291 171.008C529.291 170.467 528.217 170.078 527.103 169.854C525.883 169.648 524.634 169.708 523.439 170.028C521.991 170.392 520.677 171.164 519.656 172.254C519.157 172.888 518.602 173.477 517.998 174.013C517.669 174.264 517.287 174.437 516.881 174.516C516.508 174.575 516.13 174.593 515.754 174.571C515.128 174.485 514.49 174.587 513.922 174.864C513.467 175.154 513.14 175.606 513.006 176.129C512.913 176.514 512.933 176.919 513.063 177.294C513.193 177.668 513.427 177.998 513.739 178.244C513.991 178.416 514.258 178.567 514.536 178.693Z" fill="#455A64"/>
<path d="M531.866 196.711C531.866 196.665 532.187 196.546 532.718 196.189C533.466 195.683 534.074 194.996 534.486 194.192C534.785 193.611 534.965 192.977 535.016 192.326C535.066 191.674 534.986 191.02 534.779 190.4C534.549 189.666 534.147 188.997 533.607 188.449C533 187.869 532.32 187.374 531.582 186.974C530.822 186.534 530.053 186.122 529.356 185.646C528.654 185.189 528.035 184.616 527.524 183.951C526.685 182.834 526.16 181.512 526.004 180.122C525.898 179.201 525.973 178.267 526.224 177.374C526.28 177.13 526.366 176.893 526.48 176.669C526.554 176.504 526.599 176.431 526.608 176.44C526.289 177.634 526.199 178.877 526.343 180.104C526.535 181.418 527.061 182.661 527.873 183.713C528.354 184.324 528.929 184.856 529.576 185.289C530.254 185.737 531.014 186.14 531.784 186.589C532.562 187.01 533.277 187.537 533.909 188.156C534.491 188.757 534.921 189.489 535.164 190.29C535.376 190.965 535.449 191.677 535.376 192.381C535.304 193.085 535.088 193.767 534.743 194.384C534.281 195.205 533.603 195.884 532.782 196.345C532.504 196.526 532.193 196.65 531.866 196.711Z" fill="#455A64"/>
<path d="M543.096 187.203C542.83 187.309 542.549 187.374 542.263 187.395C541.488 187.488 540.706 187.51 539.927 187.459C537.341 187.299 534.847 186.441 532.709 184.977C530.493 183.589 528.819 181.485 527.964 179.014C527.747 178.251 527.715 177.447 527.873 176.669C527.915 176.382 528.025 176.109 528.193 175.872C527.953 176.88 527.988 177.933 528.294 178.922C529.206 181.263 530.847 183.247 532.975 184.583C535.056 185.993 537.454 186.865 539.955 187.121C541.878 187.331 543.087 187.111 543.096 187.203Z" fill="#455A64"/>
<path d="M544.104 182.77C545.2 181.476 546.57 180.442 548.115 179.742C549.659 179.041 551.34 178.693 553.035 178.721C556.406 178.913 559.694 181.249 560.519 184.519C561.142 186.992 560.381 189.566 560.07 192.085C559.758 194.604 560.07 197.581 562.113 199.056C563.358 199.972 564.961 200.119 566.454 200.485C567.948 200.851 569.532 201.593 570.045 203.041C570.631 204.699 569.431 206.576 567.819 207.282C566.144 207.863 564.326 207.889 562.635 207.355C562.968 208.308 562.959 209.347 562.608 210.294C562.256 211.241 561.586 212.035 560.711 212.54C559.817 213.011 558.813 213.238 557.803 213.196C556.792 213.154 555.811 212.846 554.959 212.301C553.262 211.179 552.019 209.491 551.45 207.538C550.342 209.489 547.429 209.901 545.561 208.656C544.661 207.981 543.963 207.073 543.543 206.03C543.124 204.986 542.997 203.848 543.179 202.738C543.569 200.515 544.608 198.456 546.165 196.821C546.957 196.017 547.654 195.126 548.244 194.165C548.536 193.68 548.701 193.129 548.723 192.564C548.746 191.999 548.625 191.437 548.373 190.931C548.235 190.689 548.047 190.48 547.822 190.317C547.597 190.154 547.339 190.041 547.066 189.986C546.793 189.932 546.512 189.936 546.241 190C545.97 190.063 545.716 190.184 545.496 190.354" fill="#263238"/>
<path d="M548.015 189.612C547.713 189.758 547.381 189.834 547.044 189.834C546.708 189.834 546.376 189.758 546.073 189.612C545.325 189.299 544.671 188.797 544.177 188.154C543.682 187.512 543.363 186.751 543.252 185.948C543.105 185.061 543.209 184.15 543.554 183.319C543.836 182.649 544.261 182.048 544.8 181.56C545.258 181.083 545.854 180.763 546.504 180.644C545.991 181.01 545.501 181.407 545.038 181.835C544.518 182.366 544.128 183.01 543.899 183.718C543.67 184.425 543.608 185.176 543.719 185.911C543.824 186.643 544.105 187.339 544.537 187.938C544.97 188.538 545.541 189.024 546.202 189.355C546.784 189.558 547.4 189.646 548.015 189.612Z" fill="#92E3A9"/>
<path d="M525.225 202.436C524.726 202.511 524.216 202.46 523.741 202.29C522.574 201.964 521.496 201.377 520.589 200.575C519.681 199.772 518.967 198.773 518.502 197.655C518.273 197.207 518.16 196.71 518.172 196.207C518.413 196.629 518.624 197.067 518.804 197.517C519.324 198.557 520.035 199.49 520.902 200.265C521.767 201.023 522.763 201.616 523.842 202.015C524.313 202.119 524.776 202.26 525.225 202.436Z" fill="#EB996E"/>
<path d="M550.159 207.74C550.159 207.74 550.04 207.74 549.838 207.74C549.54 207.658 549.256 207.531 548.995 207.364C548.055 206.697 547.401 205.699 547.163 204.57C546.978 203.799 546.95 202.998 547.081 202.216C547.243 201.33 547.533 200.472 547.942 199.67C548.757 197.957 550.04 196.335 550.992 194.458C551.456 193.553 551.765 192.578 551.908 191.572C552.085 190.31 551.824 189.025 551.169 187.932C550.514 186.839 549.505 186.003 548.308 185.563C547.278 185.206 546.169 185.139 545.102 185.371C544.342 185.527 543.957 185.737 543.939 185.701C543.921 185.664 544.022 185.627 544.205 185.517C544.478 185.381 544.763 185.271 545.057 185.188C546.44 184.794 547.92 184.933 549.206 185.575C550.493 186.217 551.492 187.317 552.009 188.659C552.377 189.602 552.503 190.623 552.376 191.627C552.213 192.689 551.876 193.717 551.377 194.668C550.388 196.61 549.096 198.213 548.29 199.862C547.476 201.261 547.178 202.901 547.447 204.497C547.639 205.576 548.211 206.551 549.06 207.245C549.411 207.441 549.779 207.606 550.159 207.74Z" fill="#455A64"/>
<path d="M559.923 212.512C559.789 212.526 559.654 212.526 559.52 212.512C559.129 212.495 558.741 212.427 558.366 212.311C556.976 211.839 555.785 210.913 554.986 209.682C553.847 207.835 553.339 205.668 553.539 203.508C553.792 200.928 554.208 198.368 554.785 195.841C555.019 194.539 555.111 193.215 555.059 191.893C554.994 190.674 554.712 189.477 554.226 188.357C553.825 187.402 553.2 186.558 552.402 185.898C551.604 185.238 550.659 184.78 549.646 184.565C548.274 184.251 546.85 184.251 545.478 184.565C544.498 184.785 543.985 185.005 543.967 184.959C543.948 184.913 544.086 184.876 544.324 184.766C544.685 184.616 545.055 184.487 545.432 184.382C546.828 183.988 548.298 183.935 549.719 184.226C550.715 184.425 551.654 184.844 552.467 185.453C553.397 186.177 554.131 187.122 554.601 188.201C555.129 189.356 555.439 190.598 555.517 191.865C555.587 193.221 555.498 194.58 555.252 195.914C554.686 198.426 554.258 200.967 553.969 203.526C553.759 205.602 554.215 207.69 555.27 209.489C556.006 210.688 557.112 211.614 558.421 212.127C558.911 212.294 559.413 212.423 559.923 212.512Z" fill="#455A64"/>
<path d="M561.874 241.98L548.089 252.734L553.869 262.242L570.485 250.004L561.874 241.98Z" fill="#FFBE9D"/>
<path d="M524.978 205.825C524.978 205.825 525.051 204.671 522.038 204.506C520.926 204.409 519.81 204.372 518.694 204.396C518.032 203.588 517.543 202.653 517.256 201.648C517.304 200.672 517.521 199.711 517.897 198.809L520.948 198.534L520.123 196.464L517.971 196.61L511.916 197.343L509.507 207.932L492.964 238.801C492.332 239.749 491.91 240.822 491.727 241.947C491.544 243.072 491.605 244.223 491.904 245.323C492.204 246.422 492.735 247.445 493.463 248.322C494.191 249.199 495.098 249.91 496.124 250.407C500.402 252.477 506.127 248.089 507.711 243.61L516.871 209.269L520.096 206.759L524.676 205.917" fill="#FFBE9D"/>
<path d="M487.312 411.284L509.8 281.762C509.855 281.569 509.901 281.386 509.946 281.203C513.784 266.006 519.693 261.142 519.693 261.142L554.143 263.304C557.075 268.571 557.45 281.203 557.45 281.203C557.853 282.751 550.168 408.27 550.168 408.27L538.608 407.913L532.361 289.163L498.826 411.788L487.312 411.284Z" fill="#FFBE9D"/>
<path d="M487.01 412.457L487.056 411.293L498.909 411.632L498.808 415.488H498.075C494.814 415.571 481.486 415.681 479.325 415.012C476.925 414.289 487.01 412.457 487.01 412.457Z" fill="#92E3A9"/>
<g opacity="0.6">
<path d="M494.53 415.287C494.748 414.35 495.31 413.529 496.106 412.988C496.911 412.436 497.882 412.181 498.854 412.264L498.762 415.333L494.53 415.287Z" fill="white"/>
</g>
<g opacity="0.6">
<path d="M482.073 413.519C482.073 413.519 478.537 414.362 478.958 414.911C479.379 415.461 492.854 415.827 498.808 415.488V415.241L483.08 414.948C483.08 414.948 482.732 413.565 482.073 413.519Z" fill="white"/>
</g>
<path d="M498.982 415.241H498.78H498.194H496.051C494.219 415.241 491.727 415.241 488.961 415.168C486.195 415.095 483.694 414.985 481.88 414.875L479.737 414.737H479.16C479.022 414.737 478.958 414.737 478.958 414.737H479.16H479.746L481.889 414.829C483.721 414.911 486.204 415.012 488.97 415.085C491.736 415.159 494.237 415.177 496.051 415.195H498.982V415.241Z" fill="#263238"/>
<path d="M483.071 415.122C482.949 414.424 482.561 413.801 481.99 413.382C482.349 413.504 482.647 413.76 482.824 414.096C482.93 414.242 483.007 414.408 483.05 414.584C483.092 414.76 483.099 414.943 483.071 415.122Z" fill="#263238"/>
<path d="M486.607 413.574C486.607 413.574 486.414 413.4 486.25 413.144C486.085 412.887 485.975 412.667 486.011 412.649C486.048 412.631 486.204 412.823 486.369 413.079C486.533 413.336 486.643 413.556 486.607 413.574Z" fill="#263238"/>
<path d="M487.578 413.116C487.578 413.116 487.367 413.015 487.165 412.841C486.964 412.667 486.826 412.502 486.854 412.475C487.01 412.534 487.151 412.628 487.266 412.75C487.468 412.942 487.605 413.116 487.578 413.116Z" fill="#263238"/>
<path d="M488.228 412.108C488.03 412.172 487.821 412.194 487.614 412.172C487.406 412.189 487.197 412.161 487.001 412.09C487.199 412.027 487.408 412.008 487.614 412.035C487.822 412.019 488.03 412.044 488.228 412.108Z" fill="#263238"/>
<path d="M488.439 411.385C488.233 411.511 487.993 411.572 487.752 411.559C487.508 411.592 487.26 411.554 487.037 411.449C487.272 411.429 487.508 411.429 487.743 411.449C487.972 411.406 488.205 411.385 488.439 411.385Z" fill="#263238"/>
<path d="M486.231 412.612C485.982 412.648 485.729 412.648 485.48 412.612C485.207 412.572 484.938 412.51 484.674 412.429C484.516 412.379 484.363 412.315 484.216 412.237C484.128 412.187 484.062 412.105 484.033 412.008C484.024 411.954 484.031 411.899 484.054 411.85C484.077 411.801 484.114 411.76 484.161 411.733C484.452 411.607 484.776 411.58 485.084 411.656C485.392 411.732 485.666 411.907 485.865 412.154C485.979 412.293 486.06 412.456 486.103 412.631C486.103 412.759 486.103 412.823 486.103 412.823C486.034 412.601 485.926 412.393 485.782 412.209C485.609 412.02 485.387 411.88 485.141 411.806C484.847 411.69 484.519 411.69 484.225 411.806C484.106 411.879 484.152 412.017 484.28 412.09C484.414 412.166 484.555 412.227 484.702 412.273C484.956 412.362 485.216 412.433 485.48 412.484C485.947 412.576 486.231 412.585 486.231 412.612Z" fill="#263238"/>
<path d="M486.039 412.64C485.95 412.491 485.924 412.313 485.966 412.145C485.994 411.958 486.07 411.782 486.185 411.632C486.258 411.529 486.354 411.444 486.465 411.385C486.577 411.327 486.701 411.295 486.827 411.293C486.901 411.307 486.966 411.349 487.009 411.411C487.052 411.473 487.069 411.549 487.056 411.623C487.034 411.736 486.987 411.842 486.918 411.934C486.809 412.089 486.683 412.23 486.543 412.356C486.418 412.479 486.268 412.572 486.103 412.631C486.103 412.631 486.259 412.502 486.469 412.292C486.597 412.166 486.708 412.025 486.799 411.87C486.909 411.724 486.991 411.458 486.799 411.421C486.699 411.432 486.602 411.463 486.516 411.514C486.429 411.564 486.354 411.633 486.295 411.715C486.182 411.842 486.103 411.997 486.066 412.163C486.039 412.321 486.03 412.48 486.039 412.64Z" fill="#263238"/>
<path d="M498.835 412.2C498.835 412.2 498.496 412.2 497.919 412.2C497.232 412.263 496.571 412.496 495.996 412.878C495.449 413.266 495.02 413.799 494.759 414.417C494.567 414.875 494.539 415.195 494.512 415.186C494.498 415.114 494.498 415.039 494.512 414.966C494.538 414.766 494.588 414.569 494.658 414.38C494.9 413.731 495.334 413.171 495.904 412.777C496.497 412.37 497.192 412.139 497.91 412.108C498.123 412.086 498.338 412.086 498.551 412.108C498.652 412.115 498.75 412.146 498.835 412.2Z" fill="#263238"/>
<path d="M493.083 414.179C492.513 414.291 491.931 414.331 491.352 414.298C490.773 414.304 490.195 414.246 489.63 414.124C489.63 414.078 490.408 414.124 491.352 414.124C492.295 414.124 493.074 414.142 493.083 414.179Z" fill="#263238"/>
<path d="M495.391 414.243C495.391 414.243 495.327 414.389 495.245 414.554C495.162 414.719 495.107 414.856 495.071 414.856C495.034 414.856 495.016 414.682 495.071 414.49C495.126 414.298 495.364 414.215 495.391 414.243Z" fill="#263238"/>
<path d="M496.298 413.253C496.298 413.253 496.243 413.391 496.115 413.501C495.987 413.611 495.868 413.684 495.84 413.656C495.813 413.629 495.895 413.519 496.014 413.409C496.133 413.299 496.271 413.226 496.298 413.253Z" fill="#263238"/>
<path d="M497.553 412.823C497.553 412.823 497.388 412.823 497.214 412.905C497.04 412.988 496.912 413.043 496.884 413.015C496.857 412.988 496.958 412.841 497.168 412.777C497.379 412.713 497.571 412.795 497.553 412.823Z" fill="#263238"/>
<path d="M498.451 412.631C498.451 412.631 498.396 412.722 498.295 412.75C498.194 412.777 498.103 412.75 498.093 412.75C498.084 412.75 498.148 412.658 498.249 412.631C498.35 412.603 498.432 412.594 498.451 412.631Z" fill="#263238"/>
<path d="M544.901 209.471C548.18 209.984 551.307 211.21 554.061 213.062C564.952 220.124 583.171 235.046 581.66 241.98C580.341 247.861 566.088 255.014 566.088 255.014L556.928 243.913L562.58 240.679L548.684 231.427L544.901 209.471Z" fill="#263238"/>
<path d="M551.112 231.959L550.663 233.608L549.06 241.265L548.684 252.486C556.928 263.13 557.075 272.089 557.075 272.089L515.333 276.962C515.333 268.718 518.346 258.33 518.346 258.33C520.755 254.236 520.645 241.98 520.178 241.531C517.577 238.948 516.945 237.052 519.024 233.745C519.024 233.745 506.081 247.338 504.753 248.557C500.173 252.752 495.776 251.579 493.761 249.757C488.045 244.654 493.907 238.078 493.907 238.078L515.708 213.098C517.189 211.386 519.168 210.179 521.369 209.645C522.911 209.292 524.471 209.017 526.041 208.821L540.596 208.94C542.053 208.988 543.503 209.166 544.929 209.471C546.572 210.134 548.018 211.205 549.131 212.584C550.243 213.962 550.985 215.603 551.286 217.349C552.559 223.605 551.112 231.959 551.112 231.959Z" fill="#263238"/>
<path d="M551.569 221.947C551.644 222.345 551.675 222.751 551.661 223.156C551.661 223.934 551.661 225.07 551.579 226.463C551.325 230.083 550.845 233.684 550.14 237.244C549.875 238.664 549.582 240.038 549.279 241.311V241.265C549.151 244.508 549.023 247.311 548.913 249.308C548.849 250.224 548.803 251.011 548.766 251.634C548.764 251.919 548.727 252.202 548.657 252.477C548.605 252.199 548.589 251.916 548.611 251.634C548.611 251.002 548.611 250.224 548.611 249.299C548.611 247.302 548.712 244.49 548.812 241.247V241.201C549.096 239.946 549.38 238.572 549.646 237.152C550.443 232.994 550.974 229.192 551.221 226.426C551.34 225.043 551.405 223.925 551.45 223.147C551.452 222.744 551.492 222.342 551.569 221.947Z" fill="#455A64"/>
<path d="M551.707 233.168C556.876 236.358 561.875 239.816 566.683 243.528C564.055 242.005 561.511 240.341 559.062 238.545C556.519 236.881 554.063 235.087 551.707 233.168Z" fill="#455A64"/>
<path d="M524.721 216.808C524.721 216.808 524.813 216.854 524.941 216.973C525.129 217.147 525.3 217.337 525.454 217.541C526.022 218.306 526.411 219.188 526.59 220.124C526.86 221.517 526.778 222.956 526.352 224.31C525.806 225.946 525.015 227.49 524.007 228.89C523.489 229.611 522.913 230.288 522.285 230.915C521.68 231.528 521.03 232.032 520.453 232.554C519.299 233.589 518.309 234.569 517.485 235.412C516.661 236.255 516.01 236.942 515.561 237.418C515.113 237.894 514.856 238.169 514.829 238.142C514.994 237.839 515.194 237.556 515.424 237.299C515.827 236.786 516.441 236.053 517.256 235.174C518.071 234.295 519.024 233.342 520.178 232.234C520.755 231.693 521.387 231.18 522.01 230.585C522.618 229.971 523.175 229.309 523.677 228.606C524.651 227.257 525.428 225.777 525.985 224.209C526.41 222.923 526.523 221.554 526.315 220.216C526.083 218.963 525.534 217.79 524.721 216.808Z" fill="#455A64"/>
<path d="M519.867 253.714L520.352 248.108H548.822L548.666 252.486L519.867 253.714Z" fill="#455A64"/>
<path d="M495.556 236.978C494.994 237.494 494.465 238.045 493.971 238.627C492.828 240.054 492.239 241.845 492.313 243.672C492.387 245.498 493.119 247.237 494.374 248.566C494.919 249.102 495.49 249.61 496.087 250.086C496.087 250.086 495.858 250.086 495.501 249.839C495.002 249.556 494.543 249.208 494.136 248.804C492.739 247.459 491.916 245.627 491.837 243.69C491.759 241.753 492.431 239.86 493.715 238.407C494.085 237.969 494.513 237.584 494.988 237.262C495.355 237.042 495.556 236.951 495.556 236.978Z" fill="#455A64"/>
<path d="M550.131 408.234L553.365 415.745L538.91 415.571L538.608 407.913L550.131 408.234Z" fill="#92E3A9"/>
<path d="M538.81 414.27C539.478 414.355 540.151 414.389 540.825 414.371C542.08 414.371 543.811 414.371 545.716 414.371L550.589 414.27C551.266 414.282 551.942 414.245 552.614 414.16C551.942 414.082 551.265 414.051 550.589 414.069C549.334 414.069 547.612 414.069 545.707 414.069L540.825 414.16C540.151 414.157 539.479 414.194 538.81 414.27Z" fill="#263238"/>
<path d="M544.828 408.069C544.653 409.074 544.635 410.099 544.773 411.11C544.752 412.132 544.885 413.151 545.167 414.133C545.341 413.128 545.359 412.102 545.222 411.092C545.242 410.07 545.11 409.051 544.828 408.069Z" fill="#263238"/>
<path opacity="0.6" d="M553.337 415.901L538.901 415.415L538.81 414.041L552.614 414.16L553.347 415.736" fill="white"/>
<path d="M556.131 264.852C567.004 299.157 552.989 340.798 556.351 380.772C556.681 384.702 558.275 389.392 554.601 391.627C553.599 392.214 552.446 392.498 551.285 392.442C548.354 392.341 545.899 390.821 543.28 389.776C538.25 387.789 532.694 387.572 527.524 389.163C524.062 390.244 520.618 392.158 517.027 391.618C512.255 390.894 509.168 386.177 504.78 384.18C500.667 382.348 495.922 383.007 491.407 382.897H491.269C489.743 382.837 488.251 382.432 486.904 381.713C485.557 380.995 484.389 379.981 483.489 378.748C482.589 377.514 481.979 376.094 481.705 374.592C481.431 373.089 481.501 371.545 481.908 370.073C488.475 346.037 510.23 267.976 519.867 253.741L548.684 252.486C551.322 255.692 554.73 260.483 556.131 264.852Z" fill="#92E3A9"/>
<path d="M546.046 281.001C545.59 281.707 545.065 282.367 544.48 282.971C543.159 284.512 541.739 285.966 540.229 287.322C538.684 288.646 537.001 289.801 535.21 290.766C534.488 291.204 533.72 291.56 532.92 291.828C532.819 291.663 536.345 289.996 539.909 286.955C541.686 285.416 543.142 283.85 544.232 282.742C544.779 282.104 545.386 281.521 546.046 281.001Z" fill="#263238"/>
<g opacity="0.1">
<path d="M533.332 293.944C524.254 317.352 522.579 342.981 528.532 367.371C529.045 369.469 529.576 371.85 528.376 373.655C526.838 375.981 523.091 375.826 520.975 373.994C518.859 372.162 518.016 369.295 517.485 366.547C513.528 346.083 520.691 325.51 528.422 306.155" fill="black"/>
</g>
<path d="M369.991 305.504H315.406V308.161H369.991V305.504Z" fill="#263238"/>
<path d="M306.942 308.161L296.711 269.799H339.323L348.593 308.161H306.942Z" fill="#263238"/>
<path d="M346.037 305.257H307.968L299.111 271.567H337.372L346.037 305.257Z" fill="#F5F5F5"/>
<path d="M299.743 273.994H338.004L337.354 271.567H299.111L299.743 273.994Z" fill="#EBEBEB"/>
<path d="M303.874 272.785C303.874 272.868 303.899 272.95 303.945 273.019C303.991 273.088 304.057 273.142 304.134 273.174C304.211 273.206 304.296 273.214 304.377 273.198C304.459 273.182 304.534 273.142 304.593 273.083C304.652 273.024 304.692 272.949 304.708 272.867C304.725 272.785 304.716 272.701 304.684 272.624C304.653 272.547 304.599 272.481 304.529 272.435C304.46 272.388 304.378 272.364 304.295 272.364C304.183 272.364 304.076 272.408 303.997 272.487C303.918 272.566 303.874 272.673 303.874 272.785Z" fill="#FAFAFA"/>
<path d="M302.436 272.785C302.436 272.868 302.46 272.95 302.507 273.019C302.553 273.088 302.619 273.142 302.696 273.174C302.773 273.206 302.857 273.214 302.939 273.198C303.021 273.182 303.096 273.142 303.155 273.083C303.214 273.024 303.254 272.949 303.27 272.867C303.287 272.785 303.278 272.701 303.246 272.624C303.214 272.547 303.16 272.481 303.091 272.435C303.022 272.388 302.94 272.364 302.857 272.364C302.745 272.364 302.638 272.408 302.559 272.487C302.48 272.566 302.436 272.673 302.436 272.785Z" fill="#FAFAFA"/>
<path d="M300.998 272.785C301 272.895 301.045 273 301.124 273.077C301.203 273.154 301.309 273.197 301.419 273.197C301.519 273.182 301.61 273.132 301.676 273.055C301.742 272.979 301.778 272.881 301.778 272.78C301.778 272.679 301.742 272.582 301.676 272.505C301.61 272.429 301.519 272.378 301.419 272.364C301.364 272.364 301.309 272.374 301.258 272.396C301.207 272.417 301.16 272.448 301.121 272.487C301.082 272.526 301.051 272.573 301.03 272.624C301.008 272.675 300.998 272.73 300.998 272.785Z" fill="#FAFAFA"/>
<path d="M328.505 288.751L332.7 293.551C333.482 293.01 334.123 292.289 334.567 291.449C335.012 290.609 335.248 289.674 335.256 288.723C335.256 285.371 332.178 282.623 328.468 282.641C324.759 282.66 321.708 285.389 321.727 288.778L328.505 288.751Z" fill="#92E3A9"/>
<path d="M327.974 289.52C328.409 289.883 328.811 290.285 329.174 290.72C329.925 291.526 331.006 292.699 332.27 294.128L332.416 294.293L332.233 294.421C331.216 295.136 330.031 295.576 328.794 295.698C327.556 295.82 326.308 295.62 325.171 295.117C324.005 294.618 322.998 293.811 322.258 292.781C321.609 291.854 321.237 290.761 321.186 289.63V289.456H321.397C323.403 289.456 325.061 289.456 326.215 289.456C326.806 289.436 327.397 289.463 327.983 289.539C327.377 289.632 326.764 289.681 326.151 289.685C324.997 289.74 323.403 289.795 321.406 289.85L321.608 289.63C321.685 290.675 322.046 291.679 322.652 292.534C323.353 293.492 324.303 294.24 325.4 294.696C326.466 295.164 327.634 295.357 328.794 295.256C329.955 295.155 331.071 294.764 332.041 294.119V294.412C330.823 292.992 329.824 291.792 329.128 290.94C328.708 290.496 328.322 290.022 327.974 289.52Z" fill="#263238"/>
<path d="M325.235 285.133C325.237 285.234 325.279 285.33 325.35 285.402C325.422 285.474 325.518 285.515 325.62 285.517C325.72 285.515 325.816 285.473 325.886 285.401C325.956 285.329 325.995 285.233 325.995 285.133C325.995 285.083 325.986 285.034 325.967 284.989C325.948 284.943 325.92 284.902 325.885 284.867C325.85 284.832 325.809 284.804 325.763 284.786C325.718 284.767 325.669 284.757 325.62 284.757C325.57 284.756 325.52 284.765 325.473 284.783C325.427 284.801 325.384 284.829 325.348 284.864C325.312 284.899 325.284 284.94 325.264 284.987C325.245 285.033 325.235 285.082 325.235 285.133Z" fill="#263238"/>
<path d="M317.696 282.394C319.194 282.147 320.714 282.061 322.231 282.137H322.927L323 282.201C323.977 283.081 324.855 284.064 325.62 285.133C324.544 284.376 323.552 283.507 322.661 282.54L322.835 282.604H322.231C320.716 282.69 319.196 282.619 317.696 282.394Z" fill="#263238"/>
<path d="M309.132 287.185C308.94 286.607 308.793 286.016 308.692 285.417C308.435 284.253 308.078 282.559 307.657 280.479L307.611 280.25H307.849L317.321 280.168C317.266 280.168 317.77 280.544 317.559 280.369V280.47V280.58V280.809L317.641 281.258C317.696 281.56 317.76 281.853 317.815 282.174C317.925 282.76 318.026 283.337 318.136 283.905C318.347 285.032 318.539 286.113 318.731 287.139L318.777 287.395H318.521C315.672 287.395 313.281 287.349 311.614 287.322L309.7 287.267C309.481 287.275 309.263 287.257 309.049 287.212C309.291 287.172 309.537 287.154 309.782 287.157L311.742 287.093C313.419 287.047 315.754 286.992 318.521 286.965L318.31 287.221L317.76 283.96C317.65 283.401 317.541 282.824 317.431 282.238C317.376 281.945 317.312 281.643 317.257 281.322L317.174 280.873L317.128 280.644V280.534V280.443C316.918 280.269 317.412 280.681 317.357 280.644H307.849L308.042 280.415C308.399 282.421 308.674 284.079 308.866 285.288C309.058 286.498 309.15 287.157 309.132 287.185Z" fill="#263238"/>
<path d="M324.676 292.763C324.69 292.854 324.736 292.936 324.806 292.996C324.876 293.056 324.964 293.088 325.056 293.088C325.148 293.088 325.237 293.056 325.307 292.996C325.376 292.936 325.422 292.854 325.436 292.763C325.436 292.661 325.396 292.563 325.324 292.491C325.252 292.419 325.154 292.378 325.052 292.378C325.002 292.378 324.952 292.388 324.906 292.408C324.86 292.427 324.818 292.456 324.783 292.491C324.748 292.527 324.72 292.57 324.702 292.616C324.684 292.663 324.675 292.713 324.676 292.763Z" fill="#263238"/>
<path d="M318.173 292.79C319.303 292.544 320.462 292.458 321.617 292.534C322.767 292.447 323.923 292.524 325.052 292.763C323.924 293.003 322.768 293.086 321.617 293.01C320.464 293.092 319.306 293.018 318.173 292.79Z" fill="#263238"/>
<path d="M309.159 295.777C308.989 295.367 308.851 294.944 308.747 294.513C308.5 293.67 308.142 292.424 307.712 290.849L307.657 290.629H307.886C310.469 290.583 313.904 290.546 317.66 290.537L317.889 290.711V290.784V290.867V291.032L317.971 291.362L318.136 292.003C318.246 292.433 318.356 292.855 318.457 293.267C318.667 294.091 318.869 294.897 319.061 295.667L319.134 295.942H318.85C315.956 295.942 313.483 295.942 311.761 295.868L309.764 295.813C309.533 295.82 309.303 295.802 309.077 295.758C309.331 295.718 309.588 295.697 309.846 295.694L311.889 295.63C313.62 295.575 316.029 295.529 318.85 295.502L318.631 295.777C318.429 295.007 318.218 294.21 318.008 293.386L317.678 292.122L317.513 291.471L317.431 291.151L317.385 290.986V290.904V290.839C317.33 290.839 317.824 291.178 317.614 291.023C313.858 291.023 310.423 291.023 307.849 291.023L308.014 290.794C308.381 292.296 308.655 293.542 308.848 294.393C308.987 294.846 309.091 295.308 309.159 295.777Z" fill="#263238"/>
<path d="M309.883 282.504C310.944 282.269 312.032 282.186 313.116 282.256C314.203 282.169 315.296 282.246 316.359 282.485C315.295 282.72 314.203 282.804 313.116 282.733C312.033 282.82 310.943 282.743 309.883 282.504Z" fill="#263238"/>
<path d="M309.956 283.566C311.026 283.332 312.124 283.249 313.217 283.319C314.309 283.237 315.407 283.311 316.478 283.539C314.316 283.863 312.118 283.863 309.956 283.539V283.566Z" fill="#263238"/>
<path d="M310.148 284.592C311.18 284.346 312.242 284.26 313.299 284.336C314.352 284.26 315.411 284.337 316.441 284.565C315.413 284.811 314.354 284.897 313.299 284.821C312.244 284.897 311.182 284.82 310.148 284.592Z" fill="#263238"/>
<path d="M310.075 292.699C311.086 292.463 312.127 292.38 313.162 292.451C314.197 292.364 315.239 292.442 316.249 292.68C315.238 292.915 314.198 292.998 313.162 292.928C312.128 293.015 311.086 292.937 310.075 292.699Z" fill="#263238"/>
<path d="M310.451 293.871C312.195 293.554 313.982 293.554 315.727 293.871C313.982 294.189 312.195 294.189 310.451 293.871Z" fill="#263238"/>
<path d="M250.764 308.042V313.071H254.062V414.939H260.822V313.071H296.702V414.939H303.462V313.071H459.118V414.911H465.887V313.071H468.809V308.042H250.764Z" fill="#263238"/>
<path d="M397.361 345.992C400.286 346.248 403.229 346.248 406.154 345.992C403.228 345.747 400.287 345.747 397.361 345.992Z" fill="#263238"/>
<path d="M333.323 347.036C333.455 347.036 333.561 346.983 333.561 346.917C333.561 346.851 333.455 346.798 333.323 346.798C333.192 346.798 333.085 346.851 333.085 346.917C333.085 346.983 333.192 347.036 333.323 347.036Z" fill="#455A64"/>
<path d="M376.403 256.361L351.158 230.713L350.608 227.965C350.507 227.461 350.397 226.893 350.297 226.243C350.188 225.495 350.204 224.733 350.343 223.99C350.475 223.06 350.737 222.154 351.121 221.297C351.542 220.555 350.865 219.657 350.159 219.968C349.454 220.28 348.236 222.286 347.97 225.061C347.704 227.837 345.341 224.145 344.462 222.826C343.582 221.507 340.651 217.541 340.038 217.495C339.122 217.422 338.92 218.411 339.827 219.694C340.734 220.976 343.216 225.098 342.52 225.529C341.83 225.409 341.119 225.512 340.492 225.824C339.864 226.135 339.352 226.638 339.03 227.26C338.389 228.478 337.683 230.219 338.26 231.015C339.511 232.524 340.857 233.949 342.291 235.284L343.134 236.008C343.134 236.008 364.98 267.665 369.743 268.7C372.702 269.332 418.484 273.133 418.484 273.133L421.937 260.52L376.403 256.361Z" fill="#FFBE9D"/>
<path d="M338.004 230.447L340.34 232.692C340.6 232.966 340.911 233.187 341.256 233.342C341.425 233.415 341.611 233.438 341.793 233.408C341.974 233.379 342.144 233.299 342.282 233.177C342.378 233.047 342.44 232.896 342.464 232.736C342.488 232.577 342.473 232.413 342.419 232.261C342.29 231.956 342.107 231.677 341.879 231.437L339.607 228.689" fill="#FFBE9D"/>
<path d="M339.607 228.68C339.662 228.634 340.092 229.064 340.761 229.806C341.137 230.228 341.521 230.658 341.915 231.116C342.169 231.377 342.387 231.669 342.566 231.986C342.674 232.187 342.726 232.413 342.714 232.641C342.703 232.869 342.629 233.089 342.502 233.278C342.344 233.453 342.136 233.575 341.907 233.627C341.677 233.679 341.437 233.66 341.219 233.571C340.871 233.426 340.558 233.208 340.303 232.93L339.085 231.684C338.398 230.97 337.995 230.502 338.041 230.447C338.512 230.716 338.94 231.053 339.314 231.446L340.605 232.609C340.822 232.836 341.084 233.014 341.375 233.131C341.501 233.182 341.639 233.195 341.772 233.169C341.905 233.143 342.028 233.079 342.126 232.985C342.196 232.864 342.233 232.726 342.233 232.586C342.233 232.446 342.196 232.309 342.126 232.188C341.969 231.903 341.782 231.636 341.567 231.391C341.192 230.924 340.834 230.475 340.486 230.017C340.127 229.618 339.831 229.167 339.607 228.68Z" fill="#AA6550"/>
<path d="M339.699 228.817L342.034 231.061C342.293 231.335 342.604 231.554 342.95 231.702C343.118 231.782 343.306 231.809 343.489 231.779C343.672 231.75 343.842 231.666 343.976 231.537C344.074 231.408 344.137 231.257 344.161 231.097C344.185 230.937 344.169 230.773 344.114 230.621C343.983 230.314 343.8 230.032 343.573 229.788L341.302 227.04" fill="#FFBE9D"/>
<path d="M341.265 227.04C341.32 227.04 341.75 227.434 342.419 228.176L343.573 229.476C343.827 229.737 344.045 230.03 344.224 230.347C344.332 230.549 344.383 230.777 344.372 231.006C344.361 231.235 344.287 231.457 344.16 231.647C344.002 231.822 343.794 231.944 343.565 231.996C343.335 232.049 343.095 232.029 342.877 231.94C342.529 231.796 342.216 231.577 341.961 231.299L340.752 230.053C340.347 229.693 339.995 229.277 339.708 228.817C340.177 229.084 340.606 229.417 340.981 229.806L342.273 230.979C342.489 231.205 342.751 231.383 343.042 231.501C343.168 231.551 343.306 231.564 343.439 231.538C343.572 231.512 343.695 231.448 343.793 231.354C343.863 231.231 343.9 231.092 343.9 230.951C343.9 230.81 343.863 230.671 343.793 230.548C343.636 230.264 343.445 229.999 343.225 229.76L342.153 228.386C341.788 227.988 341.488 227.533 341.265 227.04Z" fill="#AA6550"/>
<path d="M341.521 227.48L343.857 229.724C344.111 230.003 344.424 230.222 344.773 230.365C344.929 230.453 345.108 230.488 345.285 230.466C345.462 230.443 345.627 230.365 345.757 230.242C345.886 230.119 345.972 229.958 346.003 229.782C346.034 229.606 346.007 229.425 345.927 229.266C345.799 228.957 345.616 228.675 345.387 228.432C344.636 227.516 343.876 226.6 343.124 225.684" fill="#FFBE9D"/>
<path d="M343.088 225.703C343.522 226.024 343.91 226.403 344.242 226.829L345.396 228.139C345.646 228.4 345.862 228.693 346.037 229.009C346.151 229.21 346.205 229.439 346.194 229.669C346.182 229.899 346.106 230.122 345.973 230.31C345.818 230.485 345.612 230.608 345.383 230.66C345.155 230.713 344.916 230.693 344.7 230.603C344.352 230.459 344.039 230.24 343.784 229.962L342.584 228.716C342.179 228.358 341.83 227.941 341.549 227.48C342.02 227.745 342.449 228.078 342.822 228.469L344.114 229.641C344.329 229.866 344.587 230.044 344.874 230.164C345 230.215 345.138 230.229 345.272 230.203C345.405 230.177 345.528 230.112 345.625 230.017C345.7 229.896 345.739 229.756 345.739 229.614C345.739 229.472 345.7 229.332 345.625 229.211C345.468 228.929 345.281 228.665 345.066 228.423L343.995 227.049C343.622 226.652 343.316 226.197 343.088 225.703Z" fill="#AA6550"/>
<path d="M345.213 231.364C345.213 231.281 345.79 231.171 346.633 231.428L346.367 231.657C346.237 231.132 346.216 230.587 346.303 230.054C346.428 229.333 346.744 228.659 347.219 228.103C347.576 227.681 347.878 227.516 347.915 227.562C347.406 228.349 347.035 229.216 346.816 230.127C346.743 230.607 346.743 231.094 346.816 231.574L346.862 231.941L346.55 231.803C345.762 231.492 345.204 231.455 345.213 231.364Z" fill="#AA6550"/>
<path d="M409.452 217.898L409.562 253.045L395.822 253.695L395.272 245.277C395.272 245.277 388.659 246.276 387.276 241.302C386.36 238.123 386.616 213.575 386.616 213.575L409.452 217.898Z" fill="#FFBE9D"/>
<path d="M383.273 217.037C384.29 219.144 389.126 222.982 389.126 222.982L391.315 228.835C393.211 227.351 395.758 227.434 396.243 230.768C396.591 233.186 393.596 233.672 393.596 233.672C395.336 236.64 396.518 239.039 399.092 241.861C401.84 244.92 403.379 245.222 406.365 245.277H409.654C409.654 245.277 416.377 239.653 415.049 224.851C413.721 210.048 400.374 214.344 397.196 210.68C392.048 204.644 379.884 210.03 383.273 217.037Z" fill="#263238"/>
<path d="M414.261 237.244C413.72 237.314 413.172 237.29 412.64 237.171C411.174 236.86 409.818 236.165 408.71 235.156C407.126 233.621 405.788 231.85 404.744 229.907C403.461 227.809 402.06 225.373 399.706 223.742C397.352 222.112 394.521 221.828 392.112 221.333C389.917 221.037 387.82 220.238 385.984 218.997C384.768 218.096 383.901 216.801 383.529 215.333C383.387 214.805 383.365 214.251 383.465 213.712C383.425 214.25 383.471 214.792 383.603 215.315C383.998 216.744 384.867 217.997 386.067 218.869C387.896 220.076 389.976 220.85 392.149 221.132C394.549 221.617 397.37 221.929 399.816 223.559C402.261 225.19 403.617 227.69 404.89 229.788C405.922 231.722 407.241 233.488 408.802 235.027C409.886 236.029 411.212 236.733 412.649 237.07C413.041 237.155 413.439 237.204 413.84 237.217L414.261 237.244Z" fill="#455A64"/>
<path d="M415.04 225.19L414.334 224.97C413.659 224.756 412.966 224.602 412.264 224.512C411.156 224.355 410.028 224.609 409.095 225.226C408.809 225.417 408.564 225.663 408.374 225.949C408.184 226.235 408.052 226.556 407.986 226.893C407.913 227.269 407.932 227.657 408.044 228.023C408.156 228.388 408.356 228.721 408.628 228.991C408.938 229.257 409.328 229.412 409.736 229.431C410.166 229.436 410.589 229.319 410.954 229.092C411.751 228.617 412.342 227.863 412.612 226.976C412.862 226.232 412.942 225.441 412.845 224.663C412.748 223.884 412.477 223.137 412.052 222.477C411.627 221.817 411.059 221.262 410.39 220.851C409.721 220.441 408.969 220.186 408.188 220.106C407.038 220.04 405.885 220.189 404.79 220.546C403.637 220.917 402.458 221.202 401.263 221.397C400.023 221.562 398.766 221.562 397.526 221.397C396.279 221.249 395.062 220.912 393.917 220.399C393.344 220.166 392.829 219.813 392.404 219.364C391.979 218.916 391.655 218.382 391.453 217.798C391.286 217.219 391.276 216.607 391.422 216.023C391.569 215.439 391.867 214.904 392.286 214.472C392.717 214.084 393.253 213.833 393.827 213.75C394.401 213.667 394.987 213.755 395.51 214.005C396.024 214.23 396.445 214.624 396.701 215.123C396.941 215.611 397.03 216.159 396.958 216.698C396.885 217.207 396.704 217.694 396.428 218.127C396.151 218.56 395.785 218.928 395.355 219.208C394.528 219.714 393.576 219.977 392.607 219.968C391.736 219.977 390.87 219.844 390.042 219.575C388.614 219.116 387.319 218.317 386.268 217.248C385.47 216.453 384.819 215.522 384.344 214.5C384.044 213.855 383.814 213.179 383.657 212.485C383.575 212.008 383.547 211.752 383.547 211.752C383.547 211.752 383.602 211.999 383.694 212.476C383.865 213.16 384.105 213.826 384.409 214.463C384.882 215.488 385.537 216.419 386.341 217.211C387.382 218.263 388.666 219.043 390.079 219.483C390.894 219.749 391.749 219.879 392.607 219.868C393.531 219.865 394.438 219.608 395.226 219.126C395.637 218.858 395.986 218.505 396.248 218.091C396.51 217.677 396.681 217.212 396.747 216.726C396.83 216.216 396.743 215.694 396.499 215.239C396.256 214.784 395.87 214.421 395.401 214.207C394.909 213.974 394.359 213.892 393.821 213.972C393.283 214.052 392.781 214.29 392.378 214.656C391.982 215.062 391.702 215.566 391.563 216.116C391.425 216.666 391.434 217.243 391.59 217.788C391.788 218.346 392.102 218.856 392.511 219.283C392.919 219.711 393.414 220.048 393.962 220.271C395.1 220.769 396.308 221.087 397.544 221.214C398.76 221.377 399.992 221.377 401.208 221.214C402.394 221.026 403.564 220.748 404.707 220.381C405.828 220.011 407.01 219.858 408.188 219.932C408.996 220.015 409.775 220.278 410.467 220.703C411.159 221.127 411.747 221.702 412.186 222.385C412.626 223.068 412.907 223.84 413.008 224.646C413.108 225.452 413.026 226.27 412.768 227.04C412.477 227.959 411.858 228.739 411.027 229.229C410.639 229.465 410.191 229.586 409.736 229.577C409.293 229.564 408.868 229.395 408.536 229.101C408.252 228.814 408.043 228.462 407.926 228.076C407.81 227.689 407.789 227.28 407.867 226.884C408.01 226.173 408.428 225.548 409.031 225.144C409.992 224.528 411.144 224.28 412.273 224.448C412.979 224.54 413.672 224.706 414.343 224.942C414.801 225.089 415.04 225.19 415.04 225.19Z" fill="#455A64"/>
<path d="M397.617 406.356L393.147 400.613L403.855 392.158L410.496 400.494L409.864 401.061C407.043 403.553 395.318 413.565 392.872 414.527C390.143 415.598 397.617 406.356 397.617 406.356Z" fill="#92E3A9"/>
<g opacity="0.4">
<path d="M394.091 411.028C394.091 411.028 391.627 414.472 392.442 414.692C393.257 414.912 405.477 405.239 410.496 400.503L410.286 400.274L396.124 411.669C396.124 411.669 394.732 410.561 394.091 411.028Z" fill="white"/>
</g>
<path d="M410.45 400.127C410.402 400.188 410.346 400.243 410.286 400.292L409.782 400.741L407.904 402.362C406.301 403.718 404.075 405.568 401.565 407.556C399.055 409.544 396.747 411.293 395.062 412.53L393.046 413.995L392.497 414.38L392.295 414.499L392.478 414.353L393.01 413.94L394.988 412.438C396.655 411.174 398.955 409.415 401.464 407.428C403.974 405.44 406.209 403.608 407.821 402.271L409.736 400.695L410.258 400.265L410.45 400.127Z" fill="#263238"/>
<path d="M396.262 411.824C395.921 411.57 395.552 411.355 395.162 411.183C394.757 411.061 394.339 410.987 393.917 410.963C394.343 410.825 394.806 410.848 395.217 411.028C395.652 411.155 396.024 411.439 396.262 411.824Z" fill="#263238"/>
<path d="M398.158 407.721C398.158 407.767 397.846 407.721 397.489 407.583C397.132 407.446 396.866 407.327 396.884 407.281C396.903 407.235 397.196 407.281 397.544 407.428C397.768 407.479 397.977 407.579 398.158 407.721Z" fill="#263238"/>
<path d="M398.661 406.576C398.661 406.622 398.396 406.649 398.084 406.631C397.773 406.613 397.516 406.558 397.516 406.512C397.516 406.466 397.773 406.439 398.094 406.466C398.289 406.458 398.483 406.495 398.661 406.576Z" fill="#263238"/>
<path d="M398.405 405.138C398.405 405.138 398.213 405.403 397.901 405.651C397.59 405.898 397.324 406.072 397.297 406.035C397.269 405.999 397.498 405.77 397.8 405.522C398.103 405.275 398.378 405.101 398.405 405.138Z" fill="#263238"/>
<path d="M398.029 404.277C397.917 404.532 397.753 404.761 397.548 404.95C397.343 405.139 397.102 405.284 396.839 405.376C396.839 405.33 397.113 405.129 397.443 404.826C397.773 404.524 397.993 404.249 398.029 404.277Z" fill="#263238"/>
<path d="M397.049 407.08C396.856 407.301 396.623 407.484 396.362 407.62C396.088 407.783 395.8 407.921 395.501 408.032C395.323 408.11 395.135 408.166 394.943 408.197C394.824 408.209 394.704 408.18 394.604 408.115C394.552 408.073 394.515 408.016 394.495 407.953C394.475 407.889 394.475 407.821 394.494 407.758C394.653 407.425 394.923 407.158 395.257 407.001C395.59 406.845 395.968 406.808 396.326 406.897C396.539 406.945 396.739 407.039 396.912 407.171C397.031 407.272 397.086 407.336 397.077 407.345C396.84 407.185 396.576 407.07 396.298 407.007C395.992 406.94 395.672 406.969 395.382 407.089C395.04 407.212 394.759 407.465 394.604 407.794C394.604 407.959 394.704 408.06 394.888 408.032C395.062 408 395.233 407.954 395.401 407.895C395.695 407.787 395.982 407.661 396.262 407.52C396.775 407.263 397.031 407.052 397.049 407.08Z" fill="#263238"/>
<path d="M396.903 407.254C396.903 407.254 396.655 407.171 396.445 406.842C396.323 406.642 396.251 406.415 396.234 406.182C396.215 406.035 396.232 405.886 396.283 405.748C396.334 405.609 396.418 405.484 396.527 405.385C396.609 405.343 396.703 405.335 396.791 405.362C396.878 405.39 396.951 405.451 396.994 405.532C397.066 405.655 397.109 405.793 397.123 405.935C397.15 406.157 397.15 406.381 397.123 406.603C397.115 406.813 397.055 407.018 396.949 407.199C396.949 407.199 396.949 406.961 397.004 406.594C397.029 406.381 397.029 406.166 397.004 405.953C397.004 405.733 396.839 405.422 396.646 405.532C396.562 405.616 396.498 405.718 396.46 405.831C396.422 405.944 396.41 406.064 396.426 406.182C396.434 406.39 396.487 406.593 396.582 406.777C396.675 406.945 396.782 407.105 396.903 407.254Z" fill="#263238"/>
<path d="M407.913 397.37C407.913 397.37 407.583 397.581 407.153 398.02C406.578 398.59 406.175 399.309 405.991 400.096C405.806 400.884 405.847 401.707 406.109 402.472C406.31 403.058 406.539 403.388 406.512 403.388C406.484 403.388 406.438 403.324 406.338 403.178C406.206 402.965 406.092 402.741 405.999 402.509C405.703 401.725 405.642 400.872 405.825 400.054C406.015 399.236 406.449 398.494 407.07 397.929C407.253 397.759 407.452 397.609 407.666 397.48C407.741 397.43 407.825 397.393 407.913 397.37Z" fill="#263238"/>
<path d="M403.287 393.789C403.937 394.462 404.549 395.172 405.119 395.914C406.09 397.123 406.851 398.121 406.823 398.149C406.17 397.478 405.558 396.768 404.991 396.024C404.374 395.317 403.805 394.57 403.287 393.789Z" fill="#263238"/>
<path d="M404.368 403.498C403.955 404.026 403.471 404.494 402.93 404.89C402.427 405.329 401.87 405.702 401.272 405.999C401.272 405.999 401.977 405.449 402.829 404.753C403.681 404.057 404.341 403.462 404.368 403.498Z" fill="#263238"/>
<path d="M406.466 401.831C406.512 401.831 406.53 402.023 406.585 402.243C406.64 402.463 406.713 402.637 406.677 402.664C406.64 402.692 406.484 402.536 406.42 402.28C406.356 402.023 406.429 401.822 406.466 401.831Z" fill="#263238"/>
<path d="M406.484 400.228C406.53 400.228 406.548 400.393 406.484 400.594C406.42 400.796 406.411 400.952 406.365 400.952C406.319 400.952 406.301 400.778 406.319 400.576C406.338 400.374 406.438 400.219 406.484 400.228Z" fill="#263238"/>
<path d="M407.254 398.882C407.254 398.882 407.135 399.037 407.025 399.211C406.915 399.385 406.86 399.569 406.814 399.559C406.768 399.55 406.741 399.34 406.878 399.12C407.015 398.9 407.244 398.836 407.254 398.882Z" fill="#263238"/>
<path d="M407.895 398.03C407.895 398.03 407.895 398.158 407.895 398.259C407.895 398.359 407.748 398.433 407.712 398.414C407.675 398.396 407.712 398.286 407.712 398.176C407.712 398.066 407.858 398.011 407.895 398.03Z" fill="#263238"/>
<g opacity="0.3">
<path d="M407.675 397.095L396.839 405.376L395.84 404.066L407.226 396.353L407.675 397.095Z" fill="black"/>
</g>
<path d="M348.373 412.127V404.845L362.021 404.79L362.104 415.452L361.252 415.507C357.487 415.736 342.098 416.377 339.579 415.626C336.786 414.783 348.373 412.127 348.373 412.127Z" fill="#92E3A9"/>
<g opacity="0.4">
<path d="M342.712 413.629C342.712 413.629 338.645 414.811 339.158 415.461C339.671 416.112 355.252 416.066 362.122 415.461V415.159L343.949 415.388C343.949 415.388 343.5 413.657 342.712 413.629Z" fill="white"/>
</g>
<path d="M362.315 415.14H362.076H361.399L358.925 415.259C356.828 415.342 353.933 415.424 350.736 415.443C347.539 415.461 344.636 415.443 342.538 415.342L340.065 415.25H339.387H339.149H340.065H342.547C344.636 415.25 347.539 415.314 350.736 415.305C353.933 415.296 356.828 415.223 358.916 415.168L361.399 415.104H362.315V415.14Z" fill="#263238"/>
<path d="M343.93 415.589C343.816 415.179 343.657 414.783 343.454 414.408C343.21 414.07 342.928 413.763 342.611 413.492C343.036 413.647 343.389 413.953 343.601 414.353C343.856 414.712 343.973 415.151 343.93 415.589Z" fill="#263238"/>
<path d="M347.943 413.528C347.943 413.528 347.714 413.318 347.512 413.006C347.31 412.695 347.182 412.42 347.219 412.402C347.256 412.383 347.448 412.603 347.649 412.924C347.851 413.244 347.979 413.51 347.943 413.528Z" fill="#263238"/>
<path d="M349.051 412.942C349.051 412.942 348.804 412.832 348.565 412.622C348.327 412.411 348.162 412.219 348.19 412.182C348.217 412.145 348.437 412.292 348.675 412.502C348.914 412.713 349.078 412.906 349.051 412.942Z" fill="#263238"/>
<path d="M349.738 411.65C349.514 411.737 349.272 411.769 349.033 411.742C348.792 411.774 348.547 411.749 348.318 411.669C348.544 411.587 348.784 411.556 349.023 411.577C349.264 411.551 349.508 411.576 349.738 411.65Z" fill="#263238"/>
<path d="M349.976 410.744C349.739 410.897 349.462 410.976 349.179 410.973C348.903 411.023 348.619 410.988 348.364 410.872C348.63 410.825 348.9 410.804 349.17 410.808C349.436 410.763 349.706 410.742 349.976 410.744Z" fill="#263238"/>
<path d="M347.475 412.347C347.172 412.4 346.862 412.4 346.559 412.347C346.248 412.31 345.941 412.242 345.643 412.145C345.459 412.096 345.28 412.025 345.112 411.935C345.009 411.872 344.931 411.774 344.892 411.66C344.878 411.595 344.884 411.527 344.909 411.465C344.933 411.403 344.975 411.35 345.03 411.312C345.363 411.145 345.743 411.1 346.106 411.184C346.468 411.267 346.791 411.474 347.017 411.77C347.153 411.942 347.25 412.142 347.301 412.356C347.32 412.434 347.32 412.516 347.301 412.594C347.212 412.322 347.075 412.068 346.898 411.843C346.698 411.614 346.438 411.446 346.147 411.357C345.977 411.3 345.796 411.278 345.617 411.292C345.437 411.306 345.262 411.357 345.103 411.44C344.966 411.541 345.02 411.706 345.176 411.797C345.332 411.885 345.498 411.952 345.671 411.999C345.969 412.104 346.275 412.184 346.587 412.237C347.164 412.319 347.475 412.319 347.475 412.347Z" fill="#263238"/>
<path d="M347.246 412.383C347.144 412.199 347.109 411.986 347.146 411.779C347.172 411.549 347.253 411.329 347.384 411.138C347.459 411.01 347.564 410.902 347.69 410.824C347.816 410.746 347.96 410.699 348.108 410.689C348.152 410.696 348.195 410.713 348.234 410.738C348.272 410.762 348.305 410.794 348.331 410.832C348.356 410.869 348.374 410.912 348.383 410.957C348.392 411.001 348.392 411.047 348.382 411.092C348.362 411.232 348.312 411.366 348.236 411.486C348.122 411.68 347.983 411.858 347.824 412.017C347.549 412.283 347.338 412.392 347.32 412.374C347.301 412.356 347.494 412.218 347.741 411.934C347.88 411.773 348.003 411.598 348.108 411.412C348.227 411.22 348.3 410.89 348.108 410.854C347.915 410.817 347.668 411.046 347.54 411.22C347.415 411.391 347.33 411.589 347.292 411.797C347.267 411.992 347.251 412.187 347.246 412.383Z" fill="#263238"/>
<path d="M362.012 411.403C362.012 411.403 361.628 411.403 361.005 411.403C360.206 411.506 359.449 411.822 358.816 412.319C358.187 412.829 357.715 413.505 357.451 414.27C357.348 414.592 357.262 414.919 357.194 415.25C357.176 415.16 357.176 415.066 357.194 414.975C357.211 414.724 357.257 414.475 357.332 414.234C357.583 413.435 358.061 412.725 358.706 412.191C359.36 411.662 360.158 411.343 360.996 411.275C361.245 411.245 361.497 411.245 361.747 411.275C361.844 411.297 361.935 411.341 362.012 411.403Z" fill="#263238"/>
<path d="M360.574 405.733C360.677 406.664 360.723 407.6 360.712 408.536C360.763 409.47 360.763 410.405 360.712 411.339C360.61 410.408 360.567 409.472 360.583 408.536C360.527 407.603 360.524 406.667 360.574 405.733Z" fill="#263238"/>
<path d="M355.408 414.032C354.757 414.183 354.089 414.251 353.42 414.234C352.751 414.267 352.08 414.218 351.423 414.087C351.423 414.041 352.339 414.087 353.42 414.087C354.501 414.087 355.408 414.032 355.408 414.032Z" fill="#263238"/>
<path d="M358.156 414.032C358.156 414.032 358.092 414.225 358 414.426C357.909 414.628 357.854 414.811 357.808 414.811C357.762 414.811 357.744 414.591 357.808 414.362C357.872 414.133 358.092 414.032 358.156 414.032Z" fill="#263238"/>
<path d="M359.127 412.768C359.127 412.768 359.072 412.942 358.935 413.08C358.797 413.217 358.651 413.318 358.614 413.29C358.577 413.263 358.669 413.107 358.816 412.97C358.962 412.832 359.072 412.731 359.127 412.768Z" fill="#263238"/>
<path d="M360.565 412.2C360.565 412.2 360.373 412.2 360.171 412.319C359.97 412.438 359.832 412.502 359.796 412.466C359.759 412.429 359.869 412.246 360.125 412.163C360.382 412.081 360.583 412.145 360.565 412.2Z" fill="#263238"/>
<path d="M361.591 411.907C361.591 411.953 361.527 412.026 361.417 412.072C361.307 412.118 361.197 412.118 361.179 412.072C361.161 412.026 361.243 411.962 361.353 411.916C361.463 411.87 361.573 411.87 361.591 411.907Z" fill="#263238"/>
<g opacity="0.3">
<path d="M362.122 410.854L348.364 410.872L348.373 409.223L362.067 409.141L362.122 410.854Z" fill="black"/>
</g>
<path d="M382.054 286.378L376.558 302.866C375.084 307.309 371.2 308.069 366.482 308.069H336.172V301.254L363.945 297.288L370.559 280.379L382.054 286.378Z" fill="#FFBE9D"/>
<path d="M332.81 299.798L330.401 298.662C330.401 298.662 327.8 293.633 327.204 293.835C326.609 294.036 326.426 295.511 327.47 297.828L324.273 296.912C324.273 296.912 317.321 300.118 317.632 300.576C317.726 300.795 317.867 300.991 318.045 301.149C318.224 301.307 318.435 301.423 318.664 301.488C318.893 301.554 319.134 301.568 319.369 301.529C319.604 301.49 319.827 301.399 320.023 301.263C321.534 300.485 323.513 299.578 323.513 299.578L327.259 300.65L322.432 301.263L317.852 305.394C318.252 305.692 318.74 305.846 319.239 305.833C319.737 305.819 320.216 305.639 320.6 305.321L332.508 307.831L336.172 308.033V301.217L332.81 299.798Z" fill="#FFBE9D"/>
<path d="M320.664 305.294C320.719 305.294 320.939 304.982 321.36 304.515C321.609 304.25 321.9 304.027 322.221 303.856C322.621 303.665 323.053 303.55 323.494 303.517C324.691 303.443 325.877 303.24 327.03 302.912C325.831 302.872 324.632 302.951 323.449 303.15C322.958 303.189 322.481 303.33 322.047 303.562C321.691 303.76 321.38 304.028 321.131 304.35C320.904 304.624 320.744 304.947 320.664 305.294Z" fill="#AA6550"/>
<path d="M322.514 305.77C322.56 305.77 322.597 305.523 322.927 305.449C323.256 305.376 323.797 305.33 324.356 305.275C325.05 305.262 325.743 305.192 326.426 305.065C325.749 304.829 325.024 304.772 324.319 304.9C323.814 304.944 323.315 305.049 322.835 305.211C322.752 305.242 322.677 305.291 322.615 305.354C322.553 305.418 322.506 305.494 322.478 305.578C322.432 305.706 322.487 305.77 322.514 305.77Z" fill="#AA6550"/>
<path d="M384.628 282.788L382.293 290.711L367.453 283.96C367.994 282.302 370.449 274.919 375.139 263.204C376.422 259.99 378.51 257.16 381.204 254.988C383.898 252.816 387.106 251.374 390.518 250.801C395.208 249.953 399.96 249.488 404.725 249.409C413.052 249.5 425.299 254.703 426.938 262.856C428.202 269.084 426.984 280.076 426.984 293.432L425.94 318.979L383.3 320.417L384.628 282.788Z" fill="#92E3A9"/>
<g opacity="0.3">
<path d="M426.938 287.551C421.754 288.613 416.423 287.551 411.137 287.23C407.931 287.038 404.377 286.69 401.84 288.659C399.834 290.226 399.028 292.855 398.442 295.328C396.234 304.781 395.831 311.11 395.336 320.802L420.984 322.359L426.938 287.551Z" fill="black"/>
</g>
<path d="M383.538 255.097C383.538 255.097 383.969 255.161 384.674 255.436C385.658 255.862 386.507 256.549 387.129 257.424C388.036 258.732 388.545 260.275 388.595 261.866C388.654 263.825 388.503 265.784 388.146 267.71C387.541 271.235 386.746 274.724 385.764 278.162C385.416 279.444 385.123 280.498 384.903 281.304C384.777 281.683 384.685 282.072 384.628 282.467C384.8 282.105 384.938 281.728 385.041 281.34C385.279 280.608 385.618 279.554 386.012 278.235C387.08 274.805 387.916 271.308 388.512 267.765C388.872 265.811 389.013 263.824 388.934 261.839C388.863 260.189 388.308 258.596 387.34 257.259C386.671 256.366 385.763 255.683 384.72 255.289C384.437 255.196 384.145 255.129 383.85 255.088C383.648 255.088 383.538 255.079 383.538 255.097Z" fill="#263238"/>
<path d="M367.921 281.972C368.583 282.428 369.282 282.829 370.009 283.172C371.328 283.859 373.169 284.766 375.239 285.701C377.31 286.635 379.215 287.413 380.607 287.945C381.342 288.272 382.105 288.53 382.888 288.714C382.182 288.328 381.451 287.992 380.699 287.707C379.343 287.111 377.456 286.296 375.395 285.362C373.334 284.427 371.475 283.53 370.128 282.934C369.417 282.559 368.679 282.238 367.921 281.972Z" fill="#263238"/>
<path d="M361.124 322.359C357.632 324.265 355.026 327.464 353.867 331.269C352.707 335.075 353.086 339.183 354.923 342.712L392.048 406.429L409.168 396.088L380.351 338.563L401.208 324.924" fill="#263238"/>
<path d="M406.31 319.199L355.362 321.031C351.386 321.172 347.624 322.866 344.884 325.75C342.144 328.635 340.644 332.478 340.706 336.456L342.822 409.214H364.247L363.533 340.422L406.31 339.296V319.199Z" fill="#263238"/>
<path d="M363.533 342.832C363.576 343.055 363.597 343.282 363.597 343.509C363.597 343.998 363.624 344.639 363.679 345.433C363.744 347.109 363.808 349.537 363.872 352.541C364 358.541 364.082 366.831 364.128 375.982C364.174 385.132 364.22 393.386 364.247 399.422C364.247 402.39 364.247 404.799 364.293 406.53C364.293 407.336 364.293 407.977 364.293 408.463C364.315 408.688 364.315 408.915 364.293 409.141C364.251 408.917 364.229 408.69 364.229 408.463C364.229 407.977 364.183 407.336 364.147 406.53C364.082 404.854 364.018 402.427 363.954 399.431C363.826 393.431 363.744 385.142 363.698 375.982C363.652 366.822 363.606 358.578 363.579 352.541C363.579 349.582 363.579 347.173 363.579 345.442V343.5C363.542 343.279 363.527 343.055 363.533 342.832Z" fill="#455A64"/>
<path d="M428.377 273.032H412.96C409.982 273.032 407.125 274.215 405.019 276.322C402.913 278.428 401.73 281.284 401.73 284.262V338.004H370.98C368.917 338.004 366.939 338.824 365.481 340.282C364.022 341.74 363.203 343.718 363.203 345.781H433.506C435.16 345.712 436.724 345.007 437.869 343.812C439.015 342.616 439.654 341.025 439.652 339.369V284.262C439.652 282.784 439.361 281.32 438.793 279.954C438.226 278.589 437.395 277.349 436.347 276.305C435.299 275.262 434.056 274.436 432.688 273.874C431.32 273.312 429.855 273.026 428.377 273.032Z" fill="#455A64"/>
<path d="M406.209 274.8C406.338 274.8 406.448 290.601 406.448 310.094C406.448 329.586 406.338 345.387 406.209 345.387C406.081 345.387 405.971 329.586 405.971 310.094C405.971 290.601 406.081 274.8 406.209 274.8Z" fill="#263238"/>
<path d="M404.258 402.252V345.845H399.248V402.252C396.188 408.28 388.998 412.328 380.241 415.699H424.905C415.864 412.017 407.62 409.186 404.258 402.252Z" fill="#455A64"/>
<path d="M122.075 394.943L122.222 394.613L122.671 393.651C123.212 392.412 123.653 391.132 123.99 389.822C125.042 384.943 125.001 379.891 123.871 375.029C123.169 371.66 122.251 368.341 121.123 365.09C119.959 361.564 118.613 357.826 117.459 353.778C116.217 349.556 115.617 345.171 115.682 340.77C115.846 336.19 117.211 331.61 118.704 327.03C120.197 322.45 121.746 317.98 122.213 313.474C122.726 309.141 121.854 304.758 119.721 300.952C117.743 297.288 115.251 294.173 113.382 290.94C111.636 287.939 110.349 284.694 109.563 281.313C108.442 276.413 108.361 271.333 109.325 266.4C109.666 264.597 110.188 262.833 110.882 261.133C110.859 261.251 110.829 261.368 110.79 261.481C110.708 261.729 110.607 262.058 110.47 262.489C110.097 263.785 109.792 265.1 109.554 266.428C108.658 271.329 108.783 276.362 109.92 281.212C110.716 284.554 112.007 287.759 113.749 290.72C115.581 293.917 118.118 297.031 120.161 300.732C122.347 304.609 123.245 309.08 122.726 313.501C122.258 318.081 120.701 322.588 119.208 327.159C117.715 331.729 116.369 336.319 116.195 340.798C116.131 345.153 116.718 349.494 117.935 353.677C119.025 357.698 120.353 361.444 121.507 364.98C122.626 368.248 123.526 371.587 124.2 374.974C125.32 379.878 125.32 384.972 124.2 389.877C123.833 391.192 123.346 392.471 122.744 393.697C122.533 394.091 122.378 394.402 122.249 394.613C122.207 394.73 122.148 394.841 122.075 394.943Z" fill="#263238"/>
<path d="M115.975 294.1C115.975 294.1 112.183 281.981 118.979 274.864C119.032 274.807 119.101 274.765 119.176 274.744C119.251 274.723 119.331 274.724 119.406 274.746C119.481 274.768 119.549 274.81 119.601 274.868C119.654 274.926 119.689 274.998 119.703 275.075C120.06 277.09 120.518 283.19 115.975 294.1Z" fill="#92E3A9"/>
<path d="M118.246 278.922C118.236 279.674 118.15 280.423 117.99 281.157C117.733 282.696 117.44 284.51 117.074 286.507C116.708 288.503 116.469 290.317 116.231 291.856C116.161 292.602 116.026 293.341 115.828 294.064C115.758 293.313 115.78 292.556 115.892 291.81C116.021 290.427 116.259 288.522 116.607 286.433C116.955 284.345 117.312 282.458 117.614 281.093C117.736 280.346 117.948 279.617 118.246 278.922Z" fill="#263238"/>
<path d="M120.427 322.698C120.427 322.698 122.744 310.213 132.078 307.126C132.151 307.099 132.231 307.093 132.307 307.11C132.383 307.126 132.453 307.164 132.509 307.219C132.564 307.273 132.603 307.343 132.621 307.419C132.639 307.495 132.635 307.574 132.609 307.648C131.996 309.608 129.55 315.177 120.427 322.698Z" fill="#92E3A9"/>
<path d="M129.532 310.341C129.171 310.993 128.744 311.607 128.258 312.173L124.997 316.496L121.746 320.82C121.341 321.453 120.874 322.046 120.353 322.588C120.646 321.892 121.021 321.234 121.471 320.628C122.231 319.464 123.303 317.88 124.613 316.203C125.922 314.527 127.104 313.025 127.993 311.962C128.441 311.363 128.957 310.819 129.532 310.341Z" fill="#263238"/>
<path d="M117.898 354.025C117.898 354.025 116.497 341.402 124.521 335.705C124.584 335.659 124.659 335.631 124.737 335.626C124.815 335.62 124.894 335.636 124.963 335.672C125.032 335.708 125.09 335.763 125.13 335.83C125.17 335.898 125.191 335.975 125.19 336.053C125.162 338.114 124.448 344.187 117.898 354.025Z" fill="#92E3A9"/>
<path d="M123.028 339.561C122.875 340.297 122.648 341.015 122.35 341.705L120.518 346.789C119.822 348.694 119.199 350.453 118.686 351.881C118.476 352.6 118.204 353.299 117.871 353.97C117.945 353.22 118.111 352.481 118.365 351.772C118.75 350.434 119.355 348.611 120.088 346.624C120.82 344.636 121.544 342.859 122.094 341.586C122.325 340.877 122.639 340.198 123.028 339.561Z" fill="#263238"/>
<path d="M124.933 385.544C124.933 385.544 124.017 372.876 132.206 367.499C132.27 367.454 132.345 367.427 132.424 367.423C132.502 367.419 132.58 367.437 132.648 367.476C132.716 367.514 132.772 367.571 132.809 367.64C132.846 367.709 132.862 367.787 132.857 367.866C132.756 369.899 131.822 375.936 124.933 385.544Z" fill="#92E3A9"/>
<path d="M130.576 371.264C130.393 371.996 130.138 372.708 129.816 373.389C129.229 374.836 128.533 376.531 127.773 378.4C127.013 380.268 126.316 381.972 125.73 383.419C125.493 384.134 125.186 384.825 124.814 385.48C124.923 384.734 125.117 384.003 125.391 383.3C125.822 381.981 126.49 380.186 127.306 378.226C128.121 376.265 128.89 374.507 129.486 373.252C129.771 372.549 130.137 371.882 130.576 371.264Z" fill="#263238"/>
<path d="M110.525 283.456C110.525 283.456 99.2669 277.548 99.0379 267.747C99.0344 267.669 99.0527 267.591 99.0909 267.522C99.1291 267.454 99.1857 267.397 99.2542 267.359C99.3227 267.321 99.4005 267.303 99.4788 267.307C99.5571 267.311 99.6328 267.336 99.6974 267.38C101.374 268.535 106.009 272.528 110.525 283.456Z" fill="#92E3A9"/>
<path d="M101.383 271.136C101.908 271.677 102.378 272.269 102.784 272.904L105.954 277.292L109.141 281.67C109.627 282.238 110.056 282.851 110.424 283.502C109.841 283.022 109.321 282.471 108.876 281.862C107.96 280.8 106.806 279.279 105.569 277.557C104.332 275.835 103.261 274.25 102.51 273.078C102.062 272.475 101.684 271.824 101.383 271.136Z" fill="#263238"/>
<path d="M122.616 309.489C122.616 309.489 111.019 304.304 110.204 294.503C110.195 294.426 110.208 294.347 110.242 294.277C110.276 294.207 110.329 294.148 110.395 294.107C110.462 294.065 110.538 294.044 110.616 294.044C110.694 294.045 110.77 294.067 110.836 294.109C112.576 295.163 117.44 298.854 122.616 309.489Z" fill="#92E3A9"/>
<path d="M112.741 297.7C113.296 298.205 113.799 298.763 114.244 299.367L117.679 303.562C118.97 305.12 120.133 306.53 121.123 307.739C121.64 308.281 122.106 308.87 122.515 309.498C121.909 309.052 121.358 308.536 120.875 307.959C119.959 306.952 118.649 305.504 117.312 303.855C115.975 302.207 114.802 300.695 113.978 299.578C113.497 299 113.082 298.37 112.741 297.7Z" fill="#263238"/>
<path d="M115.938 338.535C115.938 338.535 107.978 328.633 111.715 319.537C111.743 319.464 111.79 319.401 111.852 319.353C111.914 319.306 111.988 319.278 112.066 319.271C112.144 319.264 112.222 319.28 112.291 319.315C112.36 319.351 112.418 319.406 112.457 319.473C113.529 321.205 116.185 326.71 115.938 338.535Z" fill="#92E3A9"/>
<path d="M112.503 323.568C112.768 324.273 112.961 325.004 113.08 325.748C113.419 327.269 113.804 329.064 114.234 331.042C114.665 333.021 115.059 334.798 115.398 336.328C115.612 337.048 115.76 337.787 115.837 338.535C115.493 337.863 115.237 337.149 115.077 336.41C114.683 335.073 114.216 333.213 113.767 331.134C113.318 329.055 112.97 327.177 112.75 325.812C112.584 325.076 112.501 324.323 112.503 323.568Z" fill="#263238"/>
<path d="M123.825 372.711C123.825 372.711 112.32 367.316 111.67 357.515C111.665 357.438 111.681 357.361 111.717 357.293C111.753 357.225 111.807 357.168 111.873 357.128C111.939 357.088 112.015 357.067 112.092 357.068C112.169 357.068 112.245 357.09 112.311 357.13C114.033 358.211 118.842 361.985 123.825 372.711Z" fill="#92E3A9"/>
<path d="M114.152 360.785C114.697 361.304 115.191 361.874 115.627 362.489L118.998 366.73C120.252 368.314 121.397 369.743 122.368 370.962C122.876 371.531 123.333 372.144 123.733 372.794C123.134 372.332 122.59 371.804 122.112 371.218C121.196 370.192 119.932 368.727 118.622 367.06C117.312 365.392 116.167 363.863 115.361 362.727C114.885 362.128 114.479 361.476 114.152 360.785Z" fill="#263238"/>
<path d="M146.743 322.762C146.743 322.762 146.743 322.863 146.743 323.046C146.743 323.229 146.743 323.531 146.743 323.861C146.707 324.618 146.661 325.644 146.606 326.939C146.459 329.687 146.249 333.424 146.001 337.931C145.177 342.511 142.841 347.613 139.69 352.587C137.382 356.251 134.973 359.548 132.884 362.663C130.987 365.355 129.282 368.177 127.782 371.108C126.792 373.093 125.992 375.166 125.391 377.3C125.19 378.061 125.034 378.647 124.952 379.05C124.913 379.259 124.855 379.465 124.778 379.664C124.779 379.451 124.804 379.239 124.851 379.032C124.915 378.619 125.034 378.024 125.208 377.255C125.749 375.085 126.51 372.976 127.48 370.962C128.944 367.994 130.628 365.141 132.518 362.425C134.588 359.319 136.997 356.013 139.287 352.349C142.42 347.43 144.783 342.41 145.598 337.885C145.91 333.369 146.175 329.641 146.368 326.893C146.468 325.61 146.551 324.585 146.615 323.824C146.615 323.504 146.679 323.238 146.697 323.018C146.702 322.931 146.717 322.845 146.743 322.762Z" fill="#263238"/>
<path d="M139.892 351.652C139.892 351.652 144.765 339.928 138.637 332.242C138.591 332.179 138.528 332.13 138.455 332.101C138.383 332.072 138.303 332.064 138.227 332.079C138.15 332.093 138.079 332.129 138.022 332.182C137.964 332.236 137.924 332.304 137.904 332.38C137.4 334.34 136.356 340.376 139.892 351.652Z" fill="#92E3A9"/>
<path d="M139.012 336.328C139.22 337.051 139.349 337.794 139.397 338.545C139.571 339.928 139.763 341.833 139.91 343.949C140.056 346.065 140.139 347.989 140.13 349.372C140.172 350.125 140.129 350.881 140.001 351.625C139.863 350.888 139.795 350.14 139.8 349.39C139.69 347.833 139.571 346.001 139.434 343.986C139.296 341.97 139.168 340.138 139.058 338.581C138.962 337.834 138.947 337.078 139.012 336.328Z" fill="#263238"/>
<g opacity="0.3">
<path d="M139.892 351.652C139.892 351.652 144.765 339.928 138.637 332.242C138.591 332.179 138.528 332.13 138.455 332.101C138.383 332.072 138.303 332.064 138.227 332.079C138.15 332.093 138.079 332.129 138.022 332.182C137.964 332.236 137.924 332.304 137.904 332.38C137.4 334.34 136.356 340.376 139.892 351.652Z" fill="black"/>
</g>
<path d="M124.805 379.92C124.805 379.92 128.707 367.838 121.975 360.684C121.922 360.627 121.855 360.585 121.78 360.564C121.705 360.542 121.626 360.542 121.551 360.563C121.476 360.584 121.408 360.625 121.355 360.682C121.302 360.739 121.266 360.81 121.251 360.886C120.912 362.873 120.353 368.965 124.805 379.92Z" fill="#92E3A9"/>
<path d="M122.671 364.724C122.943 365.426 123.134 366.158 123.239 366.904C123.523 368.26 123.871 370.147 124.155 372.244C124.439 374.342 124.704 376.247 124.814 377.63C124.907 378.379 124.907 379.135 124.814 379.884C124.624 379.157 124.498 378.415 124.439 377.667C124.21 376.128 123.935 374.314 123.642 372.317C123.349 370.321 123.065 368.498 122.826 366.959C122.699 366.221 122.647 365.472 122.671 364.724Z" fill="#263238"/>
<g opacity="0.3">
<path d="M124.805 379.92C124.805 379.92 128.707 367.838 121.975 360.684C121.922 360.627 121.855 360.585 121.78 360.564C121.705 360.542 121.626 360.542 121.551 360.563C121.476 360.584 121.408 360.625 121.355 360.682C121.302 360.739 121.266 360.81 121.251 360.886C120.912 362.873 120.353 368.965 124.805 379.92Z" fill="black"/>
</g>
<path d="M146.102 337.317C146.102 337.317 156.508 330.035 155.454 320.261C155.447 320.184 155.418 320.111 155.371 320.05C155.324 319.988 155.262 319.94 155.19 319.912C155.118 319.884 155.04 319.876 154.964 319.889C154.887 319.902 154.816 319.936 154.758 319.986C153.247 321.351 149.171 325.904 146.102 337.317Z" fill="#92E3A9"/>
<g opacity="0.3">
<path d="M146.102 337.317C146.102 337.317 156.508 330.035 155.454 320.261C155.447 320.184 155.418 320.111 155.371 320.05C155.324 319.988 155.262 319.94 155.19 319.912C155.118 319.884 155.04 319.876 154.964 319.889C154.887 319.902 154.816 319.936 154.758 319.986C153.247 321.351 149.171 325.904 146.102 337.317Z" fill="black"/>
</g>
<path d="M153.577 323.907C153.363 324.629 153.071 325.327 152.706 325.986C152.12 327.241 151.259 328.963 150.251 330.823C149.244 332.682 148.273 334.349 147.503 335.522C147.145 336.187 146.701 336.802 146.184 337.354C146.473 336.66 146.82 335.992 147.22 335.357C147.971 333.992 148.841 332.389 149.812 330.612C150.783 328.835 151.644 327.223 152.395 325.849C152.719 325.162 153.115 324.511 153.577 323.907Z" fill="#263238"/>
<path d="M129 367.939C129 367.939 141.549 365.979 144.911 356.745C144.939 356.673 144.947 356.594 144.933 356.517C144.919 356.44 144.883 356.369 144.831 356.311C144.779 356.253 144.712 356.211 144.637 356.189C144.562 356.167 144.483 356.166 144.407 356.187C142.447 356.755 136.777 359.072 129 367.939Z" fill="#92E3A9"/>
<g opacity="0.3">
<path d="M129 367.939C129 367.939 141.549 365.979 144.911 356.745C144.939 356.673 144.947 356.594 144.933 356.517C144.919 356.44 144.883 356.369 144.831 356.311C144.779 356.253 144.712 356.211 144.637 356.189C144.562 356.167 144.483 356.166 144.407 356.187C142.447 356.755 136.777 359.072 129 367.939Z" fill="black"/>
</g>
<path d="M141.614 359.191C141.106 359.751 140.538 360.252 139.919 360.684C138.838 361.545 137.308 362.709 135.577 363.936C133.846 365.163 132.252 366.226 131.07 366.959C130.452 367.393 129.781 367.747 129.074 368.012C129.638 367.506 130.251 367.058 130.906 366.675L135.321 363.551L139.736 360.409C140.321 359.944 140.95 359.536 141.614 359.191Z" fill="#263238"/>
<path d="M117.028 391.041L113.364 415.681H136.182L133.223 391.041H117.028Z" fill="#455A64"/>
<path d="M134.13 398.671C131.083 398.911 128.025 398.99 124.97 398.909C121.914 398.99 118.857 398.911 115.81 398.671C118.857 398.436 121.914 398.356 124.97 398.432C128.025 398.356 131.083 398.436 134.13 398.671Z" fill="#263238"/>
<path d="M134.588 400.631C131.425 400.872 128.251 400.952 125.08 400.869C121.911 400.952 118.741 400.873 115.581 400.631C115.581 400.503 119.831 400.393 125.08 400.393C130.328 400.393 134.588 400.503 134.588 400.631Z" fill="#263238"/>
<path d="M586.618 157.125H496.262L494.794 83.8406H585.15L586.618 157.125ZM497.055 156.15H585.781L584.357 84.8163H495.616L497.055 156.15Z" fill="#D1D1D7"/>
<path d="M584.959 94.8288H495.41L495.396 93.853H584.944L584.959 94.8288Z" fill="#D1D1D7"/>
<path d="M585.135 103.746H495.601L495.572 102.77H585.121L585.135 103.746Z" fill="#D1D1D7"/>
<path d="M585.311 112.677H495.777L495.748 111.701H585.297L585.311 112.677Z" fill="#D1D1D7"/>
<path d="M585.502 121.594H495.953L495.939 120.618H585.473L585.502 121.594Z" fill="#D1D1D7"/>
<path d="M585.678 130.525H496.13L496.115 129.55H585.649L585.678 130.525Z" fill="#D1D1D7"/>
<path d="M585.855 139.442H496.306L496.291 138.466H585.84L585.855 139.442Z" fill="#D1D1D7"/>
<path d="M586.031 148.359H496.482L496.467 147.383H586.016L586.031 148.359Z" fill="#D1D1D7"/>
<path d="M504.381 156.63H503.574L502.12 84.3208H502.928L504.381 156.63Z" fill="#D1D1D7"/>
<path d="M513.631 156.63H512.824L511.385 84.3208H512.192L513.631 156.63Z" fill="#D1D1D7"/>
<path d="M522.896 156.63H522.088L520.635 84.3208H521.457L522.896 156.63Z" fill="#D1D1D7"/>
<path d="M532.161 156.63H531.353L529.899 84.3208H530.707L532.161 156.63Z" fill="#D1D1D7"/>
<path d="M541.425 156.63H540.603L539.164 84.3208H539.972L541.425 156.63Z" fill="#D1D1D7"/>
<path d="M550.675 156.63H549.868L548.429 84.3208H549.236L550.675 156.63Z" fill="#D1D1D7"/>
<path d="M559.94 156.63H559.132L557.679 84.3208H558.501L559.94 156.63Z" fill="#D1D1D7"/>
<path d="M569.205 156.63H568.397L566.943 84.3208H567.751L569.205 156.63Z" fill="#D1D1D7"/>
<path d="M578.469 156.63H577.647L576.208 84.3208H577.016L578.469 156.63Z" fill="#D1D1D7"/>
<path d="M491.343 85.657H486.087C485.5 85.657 485.015 85.1016 485 84.4111V84.2459C484.986 83.5704 485.455 83 486.043 83H491.299C491.886 83 492.371 83.5554 492.386 84.2459V84.4111C492.4 85.0866 491.93 85.657 491.343 85.657Z" fill="#92E3A9"/>
<path d="M491.534 95.6697H486.278C485.69 95.6697 485.206 95.1143 485.191 94.4237V94.2586C485.176 93.5831 485.646 93.0127 486.234 93.0127H491.49C492.077 93.0127 492.562 93.5681 492.576 94.2586V94.4237C492.591 95.1143 492.121 95.6697 491.534 95.6697Z" fill="#92E3A9"/>
<path d="M491.74 105.682H486.483C485.896 105.682 485.411 105.126 485.397 104.436V104.271C485.382 103.595 485.852 103.025 486.439 103.025H491.695C492.283 103.025 492.767 103.58 492.782 104.271V104.436C492.797 105.126 492.327 105.682 491.74 105.682Z" fill="#92E3A9"/>
<path d="M491.945 115.695H486.689C486.102 115.695 485.617 115.139 485.602 114.449V114.284C485.588 113.608 486.057 113.038 486.645 113.038H491.901C492.488 113.038 492.973 113.593 492.988 114.284V114.449C493.002 115.139 492.532 115.695 491.945 115.695Z" fill="#92E3A9"/>
<path d="M492.136 125.707H486.88C486.292 125.707 485.808 125.151 485.793 124.461V124.296C485.778 123.62 486.248 123.05 486.836 123.05H492.092C492.679 123.05 493.164 123.605 493.178 124.296V124.461C493.193 125.151 492.723 125.707 492.136 125.707Z" fill="#92E3A9"/>
<path d="M492.342 135.72H487.085C486.498 135.72 486.013 135.164 485.999 134.474V134.308C485.984 133.633 486.454 133.062 487.041 133.062H492.298C492.885 133.062 493.369 133.618 493.384 134.308V134.474C493.399 135.164 492.929 135.72 492.342 135.72Z" fill="#92E3A9"/>
<path d="M492.547 145.732H487.291C486.703 145.732 486.219 145.177 486.204 144.486V144.321C486.19 143.645 486.659 143.075 487.247 143.075H492.503C493.09 143.075 493.575 143.63 493.59 144.321V144.486C493.604 145.177 493.134 145.732 492.547 145.732Z" fill="#92E3A9"/>
<path d="M496.526 138.872L496.012 135.99L503.295 134.278L512.016 129.595L521.266 119.012H531.001L539.605 116.64L548.678 105.802L558.266 99.7075L576.37 97.4408L584.063 89.4849L585.678 91.7215L577.427 100.263L558.824 102.59L550.029 108.294L540.882 119.312L531.324 121.909L522.279 121.939L513.235 132.177L504.073 137.055L496.526 138.872Z" fill="#92E3A9"/>
<path d="M522.69 145.942L512.853 144.546L496.511 145.867L496.306 142.955L512.853 141.619L521.809 142.88L530.751 133.002L540.765 131.381L549.016 127.763L558.296 115.649L568.75 118.426L577.324 125.737L584.548 116.985L586.295 119.087L577.632 129.565L567.575 120.978L559.191 118.847L550.161 130.405L541.381 134.218L531.867 135.779L522.69 145.942Z" fill="#92E3A9"/>
<defs>
<filter id="filter0_d_226_99" x="460.586" y="68.0588" width="149.192" height="169.042" filterUnits="userSpaceOnUse" color-interpolation-filters="sRGB">
<feFlood flood-opacity="0" result="BackgroundImageFix"/>
<feColorMatrix in="SourceAlpha" type="matrix" values="0 0 0 0 0 0 0 0 0 0 0 0 0 0 0 0 0 0 127 0" result="hardAlpha"/>
<feOffset dy="4"/>
<feGaussianBlur stdDeviation="2"/>
<feComposite in2="hardAlpha" operator="out"/>
<feColorMatrix type="matrix" values="0 0 0 0 0 0 0 0 0 0 0 0 0 0 0 0 0 0 0.25 0"/>
<feBlend mode="normal" in2="BackgroundImageFix" result="effect1_dropShadow_226_99"/>
<feBlend mode="normal" in="SourceGraphic" in2="effect1_dropShadow_226_99" result="shape"/>
</filter>
</defs>
</svg>
