<svg width="584" height="167" viewBox="0 0 584 167" fill="none" xmlns="http://www.w3.org/2000/svg">
<path d="M103.5 63.3888C107.7 67.5888 110.1 72.4888 111 78.3888L122.5 66.3888L152.5 36.3888L130 13.8888L99.0005 44.8888V0.888798L67.0005 0.888672L66.4004 59.8888C77.7004 51.7888 93.6005 53.5888 103.5 63.3888Z" fill="#00D1FF"/>
<path d="M111 88.8887C108.6 104.289 94.1 114.889 78.7 112.389C74.3 111.689 70.1 111.589 66.5 108.889L67 165.389H99V121.889L130 152.889L152 130.389L123.2 100.989L111 88.8887Z" fill="#00D1FF"/>
<path d="M111 87.8887C108.5 103.289 94 113.889 78.5 111.389C63.1 108.889 52.5 94.3887 55 78.8887C56 72.9887 58.8 67.4887 62.9 63.2887C64 62.1887 65.1 61.2887 66.3 60.3887C78.9 51.1887 96.6 53.9887 105.8 66.5887C108.4 70.1887 110.2 74.3887 110.9 78.8887L123 66.7887L153.4 36.3887L130 12.9887L99.6 43.2887V0.388672H66.4V43.2887L36.1 12.9887L12.6 36.4887L43 66.8887H0V100.089H42.9L12.6 130.389L36.1 153.889L66.5 123.489V166.389H99.7V123.489L130.1 153.889L153.6 130.389L123.2 99.9887L111 87.8887ZM104.2 47.7887L130.1 21.8887L144.6 36.3887L118.7 62.3887L113.8 67.2887C112.1 64.1887 110.1 61.3887 107.6 58.8887C105.1 56.3887 102.3 54.2887 99.3 52.6887L104.2 47.7887ZM93.3 6.78867V50.3887C86.6 48.3887 79.5 48.3887 72.8 50.3887V6.68867C72.8 6.68867 93.3 6.68867 93.3 6.78867ZM21.6 36.4887L36.1 21.9887L60.1 45.9887V57.3887C59.5 57.8887 59 58.3887 58.5 58.8887C56 61.3887 53.9 64.1887 52.3 67.2887L47.4 62.3887L21.6 36.4887ZM6.4 93.6887V73.1887H50C48 79.8887 48 86.9887 50 93.6887C49.9 93.6887 6.3 93.6887 6.4 93.6887ZM60.1 120.889L36 144.889L21.5 130.389L47.4 104.589L52.3 99.6887C54 102.789 56 105.589 58.5 107.989C59 108.489 59.5 108.989 60.1 109.489V120.889ZM93.3 123.489V160.089H72.7V116.489C79.4 118.489 86.5 118.489 93.2 116.489L93.3 123.489ZM130 144.889L104.2 118.989L99.3 114.089C105.5 110.789 110.5 105.789 113.8 99.5887L118.7 104.489L144.6 130.389L130 144.889Z" fill="black"/>
<path d="M166.4 55.8887C166.4 44.0887 173.6 36.3887 184.3 36.3887C195 36.3887 202.2 44.1887 202.2 55.8887C202.2 67.5887 195 75.3887 184.3 75.3887C173.6 75.2887 166.4 67.5887 166.4 55.8887ZM195.4 55.8887C195.4 47.7887 191.1 42.6887 184.2 42.6887C177.3 42.6887 173 47.6887 173 55.8887C173 63.9887 177.3 68.9887 184.2 68.9887C191.1 68.9887 195.4 63.8887 195.4 55.8887Z" fill="black"/>
<path d="M234.4 61.2883C234.4 69.8883 229.7 74.9883 223.2 74.9883C220.2 74.9883 217.2 73.7883 215.6 71.7883V85.3883H209.2V48.0883H215.6V50.6883C217.4 48.3883 220.4 47.4883 223.2 47.4883C230.5 47.4883 234.4 53.3883 234.4 61.2883ZM228 61.2883C228 56.0883 226 53.1883 221.7 53.1883C217 53.1883 215 56.5883 215 61.2883C215 65.8883 217 69.4883 221.6 69.4883C225.9 69.3883 228 66.3883 228 61.2883Z" fill="black"/>
<path d="M263.5 63.3889H245.4C245.7 66.8889 247.8 69.1889 252 69.1889C254.4 69.1889 256.5 68.3889 258.3 66.3889L262.8 70.2889C259.9 73.4889 256.4 75.0889 252 75.0889C242.9 75.0889 239 68.4889 239 61.4889C239 54.5889 242.8 47.5889 251.6 47.5889C259.8 47.5889 263.8 53.6889 263.8 60.9889C263.6 61.7889 263.6 62.5889 263.5 63.3889ZM257.4 58.2889C257.3 54.8889 254.7 52.8889 251.3 52.8889C247.4 52.8889 245.6 55.6889 245.2 58.2889H257.4Z" fill="black"/>
<path d="M294.8 57.4889V74.5889H288.4V59.0889C288.4 57.2889 288.4 53.1889 283.5 53.1889C277.5 53.1889 277.5 59.2889 277.5 63.9889V74.5889H271V48.0889H277.4V51.1889C279.3 48.6889 282.2 47.5889 285.4 47.5889C291.4 47.4889 294.8 51.1889 294.8 57.4889Z" fill="black"/>
<path d="M343.1 74.4889L332 55.8889L324.9 63.0889V74.4889H318.2V37.0889H324.9V54.6889L341.7 37.0889H350.5L336.6 51.2889L350.9 74.5889L343.1 74.4889Z" fill="black"/>
<path d="M379.301 57.4889V74.5889H372.901V59.0889C372.901 57.2889 372.901 53.1889 368.001 53.1889C362.001 53.1889 362.001 59.2889 362.001 63.9889V74.5889H355.601V48.0889H362.001V51.1889C363.901 48.6889 366.801 47.5889 370.001 47.5889C375.901 47.4889 379.301 51.1889 379.301 57.4889Z" fill="black"/>
<path d="M381.9 61.2889C381.9 53.7889 386.9 47.5889 395.2 47.5889C403.4 47.5889 408.5 53.7889 408.5 61.2889C408.5 68.7889 403.4 75.0889 395.2 75.0889C387 75.0889 381.9 68.6889 381.9 61.2889ZM402 61.2889C402 56.9889 400.1 53.1889 395.2 53.1889C390.3 53.1889 388.4 56.9889 388.4 61.2889C388.4 65.5889 390.3 69.4889 395.2 69.4889C400.1 69.4889 402 65.5889 402 61.2889Z" fill="black"/>
<path d="M411.301 48.0889H418.201L422.701 64.6889L427.701 48.0889H433.201L438.201 64.5889L442.801 48.0889H449.701L441.501 74.5889H435.701L430.501 57.2889L425.301 74.5889H419.501L411.301 48.0889Z" fill="black"/>
<path d="M455.7 68.1889V37.0889H462.1V67.7889C462.1 68.9889 462.8 69.4889 464 69.4889C464.6 69.4889 465.3 69.3889 466 69.1889V74.3889C464.6 74.8889 463.1 75.1889 461.9 75.1889C458.3 75.0889 455.7 72.8889 455.7 68.1889Z" fill="black"/>
<path d="M493.7 63.3889H475.6C475.9 66.8889 478 69.1889 482.2 69.1889C484.6 69.1889 486.7 68.3889 488.5 66.3889L493 70.2889C490.1 73.4889 486.6 75.0889 482.2 75.0889C473.1 75.0889 469.2 68.4889 469.2 61.4889C469.2 54.5889 473 47.5889 481.8 47.5889C490 47.5889 494 53.6889 494 60.9889C493.9 61.7889 493.8 62.5889 493.7 63.3889ZM487.7 58.2889C487.6 54.8889 485 52.8889 481.6 52.8889C477.7 52.8889 475.9 55.6889 475.5 58.2889H487.7Z" fill="black"/>
<path d="M524.301 37.0889V74.4889H517.901V71.8889C516.101 74.1889 513.101 75.0889 510.301 75.0889C503.101 75.0889 499.101 69.1889 499.101 61.2889C499.101 52.6889 503.801 47.5889 510.301 47.5889C513.301 47.5889 516.301 48.7889 517.901 50.7889V37.0889H524.301ZM518.501 61.2889C518.501 56.8889 516.501 53.3889 511.901 53.3889C507.601 53.3889 505.601 56.3889 505.601 61.2889C505.601 66.1889 507.601 69.0889 511.901 69.0889C516.501 69.0889 518.501 65.6889 518.501 61.2889Z" fill="black"/>
<path d="M555.6 78.0891C555.6 83.5891 550.6 85.9891 543.4 85.9891C535.5 85.9891 531 83.0891 531 77.5891C531 76.9891 531.1 76.6891 531.1 76.3891L534.9 73.9891C533 72.9891 531.7 71.2891 531.7 68.5891C531.7 66.2891 532.6 64.5891 534.2 63.2891C532.9 61.5891 532.1 59.4891 532.1 57.1891C532.1 51.4891 537 47.4891 542.9 47.4891C545.2 47.4891 547.4 48.0891 549.1 49.1891L553.1 45.7891L556.5 49.8891L552.7 52.9891C553.4 54.2891 553.8 55.8891 553.8 57.5891C553.8 63.4891 548.9 67.2891 543.1 67.2891C541.3 67.2891 539.6 66.8891 538 66.2891C537.5 66.5891 537.2 67.0891 537.2 67.6891C537.2 69.5891 539.9 70.1891 543.2 70.5891C548.6 71.1891 555.6 71.7891 555.6 78.0891ZM549.1 78.6891C549.1 76.6891 545.7 76.3891 541.9 75.8891L539.7 75.5891L537.4 77.7891C537.3 77.9891 537.3 78.0891 537.3 78.1891C537.3 80.4891 540.6 81.1891 543.6 81.1891C546.4 81.1891 549.1 80.5891 549.1 78.6891ZM538.5 57.3891C538.5 59.8891 540 61.9891 543 61.9891C546 61.9891 547.4 59.9891 547.4 57.3891C547.4 54.6891 545.7 52.8891 543 52.8891C540.3 52.8891 538.5 54.6891 538.5 57.3891Z" fill="black"/>
<path d="M583.4 63.3889H565.3C565.6 66.8889 567.7 69.1889 571.9 69.1889C574.3 69.1889 576.4 68.3889 578.2 66.3889L582.7 70.2889C579.8 73.4889 576.3 75.0889 571.9 75.0889C562.8 75.0889 558.9 68.4889 558.9 61.4889C558.9 54.5889 562.7 47.5889 571.5 47.5889C579.7 47.5889 583.7 53.6889 583.7 60.9889C583.6 61.7889 583.5 62.5889 583.4 63.3889ZM577.4 58.2889C577.3 54.8889 574.7 52.8889 571.3 52.8889C567.4 52.8889 565.6 55.6889 565.2 58.2889H577.4Z" fill="black"/>
<path d="M187.69 92H194.115V127.585H187.433L172.425 102.977V127.585H166V92H172.63L187.69 116.506V92Z" fill="black"/>
<path d="M223.654 114.668C223.654 115.434 223.603 116.2 223.5 117.017H206.127C206.384 120.335 208.44 122.531 212.449 122.531C214.711 122.531 216.767 121.816 218.514 119.825L222.78 123.552C220.005 126.615 216.664 128.095 212.398 128.095C203.66 128.095 199.96 121.867 199.96 115.128C199.96 108.542 203.558 101.905 211.987 101.905C219.851 101.905 223.654 107.674 223.654 114.668ZM206.076 112.166H217.743C217.641 108.95 215.173 107.01 211.935 107.01C208.183 107.01 206.436 109.665 206.076 112.166Z" fill="black"/>
<path d="M242.237 101.905C249.124 101.905 252.928 107.469 252.928 115.026C252.928 123.245 248.456 128.095 242.237 128.095C239.359 128.095 236.532 126.921 234.939 125.032V138H228.771V102.415H234.939V104.917C236.686 102.772 239.513 101.905 242.237 101.905ZM240.695 122.735C244.807 122.735 246.76 119.876 246.76 114.974C246.76 110.022 244.858 107.265 240.747 107.265C236.275 107.265 234.373 110.482 234.373 114.974C234.373 119.365 236.275 122.735 240.695 122.735Z" fill="black"/>
<path d="M268 101.905C274.681 101.905 278.845 105.632 278.845 111.707V127.585H273.191L272.677 124.317C271.186 126.666 268.308 128.095 264.967 128.095C259.622 128.095 255.819 124.675 255.819 119.876C255.819 116.915 257.155 114.668 259.622 113.545C261.318 112.779 263.477 112.422 266.355 112.422H272.677V111.707C272.677 108.95 270.827 107.265 267.897 107.265C265.327 107.265 262.911 108.593 261.061 111.043L256.59 107.316C259.622 103.691 263.374 101.905 268 101.905ZM265.944 122.888C269.645 122.888 272.677 120.284 272.677 117.017H267.177C265.07 117.017 263.837 117.272 263.014 117.885C262.346 118.344 261.986 119.059 261.986 119.978C261.986 121.765 263.477 122.888 265.944 122.888Z" fill="black"/>
<path d="M291.042 128.095C287.599 128.095 285.08 126.053 285.08 121.56V92H291.248V121.152C291.248 122.275 291.916 122.735 293.047 122.735C293.612 122.735 294.28 122.633 295 122.428V127.33C293.612 127.84 292.225 128.095 291.042 128.095Z" fill="black"/>
</svg>
