<svg width="584" height="167" viewBox="0 0 584 167" fill="none" xmlns="http://www.w3.org/2000/svg">
<path d="M166.4 55.8887C166.4 44.0887 173.6 36.3887 184.3 36.3887C195 36.3887 202.2 44.1887 202.2 55.8887C202.2 67.5887 195 75.3887 184.3 75.3887C173.6 75.2887 166.4 67.5887 166.4 55.8887ZM195.4 55.8887C195.4 47.7887 191.1 42.6887 184.2 42.6887C177.3 42.6887 173 47.6887 173 55.8887C173 63.9887 177.3 68.9887 184.2 68.9887C191.1 68.9887 195.4 63.8887 195.4 55.8887Z" fill="black"/>
<path d="M234.4 61.2883C234.4 69.8883 229.7 74.9883 223.2 74.9883C220.2 74.9883 217.2 73.7883 215.6 71.7883V85.3883H209.2V48.0883H215.6V50.6883C217.4 48.3883 220.4 47.4883 223.2 47.4883C230.5 47.4883 234.4 53.3883 234.4 61.2883ZM228 61.2883C228 56.0883 226 53.1883 221.7 53.1883C217 53.1883 215 56.5883 215 61.2883C215 65.8883 217 69.4883 221.6 69.4883C225.9 69.3883 228 66.3883 228 61.2883Z" fill="black"/>
<path d="M263.5 63.3889H245.4C245.7 66.8889 247.8 69.1889 252 69.1889C254.4 69.1889 256.5 68.3889 258.3 66.3889L262.8 70.2889C259.9 73.4889 256.4 75.0889 252 75.0889C242.9 75.0889 239 68.4889 239 61.4889C239 54.5889 242.8 47.5889 251.6 47.5889C259.8 47.5889 263.8 53.6889 263.8 60.9889C263.6 61.7889 263.6 62.5889 263.5 63.3889ZM257.4 58.2889C257.3 54.8889 254.7 52.8889 251.3 52.8889C247.4 52.8889 245.6 55.6889 245.2 58.2889H257.4Z" fill="black"/>
<path d="M294.8 57.4889V74.5889H288.4V59.0889C288.4 57.2889 288.4 53.1889 283.5 53.1889C277.5 53.1889 277.5 59.2889 277.5 63.9889V74.5889H271V48.0889H277.4V51.1889C279.3 48.6889 282.2 47.5889 285.4 47.5889C291.4 47.4889 294.8 51.1889 294.8 57.4889Z" fill="black"/>
<path d="M343.1 74.4889L332 55.8889L324.9 63.0889V74.4889H318.2V37.0889H324.9V54.6889L341.7 37.0889H350.5L336.6 51.2889L350.9 74.5889L343.1 74.4889Z" fill="black"/>
<path d="M379.301 57.4889V74.5889H372.901V59.0889C372.901 57.2889 372.901 53.1889 368.001 53.1889C362.001 53.1889 362.001 59.2889 362.001 63.9889V74.5889H355.601V48.0889H362.001V51.1889C363.901 48.6889 366.801 47.5889 370.001 47.5889C375.901 47.4889 379.301 51.1889 379.301 57.4889Z" fill="black"/>
<path d="M381.9 61.2889C381.9 53.7889 386.9 47.5889 395.2 47.5889C403.4 47.5889 408.5 53.7889 408.5 61.2889C408.5 68.7889 403.4 75.0889 395.2 75.0889C387 75.0889 381.9 68.6889 381.9 61.2889ZM402 61.2889C402 56.9889 400.1 53.1889 395.2 53.1889C390.3 53.1889 388.4 56.9889 388.4 61.2889C388.4 65.5889 390.3 69.4889 395.2 69.4889C400.1 69.4889 402 65.5889 402 61.2889Z" fill="black"/>
<path d="M411.301 48.0889H418.201L422.701 64.6889L427.701 48.0889H433.201L438.201 64.5889L442.801 48.0889H449.701L441.501 74.5889H435.701L430.501 57.2889L425.301 74.5889H419.501L411.301 48.0889Z" fill="black"/>
<path d="M455.7 68.1889V37.0889H462.1V67.7889C462.1 68.9889 462.8 69.4889 464 69.4889C464.6 69.4889 465.3 69.3889 466 69.1889V74.3889C464.6 74.8889 463.1 75.1889 461.9 75.1889C458.3 75.0889 455.7 72.8889 455.7 68.1889Z" fill="black"/>
<path d="M493.7 63.3889H475.6C475.9 66.8889 478 69.1889 482.2 69.1889C484.6 69.1889 486.7 68.3889 488.5 66.3889L493 70.2889C490.1 73.4889 486.6 75.0889 482.2 75.0889C473.1 75.0889 469.2 68.4889 469.2 61.4889C469.2 54.5889 473 47.5889 481.8 47.5889C490 47.5889 494 53.6889 494 60.9889C493.9 61.7889 493.8 62.5889 493.7 63.3889ZM487.7 58.2889C487.6 54.8889 485 52.8889 481.6 52.8889C477.7 52.8889 475.9 55.6889 475.5 58.2889H487.7Z" fill="black"/>
<path d="M524.301 37.0889V74.4889H517.901V71.8889C516.101 74.1889 513.101 75.0889 510.301 75.0889C503.101 75.0889 499.101 69.1889 499.101 61.2889C499.101 52.6889 503.801 47.5889 510.301 47.5889C513.301 47.5889 516.301 48.7889 517.901 50.7889V37.0889H524.301ZM518.501 61.2889C518.501 56.8889 516.501 53.3889 511.901 53.3889C507.601 53.3889 505.601 56.3889 505.601 61.2889C505.601 66.1889 507.601 69.0889 511.901 69.0889C516.501 69.0889 518.501 65.6889 518.501 61.2889Z" fill="black"/>
<path d="M555.6 78.0891C555.6 83.5891 550.6 85.9891 543.4 85.9891C535.5 85.9891 531 83.0891 531 77.5891C531 76.9891 531.1 76.6891 531.1 76.3891L534.9 73.9891C533 72.9891 531.7 71.2891 531.7 68.5891C531.7 66.2891 532.6 64.5891 534.2 63.2891C532.9 61.5891 532.1 59.4891 532.1 57.1891C532.1 51.4891 537 47.4891 542.9 47.4891C545.2 47.4891 547.4 48.0891 549.1 49.1891L553.1 45.7891L556.5 49.8891L552.7 52.9891C553.4 54.2891 553.8 55.8891 553.8 57.5891C553.8 63.4891 548.9 67.2891 543.1 67.2891C541.3 67.2891 539.6 66.8891 538 66.2891C537.5 66.5891 537.2 67.0891 537.2 67.6891C537.2 69.5891 539.9 70.1891 543.2 70.5891C548.6 71.1891 555.6 71.7891 555.6 78.0891ZM549.1 78.6891C549.1 76.6891 545.7 76.3891 541.9 75.8891L539.7 75.5891L537.4 77.7891C537.3 77.9891 537.3 78.0891 537.3 78.1891C537.3 80.4891 540.6 81.1891 543.6 81.1891C546.4 81.1891 549.1 80.5891 549.1 78.6891ZM538.5 57.3891C538.5 59.8891 540 61.9891 543 61.9891C546 61.9891 547.4 59.9891 547.4 57.3891C547.4 54.6891 545.7 52.8891 543 52.8891C540.3 52.8891 538.5 54.6891 538.5 57.3891Z" fill="black"/>
<path d="M583.4 63.3889H565.3C565.6 66.8889 567.7 69.1889 571.9 69.1889C574.3 69.1889 576.4 68.3889 578.2 66.3889L582.7 70.2889C579.8 73.4889 576.3 75.0889 571.9 75.0889C562.8 75.0889 558.9 68.4889 558.9 61.4889C558.9 54.5889 562.7 47.5889 571.5 47.5889C579.7 47.5889 583.7 53.6889 583.7 60.9889C583.6 61.7889 583.5 62.5889 583.4 63.3889ZM577.4 58.2889C577.3 54.8889 574.7 52.8889 571.3 52.8889C567.4 52.8889 565.6 55.6889 565.2 58.2889H577.4Z" fill="black"/>
<path d="M187.69 92H194.115V127.585H187.433L172.425 102.977V127.585H166V92H172.63L187.69 116.506V92Z" fill="black"/>
<path d="M223.654 114.668C223.654 115.434 223.603 116.2 223.5 117.017H206.127C206.384 120.335 208.44 122.531 212.449 122.531C214.711 122.531 216.767 121.816 218.514 119.825L222.78 123.552C220.005 126.615 216.664 128.095 212.398 128.095C203.66 128.095 199.96 121.867 199.96 115.128C199.96 108.542 203.558 101.905 211.987 101.905C219.851 101.905 223.654 107.674 223.654 114.668ZM206.076 112.166H217.743C217.641 108.95 215.173 107.01 211.935 107.01C208.183 107.01 206.436 109.665 206.076 112.166Z" fill="black"/>
<path d="M242.237 101.905C249.124 101.905 252.928 107.469 252.928 115.026C252.928 123.245 248.456 128.095 242.237 128.095C239.359 128.095 236.532 126.921 234.939 125.032V138H228.771V102.415H234.939V104.917C236.686 102.772 239.513 101.905 242.237 101.905ZM240.695 122.735C244.807 122.735 246.76 119.876 246.76 114.974C246.76 110.022 244.858 107.265 240.747 107.265C236.275 107.265 234.373 110.482 234.373 114.974C234.373 119.365 236.275 122.735 240.695 122.735Z" fill="black"/>
<path d="M268 101.905C274.681 101.905 278.845 105.632 278.845 111.707V127.585H273.191L272.677 124.317C271.186 126.666 268.308 128.095 264.967 128.095C259.622 128.095 255.819 124.675 255.819 119.876C255.819 116.915 257.155 114.668 259.622 113.545C261.318 112.779 263.477 112.422 266.355 112.422H272.677V111.707C272.677 108.95 270.827 107.265 267.897 107.265C265.327 107.265 262.911 108.593 261.061 111.043L256.59 107.316C259.622 103.691 263.374 101.905 268 101.905ZM265.944 122.888C269.645 122.888 272.677 120.284 272.677 117.017H267.177C265.07 117.017 263.837 117.272 263.014 117.885C262.346 118.344 261.986 119.059 261.986 119.978C261.986 121.765 263.477 122.888 265.944 122.888Z" fill="black"/>
<path d="M291.042 128.095C287.599 128.095 285.08 126.053 285.08 121.56V92H291.248V121.152C291.248 122.275 291.916 122.735 293.047 122.735C293.612 122.735 294.28 122.633 295 122.428V127.33C293.612 127.84 292.225 128.095 291.042 128.095Z" fill="black"/>
<path d="M110.943 87.8713C108.509 103.295 94.0113 113.809 78.6287 111.36C74.202 110.641 70.0382 108.926 66.4277 106.297V166.348H99.6V123.451L129.964 153.773L153.425 130.312L123.061 99.9477L110.943 87.8574V87.8713Z" fill="#939598"/>
<path d="M110.943 78.865C108.509 63.4409 94.0113 52.9275 78.6287 55.376C74.202 56.0954 70.0382 57.8107 66.4277 60.439V0.388672H99.6V43.2857L129.964 12.9631L153.425 36.4244L123.061 66.7885L110.943 78.8788V78.865Z" fill="#939598"/>
<path d="M110.943 87.871C108.508 103.295 93.9834 113.808 78.5593 111.36C74.1742 110.641 69.9965 108.925 66.3998 106.325C53.7562 97.3191 50.782 79.7093 59.829 67.0657C60.7697 65.7515 61.821 64.5204 62.983 63.386C64.0343 62.3347 65.1963 61.3525 66.4413 60.4949C79.0573 51.2957 96.7224 54.1177 105.922 66.7198C108.55 70.3165 110.279 74.5218 110.985 78.9208L123.103 66.8028L153.384 36.4387L129.922 12.9775L99.5583 43.3001V0.430664H66.3445V43.3277L36.0357 12.9913L12.5745 36.4526L42.9386 66.8167H0V99.9889H42.8971L12.533 130.353L35.9943 153.814L66.3583 123.492V166.389H99.5306V123.45L129.895 153.773L153.356 130.312L122.992 99.9474L110.943 87.8571V87.871ZM104.068 47.8236L129.922 21.9276L144.447 36.4526L118.593 62.307L113.641 67.2178C110.376 61.0205 105.313 55.9575 99.1571 52.6929L104.068 47.8097V47.8236ZM93.2641 6.76632V50.2997C86.5826 48.2662 79.417 48.2662 72.7355 50.3412V6.76632H93.2641ZM21.5384 36.4526L36.0634 21.9276L60.078 45.9422V57.3962C59.5109 57.8804 58.9852 58.3784 58.501 58.8625C56.0249 61.2972 53.9637 64.1192 52.3037 67.1902L47.3929 62.2794L21.5384 36.4526ZM6.33565 93.6533V73.1247H49.869C47.8079 79.8061 47.8079 86.9718 49.869 93.6533H6.34949H6.33565ZM60.0365 120.863L36.0219 144.878L21.4969 130.353L47.3514 104.499L52.2622 99.5878C53.8807 102.659 55.9834 105.481 58.418 107.915C58.9022 108.4 59.4279 108.898 59.995 109.382L60.0365 120.863ZM93.2503 123.492V160.053H72.7217V116.52C79.4031 118.581 86.5688 118.581 93.2503 116.561V123.506V123.492ZM129.922 144.878L104.068 119.024L99.1571 114.071C105.354 110.807 110.417 105.744 113.682 99.5463L118.593 104.457L144.447 130.312L129.922 144.878Z" fill="black"/>
</svg>
