<svg width="163" height="134" viewBox="0 0 163 134" fill="none" xmlns="http://www.w3.org/2000/svg">
<path d="M91.7474 15.8433C91.7639 16.5577 91.6209 17.2328 91.3403 17.8347C90.647 19.3873 89.1063 20.4956 87.2631 20.6531C87.1035 20.67 86.9494 20.6812 86.7899 20.6812C83.9837 20.6812 81.6562 18.5154 81.5957 15.8433C81.5352 13.1656 83.7581 10.9941 86.5643 10.9941C87.8848 10.9941 89.1008 11.4779 90.0252 12.2711C91.0487 13.1543 91.7144 14.4257 91.7474 15.8433Z" fill="#C8F0EC"/>
<path d="M91.7475 15.8429C91.7641 16.5574 91.621 17.2324 91.3404 17.8343L86.6799 15.8429L90.0253 12.2708C91.0488 13.154 91.7145 14.4253 91.7475 15.8429Z" fill="#71DDC3"/>
<path d="M91.3348 17.8347C90.6415 19.3873 89.1008 20.4955 87.2576 20.6531L86.6743 15.8376L91.3348 17.8347Z" fill="#E4E4E4"/>
<path d="M101.151 10.9941C99.8305 10.9941 98.6365 11.4779 97.7506 12.2711C96.7602 13.1599 96.1604 14.4257 96.1934 15.8433C96.2099 16.5577 96.386 17.2328 96.6941 17.8347C97.4645 19.3873 99.0491 20.4956 100.903 20.6531C101.063 20.67 101.217 20.6812 101.377 20.6812C104.183 20.6812 106.406 18.5154 106.345 15.8433C106.285 13.1656 103.957 10.9941 101.151 10.9941ZM101.338 18.8304C101.239 18.8304 101.151 18.8192 101.052 18.8136H101.041C99.8965 18.7123 98.9171 18.0316 98.4494 17.0753V17.064C98.2513 16.6871 98.1468 16.2821 98.1357 15.8377C98.1137 14.9601 98.4879 14.1782 99.1042 13.6325C99.6489 13.1374 100.392 12.8393 101.201 12.8393C102.939 12.8393 104.375 14.1838 104.414 15.8377C104.447 17.4916 103.077 18.8304 101.338 18.8304Z" fill="#C8F0EC"/>
<path d="M98.1302 15.8432C98.1412 16.2876 98.2458 16.6926 98.4439 17.0695V17.0808L96.6941 17.8402C96.386 17.2327 96.2099 16.5632 96.1934 15.8488C96.1604 14.4368 96.7657 13.1654 97.7506 12.2766L99.0931 13.638C98.4879 14.178 98.1137 14.96 98.1302 15.8432Z" fill="#71DDC3"/>
<path d="M101.041 18.8132L100.903 20.6528C99.0491 20.4896 97.4644 19.3814 96.6941 17.8344L98.4438 17.075C98.917 18.0313 99.8964 18.712 101.041 18.8132Z" fill="#E4E4E4"/>
<path d="M93.4863 25.8004H90.6251C90.35 25.8004 90.1134 25.536 90.1079 25.2153V25.1366C90.1024 24.8159 90.3225 24.5515 90.6031 24.5515H93.4643C93.7394 24.5515 93.976 24.8159 93.9815 25.1366V25.2153C93.9815 25.536 93.7614 25.8004 93.4863 25.8004Z" fill="#71DDC3"/>
<path d="M83.3785 8.24886H80.5173C80.2422 8.24886 80.0056 7.98446 80.0001 7.66381V7.58505C79.9946 7.2644 80.2147 7 80.4953 7H83.3565C83.6316 7 83.8682 7.2644 83.8737 7.58505V7.66381C83.8737 7.98446 83.6536 8.24886 83.3785 8.24886Z" fill="#71DDC3"/>
<path d="M106.505 25.8004H103.644C103.368 25.8004 103.132 25.536 103.126 25.2153V25.1366C103.121 24.8159 103.341 24.5515 103.622 24.5515H106.483C106.758 24.5515 106.994 24.8159 107 25.1366V25.2153C107.005 25.536 106.78 25.8004 106.505 25.8004Z" fill="#71DDC3"/>
<path d="M96.3969 8.24886H93.5357C93.2606 8.24886 93.024 7.98446 93.0185 7.66381V7.58505C93.013 7.2644 93.2331 7 93.5137 7H96.3749C96.6501 7 96.8866 7.2644 96.8921 7.58505V7.66381C96.8977 7.98446 96.6721 8.24886 96.3969 8.24886Z" fill="#71DDC3"/>
<path d="M107 40.9078C107 40.933 106.608 40.7114 105.863 40.4772C104.809 40.1497 103.695 40.0636 102.604 40.2254C101.855 40.3406 101.129 40.5735 100.454 40.9153C99.6856 41.3251 98.9747 41.833 98.3387 42.4262C97.6465 43.0355 96.9567 43.728 96.1633 44.3676C95.354 45.0572 94.4065 45.567 93.384 45.8633C92.856 46.0024 92.3055 46.0357 91.7645 45.9615C91.2433 45.8827 90.7367 45.7274 90.2611 45.5007C89.3919 45.05 88.5484 44.5515 87.7345 44.0075C87.0111 43.5263 86.2116 43.1697 85.3696 42.9524C84.6336 42.7733 83.8733 42.7147 83.1184 42.7787C82.0189 42.8735 80.9558 43.2181 80.0106 43.7859C79.3436 44.1913 79.0303 44.496 79 44.4759C79.0653 44.3929 79.1409 44.3185 79.2249 44.2543C79.4503 44.052 79.692 43.8684 79.9475 43.7053C80.7465 43.1908 81.641 42.8414 82.5781 42.6779C83.5151 42.5144 84.4756 42.5401 85.4025 42.7535C86.268 42.9702 87.0912 43.3294 87.8381 43.8161C88.6442 44.3502 89.4792 44.8395 90.3395 45.2816C91.2534 45.7487 92.3055 45.8721 93.3032 45.6291C94.3002 45.3481 95.2266 44.8608 96.0218 44.1989C96.8051 43.5719 97.4949 42.8845 98.1998 42.2726C98.8531 41.6714 99.5828 41.1584 100.37 40.7466C101.222 40.3251 102.15 40.0764 103.1 40.015C104.049 39.9536 105.001 40.0808 105.901 40.3891C106.188 40.4855 106.467 40.6051 106.735 40.7466C106.828 40.7918 106.917 40.8458 107 40.9078Z" fill="#92E3A9"/>
<path d="M92 49H87V61H92V49Z" fill="#E4E4E4"/>
<path d="M101 49H98V61H101V49Z" fill="#E4E4E4"/>
<path d="M107 44H102V61H107V44Z" fill="#71DDC3"/>
<path d="M86 58H83V61H86V58Z" fill="#71DDC3"/>
<path d="M97 54H93V61H97V54Z" fill="#71DDC3"/>
<g clip-path="url(#clip0_227_1950)">
<path d="M123.581 130.886L120.827 130.886L119.517 120.235L123.582 120.236L123.581 130.886Z" fill="#FFBE9D"/>
<path d="M124.284 133.562L115.403 133.562V133.449C115.403 132.53 115.767 131.649 116.415 130.999C117.064 130.349 117.943 129.984 118.86 129.984H118.86L124.284 129.984L124.284 133.562Z" fill="#263238"/>
<path d="M144.413 128.501L141.791 129.347L137.286 119.613L141.155 118.363L144.413 128.501Z" fill="#FFBE9D"/>
<path d="M145.9 130.832L137.447 133.562L137.413 133.455C137.132 132.58 137.209 131.629 137.627 130.812C138.045 129.994 138.77 129.376 139.643 129.094L139.643 129.094L144.806 127.426L145.9 130.832Z" fill="#263238"/>
<path d="M145.79 94.5226C147.69 94.5226 149.23 92.979 149.23 91.0748C149.23 89.1706 147.69 87.627 145.79 87.627C143.891 87.627 142.351 89.1706 142.351 91.0748C142.351 92.979 143.891 94.5226 145.79 94.5226Z" fill="#71DDC3"/>
<path d="M150.294 97.3656C150.232 97.399 150.171 97.4304 150.109 97.4617L142.848 83.9451C142.908 83.911 142.968 83.8769 143.03 83.8435C144.818 82.8782 146.916 82.6648 148.861 83.2499C150.807 83.8351 152.441 85.1711 153.404 86.964C154.367 88.7569 154.581 90.8599 153.997 92.8105C153.414 94.7611 152.082 96.3996 150.294 97.3656Z" fill="#E4E4E4"/>
<path d="M143.589 90.4986L142.574 76.3818L142.767 71.6702L138.812 72.5526L140.269 91.0501C140.104 91.3911 140.035 91.771 140.071 92.1483C140.107 92.5256 140.246 92.8858 140.472 93.1895C140.698 93.4931 141.003 93.7286 141.354 93.87C141.705 94.0115 142.088 94.0536 142.46 93.9916C142.833 93.9297 143.182 93.7661 143.469 93.5188C143.755 93.2715 143.968 92.95 144.085 92.5894C144.201 92.2288 144.217 91.843 144.129 91.4743C144.042 91.1055 143.855 90.768 143.589 90.4986Z" fill="#FFBE9D"/>
<path d="M125.689 78.0553L125.437 73.3255L122.898 71.2576L122.548 75.8035L113.202 86.6363C112.813 86.6988 112.45 86.8716 112.156 87.1344C111.862 87.3972 111.649 87.7389 111.543 88.119C111.437 88.4992 111.441 88.902 111.556 89.2797C111.671 89.6575 111.891 89.9943 112.191 90.2504C112.491 90.5065 112.857 90.6711 113.247 90.7249C113.638 90.7786 114.035 90.7191 114.393 90.5535C114.75 90.3879 115.053 90.1231 115.265 89.7904C115.477 89.4576 115.59 89.071 115.59 88.6761C115.59 88.6483 115.587 88.6212 115.585 88.5937L125.689 78.0553Z" fill="#FFBE9D"/>
<path d="M126.144 76.5414L118.167 86.6847L115.465 83.7952L121.049 75.6685L124.548 60.26C124.641 60.0622 124.773 59.8853 124.936 59.7398C125.099 59.5943 125.289 59.4832 125.496 59.4132C125.699 59.3434 125.914 59.3153 126.128 59.3308C126.342 59.3462 126.551 59.4048 126.742 59.503L126.787 59.526L126.144 76.5414Z" fill="#71DDC3"/>
<path d="M139.853 86.1429L137.319 68.4855L137.324 68.4692L139.926 58.2138L140.17 58.1854C140.873 58.1077 141.579 58.2957 142.151 58.7127C142.724 59.1296 143.12 59.7456 143.263 60.4401L143.456 86.6847L139.853 86.1429Z" fill="#71DDC3"/>
<path d="M140.653 55.4448H127.483V49.4795C127.483 48.6123 127.653 47.7535 127.983 46.9522C128.314 46.1508 128.799 45.4227 129.411 44.8093C130.022 44.1959 130.748 43.7093 131.547 43.3774C132.346 43.0454 133.203 42.8745 134.068 42.8745C134.933 42.8745 135.789 43.0454 136.589 43.3774C137.388 43.7093 138.114 44.1959 138.725 44.8093C139.337 45.4227 139.822 46.1508 140.152 46.9522C140.483 47.7535 140.653 48.6123 140.653 49.4795V55.4448Z" fill="#2F2E41"/>
<path d="M138.639 52.8163C140.065 50.2014 139.106 46.9228 136.498 45.4934C133.89 44.064 130.619 45.025 129.194 47.6399C127.768 50.2547 128.726 53.5333 131.335 54.9627C133.943 56.3921 137.213 55.4311 138.639 52.8163Z" fill="#FFBE9D"/>
<path d="M136.515 45.6501C138.493 45.6501 140.097 44.042 140.097 42.0582C140.097 40.0745 138.493 38.4663 136.515 38.4663C134.536 38.4663 132.932 40.0745 132.932 42.0582C132.932 44.042 134.536 45.6501 136.515 45.6501Z" fill="#2F2E41"/>
<path d="M142.125 50.5136H128.118V50.4341C128.118 46.7939 131.26 43.8325 135.122 43.8325C138.983 43.8325 142.125 46.7939 142.125 50.4341V50.5136Z" fill="#2F2E41"/>
<path d="M124.246 125.563L119.042 125.19L119.035 125.114C116.755 100.153 118.049 83.6678 122.678 78.6897L123.985 76.2398L123.269 72.1168C121.359 67.0729 124.568 63.3833 124.81 63.1152L125.844 60.0051C125.916 59.7908 126.047 59.6017 126.223 59.4605C126.399 59.3192 126.612 59.2317 126.836 59.2084L140.889 57.7676C141.044 57.7516 141.202 57.7671 141.351 57.813C141.501 57.8589 141.639 57.9344 141.759 58.035C141.879 58.1356 141.978 58.2593 142.049 58.3987C142.121 58.5381 142.164 58.6905 142.176 58.8468L142.177 58.8634L142.172 58.8793L137.049 76.1744L137.498 82.027L143.544 123.912L138.337 125.03L138.313 124.951L128.705 93.3778L124.246 125.563Z" fill="#263238"/>
<path d="M37.5924 4.41211V29.8007H37.5408C34.1826 29.8007 30.962 28.4633 28.5874 26.0827C26.2128 23.702 24.8788 20.4732 24.8788 17.1064C24.8788 13.7397 26.2128 10.5108 28.5874 8.13019C30.962 5.74954 34.1826 4.41211 37.5408 4.41211H37.5924Z" fill="#71DDC3"/>
<path d="M34.7271 10.134V24.0785H34.6988C32.8543 24.0785 31.0854 23.344 29.7812 22.0364C28.477 20.7289 27.7443 18.9554 27.7443 17.1063C27.7443 15.2571 28.477 13.4837 29.7812 12.1762C31.0854 10.8686 32.8543 10.134 34.6988 10.134H34.7271Z" fill="white"/>
<path d="M56.2994 50.7467H18.0397V16.9258H24.879V17.287H18.3999V50.3855H56.2994V50.7467Z" fill="#3F3D56"/>
<path d="M61.458 59.2641C63.3573 59.2641 64.897 57.7204 64.897 55.8162C64.897 53.9121 63.3573 52.3684 61.458 52.3684C59.5586 52.3684 58.0189 53.9121 58.0189 55.8162C58.0189 57.7204 59.5586 59.2641 61.458 59.2641Z" fill="#71DDC3"/>
<path d="M18.1571 53.7787C20.0564 53.7787 21.5961 52.2351 21.5961 50.3309C21.5961 48.4267 20.0564 46.8831 18.1571 46.8831C16.2577 46.8831 14.718 48.4267 14.718 50.3309C14.718 52.2351 16.2577 53.7787 18.1571 53.7787Z" fill="#71DDC3"/>
<path d="M56.2994 50.6444H64.897V42.0249H47.7017V59.2639H56.2994V50.6444Z" fill="#C8F0EC"/>
<path d="M49.2649 84.4959C49.2648 87.6043 48.0366 90.5861 45.8491 92.7889C43.6616 94.9917 40.6928 96.2361 37.5924 96.2499V72.7419C40.6928 72.7557 43.6616 74.0002 45.8491 76.203C48.0366 78.4058 49.2648 81.3876 49.2649 84.4959Z" fill="#E4E4E4"/>
<path d="M111.481 101.132H1.11805C0.821624 101.132 0.537441 101.014 0.327841 100.803C0.118241 100.593 0.000338954 100.308 0 100.011V1.12094C0.000338954 0.82376 0.118241 0.538848 0.327841 0.328705C0.537441 0.118563 0.821624 0.000350353 1.11805 0H111.481C111.777 0.000350352 112.061 0.118563 112.271 0.328705C112.48 0.538848 112.598 0.82376 112.599 1.12094V100.011C112.598 100.308 112.48 100.593 112.271 100.803C112.061 101.014 111.777 101.132 111.481 101.132ZM1.11805 0.361186C0.917136 0.361416 0.724519 0.441536 0.582456 0.583969C0.440393 0.726402 0.360485 0.919516 0.360266 1.12094V100.011C0.360485 100.213 0.440393 100.406 0.582456 100.548C0.724519 100.691 0.917136 100.771 1.11805 100.771H111.481C111.682 100.771 111.874 100.691 112.016 100.548C112.158 100.406 112.238 100.213 112.238 100.011V1.12094C112.238 0.919516 112.158 0.726405 112.016 0.583973C111.874 0.441541 111.682 0.361419 111.481 0.361186H1.11805Z" fill="#373635"/>
<path d="M37.4124 29.982V4.23071L37.5932 4.23142C40.9903 4.24504 44.2435 5.6075 46.6408 8.02054C49.0381 10.4336 50.3841 13.7006 50.3841 17.1063C50.3841 20.5121 49.0381 23.7791 46.6408 26.1921C44.2435 28.6052 40.9903 29.9677 37.5932 29.9813L37.4124 29.982ZM37.7726 4.59463V29.618C41.0423 29.5571 44.1576 28.2122 46.4484 25.8724C48.7393 23.5326 50.0227 20.385 50.0227 17.1063C50.0227 13.8277 48.7393 10.6801 46.4484 8.34028C44.1576 6.00051 41.0423 4.65554 37.7726 4.59463Z" fill="#3F3D56"/>
<path d="M37.7725 96.4304H37.5408C34.3836 96.4304 31.3557 95.173 29.1232 92.9349C26.8908 90.6967 25.6366 87.6611 25.6366 84.4958C25.6366 81.3306 26.8908 78.295 29.1232 76.0568C31.3557 73.8187 34.3836 72.5613 37.5408 72.5613H37.7725L37.7725 96.4304ZM37.4123 72.9232C34.3731 72.9571 31.4698 74.1913 29.3326 76.3579C27.1955 78.5245 25.9968 81.4487 25.9968 84.4958C25.9968 87.543 27.1955 90.4672 29.3326 92.6338C31.4698 94.8004 34.3731 96.0346 37.4123 96.0685V72.9232Z" fill="#3F3D56"/>
<path d="M112.419 67.1807H0.180176V67.5419H112.419V67.1807Z" fill="#373635"/>
<path d="M112.419 33.5898H0.180176V33.951H112.419V33.5898Z" fill="#373635"/>
<path d="M75.1858 0.180664H74.8256V100.952H75.1858V0.180664Z" fill="#373635"/>
<path d="M37.7725 0.180664H37.4122V100.952H37.7725V0.180664Z" fill="#373635"/>
<path d="M26.2857 87.6303C28.1851 87.6303 29.7248 86.0866 29.7248 84.1825C29.7248 82.2783 28.1851 80.7346 26.2857 80.7346C24.3864 80.7346 22.8467 82.2783 22.8467 84.1825C22.8467 86.0866 24.3864 87.6303 26.2857 87.6303Z" fill="#71DDC3"/>
<mask id="path-47-inside-1_227_1950" fill="white">
<path d="M162.82 134H94.1892C94.1414 134 94.0956 133.981 94.0618 133.947C94.028 133.913 94.009 133.867 94.009 133.82C94.009 133.772 94.028 133.726 94.0618 133.692C94.0956 133.658 94.1414 133.639 94.1892 133.639H162.82C162.868 133.639 162.914 133.658 162.947 133.692C162.981 133.726 163 133.772 163 133.82C163 133.867 162.981 133.913 162.947 133.947C162.914 133.981 162.868 134 162.82 134Z"/>
</mask>
<path d="M162.82 134H94.1892C94.1414 134 94.0956 133.981 94.0618 133.947C94.028 133.913 94.009 133.867 94.009 133.82C94.009 133.772 94.028 133.726 94.0618 133.692C94.0956 133.658 94.1414 133.639 94.1892 133.639H162.82C162.868 133.639 162.914 133.658 162.947 133.692C162.981 133.726 163 133.772 163 133.82C163 133.867 162.981 133.913 162.947 133.947C162.914 133.981 162.868 134 162.82 134Z" fill="#263238"/>
<path d="M162.82 133H94.1892V135H162.82V133ZM94.1892 133C94.4074 133 94.6162 133.087 94.7698 133.241L93.3538 134.653C93.5749 134.875 93.8754 135 94.1892 135V133ZM94.7698 133.241C94.9233 133.395 95.009 133.603 95.009 133.82H93.009C93.009 134.132 93.1327 134.432 93.3538 134.653L94.7698 133.241ZM95.009 133.82C95.009 134.036 94.9233 134.244 94.7698 134.398L93.3538 132.986C93.1327 133.207 93.009 133.507 93.009 133.82H95.009ZM94.7698 134.398C94.6162 134.552 94.4074 134.639 94.1892 134.639V132.639C93.8754 132.639 93.5749 132.764 93.3538 132.986L94.7698 134.398ZM94.1892 134.639H162.82V132.639H94.1892V134.639ZM162.82 134.639C162.602 134.639 162.393 134.552 162.239 134.398L163.655 132.986C163.434 132.764 163.134 132.639 162.82 132.639V134.639ZM162.239 134.398C162.086 134.244 162 134.036 162 133.82H164C164 133.507 163.876 133.207 163.655 132.986L162.239 134.398ZM162 133.82C162 133.603 162.086 133.395 162.239 133.241L163.655 134.653C163.876 134.432 164 134.132 164 133.82H162ZM162.239 133.241C162.393 133.087 162.602 133 162.82 133V135C163.134 135 163.434 134.875 163.655 134.653L162.239 133.241Z" fill="#263238" mask="url(#path-47-inside-1_227_1950)"/>
</g>
<defs>
<clipPath id="clip0_227_1950">
<rect width="163" height="134" fill="white"/>
</clipPath>
</defs>
</svg>
