<svg width="30" height="30" viewBox="0 0 30 30" fill="none" xmlns="http://www.w3.org/2000/svg">
<rect x="1.5" y="1.5" width="27" height="27" rx="11.5" fill="#55FBD3"/>
<rect x="1.5" y="1.5" width="27" height="27" rx="11.5" stroke="#55FBD3" stroke-width="3"/>
<path d="M12.1434 13.691L12.3503 13.4841C14.329 11.5053 17.5372 11.5053 19.5159 13.4841C21.4947 15.4628 21.4947 18.671 19.5159 20.6497L16.6497 23.5159C14.671 25.4947 11.4628 25.4947 9.48405 23.5159C7.50532 21.5372 7.50532 18.329 9.48405 16.3503L9.9484 15.886" stroke="#2A353D" stroke-width="1.5" stroke-linecap="round"/>
<path d="M20.0516 14.114L20.5159 13.6497C22.4947 11.671 22.4947 8.46279 20.5159 6.48405C18.5372 4.50532 15.329 4.50532 13.3503 6.48405L10.4841 9.35031C8.50532 11.329 8.50532 14.5372 10.4841 16.5159C12.4628 18.4947 15.671 18.4947 17.6497 16.5159L17.8566 16.309" stroke="#2A353D" stroke-width="1.5" stroke-linecap="round"/>
</svg>
