<svg width="30" height="30" viewBox="0 0 30 30" fill="none" xmlns="http://www.w3.org/2000/svg">
<rect x="1.5" y="1.5" width="27" height="27" rx="11.5" fill="#55FBD3"/>
<rect x="1.5" y="1.5" width="27" height="27" rx="11.5" stroke="#55FBD3" stroke-width="3"/>
<path d="M10 21L10 19" stroke="#2A353D" stroke-width="1.5" stroke-linecap="round"/>
<path d="M15 21L15 18" stroke="#2A353D" stroke-width="1.5" stroke-linecap="round"/>
<path d="M20 21L20 16" stroke="#2A353D" stroke-width="1.5" stroke-linecap="round"/>
<path d="M9 13.75C8.58579 13.75 8.25 14.0858 8.25 14.5C8.25 14.9142 8.58579 15.25 9 15.25V13.75ZM19.6512 9.8721C19.8567 9.51247 19.7317 9.05433 19.3721 8.84882C19.0125 8.64331 18.5543 8.76826 18.3488 9.1279L19.6512 9.8721ZM16.8779 8.55478C16.4692 8.62219 16.1926 9.00815 16.26 9.41684C16.3274 9.82553 16.7134 10.1022 17.1221 10.0348L16.8779 8.55478ZM18.2676 9.08568L18.1456 8.34568L18.1456 8.34568L18.2676 9.08568ZM19.6819 9.88953L18.9609 10.0961L19.6819 9.88953ZM19.279 11.2066C19.3931 11.6048 19.8084 11.8351 20.2066 11.721C20.6048 11.6069 20.8351 11.1916 20.721 10.7934L19.279 11.2066ZM19.2741 9.07154L19.6448 8.41951L19.6447 8.41951L19.2741 9.07154ZM9 15.25C13.6742 15.25 17.4764 13.678 19.6512 9.8721L18.3488 9.1279C16.5236 12.322 13.3258 13.75 9 13.75V15.25ZM17.1221 10.0348L18.3897 9.82568L18.1456 8.34568L16.8779 8.55478L17.1221 10.0348ZM18.9609 10.0961L19.279 11.2066L20.721 10.7934L20.4029 9.68297L18.9609 10.0961ZM18.3897 9.82568C18.6742 9.77874 18.8228 9.75549 18.9273 9.75072C19.0142 9.74675 18.9719 9.76242 18.9035 9.72357L19.6447 8.41951C19.3693 8.26294 19.0902 8.24172 18.8589 8.25228C18.6451 8.26203 18.394 8.30471 18.1456 8.34568L18.3897 9.82568ZM20.4029 9.68297C20.3421 9.47103 20.2761 9.2338 20.1891 9.04105C20.0889 8.81911 19.9304 8.58186 19.6448 8.41951L18.9035 9.72357C18.8732 9.70635 18.8458 9.68248 18.8263 9.6588C18.8103 9.63917 18.8103 9.63246 18.8219 9.65818C18.8342 9.68528 18.8513 9.73033 18.8759 9.80783C18.9004 9.88523 18.9266 9.97645 18.9609 10.0961L20.4029 9.68297Z" fill="#2A353D"/>
<path d="M5.5 15C5.5 10.5217 5.5 8.28249 6.89124 6.89124C8.28249 5.5 10.5217 5.5 15 5.5C19.4783 5.5 21.7175 5.5 23.1088 6.89124C24.5 8.28249 24.5 10.5217 24.5 15C24.5 19.4783 24.5 21.7175 23.1088 23.1088C21.7175 24.5 19.4783 24.5 15 24.5C10.5217 24.5 8.28249 24.5 6.89124 23.1088C5.5 21.7175 5.5 19.4783 5.5 15Z" stroke="#2A353D" stroke-width="1.5"/>
</svg>
