<svg width="30" height="30" viewBox="0 0 30 30" fill="none" xmlns="http://www.w3.org/2000/svg">
<rect x="1.5" y="1.5" width="27" height="27" rx="11.5" fill="#55FBD3"/>
<rect x="1.5" y="1.5" width="27" height="27" rx="11.5" stroke="#55FBD3" stroke-width="3"/>
<path d="M9 20.9745C9.1287 22.2829 9.41956 23.1636 10.0769 23.8209C11.256 25 13.1536 25 16.9489 25C20.7442 25 22.6419 25 23.8209 23.8209C25 22.6419 25 20.7442 25 16.9489C25 13.1536 25 11.256 23.8209 10.0769C23.1636 9.41956 22.2829 9.1287 20.9745 9" stroke="#2A353D" stroke-width="1.5"/>
<path d="M5 13C5 9.22876 5 7.34315 6.17157 6.17157C7.34315 5 9.22876 5 13 5C16.7712 5 18.6569 5 19.8284 6.17157C21 7.34315 21 9.22876 21 13C21 16.7712 21 18.6569 19.8284 19.8284C18.6569 21 16.7712 21 13 21C9.22876 21 7.34315 21 6.17157 19.8284C5 18.6569 5 16.7712 5 13Z" stroke="#2A353D" stroke-width="1.5"/>
<path d="M5 14.1185C5.61902 14.0398 6.24484 14.001 6.87171 14.0023C9.52365 13.9533 12.1106 14.6763 14.1711 16.0424C16.082 17.3094 17.4247 19.053 18 21" stroke="#2A353D" stroke-width="1.5" stroke-linejoin="round"/>
<path d="M15.9998 10H16.0088" stroke="#2A353D" stroke-width="2" stroke-linecap="round" stroke-linejoin="round"/>
</svg>
