<svg width="30" height="30" viewBox="0 0 30 30" fill="none" xmlns="http://www.w3.org/2000/svg">
<rect x="1.5" y="1.5" width="27" height="27" rx="11.5" fill="#55FBD3"/>
<rect x="1.5" y="1.5" width="27" height="27" rx="11.5" stroke="#55FBD3" stroke-width="3"/>
<path d="M17.2618 6.59937C16.1956 5.53312 15.6625 5 15 5C14.3375 5 13.8044 5.53312 12.7382 6.59937C12.0983 7.2392 11.4643 7.53626 10.5521 7.53626C9.7556 7.53626 8.62243 7.38178 8 8.00944C7.38249 8.63214 7.53628 9.76065 7.53628 10.5521C7.53628 11.4643 7.2392 12.0983 6.59935 12.7382C5.53312 13.8044 5.00001 14.3375 5 15C5.00002 15.6624 5.53314 16.1956 6.59938 17.2618C7.31616 17.9786 7.53628 18.4414 7.53628 19.4479C7.53628 20.2444 7.38181 21.3776 8.00949 22C8.63218 22.6175 9.76068 22.4637 10.5521 22.4637C11.5235 22.4637 11.9913 22.6537 12.6846 23.347C13.2749 23.9374 14.0663 25 15 25C15.9337 25 16.7251 23.9374 17.3154 23.347C18.0087 22.6537 18.4765 22.4637 19.4479 22.4637C20.2393 22.4637 21.3678 22.6175 21.9905 22M23.4006 12.7382C24.4669 13.8044 25 14.3375 25 15C25 15.6624 24.4669 16.1956 23.4006 17.2618C22.6838 17.9786 22.4637 18.4414 22.4637 19.4479C22.4637 20.2444 22.6182 21.3776 21.9905 22M21.9905 22H22" stroke="#2A353D" stroke-width="1.5" stroke-linecap="round" stroke-linejoin="round"/>
<path d="M11 13.3077C11 13.3077 13.25 13 15 17C15 17 20.0588 7 25 5" stroke="#2A353D" stroke-width="1.5" stroke-linecap="round" stroke-linejoin="round"/>
</svg>
