<svg width="407" height="237" viewBox="0 0 407 237" fill="none" xmlns="http://www.w3.org/2000/svg">
<g clip-path="url(#clip0_171_462)">
<path d="M131.446 231.069C195.294 231.069 247.054 179.342 247.054 115.534C247.054 51.7265 195.294 0 131.446 0C67.5968 0 15.8372 51.7265 15.8372 115.534C15.8372 179.342 67.5968 231.069 131.446 231.069Z" fill="#F2F2F2"/>
<path d="M407 204.951C406.999 205.232 406.977 205.513 406.933 205.79C404.106 223.104 314.107 237 203.5 237C92.8934 237 2.89413 223.104 0.0673047 205.79C0.0231144 205.513 0.000611923 205.232 0 204.951C0 204.872 -1.32888e-06 204.789 0.00791696 204.71C0.00791696 204.666 0.0118769 204.627 0.0118769 204.583C0.0151472 204.568 0.0164778 204.552 0.0158369 204.536C0.0316735 204.358 0.0554285 204.188 0.0871017 204.014C1.37778 196.935 17.25 190.431 43.1388 185.22C64.3123 180.958 92.1887 177.56 124.274 175.423C148.622 173.801 175.394 172.903 203.5 172.903C226.115 172.903 247.866 173.484 268.185 174.553H268.192C272.445 174.778 276.633 175.025 280.759 175.293C308.999 177.121 334.061 179.918 354.252 183.419C366.672 185.576 377.255 188.001 385.605 190.628H385.609C398.46 194.676 406.038 199.214 406.913 204.014C406.945 204.188 406.968 204.358 406.984 204.536C406.984 204.552 406.985 204.568 406.988 204.583C406.988 204.627 406.992 204.666 406.992 204.71C407 204.789 407 204.872 407 204.951Z" fill="#3F3D56"/>
<path opacity="0.1" d="M198.353 235.813C234.432 235.813 263.679 231.562 263.679 226.317C263.679 221.073 234.432 216.821 198.353 216.821C162.275 216.821 133.027 221.073 133.027 226.317C133.027 231.562 162.275 235.813 198.353 235.813Z" fill="black"/>
<path opacity="0.1" d="M385.605 190.629C383.32 191.281 380.747 191.887 377.924 192.441C366.3 194.728 350.44 196.132 332.976 196.132C313.465 196.132 295.978 194.379 284.128 191.606C274.293 189.303 268.339 186.308 268.339 183.02C268.339 180.132 272.947 177.457 280.759 175.293C308.999 177.121 334.061 179.918 354.252 183.42C366.672 185.576 377.255 188.001 385.605 190.629Z" fill="black"/>
<path opacity="0.1" d="M210.626 186.256C210.626 192.243 173.046 197.097 126.693 197.097C80.339 197.097 42.7588 192.243 42.7588 186.256C42.7688 185.879 42.9023 185.515 43.1389 185.22C64.3124 180.958 92.1887 177.56 124.274 175.423C125.077 175.419 125.884 175.418 126.693 175.419C173.046 175.419 210.626 180.27 210.626 186.256Z" fill="black"/>
<path d="M181.391 132.537H164.887V185.786H181.391V132.537Z" fill="#E4FF36"/>
<path d="M127.164 107.561H110.66V185.786H127.164V107.561Z" fill="#00CFA3"/>
<path d="M73.4087 107.561H56.9049V185.786H73.4087V107.561Z" fill="#00CFA3"/>
<path d="M100.286 107.561H83.7826V160.811H100.286V107.561Z" fill="#E4FF36"/>
<path d="M154.042 107.561H137.538V123.112H154.042V107.561Z" fill="#E4FF36"/>
<path d="M154.042 132.537H137.538V185.786H154.042V132.537Z" fill="#8A8B8C"/>
<path d="M208.269 107.561H164.887V123.112H208.269V107.561Z" fill="#00CFA3"/>
<path d="M322.695 102.883C333.978 102.883 343.582 106.819 351.507 114.69C355.239 118.39 358.18 122.811 360.15 127.682C364.077 137.649 364.091 148.73 360.188 158.706C358.248 163.521 355.315 167.875 351.581 171.483C347.742 175.305 343.19 178.338 338.183 180.41C333.277 182.456 328.013 183.508 322.697 183.505C317.441 183.521 312.236 182.48 307.391 180.445C297.52 176.246 289.66 168.391 285.457 158.527C281.411 148.69 281.424 137.653 285.492 127.826C287.553 122.878 290.577 118.388 294.388 114.616C302.071 106.796 311.507 102.885 322.695 102.883ZM322.841 110.154C313.621 110.154 305.866 113.37 299.574 119.8C296.472 122.916 293.99 126.592 292.263 130.634C290.575 134.594 289.705 138.854 289.705 143.159C289.705 147.463 290.575 151.724 292.263 155.684C295.742 163.76 302.206 170.182 310.307 173.611C314.289 175.256 318.555 176.1 322.863 176.094C327.171 176.088 331.436 175.232 335.412 173.576C339.503 171.873 343.23 169.405 346.395 166.306C352.686 160.163 355.83 152.461 355.829 143.197C355.852 138.855 355.02 134.55 353.38 130.528C351.742 126.536 349.318 122.912 346.253 119.873C339.766 113.395 331.962 110.155 322.841 110.154ZM322.336 136.502L316.932 139.31C316.496 138.274 315.755 137.396 314.808 136.79C314.103 136.351 313.295 136.104 312.466 136.071C308.865 136.071 307.065 138.446 307.063 143.197C307.063 145.356 307.519 147.084 308.431 148.379C309.343 149.675 310.688 150.323 312.466 150.324C314.819 150.324 316.476 149.172 317.437 146.868L322.406 149.388C321.392 151.312 319.868 152.921 318 154.038C316.133 155.155 313.994 155.738 311.818 155.723C308.216 155.723 305.311 154.619 303.101 152.411C300.893 150.204 299.788 147.133 299.788 143.199C299.788 139.359 300.905 136.312 303.138 134.057C305.37 131.802 308.191 130.674 311.602 130.673C316.598 130.671 320.175 132.613 322.336 136.502ZM345.601 136.502L340.271 139.31C339.834 138.274 339.093 137.395 338.145 136.79C337.417 136.345 336.586 136.097 335.733 136.071C332.131 136.071 330.33 138.446 330.329 143.197C330.329 145.356 330.785 147.084 331.698 148.379C332.609 149.675 333.954 150.323 335.733 150.324C338.083 150.324 339.739 149.172 340.7 146.868L345.743 149.388C344.691 151.302 343.151 152.904 341.279 154.031C339.435 155.151 337.315 155.737 335.156 155.723C331.506 155.723 328.59 154.619 326.407 152.411C324.219 150.204 323.125 147.133 323.127 143.199C323.127 139.359 324.244 136.312 326.478 134.057C328.709 131.802 331.53 130.674 334.94 130.673C339.934 130.671 343.488 132.613 345.601 136.502Z" fill="#00D1FF"/>
<path opacity="0.1" d="M298.289 201.92C298.289 221.203 271.392 215.239 238.461 215.239C205.529 215.239 179.033 221.203 179.033 201.92C179.033 182.636 205.925 178.442 238.857 178.442C271.788 178.442 298.289 182.636 298.289 201.92Z" fill="black"/>
<path d="M298.289 197.172C298.289 216.456 271.392 210.491 238.461 210.491C205.529 210.491 179.033 216.456 179.033 197.172C179.033 177.889 205.925 173.695 238.857 173.695C271.788 173.695 298.289 177.889 298.289 197.172Z" fill="#3F3D56"/>
<path d="M292.795 162.554L294.155 168.158C294.17 168.221 294.167 168.286 294.148 168.347L287.981 187.605C287.957 187.682 287.907 187.747 287.84 187.791C287.773 187.835 287.693 187.855 287.613 187.847C287.534 187.839 287.459 187.804 287.402 187.748C287.345 187.692 287.309 187.618 287.3 187.538L286.447 180.036C286.441 179.986 286.446 179.936 286.462 179.888L292.122 162.528C292.145 162.456 292.192 162.393 292.255 162.349C292.317 162.306 292.392 162.284 292.468 162.287C292.544 162.29 292.618 162.318 292.677 162.366C292.736 162.414 292.777 162.48 292.795 162.554Z" fill="#2F2E41"/>
<path d="M292.295 163.027L293.55 167.835L288.111 185.396L286.856 179.96L292.295 163.027Z" fill="#F2F2F2"/>
<path d="M264.892 189.159C265.101 189.786 286.647 188.95 286.856 188.741C287.039 188.479 287.193 188.199 287.316 187.904C287.513 187.486 287.693 187.068 287.693 187.068L286.856 180.299L265.52 179.542C265.52 179.542 264.986 185.279 264.877 187.904C264.84 188.322 264.845 188.742 264.892 189.159Z" fill="#2F2E41"/>
<path opacity="0.1" d="M284.137 181.215L284.555 187.068H275.142V181.215H284.137Z" fill="black"/>
<path opacity="0.1" d="M272.004 183.096L272.061 183.085L271.795 185.605H266.566V183.096H272.004Z" fill="black"/>
<path opacity="0.1" d="M264.892 189.159C265.101 189.786 286.647 188.95 286.856 188.74C287.039 188.479 287.193 188.198 287.316 187.904H264.877C264.84 188.322 264.845 188.742 264.892 189.159Z" fill="black"/>
<path d="M231.632 167.208H237.489L251.923 161.564C251.923 161.564 262.173 157.383 261.336 165.327C260.499 173.271 259.035 183.932 259.035 183.932C259.035 183.932 254.433 181.842 251.923 182.469C249.413 183.096 251.086 169.717 251.086 169.717C251.086 169.717 230.586 179.542 228.703 178.288C226.821 177.034 226.402 168.254 226.402 168.254L231.632 167.208Z" fill="#2F2E41"/>
<path opacity="0.1" d="M231.632 167.208H237.489L251.923 161.564C251.923 161.564 262.173 157.383 261.336 165.327C260.499 173.271 259.035 183.932 259.035 183.932C259.035 183.932 254.433 181.842 251.923 182.469C249.413 183.096 251.086 169.717 251.086 169.717C251.086 169.717 230.586 179.542 228.703 178.288C226.821 177.034 226.402 168.254 226.402 168.254L231.632 167.208Z" fill="black"/>
<path d="M240.86 148.878L247.948 159.055L264.474 172.853C264.474 172.853 279.744 176.407 277.652 178.915C275.56 181.424 262.8 176.407 262.8 176.407C262.8 176.407 243.764 162.609 243.137 161.564C242.509 160.519 235.606 150.693 235.606 150.693L240.86 148.878Z" fill="#A0616A"/>
<path opacity="0.1" d="M240.86 148.878L247.948 159.055L264.474 172.853C264.474 172.853 279.744 176.407 277.652 178.915C275.56 181.424 262.8 176.407 262.8 176.407C262.8 176.407 243.764 162.609 243.137 161.564C242.509 160.519 235.606 150.693 235.606 150.693L240.86 148.878Z" fill="black"/>
<path d="M239.79 137.732C244.989 137.732 249.203 133.521 249.203 128.325C249.203 123.13 244.989 118.918 239.79 118.918C234.591 118.918 230.377 123.13 230.377 128.325C230.377 133.521 234.591 137.732 239.79 137.732Z" fill="#A0616A"/>
<path d="M239.162 136.687C239.162 136.687 236.025 142.123 235.397 145.049C234.77 147.976 225.984 139.196 225.984 139.196L224.833 136.165C224.833 136.165 233.096 132.297 232.469 129.161C231.841 126.026 239.162 136.687 239.162 136.687Z" fill="#A0616A"/>
<path d="M236.652 140.659L241.254 149.648C241.254 149.648 240.208 154.038 238.535 154.456C236.862 154.875 229.749 149.021 229.749 149.021L236.652 140.659Z" fill="#D0CDE1"/>
<path d="M240.836 152.993L249.412 164.282L269.912 179.542C269.912 179.542 284.765 182.678 281.418 184.978C278.071 187.277 268.448 182.887 268.448 182.887C268.448 182.887 247.739 171.808 243.346 167.209C238.953 162.609 230.795 154.875 230.795 154.875L240.836 152.993Z" fill="#A0616A"/>
<path d="M229.331 170.553L231.841 174.525L246.822 169.815C248.445 169.291 250.162 169.125 251.856 169.329C253.549 169.533 255.178 170.102 256.629 170.997C259.244 172.644 260.918 175.257 257.152 179.124C249.622 186.859 244.601 182.678 244.601 182.678C244.601 182.678 219.29 194.594 215.106 188.74C210.923 182.887 210.714 179.96 210.714 179.96C210.714 179.96 226.821 169.926 229.331 170.553Z" fill="#2F2E41"/>
<path d="M260.708 184.35C260.708 184.35 267.402 188.74 259.453 190.831C251.504 192.921 245.647 189.995 245.647 189.995C245.647 189.995 238.744 189.995 238.744 186.441C238.744 182.887 241.045 182.469 241.045 182.469L248.157 183.514C248.157 183.514 256.734 181.215 260.708 184.35Z" fill="#D0CDE1"/>
<path d="M247.512 125.959C248.131 126.292 248.796 126.53 249.485 126.665C249.831 126.727 250.188 126.686 250.511 126.548C250.835 126.409 251.11 126.179 251.304 125.886C251.458 125.538 251.529 125.16 251.511 124.78C251.536 123.632 251.453 122.391 250.725 121.503C250.262 120.937 249.586 120.581 249.106 120.029C248.784 119.616 248.509 119.168 248.288 118.693C247.355 116.942 245.974 115.26 244.055 114.756C243.244 114.581 242.413 114.518 241.585 114.567L236.752 114.635C235.969 114.61 235.187 114.694 234.427 114.885C232.872 115.355 231.739 116.662 230.702 117.912C229.897 118.824 229.181 119.811 228.565 120.859C227.73 122.415 227.308 124.16 227.339 125.925C227.333 126.378 227.391 126.83 227.513 127.266C227.655 127.666 227.831 128.053 228.04 128.423C228.946 130.202 229.484 132.424 228.464 134.14C230.237 133.416 231.991 132.467 233.16 130.952C233.684 130.274 234.094 129.48 234.791 128.982C235.488 128.485 236.625 128.442 237.072 129.172C237.226 129.467 237.305 129.796 237.303 130.129C237.289 130.679 237.378 131.227 237.567 131.744C237.668 131.999 237.854 132.213 238.093 132.349C238.332 132.486 238.61 132.537 238.882 132.494C239.793 132.237 239.706 130.84 240.407 130.206C240.94 129.724 241.762 129.816 242.446 129.597C242.839 129.448 243.196 129.219 243.495 128.925C243.794 128.631 244.028 128.277 244.183 127.888C244.442 127.307 244.438 125.787 244.929 125.472C245.544 125.078 246.942 125.705 247.512 125.959Z" fill="#2F2E41"/>
<path d="M224.086 135.173C224.51 135.06 224.956 135.061 225.378 135.176C226.721 135.537 229.731 136.49 230.377 137.942C231.214 139.823 234.142 142.75 234.142 142.75C234.142 142.75 238.117 146.722 237.28 149.439C236.443 152.157 233.305 155.293 233.305 155.293C233.305 155.293 234.142 168.254 229.958 171.599C225.775 174.943 224.101 172.644 224.101 175.78C224.101 178.915 211.132 188.741 208.622 182.678C208.622 182.678 209.877 171.39 209.458 167.418C209.046 163.503 209.65 139.079 224.086 135.173Z" fill="#D0CDE1"/>
<path d="M230.795 140.45C230.795 140.45 243.555 149.857 241.254 153.829C241.254 153.829 233.515 157.592 231.841 157.383C230.168 157.174 223.683 149.857 222.009 149.23C220.336 148.603 219.499 137.314 230.795 140.45Z" fill="#D0CDE1"/>
<path d="M195.507 148.88C193.522 149.55 191.724 151.116 191.318 153.17C191.129 154.122 191.245 155.111 191.086 156.069C190.719 158.289 188.975 159.985 187.366 161.56C185.758 163.135 184.097 164.965 183.979 167.212C183.851 169.673 185.637 171.979 185.328 174.424C184.968 177.264 181.966 179.105 181.224 181.87C180.729 183.717 181.336 185.706 182.335 187.336C184.239 190.443 187.493 192.552 190.958 193.683C194.424 194.814 198.115 195.051 201.76 195.09C206.198 195.136 211.017 194.755 214.352 191.828C216.257 190.141 217.453 187.796 217.701 185.265C218.018 181.873 216.602 178.37 217.579 175.107C218.194 173.053 219.735 171.178 219.505 169.047C219.28 166.963 217.459 165.486 216.21 163.803C215.044 162.231 214.336 160.375 213.642 158.545L211.269 152.284C210.802 151.054 210.29 149.759 209.25 148.951C207.303 147.439 204.173 147.736 201.897 148.048C199.786 148.338 197.537 148.194 195.507 148.88Z" fill="#2F2E41"/>
<path d="M196.25 167.118C196.25 167.118 197.302 170.535 189.411 174.478C181.52 178.421 190.2 182.627 190.2 182.627L199.406 184.73C199.406 184.73 208.876 183.416 209.928 181.838C210.98 180.261 212.821 175.004 212.295 174.215C211.901 173.654 211.462 173.126 210.98 172.638C210.98 172.638 204.667 171.587 204.93 168.695C205.193 165.804 196.25 167.118 196.25 167.118Z" fill="#FFB9B9"/>
<path opacity="0.1" d="M196.25 167.118C196.25 167.118 197.302 170.535 189.411 174.478C181.52 178.421 190.2 182.627 190.2 182.627L199.406 184.73C199.406 184.73 208.876 183.416 209.928 181.838C210.98 180.261 212.821 175.004 212.295 174.215C211.901 173.654 211.462 173.126 210.98 172.638C210.98 172.638 204.667 171.587 204.93 168.695C205.193 165.804 196.25 167.118 196.25 167.118Z" fill="black"/>
<path d="M201.379 172.506C206.028 172.506 209.796 168.74 209.796 164.095C209.796 159.449 206.028 155.683 201.379 155.683C196.731 155.683 192.962 159.449 192.962 164.095C192.962 168.74 196.731 172.506 201.379 172.506Z" fill="#FFB9B9"/>
<path d="M200.459 181.838C200.459 181.838 190.322 181.097 190.13 174.108C190.13 174.108 186.518 173.689 185.466 174.741C184.414 175.792 180.994 176.581 180.994 179.21C180.994 181.838 186.781 189.724 186.781 189.724C186.781 189.724 189.937 200.239 188.622 202.079C187.307 203.919 187.044 208.651 187.044 208.651C187.044 208.651 200.196 207.599 202.3 208.651C204.404 209.702 212.821 209.702 213.347 208.651C213.873 207.599 212.821 194.456 212.821 194.456C212.821 194.456 215.189 191.301 214.662 187.621L220.975 180.261C220.975 180.261 218.608 173.164 214.925 173.164C214.925 173.164 209.928 171.849 209.796 172.507C209.665 173.164 212.295 180.524 200.459 181.838Z" fill="#FF6584"/>
<path d="M176.786 204.971C176.786 204.971 179.153 208.651 185.203 209.439C191.252 210.228 192.305 208.125 191.778 207.599C191.252 207.073 184.94 204.708 184.94 204.708L181.257 201.816L176.786 204.971Z" fill="#FFB9B9"/>
<path d="M219.923 201.816L213.084 205.759C213.084 205.759 204.141 205.233 207.561 207.862C210.98 210.491 217.293 209.439 217.293 209.439L223.343 206.548L219.923 201.816Z" fill="#FFB9B9"/>
<path d="M185.729 208.651C185.729 208.651 179.416 224.16 187.044 226.525C194.672 228.891 215.715 228.366 220.449 225.211C225.184 222.057 226.499 217.851 225.71 216.537C224.921 215.222 219.66 211.542 215.978 211.279C212.295 211.016 185.729 208.651 185.729 208.651Z" fill="#2F2E41"/>
<path opacity="0.05" d="M185.729 208.651C185.729 208.651 179.416 224.16 187.044 226.525C194.672 228.891 215.715 228.366 220.449 225.211C225.184 222.057 226.499 217.851 225.71 216.537C224.921 215.222 219.66 211.542 215.978 211.279C212.295 211.016 185.729 208.651 185.729 208.651Z" fill="black"/>
<path d="M215.527 209.614C215.527 209.614 237.809 201.553 237.546 211.279C237.283 221.005 223.342 223.634 223.342 223.634L219.134 224.16L195.987 224.948C195.987 224.948 196.776 220.742 194.935 220.217C194.935 220.217 200.985 218.64 201.248 218.377C201.511 218.114 216.504 212.856 217.556 212.594C218.608 212.331 221.764 210.228 224.132 210.491C224.132 210.491 226.762 208.388 229.655 208.913L221.501 209.439L215.527 209.614Z" fill="#2F2E41"/>
<path opacity="0.1" d="M215.527 209.614C215.527 209.614 237.809 201.553 237.546 211.279C237.283 221.005 223.342 223.634 223.342 223.634L219.134 224.16L195.987 224.948C195.987 224.948 196.776 220.742 194.935 220.217C194.935 220.217 200.985 218.64 201.248 218.377C201.511 218.114 216.504 212.856 217.556 212.594C218.608 212.331 221.764 210.228 224.132 210.491C224.132 210.491 226.762 208.388 229.655 208.913L221.501 209.439L215.527 209.614Z" fill="black"/>
<path d="M211.59 210.919L214.399 217.325L231.497 211.279L232.812 207.862L228.34 207.073L219.35 208.651L215.451 209.702L211.59 210.919Z" fill="#2F2E41"/>
<path opacity="0.1" d="M211.59 210.919L214.399 217.325L231.497 211.279L232.812 207.862L228.34 207.073L219.35 208.651L215.451 209.702L211.59 210.919Z" fill="black"/>
<path d="M175.207 218.639C175.207 218.639 180.205 224.948 185.992 226.525C191.778 228.103 194.935 226 194.935 226L193.094 218.639L192.304 213.908L188.885 211.542L182.046 208.388L173.892 205.759C173.892 205.759 170.473 205.233 170.473 205.759C170.473 206.285 173.629 214.171 173.629 214.171L175.207 218.639Z" fill="#2F2E41"/>
<path d="M181.257 222.057C181.257 222.057 182.309 229.68 183.624 230.205C184.94 230.731 188.885 229.68 189.937 229.154C190.989 228.628 194.566 226.203 194.566 226.203C194.566 226.203 182.046 221.531 181.257 222.057Z" fill="#F2F2F2"/>
<path d="M205.193 222.845L210.191 223.634L209.665 229.68L202.694 227.988L205.193 222.845Z" fill="#FFB9B9"/>
<path d="M208.324 224.528C208.324 224.528 205.982 227.314 208.35 228.891L209.928 230.205C209.928 230.205 215.188 231.257 215.715 231.783C216.241 232.308 218.345 230.994 218.345 230.994C218.345 230.994 218.608 223.108 218.345 222.582C218.082 222.057 214.925 221.531 214.662 222.057C214.399 222.582 211.243 223.371 209.402 222.845L208.324 224.528Z" fill="#F2F2F2"/>
<path d="M187.307 210.491C187.307 210.491 168.895 199.713 166.001 203.656C163.108 207.599 159.951 213.119 168.369 217.325C176.786 221.531 203.089 230.205 203.089 230.205C203.089 230.205 207.034 224.16 207.034 222.582C207.034 222.582 193.094 216.274 190.726 215.748C188.359 215.222 178.89 209.176 177.575 208.65C176.26 208.125 174.418 206.548 174.418 206.548L187.307 210.491Z" fill="#2F2E41"/>
<path d="M182.046 177.895L180.994 178.684C180.994 178.684 178.627 184.73 178.364 188.147C178.101 191.564 174.944 202.079 175.207 203.393C175.47 204.708 175.733 205.759 177.312 207.073C177.312 207.073 179.416 202.342 183.098 203.13L187.57 186.833L182.046 177.895Z" fill="#FF6584"/>
<path d="M218.871 177.895L220.975 180.261C220.975 180.261 222.29 183.415 222.29 184.204C222.29 184.993 224.921 196.559 225.184 197.084C225.447 197.61 226.499 204.182 225.184 205.759C223.869 207.336 221.501 208.388 221.501 208.388C221.501 208.388 223.079 202.867 218.082 202.605L218.608 200.502L213.873 184.73L218.871 177.895Z" fill="#FF6584"/>
<path d="M182.572 195.993V209.839C182.572 210.714 182.916 211.553 183.531 212.176C184.145 212.799 184.979 213.155 185.854 213.168L214.829 213.597C215.699 213.61 216.539 213.282 217.17 212.684C217.801 212.086 218.173 211.265 218.207 210.396L218.74 196.549C218.757 196.105 218.685 195.662 218.528 195.247C218.372 194.832 218.134 194.452 217.828 194.13C217.522 193.808 217.156 193.55 216.749 193.372C216.342 193.194 215.904 193.098 215.46 193.092L185.952 192.665C185.51 192.658 185.072 192.74 184.662 192.904C184.252 193.068 183.879 193.313 183.565 193.622C183.251 193.932 183.001 194.301 182.83 194.708C182.66 195.115 182.572 195.552 182.572 195.993Z" fill="#3F3D56"/>
<path d="M201.873 163.825C206.877 163.825 210.933 161.642 210.933 158.95C210.933 156.257 206.877 154.074 201.873 154.074C196.869 154.074 192.813 156.257 192.813 158.95C192.813 161.642 196.869 163.825 201.873 163.825Z" fill="#2F2E41"/>
<path d="M200.327 205.365C201.489 205.365 202.431 204.423 202.431 203.262C202.431 202.1 201.489 201.159 200.327 201.159C199.165 201.159 198.223 202.1 198.223 203.262C198.223 204.423 199.165 205.365 200.327 205.365Z" fill="#F2F2F2"/>
</g>
<defs>
<clipPath id="clip0_171_462">
<rect width="407" height="237" fill="white"/>
</clipPath>
</defs>
</svg>
