<svg width="30" height="30" viewBox="0 0 30 30" fill="none" xmlns="http://www.w3.org/2000/svg">
<rect x="1.5" y="1.5" width="27" height="27" rx="11.5" fill="#55FBD3"/>
<rect x="1.5" y="1.5" width="27" height="27" rx="11.5" stroke="#55FBD3" stroke-width="3"/>
<path d="M18.0002 20C17.2007 20.6224 16.1504 21 15.0002 21C13.8499 21 12.7997 20.6224 12.0002 20" stroke="#2A353D" stroke-width="1.5" stroke-linecap="round"/>
<path d="M5.35157 16.2135C4.99855 13.9162 4.82204 12.7676 5.25635 11.7494C5.69065 10.7311 6.65421 10.0344 8.58132 8.64106L10.0212 7.6C12.4185 5.86667 13.6171 5 15.0002 5C16.3832 5 17.5819 5.86667 19.9792 7.6L21.419 8.64106C23.3462 10.0344 24.3097 10.7311 24.744 11.7494C25.1783 12.7676 25.0018 13.9162 24.6488 16.2135L24.3478 18.1724C23.8473 21.4289 23.5971 23.0572 22.4292 24.0286C21.2613 25 19.5538 25 16.139 25H13.8614C10.4465 25 8.73909 25 7.57118 24.0286C6.40327 23.0572 6.15305 21.4289 5.65261 18.1724L5.35157 16.2135Z" stroke="#2A353D" stroke-width="1.5" stroke-linejoin="round"/>
</svg>
