<svg width="30" height="30" viewBox="0 0 30 30" fill="none" xmlns="http://www.w3.org/2000/svg">
<rect x="1.5" y="1.5" width="27" height="27" rx="11.5" fill="#55FBD3"/>
<rect x="1.5" y="1.5" width="27" height="27" rx="11.5" stroke="#55FBD3" stroke-width="3"/>
<path d="M10 20L10 16" stroke="#2A353D" stroke-width="1.5" stroke-linecap="round"/>
<path d="M15 20L15 10" stroke="#2A353D" stroke-width="1.5" stroke-linecap="round"/>
<path d="M20 20L20 14" stroke="#2A353D" stroke-width="1.5" stroke-linecap="round"/>
<path d="M5.5 15C5.5 10.5217 5.5 8.28249 6.89124 6.89124C8.28249 5.5 10.5217 5.5 15 5.5C19.4783 5.5 21.7175 5.5 23.1088 6.89124C24.5 8.28249 24.5 10.5217 24.5 15C24.5 19.4783 24.5 21.7175 23.1088 23.1088C21.7175 24.5 19.4783 24.5 15 24.5C10.5217 24.5 8.28249 24.5 6.89124 23.1088C5.5 21.7175 5.5 19.4783 5.5 15Z" stroke="#2A353D" stroke-width="1.5" stroke-linejoin="round"/>
</svg>
