<svg width="30" height="30" viewBox="0 0 30 30" fill="none" xmlns="http://www.w3.org/2000/svg">
<rect x="1.5" y="1.5" width="27" height="27" rx="11.5" fill="#55FBD3"/>
<rect x="1.5" y="1.5" width="27" height="27" rx="11.5" stroke="#55FBD3" stroke-width="3"/>
<path d="M16.7276 6.44418L18.4874 9.99288C18.7274 10.4869 19.3673 10.9607 19.9073 11.0514L23.0969 11.5858C25.1367 11.9285 25.6167 13.4206 24.1468 14.8925L21.6671 17.3927C21.2471 17.8161 21.0172 18.6327 21.1471 19.2175L21.8571 22.3125C22.417 24.7623 21.1271 25.71 18.9774 24.4296L15.9877 22.6452C15.4478 22.3226 14.5579 22.3226 14.0079 22.6452L11.0183 24.4296C8.8785 25.71 7.57865 24.7522 8.13859 22.3125L8.84851 19.2175C8.97849 18.6327 8.74852 17.8161 8.32856 17.3927L5.84884 14.8925C4.389 13.4206 4.85895 11.9285 6.89872 11.5858L10.0884 11.0514C10.6183 10.9607 11.2582 10.4869 11.4982 9.99288L13.258 6.44418C14.2179 4.51861 15.7777 4.51861 16.7276 6.44418Z" stroke="#2A353D" stroke-width="1.5" stroke-linecap="round" stroke-linejoin="round"/>
</svg>
