<svg width="30" height="30" viewBox="0 0 30 30" fill="none" xmlns="http://www.w3.org/2000/svg">
<rect x="1.5" y="1.5" width="27" height="27" rx="11.5" fill="#55FBD3"/>
<rect x="1.5" y="1.5" width="27" height="27" rx="11.5" stroke="#55FBD3" stroke-width="3"/>
<path d="M24.5435 14.045C24.8476 14.4713 24.9996 14.6845 24.9996 15C24.9996 15.3155 24.8476 15.5287 24.5435 15.955C23.1775 17.8706 19.6888 22 14.9996 22C10.3104 22 6.82167 17.8706 5.45561 15.955C5.15159 15.5287 4.99957 15.3155 4.99957 15C4.99957 14.6845 5.15159 14.4713 5.45561 14.045C6.82167 12.1294 10.3104 8 14.9996 8C19.6888 8 23.1775 12.1294 24.5435 14.045Z" stroke="#2A353D" stroke-width="1.5"/>
<path d="M18 15C18 13.3431 16.6569 12 15 12C13.3431 12 12 13.3431 12 15C12 16.6569 13.3431 18 15 18C16.6569 18 18 16.6569 18 15Z" stroke="#2A353D" stroke-width="1.5"/>
</svg>
