<svg width="100" height="100" viewBox="0 0 100 100" fill="none" xmlns="http://www.w3.org/2000/svg">
<path d="M44.25 49.1079C43.9172 49.1079 43.6922 49.0142 43.5781 48.8267C43.4625 48.6392 43.4063 48.3267 43.4063 47.8892V39.5767C43.4063 38.7235 43.2188 37.9985 42.8438 37.4048C42.4694 36.8111 41.961 36.3134 41.3594 35.9517C40.7172 35.5661 40.0147 35.2914 39.2813 35.1392C38.5112 34.9724 37.7255 34.8886 36.9375 34.8892C36.0406 34.8892 35.1656 34.9735 34.3125 35.1392C33.5003 35.2896 32.7221 35.586 32.0156 36.0142C31.3391 36.4313 30.7813 36.9829 30.3438 37.6704C29.9063 38.3579 29.6563 39.222 29.5938 40.2642H33.1563C33.2391 39.3892 33.6047 38.7438 34.25 38.3267C34.8953 37.9095 35.7188 37.7017 36.7188 37.7017C37.0735 37.7017 37.4469 37.7282 37.8438 37.7798C38.2391 37.8329 38.5985 37.936 38.9235 38.0923C39.2469 38.2485 39.5172 38.472 39.736 38.7642C39.9547 39.0563 40.0641 39.4313 40.0641 39.8892C40.0641 40.4095 39.9344 40.8001 39.6735 41.061C39.4125 41.322 39.0594 41.5142 38.611 41.6392C38.1625 41.7642 37.6469 41.8532 37.0641 41.9048C36.4813 41.9563 35.8656 42.0454 35.2203 42.1704C34.4703 42.2532 33.725 42.3735 32.986 42.5298C32.2469 42.686 31.5797 42.9407 30.986 43.2954C30.3922 43.6501 29.9125 44.1392 29.5485 44.7642C29.1828 45.3892 29.0016 46.2017 29.0016 47.2017C29.0016 47.9938 29.1516 48.686 29.4547 49.2798C29.7563 49.8735 30.1625 50.3626 30.6735 50.7485C31.1844 51.1345 31.7719 51.4267 32.4391 51.6235C33.1063 51.822 33.8031 51.9204 34.5328 51.9204C35.4906 51.9204 36.486 51.7642 37.5172 51.4517C38.4955 51.1699 39.3908 50.6552 40.1266 49.9517C40.2719 50.6813 40.5844 51.1907 41.0641 51.4829C41.5438 51.7751 42.1469 51.9204 42.8766 51.9204C43.2651 51.9153 43.6522 51.8735 44.0328 51.7954C44.4018 51.7195 44.7668 51.6256 45.1266 51.5142V49.0454C44.9391 49.0876 44.7719 49.1079 44.6266 49.1079H44.25ZM39.8438 46.0454C39.8438 46.6079 39.7078 47.0829 39.4375 47.4673C39.1672 47.8532 38.8281 48.1704 38.4219 48.4204C38.0217 48.6675 37.5836 48.847 37.125 48.9517C36.6672 49.0563 36.2391 49.1079 35.8438 49.1079C35.5313 49.1079 35.1828 49.0767 34.7969 49.0142C34.4286 48.9572 34.0707 48.8467 33.7344 48.686C33.416 48.5337 33.1337 48.3154 32.9063 48.0454C32.6732 47.7654 32.5509 47.4096 32.5625 47.0454C32.5625 46.5876 32.6406 46.197 32.7969 45.8735C32.9531 45.5501 33.1672 45.2907 33.4375 45.0923C33.7078 44.8938 34.0203 44.7376 34.375 44.6235C34.7297 44.5095 35.0938 44.4204 35.4688 44.3579C36.2552 44.2133 37.0476 44.1038 37.8438 44.0298C38.636 43.9579 39.3016 43.7438 39.8438 43.3892V46.0454ZM61.4688 37.4063C60.8353 36.6178 60.0277 35.9867 59.1094 35.5626C58.161 35.1142 57.0516 34.8907 55.7813 34.8907C54.7391 34.8907 53.7703 35.0938 52.875 35.5001C51.9797 35.9063 51.2813 36.5782 50.7813 37.5157H50.7188V35.3282H47.3438V57.4532H50.9063V49.3907H50.9688C51.2391 49.8282 51.5781 50.2079 51.9844 50.5313C52.3906 50.8532 52.8328 51.1204 53.3125 51.3282C53.7922 51.536 54.2922 51.6876 54.8125 51.7813C55.3328 51.8751 55.8547 51.922 56.375 51.922C57.5625 51.922 58.5938 51.6876 59.4688 51.2188C60.3438 50.7501 61.0672 50.1251 61.6406 49.3438C62.2125 48.5626 62.6406 47.661 62.9219 46.6407C63.2041 45.6125 63.3461 44.5508 63.3438 43.4845C63.3438 42.297 63.1875 41.1829 62.875 40.1407C62.5625 39.097 62.0938 38.1876 61.4688 37.4063ZM59.5469 45.4985C59.3906 46.1767 59.1297 46.7798 58.7656 47.311C58.4016 47.8423 57.9375 48.2751 57.375 48.6079C56.8125 48.9407 56.125 49.1079 55.3125 49.1079C54.5828 49.1079 53.9422 48.9626 53.3906 48.6704C52.8384 48.379 52.3539 47.9744 51.9688 47.4829C51.5556 46.949 51.2528 46.3382 51.0781 45.686C50.8747 44.9482 50.7748 44.1857 50.7813 43.4204C50.7813 41.6907 51.161 40.3063 51.9219 39.2642C52.6828 38.222 53.8125 37.7017 55.3125 37.7017C56.0422 37.7017 56.6875 37.8626 57.25 38.186C57.8125 38.5079 58.2813 38.936 58.6563 39.4673C59.0313 39.9985 59.3125 40.6079 59.5 41.2954C59.6875 41.9829 59.7813 42.6923 59.7813 43.4204C59.7813 44.1298 59.7031 44.822 59.5469 45.4985ZM66.436 29.1704H69.9985V32.5454H66.436V29.1704ZM66.436 35.3267H69.9985V51.4829H66.436V35.3267Z" fill="#00CFA3"/>
<path d="M9.375 9.375V90.625H90.625V9.375H9.375ZM12.5 12.5H87.5V75H12.5V12.5Z" fill="black"/>
</svg>
