<svg width="101" height="101" viewBox="0 0 101 101" fill="none" xmlns="http://www.w3.org/2000/svg">
<path d="M72.5938 75.75C74.3369 75.75 75.75 74.3369 75.75 72.5938C75.75 70.8506 74.3369 69.4375 72.5938 69.4375C70.8506 69.4375 69.4375 70.8506 69.4375 72.5938C69.4375 74.3369 70.8506 75.75 72.5938 75.75Z" fill="#71DDC3"/>
<path d="M25.25 69.4375H63.125V75.75H25.25V69.4375Z" fill="#71DDC3"/>
<path d="M72.5938 31.5625C74.3369 31.5625 75.75 30.1494 75.75 28.4062C75.75 26.6631 74.3369 25.25 72.5938 25.25C70.8506 25.25 69.4375 26.6631 69.4375 28.4062C69.4375 30.1494 70.8506 31.5625 72.5938 31.5625Z" fill="#71DDC3"/>
<path d="M25.25 25.25H63.125V31.5625H25.25V25.25Z" fill="#71DDC3"/>
<path d="M82.0625 44.1875C83.7367 44.1875 85.3423 43.5224 86.5261 42.3386C87.7099 41.1548 88.375 39.5492 88.375 37.875V18.9375C88.375 17.2633 87.7099 15.6577 86.5261 14.4739C85.3423 13.2901 83.7367 12.625 82.0625 12.625H18.9375C17.2633 12.625 15.6577 13.2901 14.4739 14.4739C13.2901 15.6577 12.625 17.2633 12.625 18.9375V37.875C12.625 39.5492 13.2901 41.1548 14.4739 42.3386C15.6577 43.5224 17.2633 44.1875 18.9375 44.1875H25.25V56.8125H18.9375C17.2633 56.8125 15.6577 57.4776 14.4739 58.6614C13.2901 59.8452 12.625 61.4508 12.625 63.125V82.0625C12.625 83.7367 13.2901 85.3423 14.4739 86.5261C15.6577 87.7099 17.2633 88.375 18.9375 88.375H82.0625C83.7367 88.375 85.3423 87.7099 86.5261 86.5261C87.7099 85.3423 88.375 83.7367 88.375 82.0625V63.125C88.375 61.4508 87.7099 59.8452 86.5261 58.6614C85.3423 57.4776 83.7367 56.8125 82.0625 56.8125H75.75V44.1875H82.0625ZM15.9375 15.9375H85.0625V40.875H15.9375V15.9375ZM85.0625 85.0625H15.9375V60.125H85.0625V85.0625ZM71.4375 56.8125H29.5625V44.1875H71.4375V56.8125Z" fill="#373635"/>
</svg>
