<svg width="130" height="80" viewBox="0 0 130 80" fill="none" xmlns="http://www.w3.org/2000/svg">
<g clip-path="url(#clip0_159_327)">
<path d="M122.464 50.4963C117.895 62.3288 109.305 72.6914 97.3726 77.2464C95.8207 77.8379 94.2361 78.3397 92.6266 78.7494C84.1137 80.9198 74.8006 80.1648 66.9532 76.21C63.6226 74.5301 60.5856 72.3104 57.2429 70.6547C53.9003 68.9989 50.0832 67.9152 46.445 68.7325C43.3124 69.4362 40.6695 71.4529 38.0085 73.2494C31.7354 77.4847 24.1926 80.8364 16.7644 79.3817C13.3464 78.7132 9.98063 76.8614 8.39325 73.7661C4.88474 66.923 11.5016 58.7871 10.1616 51.2191C9.30406 46.3756 5.3874 42.7485 2.95255 38.4739C-1.21443 31.1644 -0.721831 21.4501 4.16394 14.599C9.04971 7.74784 18.0693 4.11367 26.3389 5.66787C36.4221 7.56286 44.0473 16.0979 53.8531 19.1168C59.9854 21.0038 66.6435 20.4408 72.5004 17.9557C81.9633 13.9395 94.9639 7.78001 105.613 8.7833C111.276 9.31712 116.83 11.8304 120.568 16.122C125.293 21.5396 126.709 29.2312 125.921 36.3748C125.38 41.211 124.218 45.9573 122.464 50.4963Z" fill="#C8F0EC"/>
<path d="M125.504 59.8537C125.294 59.8534 125.085 59.8281 124.881 59.7783C124.236 59.6197 123.675 59.2208 123.314 58.6631C122.953 58.1053 122.819 57.4308 122.938 56.7772C123.057 56.1237 123.422 55.5403 123.957 55.1463C124.492 54.7523 125.157 54.5773 125.816 54.6571C126.476 54.7369 127.08 55.0654 127.506 55.5756C127.931 56.0858 128.146 56.7392 128.106 57.4024C128.066 58.0656 127.775 58.6886 127.291 59.1442C126.808 59.5997 126.168 59.8535 125.504 59.8537ZM125.504 55.8144C125.158 55.8157 124.825 55.9434 124.567 56.1733C124.309 56.4032 124.144 56.7195 124.103 57.0627C124.062 57.4059 124.148 57.7522 124.344 58.0365C124.541 58.3208 124.835 58.5234 125.17 58.6061C125.365 58.6528 125.567 58.6579 125.763 58.6209C125.959 58.5839 126.146 58.5058 126.31 58.3917C126.474 58.2776 126.612 58.13 126.714 57.9587C126.817 57.7874 126.883 57.5963 126.907 57.3979C126.93 57.1995 126.912 56.9983 126.852 56.8076C126.792 56.6169 126.693 56.4409 126.561 56.2914C126.428 56.1418 126.266 56.0219 126.083 55.9397C125.901 55.8575 125.704 55.8148 125.504 55.8144Z" fill="#E7F6FF"/>
<path d="M123.124 62.6196C123.272 62.0082 122.897 61.3925 122.286 61.2443C121.674 61.096 121.059 61.4714 120.91 62.0828C120.762 62.6941 121.138 63.3099 121.749 63.4581C122.36 63.6063 122.976 63.2309 123.124 62.6196Z" fill="#E7F6FF"/>
<path d="M5.54832 59.6054C4.85783 59.5903 4.20116 59.3035 3.72086 58.8072C3.24056 58.3109 2.9754 57.6452 2.98294 56.9545C2.99049 56.2639 3.27013 55.6042 3.76116 55.1185C4.25218 54.6328 4.91497 54.3604 5.60562 54.3604C6.29628 54.3604 6.95906 54.6328 7.45009 55.1185C7.94112 55.6042 8.22076 56.2639 8.2283 56.9545C8.23585 57.6452 7.97069 58.3109 7.49039 58.8072C7.01009 59.3035 6.35342 59.5903 5.66293 59.6054H5.54832ZM5.54832 55.5671H5.48901C5.11608 55.5752 4.76139 55.73 4.50194 55.998C4.2425 56.266 4.09924 56.6256 4.10328 56.9986C4.10732 57.3716 4.25832 57.7279 4.52351 57.9902C4.78869 58.2526 5.14665 58.3997 5.51967 58.3997C5.89269 58.3997 6.25065 58.2526 6.51583 57.9902C6.78102 57.7279 6.93202 57.3716 6.93606 56.9986C6.9401 56.6256 6.79684 56.266 6.5374 55.998C6.27795 55.73 5.92326 55.5752 5.55033 55.5671H5.54832Z" fill="#E7F6FF"/>
<path d="M3.67802 64.0071C4.30649 63.98 4.79399 63.4485 4.76688 62.8201C4.73977 62.1916 4.20832 61.7041 3.57984 61.7312C2.95137 61.7583 2.46387 62.2898 2.49098 62.9182C2.51809 63.5467 3.04955 64.0342 3.67802 64.0071Z" fill="#E7F6FF"/>
<path d="M71.284 17.2018C70.6581 17.2027 70.0526 16.9795 69.5771 16.5726C69.1015 16.1658 68.7873 15.6021 68.6914 14.9836C68.5954 14.3652 68.724 13.7328 69.054 13.2009C69.3839 12.6691 69.8933 12.2729 70.49 12.0842C71.0867 11.8954 71.7313 11.9265 72.3071 12.1718C72.8829 12.4171 73.3518 12.8605 73.629 13.4216C73.9062 13.9827 73.9734 14.6245 73.8184 15.2309C73.6634 15.8372 73.2964 16.3681 72.7839 16.7273C72.3443 17.0353 71.8208 17.201 71.284 17.2018ZM71.276 13.1635C70.9098 13.1631 70.5575 13.3041 70.2927 13.557C70.0279 13.8099 69.8709 14.1553 69.8544 14.5211C69.838 14.887 69.9633 15.245 70.2044 15.5207C70.4455 15.7964 70.7836 15.9684 71.1484 16.0009C71.5131 16.0334 71.8764 15.9238 72.1623 15.6951C72.4483 15.4664 72.635 15.1361 72.6835 14.7731C72.7319 14.4101 72.6385 14.0425 72.4225 13.7467C72.2065 13.451 71.8848 13.25 71.5243 13.1856C71.4423 13.171 71.3592 13.1636 71.276 13.1635Z" fill="#E7F6FF"/>
<path d="M65.9371 17.0576C66.4522 16.6964 66.5769 15.9861 66.2157 15.4711C65.8546 14.956 65.1443 14.8313 64.6292 15.1925C64.1142 15.5536 63.9894 16.264 64.3506 16.779C64.7118 17.294 65.4221 17.4188 65.9371 17.0576Z" fill="#E7F6FF"/>
<path d="M129.282 30.712C129.283 29.6068 128.845 28.5463 128.064 27.764C127.284 26.9816 126.224 26.5413 125.119 26.54C125.027 26.54 124.935 26.54 124.845 26.549C124.851 26.4586 124.854 26.3671 124.854 26.2746C124.853 25.6822 124.727 25.0967 124.483 24.557C124.239 24.0173 123.882 23.5358 123.437 23.1448C122.992 22.7537 122.469 22.4619 121.902 22.289C121.336 22.1161 120.739 22.0659 120.151 22.1418C119.564 22.2177 118.999 22.418 118.495 22.7293C117.991 23.0406 117.559 23.4558 117.229 23.9471C116.898 24.4384 116.675 24.9947 116.576 25.5787C116.477 26.1628 116.504 26.7612 116.654 27.3342C116.151 26.9689 115.571 26.721 114.959 26.6087C114.347 26.4964 113.718 26.5226 113.117 26.6854C112.517 26.8481 111.96 27.1433 111.489 27.5492C111.017 27.9551 110.642 28.4615 110.392 29.0311C110.141 29.6008 110.022 30.2193 110.042 30.8412C110.061 31.4632 110.22 32.0728 110.506 32.6253C110.793 33.1779 111.199 33.6593 111.696 34.0343C112.192 34.4093 112.766 34.6684 113.376 34.7925C113.625 35.4528 114.038 36.039 114.575 36.4963C115.112 36.9536 115.757 37.267 116.449 37.407C117.14 37.5471 117.856 37.5092 118.529 37.2971C119.202 37.0849 119.81 36.7053 120.297 36.1939C120.794 36.5695 121.369 36.8286 121.98 36.9523C122.591 37.076 123.222 37.0611 123.827 36.9087C124.431 36.7563 124.994 36.4703 125.473 36.0717C125.952 35.6731 126.336 35.1721 126.596 34.6055C127.385 34.3051 128.065 33.7719 128.545 33.0766C129.024 32.3813 129.281 31.5567 129.282 30.712Z" fill="white"/>
<path d="M19.2465 20.6892C19.2465 19.5839 18.8076 18.5239 18.0261 17.7423C17.2447 16.9607 16.1848 16.5215 15.0796 16.5212C14.9871 16.5212 14.8956 16.5212 14.8051 16.5302C14.8112 16.4398 14.8142 16.3483 14.8142 16.2558C14.8141 15.6634 14.6877 15.0779 14.4434 14.5382C14.1992 13.9985 13.8427 13.517 13.3978 13.126C12.9528 12.7349 12.4296 12.4431 11.863 12.2702C11.2964 12.0973 10.6995 12.0471 10.112 12.123C9.52449 12.1989 8.95992 12.3992 8.45592 12.7105C7.95192 13.0218 7.52007 13.437 7.18915 13.9283C6.85823 14.4196 6.63585 14.9759 6.53683 15.5599C6.43782 16.144 6.46444 16.7424 6.61492 17.3154C6.11118 16.9501 5.53203 16.7022 4.91998 16.5899C4.30794 16.4776 3.67851 16.5038 3.07791 16.6666C2.47731 16.8293 1.92077 17.1245 1.44913 17.5304C0.977489 17.9363 0.602722 18.4427 0.352329 19.0123C0.101937 19.582 -0.0177266 20.2005 0.00212086 20.8224C0.0219683 21.4444 0.180823 22.054 0.467027 22.6065C0.75323 23.1591 1.15952 23.6405 1.65608 24.0155C2.15264 24.3905 2.72687 24.6496 3.33663 24.7737C3.58582 25.4334 3.99831 26.0191 4.5355 26.4759C5.07268 26.9328 5.717 27.2459 6.40814 27.3859C7.09927 27.5259 7.81464 27.4883 8.48727 27.2765C9.15991 27.0648 9.76782 26.6858 10.2541 26.1751C10.7516 26.5507 11.327 26.8098 11.938 26.9335C12.5489 27.0572 13.1798 27.0423 13.7842 26.8899C14.3886 26.7375 14.9512 26.4515 15.4304 26.0529C15.9096 25.6543 16.2934 25.1533 16.5533 24.5867C17.3448 24.2872 18.0263 23.7539 18.5074 23.0577C18.9884 22.3615 19.2462 21.5354 19.2465 20.6892Z" fill="white"/>
<path opacity="0.04" d="M92.3069 55.8807H62.7772L33.6757 65.0933V65.2964H3.93176V75.1393H33.6757V74.9362L62.7772 65.7237H92.3069V65.6563L121.837 56.309V46.4661L92.3069 55.8134V55.8807Z" fill="#A8A8A8"/>
<path d="M15.5551 17.3857H40.942V75.4641H15.5551V17.3857Z" fill="white"/>
<path d="M115.656 58.957L90.2701 66.9924V8.91405L115.656 0.878662V58.957Z" fill="#E5E5E5"/>
<path d="M65.0662 8.91406H90.4531V66.9924H65.0662V8.91406Z" fill="white"/>
<path d="M65.2492 66.9924L39.8623 75.0288V16.9505L65.2492 8.91406V66.9924Z" fill="#E5E5E5"/>
<path d="M32.3738 39.0491H38.0356V70.8277H32.3738V39.0491Z" fill="#E8EDF7"/>
<path d="M71.1281 32.1094H67.4407V62.4273H79.5124L71.1281 32.1094Z" fill="#C0CEE2"/>
<path d="M72.412 32.1094L80.7962 62.4273H88.0786V32.1094H72.412Z" fill="#AEFFEC"/>
<path d="M112.054 6.12939L93.3745 11.8496V14.576V20.6299V21.1516L112.054 6.12939Z" fill="#AEFFEC"/>
<path d="M93.3745 22.8868V23.3211V29.8124L113.1 23.7273V14.576V7.02417L93.3745 22.8868Z" fill="#71DDC3"/>
<path d="M113.1 46.8823V45.0104V29.7911V27.0999V25.0652L93.3745 31.1493V31.9063L113.1 46.8823Z" fill="#AEFFEC"/>
<path d="M43.3325 61.3315V70.0977V70.1379L47.7136 68.7154L47.7207 68.6752L50.4601 67.7875L50.4541 67.8257L63.0576 63.7332V63.705V55.737V53.0458V41.6064L43.3325 61.3315Z" fill="#C0CEE2"/>
<path d="M63.0173 39.9206L63.0576 39.9609V37.8276V35.1364V32.6794L43.3325 38.7645V46.5757V49.2669V59.6055L63.0173 39.9206Z" fill="#C0CEE2"/>
<path d="M105.249 42.3976L93.3745 33.3821V38.5403V41.2305V46.061L105.249 42.3976Z" fill="#71DDC3"/>
<path d="M31.0961 58.9199V39.0491H17.3978V63.1452L31.0961 58.9199Z" fill="#71DDC3"/>
<path d="M17.3978 64.4831V70.8276H31.0961V60.2568L17.3978 64.4831Z" fill="#E8EDF7"/>
<path d="M112.735 11.8364H113.648V12.9322H112.735V11.8364Z" fill="white"/>
<path d="M113.648 21.6985H112.735V19.5029H113.648V21.6985ZM113.648 17.3153H112.735V15.1238H113.648V17.3153Z" fill="white"/>
<path d="M112.689 26.2455L112.074 25.5709L112.735 24.9677V24.073H113.648V25.3708L112.689 26.2455Z" fill="white"/>
<path d="M88.4435 39.597H86.255V38.6841H88.4465L88.4435 39.597ZM84.2434 39.597H82.0518V38.6841H84.2444L84.2434 39.597ZM79.8603 39.597H77.6687V38.6841H79.8603V39.597ZM90.7829 39.3959L90.5708 38.5072L92.6889 38.0005L92.901 38.8892L90.7829 39.3959ZM95.0232 38.3826L94.8101 37.4979L96.9303 36.9952L97.1424 37.8839L95.0232 38.3826ZM99.2636 37.3692L99.0515 36.4805L100.368 36.1659L100.805 35.7637L101.42 36.4383L100.81 36.9952L99.2636 37.3692ZM103.029 34.9726L102.414 34.298L104.023 32.8283L104.638 33.5028L103.029 34.9726ZM106.246 32.0321L105.631 31.3575L107.24 29.8877L107.855 30.5623L106.246 32.0321ZM109.463 29.0926L108.848 28.418L110.457 26.9482L111.072 27.6228L109.463 29.0926Z" fill="white"/>
<path d="M74.2778 40.3237L73.4685 39.9005L74.1039 38.6841H75.4761V39.5969H74.6568L74.2778 40.3237Z" fill="white"/>
<path d="M70.8427 46.7143L70.0334 46.2921L70.8799 44.6715L71.6892 45.0937L70.8427 46.7143ZM72.5356 43.4732L71.7264 43.051L72.5728 41.4304L73.3821 41.8526L72.5356 43.4732Z" fill="white"/>
<path d="M69.0905 50.069L68.1626 48.3459L68.9668 47.9126L69.0784 48.1197L69.187 47.9116L69.9963 48.3338L69.0905 50.069Z" fill="white"/>
<path d="M66.2987 44.8826L67.1024 44.4498L68.0346 46.1812L67.2309 46.6139L66.2987 44.8826Z" fill="white"/>
<path d="M65.3668 43.1527L65.021 42.5123L64.3213 42.7124L64.0699 41.8348L65.4764 41.4316L66.17 42.7204L65.3668 43.1527Z" fill="white"/>
<path d="M40.4625 49.6418H40.0443V48.7289H40.3338L41.9423 48.2675L42.1936 49.1451L40.4625 49.6418ZM37.8487 49.6418H35.8381V48.7289H37.8487V49.6418ZM33.6485 49.6418H31.6379V48.7289H33.6485V49.6418ZM29.6273 49.6418H27.6167V48.7289H29.6273V49.6418ZM25.4272 49.6418H23.4236V48.7289H25.4342L25.4272 49.6418ZM44.2102 48.4776L43.9579 47.6L45.9685 47.0229L46.2208 47.9006L44.2102 48.4776ZM48.2314 47.3245L47.9801 46.4469L49.9907 45.8709L50.242 46.7485L48.2314 47.3245ZM52.2527 46.1715L52.0013 45.2938L54.0119 44.7178L54.2633 45.5954L52.2527 46.1715ZM56.2739 45.0184L56.0225 44.1407L58.0331 43.5647L58.2845 44.4423L56.2739 45.0184ZM60.2951 43.8653L60.0438 42.9877L62.0544 42.4116L62.3057 43.2892L60.2951 43.8653Z" fill="white"/>
<path d="M20.5032 50.1898H19.5894V48.5461H21.233V49.46H20.5032V50.1898Z" fill="white"/>
<path d="M19.7723 52.9302H20.6852V55.6696H19.7723V52.9302Z" fill="white"/>
<path d="M19.7723 58.5911H20.6852V59.6868H19.7723V58.5911Z" fill="white"/>
<path d="M24.8862 21.3335H38.0356V37.7712H24.8862V21.3335Z" fill="#E8EDF7"/>
<path d="M17.3978 21.3335H23.6076V37.7712H17.3978V21.3335Z" fill="#71DDC3"/>
<path d="M106.502 43.3486L97.7426 46.0509L103.691 58.7519L113.1 55.6968V55.6696V48.3581L106.502 43.3486Z" fill="#71DDC3"/>
<path d="M102.465 59.15L96.509 46.4319L93.3745 47.399V62.0613V62.1025L97.7556 60.68L97.7627 60.6398L100.502 59.7521L100.496 59.7893L102.465 59.15Z" fill="#AEFFEC"/>
<path d="M15.5963 75.5476L14.3899 75.5436L14.4201 66.7733V16.4951H39.7688L64.9677 8.51801L68.3153 8.4587H90.1766L116.259 0.202148V13.6873H115.053V1.84984L90.3636 9.66506H68.3214L65.1647 9.72136L39.9557 17.7015H15.6264V66.7753L15.5963 75.5476Z" fill="#426572"/>
<path d="M40.4453 75.7797H15.0232V74.5733H40.3749L40.5026 74.5583L65.1526 66.5369H90.4139L90.7627 66.4917L115.053 58.6654V28.4641H116.259V59.5441L91.0281 67.6739L90.4913 67.7433H65.3446L40.761 75.7425L40.4453 75.7797Z" fill="#426572"/>
<path d="M115.053 23.5391H116.259V25.801H115.053V23.5391Z" fill="#426572"/>
<path d="M115.053 15.9824H116.259V22.0806H115.053V15.9824Z" fill="#426572"/>
<path opacity="0.2" d="M67.1542 2.36849C52.0425 2.33632 42.6249 11.8455 42.5967 26.8205C42.5867 31.4449 45.0215 38.669 49.2237 47.391C51.1217 51.0714 53.4258 55.16 55.8697 59.2536C58.8535 64.2962 62.1086 69.3408 65.3678 73.9752L66.9964 76.1587C67.5423 75.4771 68.0882 74.7986 68.6341 73.9822C71.9123 69.2252 75.1896 64.3313 78.1955 59.3048C80.6565 55.2253 82.843 51.1468 84.7561 47.4734C89.1322 38.7705 91.5972 31.5595 91.6072 26.9321C91.6384 12.3592 81.8578 2.40066 67.1542 2.36849ZM67.0688 41.8467C58.0834 41.8276 50.7477 34.4618 50.7678 25.4754C50.7879 16.489 58.1548 9.15529 67.1402 9.17439C76.1256 9.19349 83.4613 16.5614 83.4402 25.5457C83.419 34.5301 76.0552 41.8668 67.0698 41.8477L67.0688 41.8467Z" fill="#8DA3B2"/>
<path d="M79.6894 23.5542C79.6703 32.5426 72.3024 39.8763 63.317 39.8562C55.535 39.8391 48.9895 34.312 47.391 26.9883C47.2269 26.049 47.1458 25.0969 47.1488 24.1433C47.1658 15.1599 54.5337 7.82325 63.5181 7.84134C71.2881 7.85843 77.8256 13.3705 79.4391 20.672C79.4384 20.676 79.4384 20.6801 79.4391 20.6841C79.6075 21.6315 79.6912 22.592 79.6894 23.5542Z" fill="white"/>
<path d="M63.5653 0.583094C48.4556 0.549919 39.0399 10.0601 39.0058 25.0321C38.9957 29.6565 41.4306 36.8806 45.6327 45.6026C47.5307 49.283 49.8349 53.3716 52.2788 57.4651C55.2625 62.5077 58.5177 67.5524 61.7769 72.1868L63.4055 74.3703C63.9514 73.6887 64.4972 73.0101 65.0431 72.1938C68.3214 67.4367 71.5987 62.5429 74.6045 57.5164C77.0655 53.4369 79.2521 49.3584 81.1651 45.685C85.5412 36.9821 88.0062 29.7711 88.0163 25.1437C88.0485 10.5738 78.2689 0.614259 63.5653 0.583094ZM63.4799 40.0613C54.4955 40.0422 47.1598 32.6724 47.1789 23.69C47.198 14.7076 54.5658 7.36889 63.5502 7.38799C72.5346 7.40709 79.8713 14.778 79.8522 23.7604C79.8331 32.7427 72.4653 40.0814 63.4799 40.0613Z" fill="#71DDC3"/>
<path d="M80.2232 47.8525C78.5423 51.0383 76.6684 54.4674 74.5995 57.8965C71.5957 62.923 68.3174 67.8198 65.0391 72.5739C64.4932 73.3902 63.9473 74.0688 63.4004 74.7504L61.7718 72.5669C58.5147 67.9324 55.2575 62.8878 52.2747 57.8462C49.8309 53.7547 47.5267 49.6661 45.6287 45.9837C41.4265 37.2617 38.9937 30.0406 39.0017 25.4132C39.0148 19.2336 40.6263 13.9859 43.5759 9.95361C42.4077 12.9947 41.7894 16.4589 41.7804 20.2781C41.7703 24.9025 44.2052 32.1276 48.4073 40.8486C50.3054 44.529 52.6095 48.6176 55.0534 52.7112C58.0361 57.7527 61.2923 62.7974 64.5505 67.4318L66.1791 69.6153C66.726 68.9337 67.2718 68.2551 67.8177 67.4388C71.095 62.6828 74.3733 57.7879 77.3782 52.7614C78.3724 51.1178 79.3184 49.4721 80.2232 47.8525Z" fill="#00CFA3"/>
<path d="M63.3824 75.641L61.1979 72.7125C57.9377 68.0751 54.6433 62.9682 51.6706 57.9436C49.1222 53.6832 46.817 49.5614 45.0044 46.0489L44.9964 46.0318C40.5429 36.7891 38.29 29.765 38.3001 25.1547C38.3162 17.6008 40.6786 11.2554 45.1301 6.80389C49.5816 2.35241 55.9291 0 63.4839 0H63.5623C70.9523 0.0160848 77.2626 2.44892 81.8116 7.03712C84.0578 9.31502 85.8014 12.0387 86.9296 15.0323C88.1229 18.1487 88.7241 21.5909 88.716 25.2633C88.706 29.9148 86.3113 37.1258 81.7895 46.1193V46.1283C80.0865 49.3976 77.7994 53.7003 75.2078 57.9979C71.9968 63.3723 68.5607 68.4531 65.6232 72.7146C65.0723 73.5369 64.5174 74.2326 63.9755 74.9051L63.3824 75.641ZM62.3439 71.8952L63.4206 73.3389C63.7694 72.8935 64.1112 72.4341 64.456 71.9244C67.3855 67.674 70.8055 62.6163 73.9974 57.2741C76.5689 53.0106 78.8419 48.7341 80.5318 45.4839C84.9552 36.6875 87.2965 29.6946 87.3066 25.2613C87.3217 18.2885 85.0748 12.329 80.8103 8.02835C76.5328 3.71158 70.5663 1.4225 63.5593 1.40742H63.4839C56.3101 1.40742 50.3084 3.61909 46.1244 7.79914C41.9403 11.9792 39.7226 17.9839 39.7095 25.1577C39.7005 29.4906 41.9664 36.4945 46.2621 45.4125C48.0606 48.9009 50.3496 52.9855 52.882 57.2249C55.8336 62.2172 59.1058 67.2889 62.3439 71.8952ZM63.5121 40.8867H63.4749C60.1043 40.8835 56.8105 39.8797 54.011 38.0024C51.2116 36.1251 49.0326 33.4589 47.7501 30.3418C46.4677 27.2247 46.1396 23.797 46.8075 20.4932C47.4754 17.1895 49.1092 14.1584 51.5017 11.7842C53.0762 10.2036 54.9478 8.95011 57.0087 8.09574C59.0696 7.24137 61.2791 6.80301 63.5101 6.8059H63.5473C66.9177 6.80926 70.2112 7.81317 73.0104 9.6904C75.8096 11.5676 77.9885 14.2336 79.2709 17.3506C80.5533 20.4675 80.8814 23.8949 80.2137 27.1985C79.5461 30.5021 77.9126 33.5332 75.5204 35.9074C73.946 37.4881 72.0744 38.7418 70.0135 39.5964C67.9527 40.4509 65.7431 40.8894 63.5121 40.8867ZM63.5121 8.21433C59.3966 8.25643 55.4638 9.91971 52.5669 12.8432C49.6701 15.7668 48.0429 19.7147 48.0385 23.8304C48.0342 27.9461 49.6529 31.8974 52.5436 34.8271C55.4342 37.7568 59.3635 39.4284 63.4789 39.4792H63.5131C67.6285 39.4371 71.5614 37.7739 74.4582 34.8503C77.3551 31.9268 78.9822 27.9789 78.9866 23.8632C78.991 19.7475 77.3722 15.7961 74.4816 12.8665C71.5909 9.93678 67.6616 8.26517 63.5462 8.21433H63.5121Z" fill="#426572"/>
<path d="M95.924 80H35.9576V78.6931H95.924C96.0973 78.6931 96.2635 78.762 96.386 78.8845C96.5086 79.007 96.5774 79.1733 96.5774 79.3466C96.5774 79.5199 96.5086 79.6861 96.386 79.8086C96.2635 79.9312 96.0973 80 95.924 80Z" fill="#426572"/>
<path d="M33.2755 80H29.6091C29.4358 80 29.2696 79.9312 29.1471 79.8086C29.0245 79.6861 28.9557 79.5199 28.9557 79.3466C28.9557 79.1733 29.0245 79.007 29.1471 78.8845C29.2696 78.762 29.4358 78.6931 29.6091 78.6931H33.2755C33.4488 78.6931 33.615 78.762 33.7375 78.8845C33.8601 79.007 33.9289 79.1733 33.9289 79.3466C33.9289 79.5199 33.8601 79.6861 33.7375 79.8086C33.615 79.9312 33.4488 80 33.2755 80Z" fill="#426572"/>
<path d="M27.2297 80H26.0615C25.8882 80 25.722 79.9312 25.5995 79.8086C25.4769 79.6861 25.4081 79.5199 25.4081 79.3466C25.4081 79.1733 25.4769 79.007 25.5995 78.8845C25.722 78.762 25.8882 78.6931 26.0615 78.6931H27.2297C27.403 78.6931 27.5692 78.762 27.6917 78.8845C27.8143 79.007 27.8831 79.1733 27.8831 79.3466C27.8831 79.5199 27.8143 79.6861 27.6917 79.8086C27.5692 79.9312 27.403 80 27.2297 80Z" fill="#426572"/>
<path d="M116.951 80H98.5197V78.6931H116.951C117.124 78.6931 117.29 78.762 117.413 78.8845C117.535 79.007 117.604 79.1733 117.604 79.3466C117.604 79.5199 117.535 79.6861 117.413 79.8086C117.29 79.9312 117.124 80 116.951 80Z" fill="#426572"/>
<path d="M22.7198 80H4.2876V78.6931H22.7198C22.8931 78.6931 23.0593 78.762 23.1819 78.8845C23.3044 79.007 23.3733 79.1733 23.3733 79.3466C23.3733 79.5199 23.3044 79.6861 23.1819 79.8086C23.0593 79.9312 22.8931 80 22.7198 80Z" fill="#426572"/>
<path d="M77.1147 8.82053C80.6252 12.0787 83.054 16.2859 84.0242 20.9897C84.3708 22.7176 84.5412 24.4761 84.5328 26.2384C84.5328 27.0145 85.7392 27.0155 85.7392 26.2384C85.7332 20.5806 84.0222 15.1067 80.4805 10.6643C79.7111 9.70316 78.871 8.8009 77.9672 7.96501C77.3992 7.43723 76.5437 8.28872 77.1137 8.81852L77.1147 8.82053Z" fill="white"/>
<path d="M70.7984 4.60036L70.8688 4.62952C70.6758 4.55211 70.9693 4.67476 71.0136 4.69486C71.3081 4.82857 71.5976 4.97233 71.8841 5.12111C72.873 5.64269 73.8255 6.23045 74.7352 6.88039C75.3695 7.32976 75.9737 6.28425 75.3444 5.8389C74.0305 4.90799 72.623 4.02935 71.1221 3.43723C70.4003 3.15172 70.0867 4.31787 70.8014 4.60036H70.7984Z" fill="white"/>
</g>
<defs>
<clipPath id="clip0_159_327">
<rect width="129.286" height="80" fill="white"/>
</clipPath>
</defs>
</svg>
