<svg width="104" height="104" viewBox="0 0 104 104" fill="none" xmlns="http://www.w3.org/2000/svg">
<path d="M82.2817 2H21.7183C10.8282 2 2 10.8282 2 21.7183V82.2817C2 93.1718 10.8282 102 21.7183 102H82.2817C93.1718 102 102 93.1718 102 82.2817V21.7183C102 10.8282 93.1718 2 82.2817 2Z" fill="white" stroke="#373737" stroke-width="3.86915"/>
<path d="M25.5365 79.7985L23.5338 79.1309L30.8594 57.1496L28.6517 28.451L56.0309 35.0225L73.6094 23.6489L74.7567 25.4215L56.4196 37.2873L30.9819 31.1828L32.9996 57.4137L32.9309 57.6154L25.5365 79.7985Z" fill="#71DDC3"/>
<path d="M79.5587 37.2178L79.3675 39.3218L56.1286 37.2101L56.3198 35.106L79.5587 37.2178Z" fill="#71DDC3"/>
<path d="M40.325 79.136L38.3217 79.8037L30.9266 57.616L32.9298 56.9483L40.325 79.136Z" fill="#71DDC3"/>
<path d="M49.3146 70.1361L44.6298 49.0601L46.6938 48.6016L50.4596 65.5537L61.7615 52.3685L63.3649 53.7439L49.3146 70.1361Z" fill="#71DDC3"/>
<path d="M74.4542 73.1667L73.921 75.2109L49.6259 68.8735L50.1591 66.8293L74.4542 73.1667Z" fill="#71DDC3"/>
<path d="M29.8169 38.2677C34.4841 38.2677 38.2676 34.4842 38.2676 29.817C38.2676 25.1497 34.4841 21.3662 29.8169 21.3662C25.1497 21.3662 21.3661 25.1497 21.3661 29.817C21.3661 34.4842 25.1497 38.2677 29.8169 38.2677Z" fill="#AEFFEC"/>
<path d="M34.6391 22.8821C37.3053 26.7092 36.363 31.9729 32.5359 34.6391C29.6352 36.6599 25.7827 36.6599 22.8821 34.6391C25.5366 38.4778 30.8004 39.4381 34.6391 36.7845C38.4778 34.131 39.4381 28.8662 36.7845 25.0275C36.2046 24.1887 35.4778 23.4619 34.6391 22.8821Z" fill="#0FE8B4"/>
<path d="M74.1831 82.6337C78.8503 82.6337 82.6339 78.8501 82.6339 74.1829C82.6339 69.5157 78.8503 65.7322 74.1831 65.7322C69.5159 65.7322 65.7324 69.5157 65.7324 74.1829C65.7324 78.8501 69.5159 82.6337 74.1831 82.6337Z" fill="#4CF8CF"/>
<path d="M79.0053 67.2483C81.6715 71.0754 80.7292 76.3392 76.9022 79.0053C74.0014 81.0261 70.1489 81.0261 67.2483 79.0053C69.9028 82.844 75.1666 83.8043 79.0053 81.1507C82.844 78.4972 83.8043 73.2324 81.1507 69.3937C80.5708 68.5549 79.844 67.8281 79.0053 67.2483Z" fill="#0FE8B4"/>
<path d="M49.8872 73.1267C52.8042 73.1267 55.1689 70.762 55.1689 67.845C55.1689 64.9279 52.8042 62.5632 49.8872 62.5632C46.9702 62.5632 44.6055 64.9279 44.6055 67.845C44.6055 70.762 46.9702 73.1267 49.8872 73.1267Z" fill="#74FADA"/>
<path d="M53.0436 63.6323C54.7992 65.9468 54.3461 69.2457 52.0328 71.0014C50.1535 72.4275 47.5539 72.4275 45.6747 71.0014C47.4102 73.3359 50.7092 73.8218 53.0438 72.0873C55.3783 70.3518 55.8642 67.0528 54.1296 64.7182C53.8221 64.3052 53.4566 63.9387 53.0436 63.6323Z" fill="#3596D8"/>
<path d="M31.9296 62.5635C34.8466 62.5635 37.2113 60.1987 37.2113 57.2817C37.2113 54.3647 34.8466 52 31.9296 52C29.0125 52 26.6478 54.3647 26.6478 57.2817C26.6478 60.1987 29.0125 62.5635 31.9296 62.5635Z" fill="#74FADA"/>
<path d="M35.0859 53.0691C36.8415 55.3836 36.3884 58.6825 34.075 60.4382C32.1958 61.8642 29.5962 61.8642 27.7169 60.4382C29.4524 62.7727 32.7514 63.2586 35.086 61.524C37.4205 59.7885 37.9064 56.4895 36.1719 54.155C35.8644 53.7419 35.499 53.3753 35.0859 53.0691Z" fill="#3596D8"/>
<path d="M56.2252 41.4368C59.1422 41.4368 61.5069 39.072 61.5069 36.155C61.5069 33.238 59.1422 30.8733 56.2252 30.8733C53.3082 30.8733 50.9435 33.238 50.9435 36.155C50.9435 39.072 53.3082 41.4368 56.2252 41.4368Z" fill="#74FADA"/>
<path d="M59.3816 31.9424C61.1372 34.2569 60.6842 37.5557 58.3708 39.3115C56.4915 40.7375 53.8919 40.7375 52.0127 39.3115C53.7482 41.646 57.0472 42.1319 59.3818 40.3973C61.7163 38.6618 62.2022 35.3628 60.4677 33.0283C60.1602 32.6153 59.7946 32.2488 59.3816 31.9424Z" fill="#3596D8"/>
<path d="M24.5352 82.6339C26.2854 82.6339 27.7042 81.2151 27.7042 79.4649C27.7042 77.7147 26.2854 76.2959 24.5352 76.2959C22.785 76.2959 21.3661 77.7147 21.3661 79.4649C21.3661 81.2151 22.785 82.6339 24.5352 82.6339Z" fill="#4CF8CF"/>
<path d="M26.1767 76.7671C26.4831 77.2604 26.6458 77.8287 26.6479 78.4087C26.6479 80.159 25.2292 81.5777 23.4789 81.5777C22.8989 81.5756 22.3306 81.4129 21.8373 81.1065C22.7393 82.6002 24.6831 83.0797 26.1767 82.1777C27.6704 81.2756 28.1499 79.3319 27.2479 77.8382C26.9827 77.3998 26.6151 77.0321 26.1767 76.7671Z" fill="#163768"/>
<path d="M39.3239 82.6339C41.0741 82.6339 42.4929 81.2151 42.4929 79.4649C42.4929 77.7147 41.0741 76.2959 39.3239 76.2959C37.5737 76.2959 36.1548 77.7147 36.1548 79.4649C36.1548 81.2151 37.5737 82.6339 39.3239 82.6339Z" fill="#4CF8CF"/>
<path d="M40.9655 76.7671C41.2719 77.2604 41.4346 77.8287 41.4367 78.4087C41.4367 80.159 40.0181 81.5777 38.2677 81.5777C37.6877 81.5756 37.1194 81.4129 36.6261 81.1065C37.5282 82.6002 39.4719 83.0797 40.9655 82.1777C42.4592 81.2756 42.9387 79.3319 42.0367 77.8382C41.7715 77.3998 41.4039 77.0321 40.9655 76.7671Z" fill="#163768"/>
<path d="M45.6619 52.0001C47.4121 52.0001 48.8309 50.5813 48.8309 48.8311C48.8309 47.0809 47.4121 45.6621 45.6619 45.6621C43.9117 45.6621 42.4929 47.0809 42.4929 48.8311C42.4929 50.5813 43.9117 52.0001 45.6619 52.0001Z" fill="#4CF8CF"/>
<path d="M47.3036 46.1331C47.6099 46.6264 47.7726 47.1947 47.7747 47.7746C47.7747 49.525 46.3561 50.9436 44.6057 50.9436C44.0257 50.9415 43.4574 50.7789 42.9641 50.4725C43.8662 51.9661 45.8099 52.4457 47.3036 51.5437C48.7972 50.6416 49.2768 48.6979 48.3747 47.2042C48.1096 46.7657 47.7419 46.3982 47.3036 46.1331Z" fill="#163768"/>
<path d="M62.5634 56.2255C64.3136 56.2255 65.7324 54.8067 65.7324 53.0565C65.7324 51.3063 64.3136 49.8875 62.5634 49.8875C60.8132 49.8875 59.3943 51.3063 59.3943 53.0565C59.3943 54.8067 60.8132 56.2255 62.5634 56.2255Z" fill="#4CF8CF"/>
<path d="M64.2048 50.3584C64.5112 50.8517 64.6738 51.42 64.6759 52C64.6759 53.7504 63.2573 55.169 61.5069 55.169C60.927 55.1669 60.3587 55.0042 59.8654 54.6978C60.7674 56.1915 62.7112 56.6711 64.2048 55.769C65.6984 54.8669 66.178 52.9232 65.276 51.4295C65.0108 50.9912 64.6431 50.6236 64.2048 50.3584Z" fill="#163768"/>
<path d="M79.4647 41.4367C81.2149 41.4367 82.6337 40.0178 82.6337 38.2676C82.6337 36.5174 81.2149 35.0986 79.4647 35.0986C77.7145 35.0986 76.2957 36.5174 76.2957 38.2676C76.2957 40.0178 77.7145 41.4367 79.4647 41.4367Z" fill="#4CF8CF"/>
<path d="M81.1064 35.5698C81.4128 36.0631 81.5754 36.6314 81.5776 37.2114C81.5776 38.9618 80.1589 40.3804 78.4085 40.3804C77.8286 40.3783 77.2603 40.2156 76.767 39.9093C77.669 41.4029 79.6128 41.8825 81.1064 40.9804C82.6001 40.0784 83.0796 38.1346 82.1776 36.641C81.9123 36.2025 81.5448 35.8349 81.1064 35.5698Z" fill="#163768"/>
<path d="M74.1831 27.7042C75.9332 27.7042 77.3521 26.2854 77.3521 24.5352C77.3521 22.785 75.9332 21.3662 74.1831 21.3662C72.4329 21.3662 71.014 22.785 71.014 24.5352C71.014 26.2854 72.4329 27.7042 74.1831 27.7042Z" fill="#4CF8CF"/>
<path d="M75.8246 21.8372C76.131 22.3305 76.2937 22.8988 76.2958 23.4787C76.2958 25.2291 74.8771 26.6477 73.1267 26.6477C72.5468 26.6456 71.9785 26.483 71.4852 26.1766C72.3872 27.6702 74.331 28.1498 75.8246 27.2478C77.3183 26.3457 77.7978 24.402 76.8958 22.9083C76.6306 22.47 76.263 22.1023 75.8246 21.8372Z" fill="#163768"/>
<path d="M29.8169 39.3239C24.5658 39.3239 20.3098 35.0679 20.3098 29.8169C20.3098 24.5658 24.5658 20.3098 29.8169 20.3098C35.0679 20.3098 39.3239 24.5658 39.3239 29.8169C39.3176 35.0648 35.0648 39.3176 29.8169 39.3239ZM29.8169 22.4225C25.733 22.4225 22.4225 25.733 22.4225 29.8169C22.4225 33.9007 25.733 37.2112 29.8169 37.2112C33.9007 37.2112 37.2112 33.9007 37.2112 29.8169C37.207 25.7351 33.8986 22.4267 29.8169 22.4225Z" fill="#4CF8CF"/>
<path d="M74.183 28.7606C71.8496 28.7606 69.9577 26.8687 69.9577 24.5352C69.9577 22.2018 71.8496 20.3098 74.183 20.3098C76.5164 20.3098 78.4083 22.2017 78.4083 24.5351C78.4083 26.8686 76.5164 28.7606 74.183 28.7606ZM74.183 22.4225C73.0158 22.4225 72.0703 23.3679 72.0703 24.5352C72.0703 25.7026 73.0158 26.6478 74.183 26.6478C75.3502 26.6478 76.2957 25.7025 76.2957 24.5351C76.2957 23.3678 75.3502 22.4225 74.183 22.4225Z" fill="black"/>
<path d="M56.2253 42.4929C52.7246 42.4929 49.8873 39.6556 49.8873 36.1549C49.8873 32.6543 52.7246 29.8169 56.2253 29.8169C59.7259 29.8169 62.5633 32.6543 62.5633 36.1549C62.5602 39.6535 59.724 42.4897 56.2253 42.4929ZM56.2253 31.9296C53.8919 31.9296 52 33.8215 52 36.1549C52 38.4884 53.8919 40.3802 56.2253 40.3802C58.5587 40.3802 60.4506 38.4884 60.4506 36.1549C60.4506 33.8215 58.5587 31.9296 56.2253 31.9296Z" fill="#71DDC3"/>
<path d="M79.4648 42.4929C77.1314 42.4929 75.2395 40.601 75.2395 38.2675C75.2395 35.9341 77.1314 34.0422 79.4648 34.0422C81.7983 34.0422 83.6901 35.9341 83.6901 38.2675C83.6901 40.601 81.7983 42.4929 79.4648 42.4929ZM79.4648 36.1548C78.2976 36.1548 77.3521 37.1002 77.3521 38.2675C77.3521 39.4348 78.2975 40.3803 79.4648 40.3803C80.632 40.3803 81.5775 39.4349 81.5775 38.2675C81.5774 37.1002 80.632 36.1548 79.4648 36.1548Z" fill="black"/>
<path d="M74.1831 83.6899C68.932 83.6899 64.676 79.4339 64.676 74.1828C64.676 68.9318 68.932 64.6758 74.1831 64.6758C79.4341 64.6758 83.6901 68.9318 83.6901 74.1828C83.6838 79.4308 79.431 83.6836 74.1831 83.6899ZM74.1831 66.7885C70.0992 66.7885 66.7887 70.099 66.7887 74.1828C66.7887 78.2666 70.0992 81.5771 74.1831 81.5771C78.2669 81.5771 81.5774 78.2666 81.5774 74.1828C81.5732 70.1011 78.2648 66.7927 74.1831 66.7885Z" fill="black"/>
<path d="M31.9295 63.6197C28.4289 63.6197 25.5915 60.7823 25.5915 57.2816C25.5915 53.781 28.4289 50.9436 31.9295 50.9436C35.4302 50.9436 38.2675 53.781 38.2675 57.2816C38.2643 60.7802 35.4281 63.6164 31.9295 63.6197ZM31.9295 53.0562C29.5961 53.0562 27.7042 54.9481 27.7042 57.2815C27.7042 59.6149 29.5961 61.5069 31.9295 61.5069C34.263 61.5069 36.1548 59.6151 36.1548 57.2816C36.1548 54.9482 34.263 53.0562 31.9295 53.0562Z" fill="#71DDC3"/>
<path d="M24.5351 83.6901C22.2017 83.6901 20.3098 81.7983 20.3098 79.4648C20.3098 77.1314 22.2017 75.2395 24.5351 75.2395C26.8686 75.2395 28.7604 77.1314 28.7604 79.4648C28.7604 81.7983 26.8686 83.6901 24.5351 83.6901ZM24.5351 77.3521C23.3679 77.3521 22.4224 78.2975 22.4224 79.4648C22.4224 80.632 23.3678 81.5775 24.5351 81.5775C25.7025 81.5775 26.6478 80.632 26.6478 79.4648C26.6478 78.2975 25.7025 77.3521 24.5351 77.3521Z" fill="black"/>
<path d="M49.8873 74.1829C46.3866 74.1829 43.5493 71.3455 43.5493 67.8449C43.5493 64.3442 46.3866 61.5068 49.8873 61.5068C53.3879 61.5068 56.2253 64.3442 56.2253 67.8449C56.2222 71.3434 53.3859 74.1797 49.8873 74.1829ZM49.8873 63.6196C47.5538 63.6196 45.662 65.5114 45.662 67.8449C45.662 70.1783 47.5538 72.0702 49.8873 72.0702C52.2207 72.0702 54.1127 70.1783 54.1127 67.8449C54.1127 65.5114 52.2207 63.6196 49.8873 63.6196Z" fill="black"/>
<path d="M45.6618 53.0563C43.3284 53.0563 41.4365 51.1645 41.4365 48.831C41.4365 46.4976 43.3284 44.6057 45.6618 44.6057C47.9953 44.6057 49.8871 46.4976 49.8871 48.831C49.8871 51.1645 47.9953 53.0563 45.6618 53.0563ZM45.6618 46.7183C44.4946 46.7183 43.5491 47.6637 43.5491 48.831C43.5491 49.9982 44.4945 50.9437 45.6618 50.9437C46.829 50.9437 47.7746 49.9984 47.7746 48.831C47.7746 47.6638 46.829 46.7183 45.6618 46.7183Z" fill="black"/>
<path d="M62.5633 57.2817C60.2299 57.2817 58.338 55.3898 58.338 53.0564C58.338 50.7229 60.2299 48.8311 62.5633 48.8311C64.8968 48.8311 66.7886 50.7229 66.7886 53.0564C66.7886 55.3898 64.8968 57.2817 62.5633 57.2817ZM62.5633 50.9436C61.3961 50.9436 60.4506 51.889 60.4506 53.0564C60.4506 54.2236 61.396 55.1691 62.5633 55.1691C63.7305 55.1691 64.676 54.2237 64.676 53.0564C64.676 51.889 63.7307 50.9436 62.5633 50.9436Z" fill="#71DDC3"/>
<path d="M39.3238 83.6901C36.9904 83.6901 35.0985 81.7983 35.0985 79.4648C35.0985 77.1314 36.9904 75.2395 39.3238 75.2395C41.6573 75.2395 43.5491 77.1314 43.5491 79.4648C43.5491 81.7983 41.6573 83.6901 39.3238 83.6901ZM39.3238 77.3521C38.1566 77.3521 37.2111 78.2975 37.2111 79.4648C37.2111 80.632 38.1565 81.5775 39.3238 81.5775C40.491 81.5775 41.4365 80.6322 41.4365 79.4648C41.4365 78.2975 40.491 77.3521 39.3238 77.3521Z" fill="black"/>
</svg>
