<svg width="100" height="100" viewBox="0 0 100 100" fill="none" xmlns="http://www.w3.org/2000/svg">
<g clip-path="url(#clip0_159_304)">
<path d="M36.2222 18.7026L5.66669 36.2084V74.4029L36.2222 91.9087V18.7026Z" fill="#71DDC3"/>
<path d="M41.7778 18.7026L72.3333 36.2084V74.4029L41.7778 91.9087V18.7026Z" fill="#C4F4EA"/>
<path d="M14 43.1666L20.9444 39.3333L27.8889 43.1666V71.2777L20.9444 67.4444L14 71.2777V43.1666Z" fill="#DBFFF6"/>
<path d="M5.66666 36.2084L4.97624 35.0033C4.5443 35.2508 4.27777 35.7105 4.27777 36.2084H5.66666ZM36.2222 18.7026H37.6111C37.6111 18.2072 37.3472 17.7494 36.9186 17.501C36.4901 17.2526 35.9617 17.2512 35.5318 17.4975L36.2222 18.7026ZM5.66666 74.4028H4.27777C4.27777 74.9008 4.5443 75.3605 4.97624 75.608L5.66666 74.4028ZM36.2222 91.9087L35.5318 93.1138C35.9617 93.3601 36.4901 93.3587 36.9186 93.1103C37.3472 92.8619 37.6111 92.404 37.6111 91.9087H36.2222ZM72.3333 74.4028L73.0237 75.608C73.4557 75.3605 73.7222 74.9008 73.7222 74.4028H72.3333ZM41.7778 91.9087H40.3889C40.3889 92.404 40.6528 92.8619 41.0814 93.1103C41.5099 93.3587 42.0383 93.3601 42.4682 93.1138L41.7778 91.9087ZM72.3333 36.2084H73.7222C73.7222 35.7105 73.4557 35.2508 73.0237 35.0033L72.3333 36.2084ZM41.7778 18.7026L42.4682 17.4975C42.0383 17.2512 41.5099 17.2526 41.0814 17.501C40.6528 17.7494 40.3889 18.2072 40.3889 18.7026H41.7778ZM6.35708 37.4135L36.9126 19.9077L35.5318 17.4975L4.97624 35.0033L6.35708 37.4135ZM7.05555 74.4028V36.2084H4.27777V74.4028H7.05555ZM36.9126 90.7035L6.35708 73.1977L4.97624 75.608L35.5318 93.1138L36.9126 90.7035ZM37.6111 91.9087V18.7026H34.8333V91.9087H37.6111ZM71.6429 73.1977L41.0874 90.7035L42.4682 93.1138L73.0237 75.608L71.6429 73.1977ZM70.9444 36.2084V74.4028H73.7222V36.2084H70.9444ZM41.0874 19.9077L71.6429 37.4135L73.0237 35.0033L42.4682 17.4975L41.0874 19.9077ZM40.3889 18.7026V91.9087H43.1667V18.7026H40.3889Z" fill="black"/>
<path d="M14 43.1666L20.9444 39.3333L27.8889 43.1666V71.2777L20.9444 67.4444L14 71.2777V43.1666Z" stroke="black" stroke-width="2" stroke-linejoin="round"/>
<path d="M32.0556 28.2983C26.2617 28.9389 21.6612 33.5393 21.0207 39.3332" stroke="black" stroke-width="2" stroke-linecap="round"/>
<path d="M54.2778 47.6666C55.8119 47.6666 57.0556 46.423 57.0556 44.8889C57.0556 43.3547 55.8119 42.1111 54.2778 42.1111C52.7437 42.1111 51.5 43.3547 51.5 44.8889C51.5 46.423 52.7437 47.6666 54.2778 47.6666Z" stroke="black" stroke-width="2"/>
<path d="M54.2778 67.111C55.8119 67.111 57.0556 65.8673 57.0556 64.3332C57.0556 62.7991 55.8119 61.5554 54.2778 61.5554C52.7437 61.5554 51.5 62.7991 51.5 64.3332C51.5 65.8673 52.7437 67.111 54.2778 67.111Z" stroke="black" stroke-width="2"/>
<path d="M54.2778 36.5556C55.8119 36.5556 57.0556 35.3119 57.0556 33.7778C57.0556 32.2437 55.8119 31 54.2778 31C52.7437 31 51.5 32.2437 51.5 33.7778C51.5 35.3119 52.7437 36.5556 54.2778 36.5556Z" stroke="black" stroke-width="2"/>
<path d="M65.3889 65.7221C66.923 65.7221 68.1666 64.4784 68.1666 62.9443C68.1666 61.4102 66.923 60.1665 65.3889 60.1665C63.8547 60.1665 62.6111 61.4102 62.6111 62.9443C62.6111 64.4784 63.8547 65.7221 65.3889 65.7221Z" stroke="black" stroke-width="2"/>
<path d="M65.3889 54.611C66.923 54.611 68.1666 53.3673 68.1666 51.8332C68.1666 50.2991 66.923 49.0554 65.3889 49.0554C63.8547 49.0554 62.6111 50.2991 62.6111 51.8332C62.6111 53.3673 63.8547 54.611 65.3889 54.611Z" stroke="black" stroke-width="2"/>
<path d="M65.3889 43.4999C66.923 43.4999 68.1666 42.2562 68.1666 40.7221C68.1666 39.188 66.923 37.9443 65.3889 37.9443C63.8547 37.9443 62.6111 39.188 62.6111 40.7221C62.6111 42.2562 63.8547 43.4999 65.3889 43.4999Z" stroke="black" stroke-width="2"/>
<path d="M41.7778 47.6665H44.5555L50.1111 53.2221H55.6667L62.6111 60.1665" stroke="black" stroke-width="2" stroke-linecap="round" stroke-linejoin="round"/>
<path d="M59.1389 58.0833L62.6111 54.6111" stroke="black" stroke-width="2"/>
<path d="M65.3889 49.0556V43.5" stroke="black" stroke-width="2"/>
<path d="M41.7778 28.2222H47.3333L51.5 32.3888" stroke="black" stroke-width="2" stroke-linecap="round" stroke-linejoin="round"/>
<path d="M54.2778 72.6666C55.8119 72.6666 57.0556 73.9103 57.0556 75.4444C57.0556 76.9785 55.8119 78.2222 54.2778 78.2222C52.7437 78.2222 51.5 76.9785 51.5 75.4444C51.5 73.9103 52.7437 72.6666 54.2778 72.6666Z" stroke="black" stroke-width="2"/>
<path d="M41.7778 80.9999H47.3333L51.5 76.8333" stroke="black" stroke-width="2" stroke-linecap="round" stroke-linejoin="round"/>
<path d="M54.2778 36.5554V42.111" stroke="black" stroke-width="2"/>
<path d="M54.2778 67.1111V72.6666" stroke="black" stroke-width="2"/>
</g>
<defs>
<clipPath id="clip0_159_304">
<rect width="100" height="100" fill="white"/>
</clipPath>
</defs>
</svg>
