<svg width="100" height="104" viewBox="0 0 100 104" fill="none" xmlns="http://www.w3.org/2000/svg">
<path d="M99.5148 13.7172C99.5148 13.7172 98.4972 11.8239 96.8689 9.25366C96.8689 9.25366 91.6906 13.1208 91.7379 12.9031C91.7853 12.6854 99.5148 13.7172 99.5148 13.7172Z" fill="#231F20"/>
<path d="M99.5148 13.9541H99.4817C96.76 13.5943 92.3154 13.0547 91.8326 13.121C91.6953 13.173 91.6575 13.121 91.6101 13.121C91.5696 13.0944 91.538 13.0563 91.5194 13.0116C91.5008 12.9668 91.4962 12.9175 91.506 12.8701C91.506 12.7991 91.5297 12.7328 91.6811 12.6997C91.9888 12.5766 94.9377 10.4135 96.7269 9.07868C96.7529 9.05899 96.7828 9.04502 96.8146 9.03768C96.8465 9.03034 96.8794 9.02979 96.9115 9.03609C96.9434 9.04131 96.9739 9.05331 97.0008 9.07127C97.0278 9.08923 97.0506 9.11273 97.0677 9.14022C98.6818 11.7057 99.7136 13.5991 99.7231 13.618C99.7462 13.6549 99.7585 13.6975 99.7585 13.741C99.7585 13.7846 99.7462 13.8272 99.7231 13.8641C99.6987 13.8953 99.6668 13.92 99.6305 13.9357C99.5941 13.9514 99.5543 13.9577 99.5148 13.9541ZM92.5757 12.6666C93.5508 12.7234 95.4157 12.9316 99.0794 13.4097C98.7102 12.747 97.9008 11.3365 96.8026 9.58989C94.5164 11.3034 93.2715 12.1932 92.5757 12.6666Z" fill="#231F20"/>
<path d="M30.9473 91.7988L28.3629 87.4914L31.9365 84.2585L30.9473 91.7988Z" fill="#231F20"/>
<path d="M30.9426 92.0357C30.9011 92.0364 30.8602 92.0258 30.8243 92.0049C30.7884 91.984 30.7589 91.9538 30.739 91.9173L28.1546 87.6147C28.1269 87.5675 28.116 87.5123 28.1237 87.4581C28.1314 87.404 28.1574 87.354 28.1972 87.3165L31.7756 84.0836C31.8107 84.0508 31.8552 84.0299 31.9028 84.024C31.9504 84.018 31.9987 84.0273 32.0407 84.0505C32.0839 84.0731 32.1192 84.1083 32.142 84.1514C32.1649 84.1945 32.1741 84.2434 32.1685 84.2919L31.1745 91.8274C31.1681 91.8761 31.147 91.9216 31.114 91.958C31.081 91.9944 31.0377 92.0198 30.9899 92.0309L30.9426 92.0357ZM28.6611 87.5342L30.7958 91.0937L31.6147 84.8646L28.6611 87.5342Z" fill="#231F20"/>
<path d="M32.6229 92.7031L74.2008 98.6292C75.0532 98.7407 75.9175 98.5452 76.6391 98.0778C77.3606 97.6104 77.8922 96.9015 78.139 96.0779L99.6616 15.5634C99.7749 15.1869 99.7995 14.7894 99.7335 14.4018C99.6676 14.0143 99.5127 13.6472 99.2812 13.3295C99.0497 13.0118 98.7477 12.752 98.399 12.5705C98.0503 12.3889 97.6643 12.2906 97.2712 12.2832L54.865 8.87988C54.0246 8.83588 53.1938 9.07631 52.5068 9.56238C51.8198 10.0484 51.3165 10.7518 51.0783 11.559L30.4692 89.3802C30.3603 89.741 30.3312 90.1212 30.3842 90.4944C30.4371 90.8676 30.5707 91.2247 30.7757 91.541C30.9807 91.8572 31.2521 92.1251 31.5711 92.3257C31.8902 92.5264 32.2491 92.6552 32.6229 92.7031Z" fill="#231F20"/>
<path d="M74.6741 98.899C74.5048 98.8997 74.3355 98.8886 74.1677 98.8658L32.5898 92.9349C32.1855 92.8853 31.7966 92.7493 31.4495 92.5361C31.1024 92.323 30.8052 92.0376 30.5781 91.6995C30.3529 91.3534 30.2044 90.9632 30.1423 90.5551C30.0803 90.1469 30.1062 89.7302 30.2184 89.3328L50.8606 11.4832C51.1183 10.6288 51.6543 9.88513 52.3833 9.3705C53.1124 8.85588 53.9926 8.59984 54.8839 8.64314L97.2902 12.0606C97.726 12.0827 98.1513 12.2016 98.5354 12.4087C98.9194 12.6159 99.2524 12.9061 99.5101 13.2582C99.744 13.6002 99.8993 13.9899 99.9648 14.3991C100.03 14.8083 100.004 15.2269 99.8888 15.6249L78.3709 96.1347C78.1324 96.9308 77.6444 97.6293 76.9788 98.127C76.3132 98.6247 75.5052 98.8953 74.6741 98.899ZM54.6094 9.09281C53.8616 9.10503 53.1372 9.35531 52.5414 9.80729C51.9456 10.2593 51.5093 10.8894 51.296 11.6062L30.6775 89.4417C30.581 89.7755 30.5572 90.1261 30.6079 90.4699C30.6585 90.8137 30.7823 91.1426 30.971 91.4344C31.1609 91.7177 31.4098 91.9565 31.7007 92.1346C31.9915 92.3127 32.3174 92.4259 32.6561 92.4663L74.2339 98.3972C75.0277 98.5006 75.8325 98.3197 76.5057 97.8865C77.1789 97.4533 77.677 96.7958 77.9118 96.0305L99.4344 15.5065C99.5289 15.1712 99.5482 14.8191 99.4909 14.4755C99.4336 14.1318 99.3012 13.8051 99.103 13.5185C98.8821 13.2212 98.5973 12.9772 98.2697 12.8044C97.942 12.6315 97.5798 12.5343 97.2097 12.5198L54.8461 9.10228C54.7674 9.09449 54.6884 9.09133 54.6094 9.09281Z" fill="#231F20"/>
<path d="M29.9154 88.2583L71.4933 94.1844C72.3457 94.2959 73.21 94.1004 73.9315 93.633C74.653 93.1656 75.1847 92.4567 75.4315 91.6332L96.9541 11.1186C97.0669 10.744 97.092 10.3485 97.0273 9.9627C96.9626 9.57689 96.8098 9.21117 96.5809 8.89393C96.352 8.57668 96.0531 8.31643 95.7074 8.13338C95.3617 7.95032 94.9784 7.84938 94.5874 7.83838L52.1812 4.42089C51.3407 4.37689 50.51 4.61733 49.823 5.10339C49.1359 5.58946 48.6327 6.29282 48.3945 7.09998L27.757 84.9354C27.6472 85.2966 27.6176 85.6774 27.6704 86.0512C27.7233 86.425 27.8572 86.7827 28.0628 87.0992C28.2685 87.4158 28.5408 87.6835 28.8608 87.8838C29.1809 88.084 29.5408 88.2118 29.9154 88.2583Z" fill="white"/>
<path d="M71.9666 94.4543C71.7972 94.455 71.628 94.4439 71.4602 94.4211L29.8823 88.4902C29.478 88.4406 29.0891 88.3046 28.742 88.0914C28.3949 87.8783 28.0977 87.5929 27.8706 87.2548C27.6463 86.9084 27.4982 86.5182 27.4362 86.1102C27.3742 85.7021 27.3996 85.2856 27.5109 84.8881L48.1531 7.03845C48.4093 6.18319 48.9449 5.43857 49.6743 4.9237C50.4037 4.40883 51.2848 4.15346 52.1764 4.19843L94.5827 7.62065C95.0187 7.64167 95.4444 7.76016 95.8286 7.9674C96.2128 8.17464 96.5456 8.46537 96.8026 8.81819C97.0374 9.15984 97.1933 9.54948 97.2588 9.95884C97.3242 10.3682 97.2978 10.787 97.1813 11.1849L75.6634 91.7136C75.4207 92.5054 74.9309 93.1986 74.2657 93.6918C73.6004 94.185 72.7947 94.4522 71.9666 94.4543ZM51.9019 4.6481C51.1543 4.66105 50.4303 4.9116 49.8346 5.36348C49.2389 5.81535 48.8025 6.44509 48.5885 7.16151L27.9511 84.997C27.8548 85.3316 27.8311 85.683 27.8817 86.0275C27.9324 86.372 28.0561 86.7017 28.2445 86.9945C28.435 87.2768 28.6841 87.5148 28.9749 87.6921C29.2657 87.8693 29.5914 87.9817 29.9296 88.0216L71.5075 93.9525C72.3012 94.055 73.1055 93.8736 73.7785 93.4406C74.4514 93.0075 74.9497 92.3506 75.1853 91.5858L96.7363 11.0618C96.8336 10.7278 96.856 10.3766 96.802 10.0329C96.748 9.68933 96.6189 9.36185 96.4239 9.07379C96.2054 8.77952 95.9244 8.53732 95.6012 8.36463C95.2779 8.19194 94.9203 8.09304 94.5543 8.07505L52.148 4.65756L51.9019 4.6481Z" fill="#231F20"/>
<path d="M92.8455 16.42L49.4311 12.657L32.7697 75.4593L75.5498 81.1535L92.8455 16.42Z" fill="#E6E7E8"/>
<path d="M75.5498 81.2246L32.7696 75.5446C32.7591 75.543 32.749 75.5391 32.7401 75.5334C32.7311 75.5276 32.7235 75.52 32.7177 75.511C32.7119 75.5021 32.708 75.492 32.7064 75.4815C32.7047 75.471 32.7053 75.4602 32.7081 75.4499L49.3695 12.6476C49.373 12.6305 49.3826 12.6153 49.3966 12.6048C49.4105 12.5943 49.4279 12.5893 49.4453 12.5908L92.8597 16.3539C92.8711 16.3544 92.8823 16.3577 92.8922 16.3635C92.9021 16.3692 92.9104 16.3773 92.9165 16.387C92.9224 16.3962 92.9256 16.4069 92.9256 16.4178C92.9256 16.4287 92.9224 16.4394 92.9165 16.4485L75.6208 81.1726C75.6174 81.1884 75.6083 81.2025 75.5952 81.2121C75.5821 81.2217 75.5659 81.2262 75.5498 81.2246ZM32.8643 75.3979L75.493 81.0779L92.7508 16.4864L49.4879 12.7376L32.8643 75.3979Z" fill="#D1D3D4"/>
<path d="M47.1023 87.7946L55.2153 88.9354C55.7302 88.9979 56.2507 88.8757 56.6841 88.5906C57.1174 88.3054 57.4356 87.8758 57.582 87.3781L58.3914 84.3488C58.4588 84.1177 58.4741 83.8746 58.4363 83.6369C58.3984 83.3992 58.3084 83.1728 58.1726 82.9741C58.0368 82.7754 57.8586 82.6092 57.6509 82.4876C57.4432 82.366 57.2111 82.292 56.9714 82.2708L48.8442 81.1679C48.3334 81.1106 47.8188 81.2353 47.3911 81.5202C46.9633 81.8051 46.6498 82.2318 46.5059 82.7252L45.7059 85.7262C45.6386 85.9549 45.6226 86.1957 45.6591 86.4313C45.6956 86.6669 45.7837 86.8915 45.9171 87.0892C46.0505 87.2868 46.2259 87.4525 46.4308 87.5744C46.6357 87.6964 46.865 87.7716 47.1023 87.7946Z" fill="white"/>
<path d="M55.4898 89.1907C55.3874 89.1978 55.2846 89.1978 55.1821 89.1907L47.0691 88.05C46.7998 88.0203 46.5403 87.9319 46.3089 87.7909C46.0775 87.6499 45.8798 87.4599 45.73 87.2341C45.5801 87.0084 45.4816 86.7525 45.4414 86.4846C45.4013 86.2166 45.4205 85.9431 45.4977 85.6833L46.2929 82.6824C46.4541 82.1341 46.8036 81.6602 47.2798 81.3442C47.7559 81.0282 48.3283 80.8903 48.8962 80.9547L57.0234 82.0528C57.2953 82.0859 57.557 82.1765 57.7912 82.3185C58.0255 82.4605 58.2268 82.6507 58.3819 82.8764C58.5301 83.1032 58.6279 83.3592 58.6688 83.627C58.7096 83.8949 58.6925 84.1683 58.6185 84.429L57.8139 87.4536C57.6618 87.9528 57.3544 88.3904 56.9364 88.7029C56.5184 89.0153 56.0116 89.1862 55.4898 89.1907ZM48.598 81.3854C48.1785 81.392 47.7723 81.5338 47.4397 81.7896C47.1072 82.0454 46.866 82.4017 46.752 82.8054L45.9521 85.8064C45.897 86.001 45.8841 86.2052 45.9143 86.4052C45.9445 86.6052 46.0171 86.7964 46.1272 86.9661C46.2403 87.1354 46.3892 87.2779 46.5635 87.3834C46.7377 87.4889 46.9329 87.5549 47.1354 87.5767L55.2484 88.7174C55.7064 88.7743 56.1697 88.6665 56.5555 88.4134C56.9414 88.1602 57.2246 87.7781 57.3547 87.3353L58.1594 84.3059C58.2159 84.1109 58.2299 83.9061 58.2005 83.7052C58.1711 83.5044 58.099 83.3121 57.989 83.1415C57.8724 82.9698 57.7196 82.8257 57.5414 82.7193C57.3631 82.613 57.1637 82.5471 56.9571 82.5262L48.8299 81.4233C48.7535 81.4059 48.676 81.3932 48.598 81.3854Z" fill="#E6E7E8"/>
<path d="M80.0039 11.0334L67.6025 9.9968C67.5715 9.99444 67.5414 9.98589 67.5138 9.97167C67.4862 9.95746 67.4618 9.93785 67.4419 9.91402C67.4221 9.89018 67.4072 9.86261 67.3982 9.83292C67.3892 9.80324 67.3862 9.77205 67.3895 9.7412C67.3955 9.6792 67.4257 9.62207 67.4735 9.5822C67.5214 9.54233 67.583 9.52292 67.6451 9.52819L80.0465 10.5648C80.1093 10.5648 80.1695 10.5897 80.2138 10.6341C80.2582 10.6785 80.2832 10.7387 80.2832 10.8015C80.2832 10.8642 80.2582 10.9244 80.2138 10.9688C80.1695 11.0132 80.1093 11.0381 80.0465 11.0381L80.0039 11.0334Z" fill="#E6E7E8"/>
<path d="M65.8795 9.85475H65.8558L64.2134 9.71748C64.1822 9.71509 64.1519 9.70657 64.1241 9.69242C64.0963 9.67826 64.0716 9.65874 64.0513 9.63498C64.0311 9.61122 64.0157 9.5837 64.0062 9.55399C63.9966 9.52429 63.993 9.49298 63.9956 9.46188C64.0028 9.39997 64.0331 9.34307 64.0805 9.30266C64.128 9.26225 64.189 9.24134 64.2512 9.24415L65.8984 9.38141C65.9604 9.38742 66.0176 9.41762 66.0574 9.46547C66.0973 9.51332 66.1167 9.57495 66.1114 9.63701C66.1078 9.69603 66.0818 9.75144 66.0387 9.79191C65.9956 9.83238 65.9386 9.85486 65.8795 9.85475Z" fill="#E6E7E8"/>
<path d="M61.3639 70.9816C61.3255 70.9817 61.2876 70.9722 61.2537 70.954C61.2198 70.9358 61.191 70.9095 61.1698 70.8774L49.3364 53.8941C49.3168 53.8687 49.3024 53.8396 49.2944 53.8085C49.2863 53.7774 49.2847 53.745 49.2895 53.7133C49.2944 53.6815 49.3057 53.6511 49.3227 53.6239C49.3397 53.5966 49.362 53.5731 49.3884 53.5548C49.4148 53.5365 49.4446 53.5237 49.4761 53.5172C49.5075 53.5108 49.54 53.5109 49.5714 53.5174C49.6029 53.5239 49.6327 53.5367 49.659 53.5551C49.6853 53.5735 49.7076 53.597 49.7246 53.6243L61.558 70.6076C61.5929 70.66 61.6061 70.7239 61.5946 70.7858C61.5831 70.8477 61.5479 70.9027 61.4964 70.939C61.458 70.967 61.4115 70.9819 61.3639 70.9816Z" fill="white"/>
<path d="M39.6519 61.8604L54.8744 63.1904Z" fill="white"/>
<path d="M54.8744 63.4272L39.6519 62.0971C39.6208 62.0947 39.5904 62.0862 39.5626 62.0721C39.5348 62.0579 39.5101 62.0384 39.4899 62.0146C39.4696 61.9909 39.4543 61.9633 39.4447 61.9336C39.4352 61.9039 39.4316 61.8726 39.4342 61.8415C39.4402 61.7791 39.4702 61.7216 39.5179 61.6809C39.5656 61.6403 39.6272 61.6198 39.6898 61.6238L54.917 62.9539C54.9785 62.961 55.0349 62.9915 55.0746 63.0391C55.1142 63.0867 55.1341 63.1477 55.13 63.2095C55.1276 63.2406 55.1191 63.2709 55.1049 63.2987C55.0908 63.3265 55.0713 63.3513 55.0475 63.3715C55.0237 63.3917 54.9962 63.4071 54.9665 63.4166C54.9368 63.4262 54.9055 63.4298 54.8744 63.4272Z" fill="#231F20"/>
<path d="M38.6627 64.5916L50.9268 65.6992Z" fill="white"/>
<path d="M50.9268 65.9358H50.9031L38.6437 64.8329C38.6126 64.8305 38.5823 64.822 38.5545 64.8079C38.5267 64.7937 38.5019 64.7742 38.4817 64.7504C38.4614 64.7267 38.4461 64.6991 38.4365 64.6694C38.427 64.6397 38.4234 64.6084 38.426 64.5773C38.4289 64.5462 38.438 64.516 38.4528 64.4884C38.4675 64.4608 38.4875 64.4363 38.5117 64.4165C38.5359 64.3967 38.5638 64.3819 38.5938 64.373C38.6238 64.364 38.6552 64.3611 38.6863 64.3643L50.9457 65.4672C50.9769 65.4696 51.0072 65.4781 51.035 65.4923C51.0628 65.5064 51.0875 65.526 51.1078 65.5497C51.128 65.5735 51.1434 65.601 51.1529 65.6307C51.1625 65.6604 51.1661 65.6917 51.1635 65.7228C51.1566 65.781 51.1288 65.8347 51.0852 65.8739C51.0417 65.913 50.9854 65.9351 50.9268 65.9358Z" fill="#231F20"/>
<path d="M69.0935 35.8079L84.316 37.1379Z" fill="white"/>
<path d="M84.316 37.3747L69.0888 36.0446C69.026 36.039 68.968 36.0086 68.9277 35.9602C68.8873 35.9118 68.8677 35.8494 68.8734 35.7866C68.879 35.7239 68.9094 35.6659 68.9578 35.6255C69.0062 35.5851 69.0686 35.5656 69.1314 35.5713L84.3539 36.9013C84.4162 36.9074 84.4738 36.9374 84.5145 36.9851C84.5551 37.0328 84.5756 37.0944 84.5716 37.1569C84.5692 37.1881 84.5607 37.2184 84.5465 37.2462C84.5324 37.274 84.5129 37.2988 84.4891 37.319C84.4653 37.3392 84.4378 37.3546 84.4081 37.3641C84.3784 37.3737 84.3471 37.3773 84.316 37.3747Z" fill="#231F20"/>
<path d="M68.1042 38.5439L80.3683 39.6468Z" fill="white"/>
<path d="M80.3684 39.8833H80.3447L68.0806 38.7804C68.0186 38.7744 67.9614 38.7442 67.9216 38.6964C67.8817 38.6485 67.8623 38.5869 67.8675 38.5248C67.8699 38.4939 67.8785 38.4638 67.8927 38.4362C67.9069 38.4086 67.9265 38.3842 67.9503 38.3643C67.9742 38.3444 68.0017 38.3296 68.0314 38.3206C68.0611 38.3115 68.0923 38.3086 68.1232 38.3118L80.3873 39.4147C80.4182 39.4171 80.4484 39.4256 80.476 39.4398C80.5035 39.454 80.528 39.4737 80.5478 39.4975C80.5677 39.5213 80.5826 39.5489 80.5916 39.5786C80.6006 39.6083 80.6036 39.6395 80.6003 39.6703C80.5945 39.7281 80.5677 39.7817 80.5249 39.821C80.4821 39.8603 80.4264 39.8824 80.3684 39.8833Z" fill="#231F20"/>
<path d="M49.7671 27.5009L63.8158 28.4144C64.0084 28.4255 64.1962 28.4784 64.3664 28.5694C64.5365 28.6604 64.6848 28.7872 64.8009 28.9413C64.9171 29.0953 64.9984 29.2727 65.0392 29.4613C65.0799 29.6498 65.0792 29.845 65.037 30.0332L62.7934 38.5533C62.7024 38.968 62.4655 39.3361 62.1258 39.5907C61.786 39.8453 61.3661 39.9693 60.9426 39.9402L47.0313 38.9935C46.8383 38.9793 46.6509 38.9227 46.4825 38.8275C46.3141 38.7324 46.1688 38.6012 46.057 38.4433C45.9453 38.2854 45.8698 38.1047 45.8361 37.9142C45.8025 37.7238 45.8113 37.5282 45.8621 37.3415L47.9495 28.8215C48.0512 28.4241 48.2885 28.0747 48.6203 27.8336C48.9522 27.5925 49.3578 27.4748 49.7671 27.5009Z" fill="white"/>
<path d="M61.0894 40.172H60.919L47.0123 39.2253C46.7897 39.2098 46.5731 39.1458 46.3777 39.0379C46.1823 38.93 46.0128 38.7807 45.8811 38.6005C45.7447 38.4123 45.6504 38.197 45.6047 37.9691C45.5589 37.7412 45.5628 37.5062 45.616 37.2799L47.7034 28.7599C47.8182 28.3062 48.0876 27.9068 48.4651 27.6303C48.8426 27.3539 49.3048 27.2177 49.7719 27.2452L63.8158 28.1635C64.0399 28.1786 64.2581 28.242 64.4555 28.3492C64.653 28.4564 64.8249 28.605 64.9597 28.7847C65.0945 28.9644 65.1889 29.1711 65.2366 29.3906C65.2842 29.6101 65.284 29.8374 65.2358 30.0568L62.9874 38.5769C62.8954 39.0169 62.6584 39.4133 62.3142 39.7026C61.97 39.9918 61.5387 40.1571 61.0894 40.172ZM49.6346 27.728C49.2982 27.7352 48.9735 27.8526 48.7102 28.0621C48.4469 28.2715 48.2595 28.5615 48.1767 28.8877L46.0941 37.4077C46.0508 37.5683 46.0437 37.7365 46.0731 37.9002C46.1026 38.0638 46.1679 38.219 46.2645 38.3544C46.3565 38.4791 46.4743 38.5826 46.6099 38.6578C46.7455 38.7329 46.8956 38.778 47.0502 38.7899L60.9616 39.7365C61.3278 39.7631 61.6912 39.6566 61.9852 39.4366C62.2791 39.2165 62.4837 38.8978 62.5614 38.539L64.8051 30.0189C64.8378 29.8672 64.8379 29.7101 64.8052 29.5583C64.7726 29.4065 64.708 29.2634 64.6157 29.1385C64.5188 29.0107 64.3956 28.9052 64.2543 28.8292C64.113 28.7532 63.957 28.7086 63.7969 28.6983L49.753 27.7801H49.6346V27.728Z" fill="#231F20"/>
<path d="M54.2591 37.725C54.4769 37.5593 54.6851 37.3936 54.8981 37.2516C55.4945 36.8067 56.0957 36.3712 56.6921 35.931C57.0897 35.6423 57.4826 35.3488 57.8518 35.0222C58.1836 34.7395 58.468 34.4055 58.6943 34.0329C58.836 33.782 58.9472 33.515 59.0256 33.2377C59.0931 32.9973 59.1422 32.752 59.1724 32.5041C59.2327 32.1093 59.1557 31.7058 58.954 31.3611C58.7524 31.0165 58.4384 30.7515 58.0648 30.6107C57.6649 30.4643 57.2324 30.431 56.8148 30.5145C56.3973 30.598 56.0109 30.7951 55.6981 31.084C55.5222 31.2226 55.3633 31.3815 55.2247 31.5574L55.1963 31.5905V31.5432C55.0216 31.1589 54.7323 30.8382 54.368 30.6249C54.0348 30.4342 53.653 30.3454 53.2699 30.3693C52.7903 30.3932 52.3288 30.5602 51.945 30.8487C51.5612 31.1373 51.2725 31.5341 51.1162 31.9881C51.0405 32.2261 50.9944 32.4725 50.9789 32.7218C50.9457 32.9826 50.9457 33.2467 50.9789 33.5075C51.0324 33.8939 51.1732 34.263 51.3907 34.5867C51.6136 34.9162 51.8655 35.2251 52.1433 35.5097C52.5551 35.9452 52.9764 36.3712 53.3929 36.8114C53.6722 37.1096 53.9467 37.4173 54.226 37.725H54.2591Z" fill="#D1D3D4"/>
<path d="M45.4172 47.0828L56.072 48.2519C56.2179 48.2673 56.3587 48.3142 56.4846 48.3894C56.6106 48.4646 56.7188 48.5663 56.8016 48.6873C56.8844 48.8084 56.9399 48.9461 56.9643 49.0907C56.9887 49.2354 56.9814 49.3836 56.9429 49.5252L54.9502 55.9199C54.8681 56.2314 54.6764 56.5029 54.4104 56.6846C54.1444 56.8663 53.8218 56.946 53.5018 56.9092L42.9511 55.7401C42.8048 55.7227 42.6642 55.6731 42.5393 55.595C42.4144 55.5169 42.3083 55.412 42.2287 55.2881C42.149 55.1641 42.0978 55.0241 42.0787 54.878C42.0596 54.7319 42.073 54.5834 42.118 54.4431L43.9877 48.0436C44.0766 47.7419 44.2681 47.4808 44.5291 47.3053C44.7901 47.1299 45.1043 47.0512 45.4172 47.0828Z" fill="white"/>
<path d="M53.6627 57.1601C53.5981 57.1648 53.5333 57.1648 53.4687 57.1601L42.9227 55.9815C42.7456 55.961 42.575 55.9021 42.4229 55.8089C42.2709 55.7157 42.141 55.5904 42.0423 55.4419C41.9418 55.2884 41.8761 55.1148 41.8499 54.9333C41.8238 54.7517 41.8377 54.5666 41.8909 54.391L43.7842 47.9868C43.8918 47.6333 44.1184 47.328 44.4256 47.1226C44.7327 46.9173 45.1015 46.8246 45.4693 46.8603L56.1193 48.0294C56.2998 48.0497 56.4738 48.1083 56.6298 48.2014C56.7857 48.2945 56.9199 48.4198 57.0234 48.569C57.1242 48.7178 57.192 48.8864 57.2222 49.0636C57.2524 49.2408 57.2444 49.4224 57.1986 49.5962L55.2011 56.0051C55.106 56.3392 54.9041 56.633 54.6263 56.8415C54.3485 57.0501 54.0101 57.162 53.6627 57.1601ZM45.261 47.3099C45.0254 47.3139 44.7971 47.3926 44.6091 47.5347C44.4211 47.6767 44.2831 47.8748 44.2149 48.1004L42.3453 54.5046C42.3119 54.6151 42.3026 54.7314 42.3181 54.8458C42.3336 54.9601 42.3736 55.0698 42.4352 55.1673C42.4973 55.2579 42.578 55.3343 42.6718 55.3914C42.7656 55.4485 42.8705 55.4851 42.9795 55.4987L53.5255 56.6867C53.7896 56.7173 54.0558 56.6519 54.2757 56.5025C54.4956 56.353 54.6543 56.1294 54.723 55.8726L56.7157 49.4636C56.7446 49.3571 56.7498 49.2455 56.731 49.1368C56.7121 49.0281 56.6698 48.9247 56.6069 48.8341C56.5425 48.74 56.4583 48.6612 56.3601 48.6031C56.262 48.545 56.1524 48.5092 56.0389 48.498L45.3935 47.3289C45.3502 47.3175 45.3058 47.3111 45.261 47.3099Z" fill="#231F20"/>
<path d="M67.0912 42.9601L81.8499 44.4558C81.9965 44.4578 82.1409 44.4926 82.2724 44.5575C82.4039 44.6225 82.5192 44.716 82.61 44.8312C82.7007 44.9464 82.7645 45.0805 82.7968 45.2235C82.8291 45.3666 82.829 45.5151 82.7966 45.6581L80.3541 54.7462C80.2474 55.058 80.0356 55.3229 79.7549 55.4956C79.4742 55.6683 79.1422 55.7381 78.8158 55.6928L64.0666 53.7995C63.9254 53.7924 63.7876 53.7537 63.6633 53.6864C63.5389 53.619 63.4313 53.5247 63.3482 53.4103C63.2651 53.2959 63.2087 53.1643 63.1832 53.0253C63.1576 52.8862 63.1635 52.7432 63.2004 52.6067L65.6239 43.8878C65.7257 43.5888 65.9268 43.3336 66.1938 43.1648C66.4607 42.996 66.7775 42.9238 67.0912 42.9601Z" fill="white"/>
<path d="M79.0146 55.9152C78.9437 55.9199 78.8725 55.9199 78.8016 55.9152L64.0572 54.0218C63.8689 54.007 63.6862 53.9504 63.5225 53.8563C63.3588 53.7621 63.218 53.6328 63.1105 53.4775C63.0182 53.3401 62.9575 53.1839 62.933 53.0201C62.9084 52.8564 62.9205 52.6893 62.9685 52.5308L65.392 43.812C65.5072 43.4633 65.7392 43.1651 66.0487 42.9676C66.3583 42.7701 66.7265 42.6855 67.0913 42.728L81.8499 44.219C82.0491 44.2331 82.2429 44.2904 82.4178 44.3868C82.5927 44.4833 82.7446 44.6166 82.8628 44.7776C82.9573 44.914 83.0202 45.0697 83.0473 45.2334C83.0743 45.3971 83.0646 45.5647 83.019 45.7242L80.6003 54.7934C80.4916 55.1259 80.2786 55.4145 79.993 55.6166C79.7074 55.8186 79.3644 55.9233 79.0146 55.9152ZM66.9587 43.1871C66.7221 43.1835 66.4902 43.2535 66.2951 43.3875C66.1001 43.5215 65.9515 43.7128 65.87 43.935L63.4466 52.6539C63.4203 52.7467 63.4139 52.8439 63.4278 52.9394C63.4417 53.0348 63.4755 53.1262 63.527 53.2077C63.5953 53.3033 63.6837 53.3829 63.7858 53.4409C63.888 53.4989 64.0016 53.534 64.1187 53.5438L78.8631 55.4371C79.1311 55.48 79.4056 55.4284 79.6396 55.2911C79.8736 55.1537 80.0526 54.9393 80.1459 54.6845L82.5836 45.5964C82.6109 45.5041 82.6171 45.4067 82.6015 45.3116C82.5859 45.2165 82.549 45.1262 82.4936 45.0474C82.4153 44.9428 82.3148 44.8568 82.1995 44.7955C82.0842 44.7341 81.9567 44.6989 81.8262 44.6924L67.0676 43.1966H66.9587V43.1871Z" fill="#231F20"/>
<path d="M74.7167 52.9901L76.4681 53.2078L77.7035 48.6401L75.9521 48.446L74.7167 52.9901Z" fill="#D1D3D4"/>
<path d="M76.468 53.2836L74.7167 53.0706C74.7062 53.069 74.6961 53.0651 74.6872 53.0593C74.6782 53.0536 74.6706 53.0459 74.6648 53.037C74.659 53.0281 74.6551 53.018 74.6534 53.0075C74.6518 52.997 74.6524 52.9862 74.6552 52.9759L75.8906 48.4319C75.894 48.4138 75.9044 48.3979 75.9194 48.3873C75.9344 48.3767 75.9529 48.3723 75.971 48.3751L77.7224 48.5739C77.733 48.5751 77.7432 48.5788 77.7522 48.5845C77.7612 48.5902 77.7688 48.5979 77.7745 48.607C77.7818 48.6252 77.7818 48.6456 77.7745 48.6638L76.539 53.2315C76.5341 53.2465 76.5246 53.2596 76.5119 53.2689C76.4992 53.2783 76.4838 53.2834 76.468 53.2836ZM74.8114 52.9286L76.4112 53.1274L77.6088 48.7064L76.0089 48.5265L74.8114 52.9286Z" fill="#D1D3D4"/>
<path d="M75.19 48.749C75.19 48.749 73.77 48.2283 73.3914 47.329C73.0127 46.4296 73.2636 44.9954 73.0506 44.896C72.8525 44.8376 72.6412 44.8416 72.4455 44.9077C72.2498 44.9738 72.0792 45.0986 71.9571 45.2652C71.6163 45.7007 71.4175 47.0355 71.7015 47.949C71.7015 47.949 69.8082 47.7171 68.9562 47.6224C68.1042 47.5278 67.7492 48.2425 68.161 48.5975C68.161 48.5975 67.4652 48.5975 67.5504 49.2223C67.6356 49.8471 67.8723 49.8945 68.2462 49.9418C68.2462 49.9418 67.7729 49.9939 67.7729 50.453C67.7729 50.9121 68.3503 51.092 68.3503 51.092C68.2749 51.1097 68.2044 51.1442 68.1441 51.1929C68.0838 51.2416 68.0353 51.3033 68.0021 51.3733C67.9689 51.4433 67.9519 51.5199 67.9523 51.5974C67.9528 51.6749 67.9707 51.7513 68.0048 51.8209C68.2604 52.3605 69.1692 52.4221 71.3181 52.5546C73.4671 52.6872 74.2102 52.299 74.2102 52.299L75.19 48.749Z" fill="#D1D3D4"/>
<path d="M72.1986 52.6777C71.9382 52.6777 71.6495 52.6777 71.3229 52.6493C69.1881 52.5167 68.2131 52.4552 67.9338 51.873C67.8955 51.8007 67.8732 51.721 67.8683 51.6394C67.8634 51.5577 67.8761 51.476 67.9054 51.3996C67.9627 51.2813 68.0553 51.1838 68.1705 51.1204C68.0424 51.0648 67.9313 50.9765 67.8482 50.8643C67.7651 50.7521 67.713 50.6201 67.6971 50.4814C67.6915 50.3865 67.7125 50.292 67.7576 50.2084C67.8028 50.1248 67.8704 50.0554 67.9527 50.008C67.6971 49.9323 67.5362 49.7714 67.4794 49.2744C67.4644 49.1913 67.4676 49.1059 67.4888 49.0241C67.5101 48.9424 67.5489 48.8663 67.6025 48.801C67.7106 48.6841 67.8563 48.6087 68.0143 48.588C67.9604 48.5108 67.9277 48.4207 67.9194 48.3269C67.911 48.2331 67.9275 48.1387 67.9669 48.0532C68.0597 47.8756 68.2079 47.7333 68.3891 47.6478C68.5703 47.5623 68.7744 47.5385 68.9704 47.5798C69.6946 47.6603 71.1856 47.8402 71.6069 47.8922C71.3608 46.9456 71.5548 45.6912 71.9051 45.2463C72.0362 45.0701 72.2179 44.9381 72.4259 44.8679C72.634 44.7977 72.8585 44.7927 73.0695 44.8534C73.1973 44.9149 73.202 45.1421 73.2115 45.6391C73.1823 46.2104 73.261 46.7821 73.4434 47.3242C73.8221 48.1668 75.1901 48.6827 75.2043 48.6874C75.221 48.6948 75.2346 48.7079 75.2424 48.7244C75.2502 48.741 75.2518 48.7598 75.2469 48.7774L74.3002 52.3463C74.2948 52.3641 74.283 52.3793 74.2671 52.3889C74.2292 52.3937 73.6991 52.6777 72.1986 52.6777ZM68.8095 47.6934C68.6677 47.6802 68.5252 47.7091 68.3998 47.7765C68.2743 47.8438 68.1715 47.9466 68.1042 48.0721C68.0667 48.1518 68.057 48.2418 68.0767 48.3276C68.0965 48.4134 68.1445 48.4902 68.2131 48.5454C68.2219 48.557 68.2267 48.5711 68.2267 48.5857C68.2267 48.6002 68.2219 48.6143 68.2131 48.6259C68.2082 48.6396 68.1993 48.6515 68.1874 48.66C68.1755 48.6685 68.1614 48.6731 68.1468 48.6732C67.9799 48.6757 67.8197 48.7397 67.6971 48.8531C67.6562 48.9035 67.6269 48.9623 67.6114 49.0253C67.5958 49.0883 67.5944 49.1539 67.6072 49.2176C67.6829 49.8045 67.8959 49.8282 68.2415 49.8708C68.2599 49.8731 68.2768 49.8821 68.289 49.896C68.3012 49.91 68.3079 49.928 68.3077 49.9465C68.3078 49.9645 68.301 49.9819 68.2886 49.9951C68.2763 50.0083 68.2595 50.0163 68.2415 50.0175C68.2415 50.0175 67.8202 50.0743 67.8344 50.4577C67.8486 50.8411 68.3551 51.0257 68.3598 51.0257C68.3738 51.0321 68.386 51.042 68.3951 51.0544C68.4042 51.0668 68.41 51.0814 68.4119 51.0967C68.4117 51.1125 68.4066 51.1278 68.3972 51.1406C68.3879 51.1533 68.3748 51.1628 68.3598 51.1677C68.2188 51.2144 68.1006 51.3124 68.0285 51.4422C68.0067 51.499 67.998 51.56 68.0029 51.6206C68.0078 51.6812 68.0263 51.74 68.0569 51.7925C68.2983 52.299 69.245 52.3558 71.3182 52.4883C73.2115 52.6067 73.9925 52.3132 74.1582 52.2517L75.1049 48.7774C74.8209 48.6638 73.6848 48.162 73.3251 47.3574C73.1324 46.7978 73.0488 46.2065 73.079 45.6155C73.0957 45.3945 73.0765 45.1724 73.0222 44.9575C72.8397 44.9098 72.6472 44.9177 72.4693 44.9801C72.2913 45.0425 72.1361 45.1566 72.0234 45.3078C71.6874 45.7338 71.5075 47.0544 71.7773 47.9301C71.784 47.9407 71.7876 47.953 71.7876 47.9656C71.7876 47.9782 71.784 47.9905 71.7773 48.0011C71.769 48.0101 71.7586 48.017 71.7471 48.0211C71.7355 48.0252 71.7232 48.0265 71.711 48.0248C71.711 48.0248 69.8177 47.7928 68.9704 47.6982L68.8095 47.6934Z" fill="#D1D3D4"/>
<path d="M56.924 74.3943L73.0175 76.2498C73.6105 76.2917 74.1997 76.1256 74.6835 75.78C75.1673 75.4345 75.5155 74.931 75.6681 74.3564L78.2005 64.7998C78.2845 64.5386 78.3108 64.2623 78.2774 63.99C78.2441 63.7177 78.152 63.4558 78.0075 63.2226C77.863 62.9894 77.6695 62.7904 77.4405 62.6394C77.2115 62.4883 76.9524 62.3889 76.6811 62.3479L60.545 60.2936C59.9364 60.2387 59.3282 60.4025 58.8294 60.7556C58.3306 61.1086 57.9739 61.6278 57.8234 62.2201L55.3478 71.9613C55.267 72.2255 55.2449 72.5041 55.2831 72.7777C55.3214 73.0512 55.419 73.3131 55.5692 73.5449C55.7194 73.7768 55.9185 73.9729 56.1526 74.1196C56.3866 74.2664 56.6499 74.3601 56.924 74.3943Z" fill="white"/>
<path d="M73.2399 76.5006H72.9701L56.8766 74.6451C56.5771 74.6159 56.2876 74.5215 56.0284 74.3686C55.7692 74.2157 55.5466 74.008 55.3762 73.76C55.1973 73.4924 55.0781 73.1895 55.0267 72.8718C54.9752 72.5541 54.9927 72.229 55.078 71.9187L57.5535 62.1774C57.7246 61.5327 58.1172 60.9688 58.6625 60.5845C59.2077 60.2002 59.8708 60.0202 60.5355 60.0758L76.6716 62.1254C76.9622 62.1609 77.2419 62.2583 77.4917 62.411C77.7416 62.5636 77.9558 62.7681 78.12 63.0105C78.2935 63.2849 78.4072 63.5929 78.4537 63.9142C78.5002 64.2356 78.4784 64.5631 78.3898 64.8755L75.8575 74.4321C75.6952 75.009 75.3546 75.5197 74.8844 75.8912C74.4143 76.2628 73.8386 76.4761 73.2399 76.5006ZM56.9477 74.1623L73.0411 76.0178C73.5779 76.0513 74.1097 75.8981 74.5463 75.584C74.9829 75.2699 75.2973 74.8144 75.4362 74.2949L77.9496 64.7335C78.0247 64.487 78.045 64.2271 78.0091 63.972C77.9731 63.7169 77.8817 63.4727 77.7413 63.2567C77.6158 63.0702 77.4513 62.9132 77.2593 62.7964C77.0673 62.6795 76.8523 62.6056 76.629 62.5798L60.4929 60.5255C59.9418 60.4792 59.3921 60.6297 58.9415 60.9504C58.4909 61.271 58.1685 61.741 58.0316 62.2768L55.556 72.0181C55.4875 72.2632 55.4723 72.5202 55.5115 72.7717C55.5506 73.0232 55.6433 73.2634 55.7832 73.476C55.9164 73.6675 56.0894 73.828 56.2904 73.9465C56.4914 74.065 56.7156 74.1386 56.9477 74.1623Z" fill="#231F20"/>
<path d="M67.8628 30.9515L84.8651 32.7218C85.1692 32.7313 85.467 32.6343 85.7072 32.4476C85.9474 32.261 86.115 31.9964 86.181 31.6994L88.9453 20.3393C88.9894 20.2094 89.0036 20.0711 88.9869 19.9349C88.9703 19.7986 88.9231 19.6679 88.849 19.5524C88.7749 19.4369 88.6757 19.3396 88.5588 19.2677C88.4418 19.1957 88.3102 19.1511 88.1737 19.1371L71.2093 17.717C70.9169 17.7171 70.6331 17.8165 70.4044 17.9987C70.1757 18.181 70.0156 18.4355 69.9503 18.7205L67.1576 29.754C67.111 29.8788 67.0929 30.0123 67.1045 30.145C67.1161 30.2777 67.1572 30.4061 67.2248 30.5208C67.2924 30.6356 67.3848 30.7338 67.4951 30.8083C67.6055 30.8828 67.7311 30.9318 67.8628 30.9515Z" fill="white"/>
<path d="M71.1146 17.7121H71.1762L88.1405 19.1322C88.2771 19.1462 88.4087 19.1909 88.5256 19.2628C88.6425 19.3347 88.7417 19.432 88.8158 19.5475C88.89 19.663 88.9371 19.7937 88.9538 19.93C88.9704 20.0662 88.9562 20.2045 88.9121 20.3344L86.1478 31.6945C86.0837 31.9744 85.9304 32.2259 85.711 32.4111C85.4916 32.5963 85.218 32.7053 84.9313 32.7217H84.8319L67.8628 30.9514C67.7311 30.9316 67.6055 30.8827 67.4951 30.8082C67.3847 30.7336 67.2924 30.6354 67.2248 30.5207C67.1572 30.4059 67.1161 30.2775 67.1045 30.1449C67.0928 30.0122 67.111 29.8786 67.1575 29.7538L69.9502 18.7204C70.0141 18.4481 70.1635 18.2033 70.3764 18.022C70.5893 17.8406 70.8546 17.732 71.1336 17.7121M71.1336 17.2388C70.7497 17.2594 70.3826 17.4031 70.0868 17.6487C69.7909 17.8942 69.5821 18.2285 69.4911 18.602L66.6984 29.6355C66.6401 29.8459 66.6277 30.0663 66.662 30.2819C66.6963 30.4975 66.7765 30.7032 66.8972 30.8851C67.0015 31.0363 67.1379 31.1626 67.2966 31.255C67.4554 31.3475 67.6325 31.4038 67.8155 31.42L84.813 33.1903C84.8634 33.1948 84.9141 33.1948 84.9645 33.1903C85.3575 33.1735 85.7342 33.0283 86.0369 32.7769C86.3395 32.5256 86.5514 32.1819 86.6401 31.7986L89.4044 20.4386C89.4598 20.2276 89.4691 20.0072 89.4315 19.7923C89.3939 19.5775 89.3104 19.3733 89.1866 19.1937C89.0752 19.0365 88.9304 18.9058 88.7627 18.8109C88.595 18.716 88.4084 18.6592 88.2163 18.6446L71.2519 17.2246L71.1336 17.2388Z" fill="#231F20"/>
<path d="M77.3296 27.6996C77.2921 27.7 77.255 27.6916 77.2213 27.6752C77.1877 27.6587 77.1583 27.6347 77.1355 27.6049L70.2295 18.0956C70.1936 18.0444 70.1789 17.9812 70.1886 17.9194C70.1983 17.8576 70.2316 17.802 70.2816 17.7643C70.307 17.7461 70.3358 17.7332 70.3663 17.7262C70.3967 17.7192 70.4283 17.7183 70.4591 17.7236C70.4899 17.7289 70.5193 17.7402 70.5457 17.757C70.5721 17.7737 70.595 17.7955 70.6129 17.8211L77.3485 27.1363L88.6565 19.2931C88.7088 19.2582 88.7728 19.245 88.8347 19.2565C88.8966 19.268 88.9515 19.3032 88.9878 19.3547C89.0058 19.3804 89.0184 19.4094 89.025 19.4401C89.0316 19.4707 89.0321 19.5024 89.0264 19.5332C89.0206 19.564 89.0088 19.5934 88.9917 19.6197C88.9745 19.6459 88.9523 19.6684 88.9263 19.686L77.4479 27.657C77.4129 27.6814 77.3721 27.6961 77.3296 27.6996Z" fill="#D1D3D4"/>
<path d="M67.2522 30.8283C67.213 30.8288 67.1744 30.8195 67.1397 30.8013C67.105 30.7831 67.0753 30.7566 67.0534 30.7242C67.0189 30.6713 67.0065 30.6069 67.0189 30.545C67.0313 30.4831 67.0675 30.4284 67.1197 30.3929L75.5072 24.9732C75.5594 24.9389 75.623 24.9266 75.6841 24.9391C75.7453 24.9515 75.7991 24.9875 75.8338 25.0394C75.8683 25.0923 75.8807 25.1567 75.8683 25.2186C75.8559 25.2806 75.8197 25.3352 75.7675 25.3708L67.3895 30.7905C67.3491 30.8178 67.3009 30.8311 67.2522 30.8283Z" fill="#D1D3D4"/>
<path d="M85.6176 32.7312C85.582 32.7314 85.5469 32.7234 85.5148 32.7078C85.4828 32.6922 85.4548 32.6695 85.433 32.6413L79.8666 25.7069C79.8279 25.6579 79.8102 25.5955 79.8173 25.5335C79.8244 25.4714 79.8557 25.4146 79.9045 25.3756C79.9285 25.3558 79.9563 25.3411 79.9861 25.3323C80.0159 25.3234 80.0473 25.3207 80.0782 25.3243C80.1091 25.3278 80.139 25.3375 80.1661 25.3528C80.1931 25.3682 80.2169 25.3888 80.2358 25.4135L85.8022 32.3478C85.8223 32.3716 85.8373 32.3991 85.8465 32.4287C85.8557 32.4584 85.8589 32.4896 85.8558 32.5205C85.8527 32.5514 85.8434 32.5814 85.8285 32.6086C85.8137 32.6359 85.7934 32.6599 85.7691 32.6792C85.7252 32.7117 85.6723 32.7299 85.6176 32.7312Z" fill="#D1D3D4"/>
<path d="M33.9908 53.7567C35.1499 51.4456 36.7386 49.3766 38.6721 47.6601C41.7772 44.9763 43.6374 43.0262 42.6623 42.496C41.6873 41.9659 38.4591 44.2569 38.4591 44.2569L40.9015 35.3108C40.9015 35.3108 35.5197 38.8561 33.9908 41.8712C32.4619 44.8864 29.4468 51.248 29.4468 51.248L33.9908 53.7567Z" fill="white"/>
<path d="M33.9908 53.9935C33.9512 53.9937 33.9121 53.984 33.8772 53.9651L29.3332 51.4517C29.2807 51.4226 29.2412 51.3746 29.2228 51.3175C29.2043 51.2604 29.2083 51.1984 29.2338 51.144C29.2622 51.0825 32.2679 44.7493 33.7826 41.7672C35.2972 38.7852 40.5465 35.2589 40.769 35.1121C40.8092 35.0852 40.8567 35.0712 40.9051 35.0721C40.9534 35.0729 41.0004 35.0886 41.0396 35.117C41.0788 35.1453 41.1083 35.185 41.1243 35.2307C41.1402 35.2764 41.1418 35.3259 41.1287 35.3725L38.8567 43.6985C39.8933 43.0169 41.9239 41.8051 42.776 42.2784C42.8805 42.3291 42.9702 42.4057 43.0365 42.5011C43.1028 42.5964 43.1435 42.7072 43.1546 42.8228C43.2446 43.6464 41.9902 45.0948 38.8283 47.8307C36.9219 49.5259 35.3542 51.5674 34.2086 53.8468C34.1951 53.8768 34.1755 53.9037 34.151 53.9257C34.1266 53.9477 34.0978 53.9643 34.0666 53.9746C34.0427 53.9856 34.017 53.992 33.9908 53.9935ZM29.7545 51.1535L33.8867 53.435C35.0574 51.1868 36.6259 49.1694 38.5159 47.4804C39.5715 46.5716 42.776 43.7931 42.686 42.8843C42.6813 42.8448 42.6661 42.8073 42.642 42.7756C42.6178 42.744 42.5856 42.7194 42.5488 42.7045C41.9618 42.3826 39.8839 43.5328 38.5964 44.4511C38.5561 44.478 38.5087 44.4921 38.4603 44.4917C38.4119 44.4913 38.3647 44.4764 38.3249 44.4488C38.285 44.4213 38.2544 44.3824 38.237 44.3372C38.2196 44.292 38.2162 44.2426 38.2272 44.1955L40.4992 35.8742C39.1171 36.8493 35.4061 39.6088 34.2038 41.9802C32.8359 44.6593 30.2799 50.0601 29.7545 51.1488V51.1535Z" fill="#231F20"/>
<path d="M51.5327 17.239L66.76 18.5691Z" fill="white"/>
<path d="M66.7599 18.8199L51.5374 17.4898C51.4751 17.4838 51.4175 17.4537 51.3769 17.406C51.3362 17.3583 51.3157 17.2967 51.3197 17.2342C51.3221 17.2031 51.3306 17.1727 51.3448 17.1449C51.3589 17.1171 51.3784 17.0924 51.4022 17.0721C51.426 17.0519 51.4535 17.0366 51.4832 17.027C51.5129 17.0174 51.5442 17.0139 51.5753 17.0164L66.7789 18.3465C66.8416 18.3465 66.9018 18.3714 66.9462 18.4158C66.9906 18.4602 67.0155 18.5204 67.0155 18.5832C67.0155 18.646 66.9906 18.7061 66.9462 18.7505C66.9018 18.7949 66.8416 18.8199 66.7789 18.8199H66.7599Z" fill="#231F20"/>
<path d="M50.5434 19.97L62.8075 21.0728Z" fill="white"/>
<path d="M62.8076 21.3097L50.5434 20.2068C50.5125 20.2045 50.4824 20.1959 50.4548 20.1817C50.4272 20.1675 50.4028 20.1479 50.3829 20.124C50.3631 20.1002 50.3482 20.0726 50.3392 20.0429C50.3302 20.0133 50.3272 19.9821 50.3304 19.9512C50.3328 19.9201 50.3413 19.8898 50.3555 19.862C50.3697 19.8341 50.3892 19.8094 50.4129 19.7892C50.4367 19.7689 50.4642 19.7536 50.4939 19.744C50.5236 19.7345 50.5549 19.7309 50.586 19.7335L62.8502 20.8411C62.913 20.8442 62.9719 20.8722 63.0141 20.9188C63.0562 20.9654 63.0782 21.0268 63.075 21.0896C63.0719 21.1524 63.0439 21.2113 62.9973 21.2535C62.9507 21.2956 62.8893 21.3176 62.8265 21.3144L62.8076 21.3097Z" fill="#231F20"/>
<path d="M29.5557 20.8789C29.5557 20.8789 32.7602 26.1613 32.017 27.2027C31.2739 28.244 28.9545 27.4441 28.9545 27.4441" fill="white"/>
<path d="M30.6302 27.9742C30.0348 27.9589 29.4448 27.8568 28.8788 27.6713C28.8477 27.661 28.819 27.6447 28.7942 27.6234C28.7694 27.602 28.7491 27.5759 28.7343 27.5467C28.7196 27.5175 28.7108 27.4856 28.7084 27.453C28.706 27.4204 28.71 27.3876 28.7203 27.3565C28.7305 27.3254 28.7468 27.2967 28.7682 27.2719C28.7895 27.2471 28.8156 27.2267 28.8448 27.212C28.874 27.1973 28.9059 27.1885 28.9385 27.186C28.9711 27.1836 29.0039 27.1877 29.035 27.1979C29.6314 27.4015 31.2976 27.7754 31.823 27.0417C32.2963 26.4122 30.6491 23.1178 29.3522 20.9783C29.3358 20.9516 29.325 20.9219 29.3202 20.891C29.3154 20.8601 29.3168 20.8286 29.3243 20.7982C29.3318 20.7678 29.3452 20.7392 29.3638 20.7141C29.3824 20.6889 29.4058 20.6677 29.4326 20.6517C29.4868 20.62 29.5513 20.6106 29.6122 20.6257C29.6732 20.6407 29.726 20.6789 29.7592 20.7321C30.3083 21.6362 33.0063 26.2039 32.2064 27.3163C32.0156 27.5442 31.7728 27.7229 31.4985 27.8374C31.2242 27.9519 30.9264 27.9988 30.6302 27.9742Z" fill="#231F20"/>
<path d="M11.0624 30.5965C8.69573 30.6391 6.63672 29.8013 4.0665 28.2299C3.33756 27.7897 2.50449 27.0891 2.73643 26.275C2.86683 26.0165 2.96537 25.7431 3.02989 25.4608C3.02989 24.9875 2.55656 24.6656 2.17316 24.3816C1.53672 23.9045 1.04838 23.2568 0.764648 22.5137C0.480917 21.7706 0.413386 20.9623 0.569864 20.1824C0.726342 19.4025 1.10043 18.6828 1.64886 18.1066C2.1973 17.5305 2.89765 17.1213 3.6689 16.9266C2.98845 16.2492 2.51375 15.393 2.29972 14.457C2.0857 13.521 2.14112 12.5436 2.45956 11.6378C2.77799 10.732 3.34644 9.93489 4.09908 9.33875C4.85173 8.74262 5.75781 8.37181 6.71245 8.26926C6.03558 8.34026 7.44139 4.48257 7.65913 4.12283C8.51612 2.79734 9.79272 1.7974 11.2849 1.28281C12.2713 0.950233 13.3183 0.836389 14.3531 0.949189C15.3879 1.06199 16.3858 1.39873 17.2773 1.93602C17.6891 0.894676 18.8583 0.31247 19.9753 0.265137C21.0977 0.28785 22.2038 0.537414 23.2272 0.998808C24.472 1.47214 25.8211 2.07802 26.3607 3.28976C26.4445 3.55396 26.5725 3.80204 26.7393 4.02343C27.0124 4.24717 27.3384 4.39711 27.686 4.4589C31.4348 5.62804 32.1827 11.2702 29.6077 13.67C29.1344 14.0913 28.6611 13.883 28.2824 14.4037C28.0363 14.7492 28.0031 15.7054 27.8706 16.1456C27.5365 17.2143 27.0957 18.2466 26.5547 19.227C25.3646 21.2823 23.9345 23.189 22.2947 24.907C20.308 27.1383 17.8008 28.8439 14.9958 29.8723C13.7318 30.3222 12.4038 30.5667 11.0624 30.5965Z" fill="white"/>
<path d="M10.8825 30.8331C8.75725 30.8331 6.73137 30.1326 3.95288 28.4381C2.495 27.5529 2.3672 26.7388 2.53287 26.2134C2.57143 26.091 2.62053 25.9723 2.6796 25.8584C2.75254 25.7351 2.79927 25.5982 2.81687 25.456C2.81687 25.1389 2.48554 24.888 2.1542 24.6466L2.05953 24.5756C1.40829 24.0937 0.900991 23.4431 0.592369 22.694C0.283747 21.9449 0.185513 21.1258 0.308267 20.3249C0.43102 19.5241 0.770101 18.772 1.28893 18.1498C1.80776 17.5275 2.48664 17.0587 3.25234 16.794C2.63749 16.0841 2.22151 15.2241 2.04666 14.3013C1.87182 13.3786 1.94434 12.426 2.25686 11.5404C2.56938 10.6548 3.11075 9.86767 3.82598 9.25903C4.54122 8.65039 5.40481 8.24192 6.32903 8.07512C6.2107 7.05745 7.33724 4.19376 7.46977 3.98076C8.35454 2.60438 9.67664 1.5657 11.2233 1.03187C12.2002 0.701462 13.2353 0.578787 14.2623 0.671709C15.2894 0.764631 16.2857 1.0711 17.1874 1.57148C17.4843 1.09685 17.8955 0.704286 18.3834 0.42974C18.8713 0.155193 19.4203 0.00743709 19.9801 0C21.1349 0.0181965 22.2738 0.272715 23.3266 0.747871C24.5998 1.22121 26.0056 1.86021 26.5878 3.16662L26.673 3.36069C26.7276 3.53224 26.8126 3.69257 26.9239 3.83403C27.1214 3.99911 27.3576 4.11147 27.6102 4.16063L27.7617 4.20323C29.4563 4.73336 30.739 6.23384 31.1934 8.22186C31.6667 10.3613 31.1271 12.5576 29.7734 13.8167C29.5621 13.9998 29.3082 14.1267 29.035 14.1859C28.8119 14.2174 28.6099 14.3345 28.4717 14.5125C28.335 14.8312 28.2519 15.1702 28.2256 15.516C28.197 15.7409 28.1543 15.9638 28.0978 16.1834C27.7534 17.2633 27.2998 18.3053 26.744 19.2932C25.535 21.3495 24.0876 23.256 22.4319 24.9732C20.4199 27.2332 17.8799 28.9601 15.0384 30.0001C13.7681 30.4719 12.4308 30.7388 11.0766 30.7905H10.8825V30.8331ZM6.7361 8.48692C5.82677 8.58642 4.96409 8.94096 4.24759 9.50965C3.53109 10.0783 2.98996 10.838 2.68663 11.701C2.38329 12.564 2.33011 13.4952 2.53322 14.3871C2.73633 15.279 3.18745 16.0953 3.83455 16.7419C3.86455 16.7716 3.88607 16.8087 3.89689 16.8495C3.9077 16.8903 3.90743 16.9332 3.89608 16.9738C3.88438 17.0138 3.86254 17.0501 3.83268 17.0791C3.80282 17.1081 3.76596 17.1289 3.72568 17.1395C2.99337 17.3208 2.32767 17.7065 1.80612 18.2516C1.28458 18.7967 0.928667 19.4788 0.779855 20.2184C0.631044 20.958 0.695459 21.7246 0.965598 22.429C1.23574 23.1334 1.70048 23.7465 2.30567 24.197L2.40033 24.2632C2.78847 24.552 3.27601 24.907 3.25708 25.475C3.23814 25.6816 3.1752 25.8817 3.07248 26.0619C3.0271 26.1524 2.98757 26.2457 2.95414 26.3412C2.76481 27.0086 3.51741 27.6287 4.18008 28.0357C6.95857 29.7255 8.95132 30.4024 11.0482 30.3598C12.3526 30.309 13.6405 30.0501 14.8633 29.593C17.6324 28.5826 20.1065 26.899 22.0627 24.694C23.697 22.9971 25.1268 21.1146 26.3228 19.0849C26.8601 18.1189 27.2978 17.1007 27.6292 16.0461C27.6781 15.848 27.716 15.6473 27.7428 15.445C27.7709 15.0244 27.8836 14.6139 28.0741 14.238C28.2731 13.9707 28.5655 13.7882 28.893 13.7268C29.0927 13.6892 29.2789 13.5993 29.4326 13.4664C30.6633 12.3257 31.165 10.3045 30.7153 8.33072C30.2941 6.47998 29.1581 5.14044 27.6008 4.65763L27.4588 4.6103C27.1221 4.53942 26.8122 4.37542 26.5642 4.13696C26.4074 3.95561 26.2883 3.74481 26.2139 3.51689C26.2139 3.46009 26.1666 3.39856 26.1382 3.34176C25.6317 2.20101 24.3253 1.62354 23.1372 1.17387C22.1445 0.722595 21.0703 0.477815 19.9801 0.454403C19.0334 0.497003 17.8879 0.984539 17.4903 1.97855C17.4769 2.01046 17.4569 2.03918 17.4316 2.06283C17.4063 2.08649 17.3763 2.10454 17.3436 2.11581C17.2797 2.14112 17.2086 2.14112 17.1448 2.11581C16.2846 1.59384 15.3205 1.26693 14.3202 1.15816C13.32 1.04939 12.3081 1.16139 11.3559 1.48628C9.91225 1.98298 8.67824 2.95184 7.85317 4.23636C7.64017 4.5819 6.64143 7.48345 6.76923 8.02305C6.81561 8.03524 6.85718 8.06124 6.88846 8.09758C6.91973 8.13393 6.93923 8.17892 6.94437 8.22659C6.95102 8.28868 6.93287 8.35089 6.89385 8.39965C6.85484 8.44842 6.79814 8.47979 6.7361 8.48692Z" fill="#231F20"/>
<path d="M29.0492 13.7931C29.2194 13.8871 29.3703 14.0124 29.4941 14.1623C30.0172 14.8371 30.3447 15.6427 30.4408 16.4911C30.7154 18.2282 30.3887 19.9938 30.3083 21.7357C30.1505 25.1595 29.9138 28.5754 29.5983 31.9834C29.3995 34.1466 23.781 33.9762 22.8154 33.2898L23.3692 41.8903L11.744 36.9108L12.5014 29.8439C12.5014 29.8439 16.3212 30.0191 18.6831 25.6833C19.352 24.3727 19.8301 22.9732 20.1031 21.5274C20.3729 20.2967 20.9551 18.5406 20.922 17.2958C20.8813 16.7365 20.7585 16.1863 20.5575 15.6628C21.0321 15.9086 21.5834 15.9612 22.0959 15.8095C22.2769 15.7141 22.4345 15.5797 22.5573 15.416C22.6801 15.2523 22.765 15.0633 22.8059 14.8628C22.8801 14.4552 22.8929 14.0388 22.8438 13.6274C23.0888 13.7769 23.362 13.8743 23.6464 13.9134C23.9307 13.9526 24.2201 13.9327 24.4964 13.8549C24.7727 13.7772 25.03 13.6433 25.2522 13.4616C25.4744 13.28 25.6568 13.0544 25.7879 12.7991C25.9157 13.3387 26.5737 13.5233 27.1227 13.6085C27.9037 13.7221 28.4907 13.4901 29.0492 13.7931Z" fill="white"/>
<path d="M23.3691 42.127C23.338 42.1341 23.3056 42.1341 23.2745 42.127L11.6493 37.1475C11.6031 37.1262 11.5647 37.0911 11.5392 37.047C11.5138 37.0029 11.5027 36.9521 11.5073 36.9014L12.2647 29.8392C12.2717 29.7794 12.3009 29.7244 12.3464 29.685C12.392 29.6456 12.4506 29.6246 12.5108 29.6262C12.6575 29.6262 16.217 29.7351 18.4748 25.5886C19.1274 24.2975 19.5943 22.9207 19.8617 21.499C19.9375 21.1629 20.0321 20.789 20.1315 20.4009C20.4396 19.4002 20.6224 18.3651 20.6759 17.3194C20.6372 16.7838 20.5176 16.2571 20.3209 15.7574C20.3063 15.7149 20.3041 15.6691 20.3145 15.6254C20.325 15.5817 20.3477 15.5419 20.38 15.5106C20.4122 15.4793 20.4528 15.4579 20.4968 15.4488C20.5408 15.4397 20.5865 15.4433 20.6285 15.4592C21.0461 15.6787 21.5305 15.7344 21.987 15.6154C22.1375 15.5333 22.2676 15.4184 22.3676 15.279C22.4676 15.1397 22.5349 14.9797 22.5645 14.8108C22.635 14.4282 22.6462 14.0371 22.5976 13.6511C22.5938 13.6065 22.6029 13.5618 22.6239 13.5224C22.6449 13.4829 22.6769 13.4504 22.7159 13.4286C22.7537 13.4056 22.7971 13.3935 22.8414 13.3935C22.8856 13.3935 22.929 13.4056 22.9668 13.4286C23.1851 13.556 23.4271 13.6374 23.678 13.6679C23.9288 13.6984 24.1833 13.6773 24.4257 13.6059C24.6682 13.5346 24.8935 13.4144 25.0878 13.2529C25.2822 13.0914 25.4415 12.8918 25.556 12.6665C25.5769 12.6224 25.6107 12.5857 25.653 12.5611C25.6952 12.5366 25.7439 12.5255 25.7926 12.5293C25.842 12.5331 25.8888 12.5526 25.9263 12.585C25.9638 12.6174 25.9899 12.6609 26.0009 12.7091C26.0766 13.0263 26.4458 13.2298 27.1416 13.3434C27.4193 13.3797 27.6997 13.3908 27.9794 13.3766C28.3853 13.3308 28.796 13.3963 29.1675 13.5659C29.3622 13.6739 29.5355 13.8167 29.6787 13.9872C30.2358 14.6987 30.5789 15.554 30.668 16.4532C30.8216 17.7108 30.8216 18.9824 30.668 20.2399C30.6254 20.7417 30.5828 21.2434 30.5591 21.7404C30.4029 25.1532 30.1615 28.6038 29.8491 31.9976C29.8113 32.4189 29.5651 33.0106 28.6326 33.4176C27.0801 34.1324 24.2922 34.0661 23.0899 33.6496L23.6153 41.8525C23.6174 41.8927 23.6094 41.9329 23.5921 41.9693C23.5747 42.0056 23.5485 42.0371 23.5159 42.0607C23.4758 42.0987 23.4241 42.122 23.3691 42.127ZM12.0091 36.7594L23.0993 41.5401L22.5739 33.323C22.5723 33.2782 22.5828 33.2338 22.6045 33.1946C22.6262 33.1554 22.6582 33.1229 22.697 33.1005C22.7348 33.0775 22.7782 33.0653 22.8224 33.0653C22.8667 33.0653 22.9101 33.0775 22.9479 33.1005C23.5821 33.5738 26.763 33.7774 28.4196 33.02C29.0018 32.7502 29.319 32.3952 29.3663 31.9645C29.6787 28.5754 29.9201 25.1342 30.0763 21.7309C30.0763 21.2245 30.1426 20.7133 30.1899 20.2068C30.3389 18.987 30.3389 17.7535 30.1899 16.5337C30.1089 15.7276 29.804 14.9603 29.3095 14.3185C29.2031 14.1943 29.0767 14.0887 28.9356 14.0061C28.6374 13.8787 28.3106 13.8329 27.9889 13.8736C27.6807 13.8902 27.3717 13.8776 27.0659 13.8357C26.58 13.791 26.1216 13.59 25.7595 13.263C25.4506 13.6551 25.0255 13.9396 24.5452 14.0756C24.0649 14.2116 23.5538 14.1922 23.0851 14.0203C23.1006 14.317 23.0784 14.6144 23.0189 14.9054C22.9716 15.1442 22.8714 15.3694 22.7255 15.5644C22.5797 15.7593 22.3921 15.9191 22.1763 16.032C21.7675 16.186 21.3166 16.186 20.9078 16.032C21.0426 16.4358 21.1207 16.8563 21.1397 17.2816C21.092 18.3724 20.9042 19.4526 20.5812 20.4955C20.4818 20.8789 20.3871 21.2481 20.3161 21.5747C20.043 23.0402 19.5649 24.4599 18.8961 25.7922C16.8229 29.5789 13.59 30.0522 12.7191 30.0522L12.0091 36.7594Z" fill="#231F20"/>
<path d="M22.8958 22.5119C22.8958 21.6552 22.4651 20.8647 22.0249 20.1453C21.7154 19.5553 21.318 19.0158 20.8463 18.5454C20.6132 18.3067 20.3302 18.1227 20.0176 18.0065C19.705 17.8903 19.3705 17.8448 19.0381 17.8732C18.75 17.9353 18.4782 18.057 18.2401 18.2307C18.002 18.4044 17.803 18.6261 17.656 18.8814C17.377 19.4001 17.2154 19.9738 17.1827 20.5618C17.0785 21.8441 17.3132 23.1312 17.8632 24.2942C18.4131 25.4572 19.259 26.4553 20.3161 27.1885L20.1363 26.9755" fill="white"/>
<path d="M20.2972 27.4629C20.2498 27.462 20.2037 27.4472 20.1647 27.4203C19.0732 26.6592 18.2001 25.6256 17.6321 24.4223C17.0641 23.219 16.821 21.888 16.9271 20.5616C16.9666 19.935 17.1461 19.3252 17.4525 18.7771C17.615 18.4906 17.8374 18.2425 18.1045 18.0497C18.3716 17.8569 18.6772 17.724 19.0003 17.6601C19.3641 17.618 19.7327 17.6578 20.0791 17.7765C20.4255 17.8953 20.741 18.09 21.0025 18.3464C21.4918 18.8313 21.9036 19.3884 22.2237 19.9983C22.6355 20.6941 23.1467 21.5604 23.1278 22.5118C23.1254 22.5741 23.0988 22.6331 23.0538 22.6764C23.0088 22.7196 22.9488 22.7437 22.8864 22.7437C22.8553 22.7431 22.8247 22.7363 22.7962 22.7239C22.7677 22.7114 22.742 22.6935 22.7204 22.671C22.6989 22.6486 22.682 22.6222 22.6707 22.5932C22.6593 22.5643 22.6538 22.5334 22.6545 22.5023C22.6545 21.6834 22.1811 20.8835 21.8167 20.2397C21.5187 19.6718 21.1374 19.1517 20.6854 18.6967C20.4739 18.487 20.2187 18.3265 19.9381 18.2267C19.6574 18.1269 19.3583 18.0902 19.0618 18.1192C18.8064 18.1746 18.5656 18.2834 18.3552 18.4384C18.1447 18.5934 17.9694 18.7911 17.8406 19.0185C17.5656 19.5031 17.4038 20.0435 17.3673 20.5995C17.2763 21.767 17.4739 22.939 17.9428 24.0121C18.4116 25.0852 19.1373 26.0264 20.0558 26.7529C20.0945 26.7481 20.1337 26.753 20.1701 26.767C20.2064 26.781 20.2387 26.8038 20.2641 26.8333L20.444 27.0463C20.4819 27.0895 20.5029 27.145 20.5029 27.2025C20.5029 27.26 20.4819 27.3155 20.444 27.3587C20.41 27.4107 20.3575 27.4479 20.2972 27.4629Z" fill="#231F20"/>
<path d="M9.26849 38.932L10.4234 35.1926L25.4755 36.6458L26.3417 40.0822C26.3417 40.0822 18.4749 43.8216 9.26849 38.932Z" fill="white"/>
<path d="M19.1376 41.6678C15.6572 41.6595 12.2329 40.7912 9.16908 39.1402C9.12064 39.1141 9.08279 39.072 9.06206 39.021C9.04133 38.9701 9.039 38.9135 9.05548 38.861L10.2057 35.1216C10.2217 35.0701 10.2548 35.0255 10.2996 34.9954C10.3443 34.9653 10.3981 34.9514 10.4518 34.9559L25.5087 36.4138C25.5572 36.418 25.6032 36.4371 25.6405 36.4685C25.6778 36.4998 25.7045 36.5419 25.7169 36.5889L26.5784 40.0254C26.5923 40.0782 26.5871 40.1342 26.5637 40.1836C26.5403 40.2329 26.5003 40.2724 26.4506 40.2952C24.1291 41.2367 21.6425 41.7035 19.1376 41.6678ZM9.55248 38.8278C12.0665 40.1773 14.839 40.9761 17.6857 41.1712C20.5323 41.3662 23.3879 40.953 26.0625 39.9591L25.2862 36.8824L10.5891 35.4624L9.55248 38.8278Z" fill="#231F20"/>
<path d="M28.6709 20.0424C28.9375 20.0382 29.145 19.486 29.1344 18.809C29.1238 18.132 28.899 17.5866 28.6324 17.5908C28.3658 17.595 28.1583 18.1472 28.1689 18.8242C28.1795 19.5012 28.4043 20.0466 28.6709 20.0424Z" fill="#231F20"/>
<path d="M3.48903 100.707C3.48903 100.707 -3.72936 52.5404 2.59915 43.6228C6.15865 38.6054 11.8955 38.4161 17.1448 38.6622C21.2202 38.8421 24.8318 38.5344 27.9795 41.0289C35.1694 46.7799 45.6728 97.9192 45.6728 97.9192C45.6728 97.9192 30.1521 108.754 3.48903 100.707Z" fill="#AEFFEC"/>
<path d="M51.5065 35.2773L53.2829 34.694L55.4612 41.3272C55.534 41.549 55.5158 41.7907 55.4104 41.9991C55.3051 42.2075 55.1213 42.3655 54.8994 42.4383L54.796 42.4723C54.6862 42.5084 54.5703 42.5225 54.455 42.5138C54.3397 42.505 54.2273 42.4737 54.1241 42.4215C54.0209 42.3694 53.929 42.2974 53.8536 42.2097C53.7783 42.122 53.7209 42.0204 53.6848 41.9105L51.5065 35.2773Z" fill="white"/>
<path d="M54.5242 42.7469C54.2879 42.7475 54.0575 42.6731 53.8661 42.5345C53.6747 42.3959 53.5323 42.2001 53.4592 41.9754L51.2818 35.3487C51.2624 35.289 51.2675 35.2241 51.2959 35.1682C51.3243 35.1123 51.3737 35.07 51.4333 35.0505L53.1894 34.4399C53.247 34.4162 53.3116 34.4162 53.3692 34.4399C53.425 34.4685 53.4675 34.5178 53.4876 34.5771L55.6649 41.2039C55.7116 41.3429 55.7302 41.4898 55.7196 41.636C55.709 41.7823 55.6695 41.925 55.6034 42.0559C55.4691 42.3201 55.2361 42.5208 54.9549 42.6144L54.8508 42.6475C54.7477 42.6974 54.6376 42.731 54.5242 42.7469ZM51.8025 35.4197L53.9088 41.8287C53.9629 41.9907 54.0788 42.1248 54.2312 42.202C54.3837 42.2791 54.5604 42.2929 54.723 42.2405L54.8271 42.2073C54.9878 42.1509 55.1213 42.036 55.2011 41.8855C55.2729 41.7379 55.2848 41.5682 55.2342 41.4121L53.1326 35.0031L51.8025 35.4197Z" fill="#231F20"/>
<path d="M49.0132 29.5271L51.8823 28.5849L54.0134 35.0742L51.1442 36.0164L49.0132 29.5271Z" fill="white"/>
<path d="M51.1445 36.2433C51.1086 36.2505 51.0716 36.2505 51.0357 36.2433C50.9799 36.2147 50.9375 36.1654 50.9173 36.1061L48.7873 29.6166C48.7679 29.557 48.773 29.4921 48.8014 29.4362C48.8298 29.3803 48.8792 29.3379 48.9388 29.3184L51.8072 28.3717C51.8355 28.3589 51.8661 28.3523 51.8971 28.3523C51.9282 28.3523 51.9588 28.3589 51.9871 28.3717C52.0152 28.3853 52.0402 28.4044 52.0605 28.4281C52.0809 28.4517 52.0962 28.4792 52.1054 28.509L54.2354 34.9985C54.2591 35.0561 54.2591 35.1207 54.2354 35.1783C54.2068 35.2341 54.1575 35.2765 54.0982 35.2967L51.2297 36.2433H51.1445ZM49.3127 29.6687L51.296 35.7085L53.7148 34.9132L51.7267 28.8735L49.3127 29.6687Z" fill="#231F20"/>
<path d="M54.3513 40.101L53.506 40.3769C52.9472 40.5592 52.642 41.16 52.8244 41.7188L55.8456 50.9775C56.028 51.5363 56.6287 51.8414 57.1875 51.6591L58.0329 51.3832C58.5917 51.2009 58.8968 50.6001 58.7145 50.0413L55.6932 40.7826C55.5109 40.2238 54.9101 39.9187 54.3513 40.101Z" fill="white"/>
<path d="M57.0044 51.7451C56.7308 51.7442 56.4643 51.6574 56.2426 51.4969C56.021 51.3363 55.8553 51.1103 55.769 50.8505L52.716 41.5921C52.6082 41.2638 52.6348 40.9061 52.79 40.5974C52.9453 40.2887 53.2165 40.054 53.5444 39.9449L54.3869 39.6703C54.7145 39.5626 55.0716 39.5894 55.3795 39.7447C55.6875 39.9 55.9212 40.1712 56.0294 40.4987L59.0729 49.7619C59.1806 50.0895 59.1539 50.4465 58.9986 50.7545C58.8433 51.0624 58.5721 51.2962 58.2446 51.4043L57.3973 51.6789C57.271 51.7227 57.1382 51.745 57.0044 51.7451ZM54.8082 40.0774C54.7197 40.0777 54.6318 40.0921 54.5478 40.12L53.7053 40.3945C53.497 40.4637 53.3247 40.6127 53.2262 40.8089C53.1276 41.005 53.111 41.2322 53.1799 41.4406L56.2187 50.7038C56.2897 50.9103 56.4394 51.0804 56.6352 51.1771C56.7317 51.2268 56.8371 51.2566 56.9452 51.2647C57.0534 51.2728 57.162 51.2592 57.2648 51.2245L58.1073 50.9499C58.2097 50.915 58.3042 50.8602 58.3854 50.7888C58.4666 50.7173 58.533 50.6305 58.5807 50.5334C58.6303 50.437 58.6601 50.3316 58.6682 50.2234C58.6764 50.1153 58.6627 50.0066 58.628 49.9039L55.5844 40.6454C55.5303 40.4817 55.4263 40.339 55.2872 40.2372C55.148 40.1354 54.9806 40.0795 54.8082 40.0774Z" fill="#231F20"/>
<path d="M49.8997 35.4056C54.3255 35.4056 57.9133 31.8178 57.9133 27.392C57.9133 22.9662 54.3255 19.3784 49.8997 19.3784C45.4739 19.3784 41.8861 22.9662 41.8861 27.392C41.8861 31.8178 45.4739 35.4056 49.8997 35.4056Z" fill="white"/>
<path d="M49.9092 35.6421C47.8339 35.6443 45.834 34.8642 44.3082 33.4575C42.7825 32.0507 41.8429 30.1206 41.6769 28.052C41.5108 25.9833 42.1305 23.9281 43.4123 22.296C44.6942 20.6639 46.544 19.5748 48.5931 19.2459C50.6422 18.917 52.7399 19.3724 54.4682 20.5213C56.1964 21.6703 57.4282 23.4283 57.9179 25.445C58.4076 27.4617 58.1193 29.5889 57.1105 31.4025C56.1017 33.2161 54.4464 34.5829 52.4747 35.2303C51.6465 35.5019 50.7807 35.6409 49.9092 35.6421ZM49.9092 19.615C49.0874 19.6143 48.2708 19.7453 47.4904 20.0031C45.6318 20.6134 44.0715 21.9017 43.1205 23.6112C42.1695 25.3207 41.8977 27.3258 42.3593 29.2268C42.8208 31.1278 43.9819 32.785 45.6109 33.8681C47.2399 34.9512 49.2173 35.3805 51.1488 35.0706C53.0803 34.7606 54.8241 33.7341 56.0324 32.1957C57.2408 30.6574 57.825 28.7201 57.6686 26.7701C57.5122 24.8202 56.6267 23.0008 55.1886 21.6746C53.7505 20.3485 51.8654 19.6131 49.9092 19.615Z" fill="#231F20"/>
<path d="M49.8997 33.9003C53.4942 33.9003 56.4081 30.9864 56.4081 27.3919C56.4081 23.7974 53.4942 20.8835 49.8997 20.8835C46.3052 20.8835 43.3913 23.7974 43.3913 27.3919C43.3913 30.9864 46.3052 33.9003 49.8997 33.9003Z" fill="white"/>
<path d="M49.9044 34.1371C48.6613 34.1377 47.4422 33.7948 46.3817 33.1462C45.3212 32.4976 44.4606 31.5686 43.8949 30.4617C43.3291 29.3548 43.0803 28.1131 43.1758 26.8736C43.2714 25.6342 43.7076 24.4453 44.4363 23.4382C45.1649 22.431 46.1578 21.6449 47.3051 21.1665C48.4525 20.6881 49.7098 20.536 50.9381 20.7272C52.1664 20.9183 53.318 21.4452 54.2657 22.2496C55.2135 23.0541 55.9205 24.1047 56.3087 25.2857C56.6416 26.2985 56.7297 27.3757 56.5658 28.4292C56.4018 29.4826 55.9905 30.4821 55.3656 31.3459C54.7407 32.2096 53.9199 32.9129 52.9706 33.3981C52.0213 33.8833 50.9705 34.1365 49.9044 34.1371ZM49.9044 21.1156C48.5782 21.1129 47.2851 21.5304 46.2109 22.3082C45.1366 23.0859 44.3363 24.184 43.9249 25.4448C43.5134 26.7057 43.5119 28.0644 43.9206 29.3262C44.3293 30.5879 45.1272 31.6877 46.1998 32.4678C47.2723 33.2479 48.5645 33.6683 49.8907 33.6685C51.217 33.6686 52.5092 33.2487 53.582 32.4689C54.6548 31.6891 55.453 30.5895 55.8621 29.3279C56.2711 28.0663 56.2701 26.7076 55.859 25.4466C55.447 24.1853 54.6462 23.0868 53.5714 22.3088C52.4965 21.5307 51.2029 21.113 49.876 21.1156H49.9044Z" fill="#231F20"/>
<path d="M48.7921 54.7272L49.1092 52.3605C49.1092 52.2611 49.2701 44.9575 49.8997 44.3943C50.5292 43.831 58.699 37.9048 59.2717 38.7142C59.8445 39.5236 58.699 41.0478 58.699 41.0478C58.699 41.0478 60.616 40.8537 60.4219 41.9945C60.2279 43.1352 59.0824 44.2949 59.0824 44.2949C59.0824 44.2949 60.2563 43.4334 60.4361 44.6783C60.4872 45.039 60.4418 45.4069 60.3046 45.7444C60.1675 46.0819 59.9434 46.3772 59.6551 46.6C59.6551 46.6 61.3828 45.8332 60.9994 47.2674C60.616 48.7016 56.4128 52.3511 56.4128 52.3511L55.9063 55.4751L48.7921 54.7272Z" fill="white"/>
<path d="M55.9063 55.7401H55.8827L48.7826 54.9828H48.74C48.546 54.926 48.546 54.926 48.8347 52.7912L48.8915 52.3699C48.8915 52.3273 49.0146 44.9291 49.7624 44.2522C50.2358 43.8167 57.5867 38.4302 59.1108 38.4302H59.1724C59.2336 38.4344 59.2933 38.4518 59.3472 38.4812C59.4011 38.5106 59.4481 38.5513 59.4848 38.6006C59.9581 39.268 59.4848 40.2667 59.1676 40.8205C59.6377 40.8042 60.0975 40.9608 60.4598 41.2607C60.5551 41.3693 60.6243 41.4983 60.662 41.6378C60.6998 41.7773 60.7051 41.9236 60.6776 42.0654C60.536 42.6986 60.2546 43.2922 59.854 43.8025C59.9639 43.8003 60.0733 43.8196 60.1758 43.8593C60.3275 43.9368 60.4556 44.0537 60.5464 44.1979C60.6372 44.342 60.6874 44.5079 60.6918 44.6782C60.772 45.2057 60.6612 45.7446 60.3794 46.1976C60.624 46.1597 60.8738 46.2192 61.0752 46.3633C61.1953 46.4965 61.2751 46.6611 61.3052 46.8379C61.3354 47.0148 61.3147 47.1965 61.2456 47.362C60.8716 48.782 57.208 52.0197 56.6495 52.5072L56.1761 55.546C56.1646 55.6068 56.1302 55.6608 56.08 55.6969C56.0298 55.733 55.9676 55.7485 55.9063 55.7401ZM49.0572 54.5378L55.7123 55.2431L56.1856 52.3415C56.1922 52.2864 56.2193 52.2358 56.2613 52.1995C57.4163 51.2008 60.474 48.3608 60.777 47.239C60.8432 46.9786 60.8385 46.7893 60.777 46.7183C60.6113 46.581 60.0906 46.7183 59.7782 46.8414C59.7246 46.8667 59.6633 46.8705 59.607 46.852C59.5506 46.8335 59.5035 46.7941 59.4753 46.742C59.4449 46.6915 59.4354 46.6312 59.4486 46.5738C59.4619 46.5164 59.4969 46.4664 59.5463 46.4343C59.7986 46.2375 59.9945 45.9777 60.1141 45.681C60.2338 45.3843 60.2731 45.0612 60.2279 44.7445C60.1995 44.5694 60.1427 44.3564 59.996 44.2948C59.764 44.1954 59.3664 44.4273 59.2434 44.5173C59.1953 44.5517 59.1361 44.5669 59.0774 44.5599C59.0188 44.5529 58.9648 44.5242 58.9262 44.4794C58.8866 44.4352 58.8648 44.3779 58.8648 44.3185C58.8648 44.2591 58.8866 44.2018 58.9262 44.1575C58.9262 44.1575 60.0291 43.0452 60.2042 41.9849C60.223 41.9153 60.2242 41.842 60.2077 41.7718C60.1912 41.7016 60.1574 41.6366 60.1096 41.5826C59.8161 41.2702 59.0162 41.2749 58.7369 41.2986C58.691 41.3031 58.6447 41.2944 58.6036 41.2734C58.5625 41.2524 58.5283 41.2201 58.505 41.1803C58.4793 41.1426 58.4656 41.098 58.4656 41.0525C58.4656 41.0069 58.4793 40.9623 58.505 40.9247C58.7937 40.5365 59.4516 39.41 59.0777 38.8704C58.273 38.629 50.8795 43.8546 50.0559 44.5978C49.5826 45.0711 49.3412 51.1913 49.3412 52.3889C49.3412 52.3889 49.3412 52.5782 49.2796 52.8622C49.2228 53.2835 49.1092 54.1165 49.0572 54.5189V54.5378Z" fill="#231F20"/>
<path d="M27.97 41.0288C27.97 41.0288 32.5708 43.812 36.0167 50.1879C39.4626 56.5637 44.5841 72.3306 44.5841 72.3306L47.533 52.2469L57.5914 54.5142C57.5914 54.5142 58.4529 90.4878 49.5447 94.5348C40.6365 98.5818 17.8643 73.5376 17.8643 73.5376L27.97 41.0288Z" fill="#AEFFEC"/>
<path d="M46.6431 95.1785H46.5769C46.5295 95.1785 41.5642 93.678 35.8132 88.353C30.5213 83.4492 23.4449 74.1908 19.7908 57.9174C19.7839 57.8864 19.7833 57.8542 19.7888 57.8229C19.7944 57.7916 19.8061 57.7617 19.8233 57.7348C19.8404 57.708 19.8627 57.6849 19.8888 57.6666C19.9149 57.6484 19.9443 57.6355 19.9754 57.6287C20.0064 57.6219 20.0386 57.6212 20.0699 57.6268C20.1012 57.6324 20.1311 57.6441 20.158 57.6612C20.1848 57.6784 20.2079 57.7006 20.2262 57.7267C20.2444 57.7528 20.2573 57.7822 20.2641 57.8133C27.1985 88.708 46.5248 94.6673 46.7189 94.7336C46.7816 94.7424 46.8384 94.7757 46.8765 94.8263C46.9147 94.8769 46.9312 94.9406 46.9224 95.0034C46.9136 95.0661 46.8803 95.1228 46.8297 95.161C46.7791 95.1992 46.7154 95.2157 46.6526 95.2069L46.6431 95.1785Z" fill="#231F20"/>
<path d="M49.2512 30.4167C49.4074 30.2983 49.5589 30.1753 49.7246 30.0617L51.0262 29.115C51.315 28.902 51.599 28.6937 51.8688 28.4523C52.1071 28.2461 52.3129 28.0052 52.4794 27.7376C52.5807 27.5551 52.6602 27.3613 52.716 27.1601C52.7686 26.9855 52.8051 26.8065 52.8249 26.6252C52.8682 26.3407 52.8123 26.05 52.6667 25.8018C52.521 25.5536 52.2945 25.363 52.025 25.262C51.7363 25.1561 51.4241 25.131 51.1222 25.1894C50.8202 25.2478 50.5399 25.3874 50.3115 25.5934C50.1894 25.695 50.0783 25.8092 49.9802 25.9342V25.901C49.8516 25.6231 49.6421 25.3904 49.379 25.2336C49.1364 25.0947 48.8581 25.0305 48.5791 25.049C48.2307 25.0642 47.895 25.1844 47.6162 25.3939C47.3374 25.6035 47.1285 25.8924 47.0171 26.2229C46.9635 26.3952 46.9301 26.5731 46.9177 26.753C46.8963 26.9434 46.8963 27.1355 46.9177 27.3258C46.9591 27.6055 47.0626 27.8723 47.2206 28.1068C47.3819 28.3464 47.564 28.5714 47.7649 28.7789C48.0631 29.0913 48.3708 29.4037 48.669 29.7256C48.8773 29.9433 49.0761 30.1658 49.2749 30.3883L49.2512 30.4167Z" fill="#68E1FD"/>
<path d="M28.9214 29.7824L26.3417 28.2866C26.3417 28.2866 25.556 31.387 26.9571 32.1869C28.3581 32.9869 28.9214 29.7824 28.9214 29.7824Z" fill="white"/>
<path d="M27.3925 32.5466C27.1969 32.5435 27.0056 32.4879 26.8387 32.3856C25.3004 31.51 26.0767 28.3575 26.1098 28.225C26.1193 28.1897 26.1365 28.1569 26.1603 28.129C26.184 28.1012 26.2137 28.079 26.2471 28.0641C26.2802 28.0478 26.3166 28.0393 26.3536 28.0393C26.3905 28.0393 26.4269 28.0478 26.4601 28.0641L29.0492 29.5787C29.0906 29.6037 29.1236 29.6405 29.1438 29.6844C29.1641 29.7282 29.1707 29.7772 29.1628 29.8249C29.1202 30.0474 28.7463 32.0117 27.7996 32.4566C27.6723 32.5165 27.5332 32.5472 27.3925 32.5466ZM26.5027 28.651C26.3133 29.5977 26.1666 31.4579 27.0754 31.9644C27.1509 32.0161 27.2384 32.0477 27.3296 32.056C27.4207 32.0643 27.5125 32.049 27.5961 32.0117C28.1593 31.7466 28.5427 30.5112 28.6563 29.8911L26.5027 28.651Z" fill="#231F20"/>
<path d="M22.8107 33.2897C22.8107 33.2897 19.0571 32.2863 17.8075 31.084C19.2948 32.8325 21.0056 34.3777 22.8959 35.6801L22.8107 33.2897Z" fill="#231F20"/>
<path d="M22.8958 35.9169C22.8502 35.919 22.8051 35.9056 22.768 35.879C20.8524 34.5637 19.1178 33.0025 17.6086 31.2356C17.5709 31.189 17.5522 31.1298 17.5564 31.07C17.5605 31.0102 17.5873 30.9542 17.6311 30.9133C17.675 30.8725 17.7328 30.8498 17.7927 30.8499C17.8527 30.8499 17.9104 30.8727 17.9542 30.9137C19.147 32.0592 22.8201 33.0532 22.8579 33.0627C22.9068 33.075 22.9504 33.1029 22.982 33.1422C23.0136 33.1815 23.0315 33.23 23.0331 33.2804L23.1325 35.6471C23.1348 35.6908 23.125 35.7342 23.1041 35.7727C23.0832 35.8111 23.0521 35.843 23.0141 35.8648C22.9795 35.8915 22.9389 35.9094 22.8958 35.9169ZM19.1564 32.2249C20.2201 33.3332 21.3866 34.338 22.6402 35.2258L22.5645 33.4697C21.4024 33.1441 20.2676 32.7279 19.1706 32.2249H19.1564Z" fill="#231F20"/>
</svg>
