<svg width="132" height="100" viewBox="0 0 132 100" fill="none" xmlns="http://www.w3.org/2000/svg">
<path d="M86.1529 7.55176H5.23412C2.77783 7.55176 0.786621 9.54297 0.786621 11.9993V32.0666C0.786621 34.5228 2.77783 36.514 5.23412 36.514H86.1529C88.6092 36.514 90.6004 34.5228 90.6004 32.0666V11.9993C90.6004 9.54297 88.6092 7.55176 86.1529 7.55176Z" fill="white"/>
<path d="M90.6004 25.679V34.7794C90.6004 35.7381 88.669 36.5141 86.3004 36.5141H5.09188C2.71625 36.5141 0.79187 35.7381 0.79187 34.7794V29.5119C6.26652 30.9622 12.4997 31.9402 18.8926 32.5477C26.6183 33.2817 34.5809 33.4959 42.5102 33.5275C51.9916 33.5661 61.6311 33.3361 70.5559 32.0491C78.7346 30.8727 86.318 28.7042 90.6004 25.679Z" fill="#E8F0F9"/>
<path d="M86.0687 37.2497H5.14983C3.78474 37.2483 2.47594 36.7055 1.51051 35.7404C0.545081 34.7753 0.00185908 33.4667 0 32.1016L0 12.0326C0.00185908 10.6675 0.545081 9.35889 1.51051 8.39379C2.47594 7.42869 3.78474 6.88592 5.14983 6.88452H86.0687C87.434 6.88592 88.7431 7.42893 89.7086 8.39441C90.6741 9.35989 91.2171 10.669 91.2185 12.0343V32.1034C91.2162 33.4682 90.6727 34.7763 89.7074 35.7411C88.742 36.7058 87.4334 37.2483 86.0687 37.2497ZM5.14983 8.28918C4.15714 8.29011 3.20534 8.68474 2.50324 9.38652C1.80114 10.0883 1.40605 11.0399 1.40466 12.0326V32.1016C1.40559 33.0946 1.80047 34.0467 2.50262 34.7489C3.20477 35.451 4.15683 35.8459 5.14983 35.8468H86.0687C87.0616 35.8459 88.0137 35.451 88.7159 34.7489C89.418 34.0467 89.8129 33.0946 89.8138 32.1016V12.0326C89.8129 11.0396 89.418 10.0875 88.7159 9.38539C88.0137 8.68323 87.0616 8.28835 86.0687 8.28742L5.14983 8.28918Z" fill="#314E5D"/>
<path d="M126.712 52.5007H34.2174C31.7611 52.5007 29.7699 54.4919 29.7699 56.9482V77.0155C29.7699 79.4718 31.7611 81.463 34.2174 81.463H126.712C129.169 81.463 131.16 79.4718 131.16 77.0155V56.9482C131.16 54.4919 129.169 52.5007 126.712 52.5007Z" fill="white"/>
<path d="M131.16 70.6277V79.7281C131.16 80.6868 128.986 81.4629 126.305 81.4629H34.6247C31.9436 81.4629 29.7699 80.6868 29.7699 79.7281V74.4606C35.9504 75.911 42.9877 76.8889 50.2042 77.4965C58.9165 78.2304 67.9134 78.4446 76.8663 78.4762C87.5663 78.5148 98.4524 78.2848 108.527 76.9978C117.765 75.8214 126.326 73.653 131.16 70.6277Z" fill="#E8F0F9"/>
<path d="M66.4263 52.5729C56.8746 53.1453 43.6006 52.5922 35.364 54.6974C31.4538 55.6947 30.4898 57.6296 29.8595 59.2292L29.8718 54.7501C29.8718 54.1759 29.9262 53.5508 30.9639 53.1119C32.2474 52.5711 34.5001 52.529 36.4842 52.5307C46.2255 52.5342 56.8781 52.148 66.4263 52.5729Z" fill="#4ED9FF"/>
<path d="M126.618 82.199H34.1209C32.7558 82.1976 31.447 81.6548 30.4816 80.6897C29.5162 79.7246 28.9729 78.416 28.9711 77.0509V56.9819C28.9725 55.6165 29.5155 54.3074 30.481 53.3419C31.4464 52.3764 32.7555 51.8334 34.1209 51.832H126.618C127.983 51.8334 129.292 52.3764 130.258 53.3419C131.223 54.3074 131.766 55.6165 131.767 56.9819V77.0509C131.766 78.416 131.222 79.7246 130.257 80.6897C129.291 81.6548 127.983 82.1976 126.618 82.199ZM34.1209 53.2384C33.1282 53.2394 32.1764 53.634 31.4743 54.3358C30.7722 55.0376 30.3771 55.9892 30.3757 56.9819V77.0509C30.3767 78.0439 30.7715 78.996 31.4737 79.6981C32.1758 80.4003 33.1279 80.7951 34.1209 80.7961H126.618C127.611 80.7951 128.563 80.4003 129.265 79.6981C129.967 78.996 130.362 78.0439 130.363 77.0509V56.9819C130.362 55.9889 129.967 55.0368 129.265 54.3346C128.563 53.6325 127.611 53.2376 126.618 53.2367L34.1209 53.2384Z" fill="#314E5D"/>
<path d="M113.856 0.593506H21.3736C18.9174 0.593506 16.9261 2.58472 16.9261 5.041V87.598C16.9261 90.0543 18.9174 92.0455 21.3736 92.0455H113.856C116.313 92.0455 118.304 90.0543 118.304 87.598V5.041C118.304 2.58472 116.313 0.593506 113.856 0.593506Z" fill="#AEFFEC"/>
<path d="M118.304 57.8333V86.562C118.304 89.5873 116.13 92.0384 113.449 92.0384H21.7722C19.0911 92.0384 16.9174 89.5803 16.9174 86.562V69.9484C23.0979 74.5276 30.1334 77.6179 37.3481 79.537C46.0605 81.8564 55.0556 82.5342 64.0068 82.6325C74.7067 82.7536 85.5893 82.0267 95.6642 77.962C104.91 74.2361 113.472 67.3849 118.304 57.8333Z" fill="#71DDC3"/>
<path d="M53.5789 0.823532C44.029 2.63378 30.7638 0.886742 22.5202 7.53077C18.6117 10.6807 17.6478 16.7892 17.0175 21.8407L17.0315 7.70109C17.0315 5.89084 17.0859 3.91202 18.1236 2.53019C19.4071 0.823532 21.6598 0.691845 23.6422 0.691845C33.38 0.70238 44.0308 -0.495091 53.5789 0.823532Z" fill="#71DDC3"/>
<path d="M113.761 92.8567H21.277C19.9116 92.8553 18.6026 92.3122 17.6371 91.3468C16.6716 90.3813 16.1286 89.0722 16.1272 87.7068V5.14983C16.1286 3.78444 16.6716 2.47537 17.6371 1.50989C18.6026 0.544412 19.9116 0.00139444 21.277 0L113.761 0C115.127 0.00139444 116.436 0.544412 117.401 1.50989C118.367 2.47537 118.91 3.78444 118.911 5.14983V87.7086C118.909 89.0737 118.366 90.3823 117.401 91.3474C116.435 92.3125 115.127 92.8553 113.761 92.8567ZM21.277 1.40466C20.284 1.40559 19.332 1.80047 18.6298 2.50262C17.9277 3.20477 17.5328 4.15683 17.5319 5.14983V87.7086C17.5328 88.7016 17.9277 89.6537 18.6298 90.3558C19.332 91.058 20.284 91.4528 21.277 91.4538H113.761C114.754 91.4528 115.707 91.058 116.409 90.3558C117.111 89.6537 117.506 88.7016 117.507 87.7086V5.14983C117.506 4.15683 117.111 3.20477 116.409 2.50262C115.707 1.80047 114.754 1.40559 113.761 1.40466H21.277Z" fill="#AEFFEC"/>
<path d="M106.749 6.4895H28.892C27.3541 6.4895 26.1073 7.73627 26.1073 9.27424V82.4481C26.1073 83.9861 27.3541 85.2329 28.892 85.2329H106.749C108.287 85.2329 109.533 83.9861 109.533 82.4481V9.27424C109.533 7.73627 108.287 6.4895 106.749 6.4895Z" fill="white"/>
<path d="M109.4 8.72293V24.0126H25.9686V8.72293C25.9686 7.55004 27.1626 6.59839 28.6357 6.59839H106.733C108.206 6.59839 109.4 7.55004 109.4 8.72293Z" fill="#DCEAEF"/>
<path d="M106.649 86.3724H28.7955C27.871 86.3715 26.9846 86.0038 26.3308 85.3501C25.6771 84.6963 25.3094 83.8099 25.3085 82.8854V9.14083C25.3099 8.21659 25.6778 7.33063 26.3315 6.67726C26.9852 6.02389 27.8713 5.65645 28.7955 5.65552H106.649C107.573 5.65645 108.46 6.02413 109.113 6.67788C109.767 7.33163 110.135 8.21804 110.136 9.14258V82.8871C110.134 83.8114 109.766 84.6973 109.113 85.3507C108.459 86.0041 107.573 86.3715 106.649 86.3724ZM28.7955 7.06018C28.2435 7.0611 27.7144 7.2808 27.3241 7.67112C26.9338 8.06145 26.7141 8.59058 26.7131 9.14258V82.8871C26.7145 83.4388 26.9344 83.9675 27.3247 84.3574C27.715 84.7474 28.2438 84.9668 28.7955 84.9678H106.649C107.201 84.9668 107.73 84.7471 108.12 84.3568C108.51 83.9665 108.73 83.4374 108.731 82.8854V9.14083C108.73 8.58913 108.51 8.06045 108.12 7.6705C107.729 7.28056 107.2 7.0611 106.649 7.06018H28.7955Z" fill="#314E5D"/>
<path d="M35.3816 16.7839H70.865V19.8496H35.3816V16.7839Z" fill="white"/>
<path d="M51.6353 31.5574H34.2754V30.8287H51.6353V31.5574Z" fill="#CED5D8"/>
<path d="M72.059 33.1621H34.2754V32.4334H72.059V33.1621Z" fill="#CED5D8"/>
<path d="M51.6353 34.7671H34.2754V34.0384H51.6353V34.7671Z" fill="#CED5D8"/>
<path d="M72.059 36.3718H34.2754V35.6432H72.059V36.3718Z" fill="#CED5D8"/>
<path d="M51.6353 37.9768H34.2754V37.2481H51.6353V37.9768Z" fill="#CED5D8"/>
<path d="M72.059 39.5798H34.2754V38.8512H72.059V39.5798Z" fill="#CED5D8"/>
<path d="M51.6353 46.0588H34.2754V45.3302H51.6353V46.0588Z" fill="#CED5D8"/>
<path d="M72.059 47.6638H34.2754V46.9351H72.059V47.6638Z" fill="#CED5D8"/>
<path d="M51.6353 49.2683H34.2754V48.5396H51.6353V49.2683Z" fill="#CED5D8"/>
<path d="M72.059 50.8733H34.2754V50.1446H72.059V50.8733Z" fill="#CED5D8"/>
<path d="M51.6353 52.478H34.2754V51.7494H51.6353V52.478Z" fill="#CED5D8"/>
<path d="M72.059 54.0811H34.2754V53.3524H72.059V54.0811Z" fill="#CED5D8"/>
<path d="M51.6353 60.5601H34.2754V59.8314H51.6353V60.5601Z" fill="#CED5D8"/>
<path d="M72.059 62.1648H34.2754V61.4361H72.059V62.1648Z" fill="#CED5D8"/>
<path d="M51.6353 63.7698H34.2754V63.0411H51.6353V63.7698Z" fill="#CED5D8"/>
<path d="M72.059 65.3745H34.2754V64.6458H72.059V65.3745Z" fill="#CED5D8"/>
<path d="M51.6353 66.9795H34.2754V66.2508H51.6353V66.9795Z" fill="#CED5D8"/>
<path d="M72.059 68.5825H34.2754V67.8539H72.059V68.5825Z" fill="#CED5D8"/>
<path d="M105.908 11.3987H92.876V9.86585H105.908V11.3987Z" fill="#EEA248"/>
<path d="M91.078 11.3987H78.0463V9.86585H91.078V11.3987Z" fill="#EEA248"/>
<path d="M30.1141 12.1099C30.9306 12.1099 31.5925 11.448 31.5925 10.6315C31.5925 9.81498 30.9306 9.15308 30.1141 9.15308C29.2976 9.15308 28.6357 9.81498 28.6357 10.6315C28.6357 11.448 29.2976 12.1099 30.1141 12.1099Z" fill="#EEA248"/>
<path d="M77.6663 70.5312L82.3802 66.061L91.9454 76.1476L87.2315 80.6179L77.6663 70.5312Z" fill="#314E5D"/>
<g opacity="0.5">
<path d="M78.2905 66.2205C84.434 60.3947 84.6914 50.6916 78.8656 44.5482C73.0397 38.4047 63.3367 38.1472 57.1932 43.9731C51.0497 49.7989 50.7922 59.502 56.6181 65.6455C62.444 71.7889 72.147 72.0464 78.2905 66.2205Z" fill="#8BDDEB"/>
<path d="M59.6628 63.9558C58.1124 62.3219 56.9414 60.3662 56.2331 58.228C55.5248 56.0898 55.2966 53.8218 55.5649 51.5853C55.8331 49.3489 56.5912 47.1992 57.7851 45.2892C58.979 43.3791 60.5793 41.7559 62.4721 40.5349C60.4468 41.2771 58.6009 42.4383 57.0551 43.9427C55.5093 45.4471 54.2983 47.2608 53.5014 49.2652C52.7045 51.2696 52.3395 53.4196 52.4304 55.5747C52.5212 57.7298 53.0658 59.8415 54.0287 61.7717C54.9915 63.7019 56.3508 65.4072 58.0177 66.7762C59.6847 68.1451 61.6218 69.1468 63.7024 69.7159C65.783 70.285 67.9603 70.4086 70.0919 70.0786C72.2235 69.7487 74.2615 68.9726 76.0727 67.8011C73.2609 68.8332 70.2083 69.019 67.292 68.3356C64.3757 67.6523 61.7234 66.1296 59.6628 63.9558Z" fill="#62D6F8"/>
</g>
<path d="M84.4726 38.73C82.802 36.9642 80.8682 35.4675 78.7398 34.2931C78.7029 34.2703 78.6661 34.2509 78.6257 34.2316C73.7053 31.5521 67.9923 30.7097 62.5079 31.8551C57.0235 33.0006 52.1252 36.0591 48.6886 40.4841C45.252 44.909 43.5011 50.4119 43.7488 56.0092C43.9965 61.6064 46.2268 66.9331 50.0409 71.0372C50.0953 71.0986 50.1515 71.1583 50.2165 71.2128C51.9605 73.0564 53.9913 74.6057 56.2302 75.8007L56.2934 75.8341C61.2412 78.4511 66.9578 79.225 72.4233 78.0179C77.8888 76.8108 82.7477 73.7011 86.1329 69.2436C89.5182 64.7861 91.2097 59.2709 90.9056 53.682C90.6015 48.093 88.3215 42.7939 84.4726 38.73ZM78.6977 44.5488C80.7841 46.7488 82.1714 49.5181 82.684 52.5065C83.1965 55.4948 82.8115 58.5681 81.5774 61.3376C80.3433 64.1071 78.3157 66.4485 75.751 68.0657C73.1862 69.6828 70.1995 70.5031 67.1685 70.4228C64.1376 70.3425 61.1985 69.3652 58.723 67.6146C56.2474 65.8639 54.3466 63.4184 53.2609 60.5874C52.1753 57.7565 51.9534 54.6671 52.6235 51.7101C53.2936 48.753 54.8255 46.0611 57.0256 43.9747C58.4863 42.5893 60.2056 41.5052 62.0854 40.7844C63.9651 40.0636 65.9684 39.7201 67.9809 39.7735C69.9934 39.827 71.9757 40.2764 73.8145 41.0961C75.6533 41.9157 77.3126 43.0896 78.6977 44.5506V44.5488Z" fill="#E7E7E7"/>
<path d="M86.1283 68.7266C82.1196 72.5285 76.9044 74.804 71.3908 75.1571C65.8772 75.5101 60.4144 73.9183 55.9535 70.6587C51.4926 67.3991 48.3162 62.6783 46.9772 57.3181C45.6383 51.9579 46.2216 46.2979 48.6257 41.3235C46.6823 43.9689 45.3118 46.9904 44.6018 50.1952C43.8918 53.4 43.8578 56.7177 44.5021 59.9363C45.1464 63.155 46.4547 66.204 48.3436 68.8886C50.2325 71.5732 52.6604 73.8344 55.4723 75.5279C58.2842 77.2214 61.4184 78.31 64.6747 78.7241C67.931 79.1382 71.2378 78.8688 74.3842 77.9331C77.5305 76.9973 80.4471 75.4157 82.9478 73.2894C85.4485 71.1631 87.4784 68.5386 88.9078 65.5837C88.0758 66.7113 87.1457 67.763 86.1283 68.7266Z" fill="#CED0D0"/>
<path d="M67.5395 79.4106C63.4973 79.4126 59.5193 78.3996 55.9704 76.4644L55.8826 76.417C50.7285 73.5814 46.7727 68.9789 44.7436 63.4572C44.698 63.3378 44.6541 63.2132 44.6137 63.085C43.0109 58.4734 42.8336 53.486 44.1047 48.7722C45.3758 44.0584 48.0366 39.8363 51.7406 36.6558C55.4446 33.4752 60.0204 31.4833 64.8722 30.9394C69.7241 30.3956 74.6272 31.3249 78.9435 33.6065C78.991 33.6293 79.0384 33.6557 79.084 33.682C83.6277 36.1247 87.2766 39.9493 89.5031 44.6027C91.7296 49.2561 92.4183 54.4971 91.4696 59.5678C90.5209 64.6384 87.9839 69.2759 84.2256 72.8095C80.4673 76.3431 75.6825 78.5898 70.563 79.2245C69.5599 79.3482 68.5502 79.4104 67.5395 79.4106ZM67.5799 32.179C63.9232 32.1803 60.3199 33.0565 57.0709 34.7343C53.8219 36.4122 51.0215 38.843 48.9036 41.8239C46.7856 44.8047 45.4116 48.249 44.8962 51.8692C44.3809 55.4894 44.7391 59.1803 45.9411 62.6338V62.6548C45.9745 62.7602 46.0131 62.8655 46.0517 62.9691C47.9637 68.1775 51.6949 72.5186 56.5568 75.1914L56.6183 75.2248C61.4117 77.8468 66.9846 78.669 72.331 77.5429C77.6775 76.4168 82.4453 73.4166 85.7738 69.0838C89.1024 64.751 90.7725 59.3711 90.4827 53.9151C90.1929 48.459 87.9623 43.2863 84.1935 39.3305C82.5145 37.5551 80.5611 36.0612 78.408 34.9058L78.3817 34.89L78.3255 34.8602L78.2992 34.8461C74.9975 33.0957 71.3169 32.1818 67.5799 32.1843V32.179ZM67.5799 71.1249C67.4341 71.1249 67.2902 71.1249 67.1444 71.1249C62.9167 71.0674 58.8834 69.3403 55.9243 66.3202C52.9652 63.3002 51.3207 59.2324 51.3494 55.0044C51.3782 50.7765 53.0779 46.7314 56.0777 43.7519C59.0776 40.7724 63.1341 39.1002 67.3621 39.1002C71.5902 39.1002 75.6467 40.7724 78.6466 43.7519C81.6464 46.7314 83.3461 50.7765 83.3749 55.0044C83.4036 59.2324 81.7591 63.3002 78.8 66.3202C75.8409 69.3403 71.8076 71.0674 67.5799 71.1249ZM67.5606 40.4648C63.8167 40.457 60.2144 41.8949 57.505 44.4786C55.0498 46.807 53.478 49.9147 53.0572 53.2722C52.6365 56.6296 53.3929 60.0291 55.1975 62.8914C57.0022 65.7537 59.7434 67.9017 62.9542 68.9695C66.165 70.0373 69.6468 69.9588 72.8062 68.7473C75.9656 67.5359 78.6072 65.2665 80.281 62.3257C81.9548 59.385 82.5571 55.9549 81.9855 52.6198C81.4138 49.2847 79.7035 46.2511 77.1459 44.0356C74.5883 41.8202 71.3416 40.5601 67.9591 40.47C67.8292 40.47 67.6981 40.47 67.5658 40.47L67.5606 40.4648Z" fill="#314E5D"/>
<path d="M86.1482 74.3445L86.147 74.3457C84.1458 76.2434 84.0619 79.404 85.9596 81.4051L100.157 96.3765C102.055 98.3777 105.215 98.4615 107.216 96.5638L107.218 96.5626C109.219 94.6649 109.303 91.5043 107.405 89.5031L93.2077 74.5318C91.31 72.5306 88.1494 72.4468 86.1482 74.3445Z" fill="#426372"/>
<path d="M103.574 98.6332H103.418C102.67 98.6164 101.933 98.4515 101.25 98.148C100.566 97.8445 99.9496 97.4084 99.4358 96.8651L85.2399 81.8914C84.7252 81.3486 84.3224 80.7098 84.0545 80.0113C83.7866 79.3129 83.6589 78.5685 83.6788 77.8207C83.6986 77.0729 83.8655 76.3363 84.1699 75.653C84.4744 74.9697 84.9105 74.3531 85.4533 73.8383C85.996 73.3236 86.6349 72.9207 87.3334 72.6529C88.0318 72.385 88.7762 72.2573 89.524 72.2771C90.2718 72.297 91.0084 72.4639 91.6917 72.7683C92.3749 73.0728 92.9916 73.5089 93.5063 74.0517L107.704 89.02C108.74 90.118 109.299 91.5814 109.259 93.0903C109.219 94.5993 108.583 96.0309 107.49 97.0722C106.435 98.078 105.032 98.6372 103.574 98.6332ZM89.3714 73.6829C88.5334 73.6849 87.7142 73.932 87.0149 74.3938C86.3156 74.8555 85.7666 75.5118 85.4357 76.2817C85.1048 77.0516 85.0064 77.9016 85.1525 78.7267C85.2987 79.5519 85.6831 80.3163 86.2583 80.9257L100.454 95.8958C101.239 96.7184 102.318 97.197 103.455 97.2273C104.592 97.2576 105.694 96.837 106.522 96.0574C107.345 95.2721 107.823 94.1934 107.854 93.0566C107.884 91.9198 107.463 90.8172 106.684 89.9893L92.488 75.0191C92.0869 74.5959 91.6035 74.259 91.0676 74.0293C90.5317 73.7995 89.9545 73.6816 89.3714 73.6829Z" fill="#314E5D"/>
<g opacity="0.5">
<path d="M90.9341 76.2166C92.6899 77.6915 94.0471 79.5263 95.6871 81.1136C96.1752 81.5859 96.9161 80.8414 96.4315 80.3691C94.7916 78.7889 93.4343 76.947 91.6785 75.4721C91.1623 75.0384 90.4143 75.7794 90.9341 76.2166Z" fill="white"/>
<path d="M87.9034 75.885C88.1847 75.7107 88.5009 75.6006 88.8295 75.5623C89.1582 75.5241 89.4912 75.5587 89.805 75.6638C90.4564 75.8534 90.7356 74.8368 90.0859 74.6471C89.6363 74.5053 89.1615 74.4611 88.6934 74.5174C88.2253 74.5737 87.7746 74.7293 87.3714 74.9737C86.7902 75.3249 87.3187 76.2326 87.8981 75.8832L87.9034 75.885Z" fill="white"/>
</g>
<path d="M73.4021 35.8452C76.2026 36.6968 78.8364 38.0593 81.0241 40.003C83.8018 42.4611 85.6911 45.6883 86.8464 49.1929C87.0571 49.8338 88.0755 49.5599 87.8631 48.912C86.6533 45.2423 84.6798 41.8378 81.7704 39.255C79.4386 37.1866 76.6539 35.7433 73.6848 34.8268C73.0351 34.6284 72.7577 35.645 73.4039 35.8434L73.4021 35.8452Z" fill="white"/>
<path d="M63.171 34.867C65.0023 34.6247 66.9004 34.7142 68.73 34.9003C69.4042 34.9688 69.3989 33.9153 68.73 33.8468C66.9004 33.6607 65.0023 33.5712 63.171 33.8135C62.5091 33.9013 62.5003 34.9565 63.171 34.867Z" fill="white"/>
</svg>
