<svg width="100" height="100" viewBox="0 0 100 100" fill="none" xmlns="http://www.w3.org/2000/svg">
<path d="M90.2755 54.6276C88.4998 54.6276 89.0045 53.2725 88.7708 51.4968C87.6493 40.9359 81.9483 31.3564 73.1632 25.2816C71.5744 24.1601 69.2006 22.0106 70.2754 20.4218C71.3969 18.833 73.5931 18.4591 75.1352 19.5339C85.6026 26.7769 92.3316 38.1789 93.6868 50.7491C93.8737 52.665 92.5185 54.394 90.5559 54.6276C90.5092 54.6276 90.369 54.6276 90.2755 54.6276Z" fill="#373635"/>
<path d="M10.2296 54.8609C10.0894 54.8609 9.99597 54.8609 9.85578 54.8609C7.93987 54.6272 6.53799 52.8982 6.72491 50.9823C7.9866 38.4122 14.6689 27.057 24.9961 19.7204C26.5849 18.5989 28.7812 18.9728 29.9027 20.5616C31.0242 22.1504 29.6503 23.3467 28.0615 24.4682C19.3699 30.5897 12.7624 41.1692 11.6876 51.73C11.5474 53.5057 12.0053 54.8609 10.2296 54.8609Z" fill="#373635"/>
<path d="M50.2771 99.2069C43.3611 99.2069 36.7722 97.6181 30.6039 94.534C28.8749 93.6462 28.1739 91.5433 29.0618 89.8143C29.9497 88.0854 32.0525 89.3844 33.7815 90.2723C43.8752 95.3658 56.0248 95.4592 66.2118 90.5526C67.9408 89.7115 70.0436 88.4592 70.8847 90.1882C71.7259 91.9172 70.9782 94.02 69.2492 94.8611C63.2678 97.7583 56.9127 99.2069 50.2771 99.2069Z" fill="#373635"/>
<path d="M50.2739 32.9909C41.1616 32.9909 33.7784 25.6077 33.7784 16.4955C33.7784 7.38324 41.1616 0 50.2739 0C59.3861 0 66.7693 7.38324 66.7693 16.4955C66.7693 25.6077 59.3393 32.9909 50.2739 32.9909ZM50.2739 7.05613C45.0402 7.05613 40.7878 11.3085 40.7878 16.5422C40.7878 21.7759 45.0402 26.0283 50.2739 26.0283C55.5075 26.0283 59.7599 21.7759 59.7599 16.5422C59.7599 11.3085 55.4608 7.05613 50.2739 7.05613Z" fill="#71DDC3"/>
<path d="M16.4955 90.1421C7.38324 90.1421 0 82.7588 0 73.6466C0 64.5811 7.38324 57.1511 16.4955 57.1511C25.6077 57.1511 32.9909 64.5344 32.9909 73.6466C32.9909 82.7121 25.6077 90.1421 16.4955 90.1421ZM16.4955 64.1605C11.2618 64.1605 7.0094 68.4129 7.0094 73.6466C7.0094 78.8803 11.2618 83.1326 16.4955 83.1326C21.7292 83.1326 25.9815 78.8803 25.9815 73.6466C25.9815 68.4129 21.7292 64.1605 16.4955 64.1605Z" fill="#71DDC3"/>
<path d="M83.5046 90.1421C74.3924 90.1421 67.0092 82.7588 67.0092 73.6466C67.0092 64.5811 74.3924 57.1511 83.5046 57.1511C92.6169 57.1511 100 64.5344 100 73.6466C99.9534 82.7121 92.5701 90.1421 83.5046 90.1421ZM83.5046 64.1605C78.2709 64.1605 74.0186 68.4129 74.0186 73.6466C74.0186 78.8803 78.2709 83.1326 83.5046 83.1326C88.7383 83.1326 92.9907 78.8803 92.9907 73.6466C92.944 68.4129 88.7383 64.1605 83.5046 64.1605Z" fill="#71DDC3"/>
</svg>
