<svg width="113" height="100" viewBox="0 0 113 100" fill="none" xmlns="http://www.w3.org/2000/svg">
<g clip-path="url(#clip0_159_115)">
<path d="M49.749 87.4028H63.3877V98.7597C63.3877 98.7814 63.3835 98.803 63.3751 98.8231C63.3668 98.8432 63.3546 98.8614 63.3391 98.8768C63.3237 98.8922 63.3054 98.9044 63.2853 98.9127C63.2652 98.9211 63.2436 98.9254 63.2218 98.9254H49.915C49.871 98.9254 49.8288 98.9079 49.7976 98.8768C49.7665 98.8458 49.749 98.8036 49.749 98.7597V87.4028Z" fill="#71DDC3"/>
<path d="M49.749 90.0056H63.397V92.5117H49.749V90.0056Z" fill="#AEFFEC"/>
<path d="M63.3992 99.8528C63.1241 99.8528 62.8602 99.7437 62.6657 99.5495C62.4712 99.3553 62.3619 99.0919 62.3619 98.8172V88.4798H50.7862V98.8172C50.7862 99.0919 50.6769 99.3553 50.4824 99.5495C50.2878 99.7437 50.024 99.8528 49.7489 99.8528C49.4738 99.8528 49.21 99.7437 49.0155 99.5495C48.821 99.3553 48.7117 99.0919 48.7117 98.8172V86.4087H64.4364V98.8172C64.4358 99.0917 64.3263 99.3547 64.1319 99.5488C63.9376 99.7429 63.6741 99.8522 63.3992 99.8528Z" fill="#25252D"/>
<path d="M45.9135 97.929H67.3085V100H45.9135V97.929Z" fill="#25252D"/>
<path d="M40.5082 97.929H43.0437V100H40.5082V97.929Z" fill="#25252D"/>
<path d="M70.1829 97.929H73.1079V100H70.1829V97.929Z" fill="#25252D"/>
<path d="M104.477 10.5859H8.67147C4.89442 10.5859 1.83252 13.6429 1.83252 17.4138V82.1559C1.83252 85.9268 4.89442 88.9838 8.67147 88.9838H104.477C108.254 88.9838 111.316 85.9268 111.316 82.1559V17.4138C111.316 13.6429 108.254 10.5859 104.477 10.5859Z" fill="#AEFFEC"/>
<path d="M105.532 88.4177C105.357 88.4338 105.18 88.4407 105.002 88.4407H9.1993C8.301 88.441 7.41145 88.2646 6.58144 87.9216C5.75143 87.5786 4.99724 87.0757 4.36194 86.4416C3.72664 85.8076 3.22268 85.0548 2.87885 84.2262C2.53501 83.3977 2.35804 82.5096 2.35804 81.6128L1.61353 15.773C1.61353 11.8585 5.61041 10.8 5.63346 10.5859C11.6933 13.0506 10.3726 19.3492 13.7148 23.6365C18.0943 29.2286 14.3579 40.9077 13.1224 46.9761C11.2438 56.2112 8.13669 66.0308 8.63688 75.5466C9.22005 86.5283 23.5641 88.6363 32.2701 89.2622C43.7675 90.0861 55.3478 89.6074 66.783 88.5396C79.3038 87.3729 93.4266 89.6788 105.532 88.4177Z" fill="#71DDC3"/>
<path d="M9.51965 17.2688H103.628V74.2463H9.51965V17.2688Z" fill="#373635"/>
<path opacity="0.5" d="M103.628 17.2688H9.51965V21.296H20.4062V74.2463H24.44V21.296H103.628V17.2688Z" fill="#21201F"/>
<path d="M105.694 90.0193H7.45445C5.68889 90.0175 3.99617 89.3164 2.74773 88.07C1.49929 86.8236 0.797119 85.1336 0.795288 83.3709V16.1987C0.797119 14.436 1.49929 12.746 2.74773 11.4996C3.99617 10.2532 5.68889 9.55212 7.45445 9.55029H105.694C107.459 9.55212 109.152 10.2532 110.401 11.4996C111.649 12.746 112.351 14.436 112.353 16.1987V83.3709C112.351 85.1336 111.649 86.8236 110.401 88.07C109.152 89.3164 107.459 90.0175 105.694 90.0193ZM7.45445 11.6214C6.2389 11.6227 5.07348 12.1053 4.21396 12.9634C3.35443 13.8216 2.87101 14.9851 2.86979 16.1987V83.3709C2.87162 84.5843 3.35524 85.7475 4.21463 86.6055C5.07402 87.4635 6.23909 87.9463 7.45445 87.9481H105.694C106.909 87.9463 108.074 87.4635 108.934 86.6055C109.793 85.7475 110.277 84.5843 110.278 83.3709V16.1987C110.277 14.9851 109.794 13.8216 108.934 12.9634C108.075 12.1053 106.909 11.6227 105.694 11.6214H7.45445Z" fill="#25252D"/>
<path d="M56.5741 39.7179C56.4212 39.7179 56.2746 39.6573 56.1666 39.5494C56.0585 39.4415 55.9978 39.2951 55.9978 39.1426V25.2267C55.9978 25.0741 56.0585 24.9278 56.1666 24.8199C56.2746 24.712 56.4212 24.6514 56.5741 24.6514C56.7269 24.6514 56.8735 24.712 56.9815 24.8199C57.0896 24.9278 57.1503 25.0741 57.1503 25.2267V39.1426C57.1503 39.2951 57.0896 39.4415 56.9815 39.5494C56.8735 39.6573 56.7269 39.7179 56.5741 39.7179Z" fill="white"/>
<path d="M56.5741 46.4722C56.4983 46.4725 56.4232 46.4578 56.3532 46.429C56.2831 46.4002 56.2195 46.3579 56.1659 46.3044C56.1123 46.2509 56.0699 46.1873 56.0411 46.1174C56.0122 46.0475 55.9975 45.9725 55.9978 45.8969V42.9742C55.9978 42.8217 56.0585 42.6753 56.1666 42.5674C56.2747 42.4595 56.4212 42.3989 56.5741 42.3989C56.7269 42.3989 56.8735 42.4595 56.9815 42.5674C57.0896 42.6753 57.1503 42.8217 57.1503 42.9742V45.8969C57.1506 45.9725 57.1359 46.0475 57.1071 46.1174C57.0782 46.1873 57.0358 46.2509 56.9822 46.3044C56.9286 46.3579 56.865 46.4002 56.7949 46.429C56.7249 46.4578 56.6498 46.4725 56.5741 46.4722Z" fill="white"/>
<path d="M56.5741 50.7549C56.4212 50.7549 56.2746 50.6943 56.1666 50.5864C56.0585 50.4785 55.9978 50.3322 55.9978 50.1796V49.3258C55.9978 49.1732 56.0585 49.0269 56.1666 48.919C56.2746 48.8111 56.4212 48.7505 56.5741 48.7505C56.7269 48.7505 56.8735 48.8111 56.9815 48.919C57.0896 49.0269 57.1503 49.1732 57.1503 49.3258V50.1796C57.1503 50.3322 57.0896 50.4785 56.9815 50.5864C56.8735 50.6943 56.7269 50.7549 56.5741 50.7549Z" fill="white"/>
<path d="M106.715 31.5598H108.328V45.4757H106.715V31.5598Z" fill="white"/>
<path d="M106.676 47.5583H108.289V51.7283H106.676V47.5583Z" fill="white"/>
<path d="M56.5948 36.7723C56.442 36.7723 56.2954 36.7117 56.1873 36.6038C56.0793 36.4959 56.0186 36.3496 56.0186 36.197V22.2811C56.0186 22.1285 56.0793 21.9822 56.1873 21.8743C56.2954 21.7664 56.442 21.7058 56.5948 21.7058C56.7476 21.7058 56.8942 21.7664 57.0023 21.8743C57.1103 21.9822 57.1711 22.1285 57.1711 22.2811V36.197C57.1711 36.3496 57.1103 36.4959 57.0023 36.6038C56.8942 36.7117 56.7476 36.7723 56.5948 36.7723Z" fill="white"/>
<path d="M56.5533 41.4231C56.4005 41.4231 56.2539 41.3625 56.1458 41.2546C56.0378 41.1467 55.9771 41.0004 55.9771 40.8478V38.9791C55.9771 38.8265 56.0378 38.6802 56.1458 38.5723C56.2539 38.4644 56.4005 38.4038 56.5533 38.4038C56.7061 38.4038 56.8527 38.4644 56.9608 38.5723C57.0688 38.6802 57.1296 38.8265 57.1296 38.9791V40.8478C57.1296 41.0004 57.0688 41.1467 56.9608 41.2546C56.8527 41.3625 56.7061 41.4231 56.5533 41.4231Z" fill="white"/>
<path d="M84.2226 73.9332H29.0845C27.9674 73.9332 26.896 73.4904 26.1059 72.7019C25.3158 71.9135 24.8716 70.8441 24.871 69.7288L24.7142 5.64034C24.7139 5.08801 24.8226 4.54104 25.0341 4.03066C25.2456 3.52029 25.5558 3.05653 25.9469 2.66586C26.3379 2.2752 26.8023 1.9653 27.3134 1.75386C27.8245 1.54242 28.3723 1.4336 28.9255 1.4336H84.0636C85.1799 1.43237 86.251 1.87346 87.0419 2.66003C87.8328 3.44659 88.2787 4.51434 88.2817 5.62884L88.4338 69.7288C88.4338 70.8439 87.9902 71.9133 87.2004 72.7018C86.4106 73.4903 85.3395 73.9332 84.2226 73.9332Z" fill="white"/>
<path d="M88.6782 73.335H25.1154L24.9379 70.4653H88.4984L88.6782 73.335Z" fill="#E1E4FE"/>
<path d="M88.1711 74.969C87.8964 74.969 87.6329 74.8602 87.4385 74.6665C87.244 74.4728 87.1345 74.21 87.1339 73.9357L86.9633 4.68088C86.9615 4.09411 86.7269 3.53196 86.3109 3.11748C85.8948 2.703 85.3313 2.46995 84.7436 2.46935H27.697C27.4049 2.46935 27.1157 2.5269 26.8459 2.6387C26.5762 2.7505 26.3311 2.91436 26.1249 3.12088C25.9187 3.3274 25.7554 3.57252 25.6442 3.84219C25.5331 4.11186 25.4763 4.40078 25.4772 4.69239L25.6478 73.9311C25.6478 74.2056 25.5389 74.4689 25.345 74.6634C25.151 74.8579 24.8878 74.9678 24.6129 74.969C24.3382 74.969 24.0747 74.8602 23.8802 74.6665C23.6858 74.4728 23.5762 74.21 23.5756 73.9357L23.405 4.69699C23.4038 4.13329 23.5139 3.57487 23.729 3.05367C23.9441 2.53247 24.26 2.05871 24.6586 1.65947C25.0572 1.26023 25.5307 0.943338 26.052 0.726919C26.5734 0.510501 27.1323 0.398797 27.697 0.398193H84.7436C85.8803 0.40001 86.9701 0.851027 87.7748 1.65267C88.5795 2.45431 89.0335 3.54138 89.0378 4.67628L89.2038 73.9311C89.2044 74.067 89.1781 74.2017 89.1265 74.3274C89.0749 74.4532 88.999 74.5675 88.9031 74.6639C88.8072 74.7603 88.6931 74.8369 88.5675 74.8892C88.4419 74.9416 88.3072 74.9687 88.1711 74.969Z" fill="#25252D"/>
<path d="M104.666 75.2795H8.48242V16.2332H24.2418C24.5168 16.2332 24.7807 16.3423 24.9752 16.5365C25.1697 16.7307 25.279 16.9941 25.279 17.2687C25.279 17.5434 25.1697 17.8068 24.9752 18.001C24.7807 18.1952 24.5168 18.3043 24.2418 18.3043H10.5569V73.2083H102.591V18.3043H88.3002C88.0251 18.3043 87.7613 18.1952 87.5668 18.001C87.3722 17.8068 87.2629 17.5434 87.2629 17.2687C87.2629 16.9941 87.3722 16.7307 87.5668 16.5365C87.7613 16.3423 88.0251 16.2332 88.3002 16.2332H104.666V75.2795Z" fill="#25252D"/>
<path d="M56.8068 82.9291C57.9716 82.9291 58.9159 81.9864 58.9159 80.8234C58.9159 79.6605 57.9716 78.7178 56.8068 78.7178C55.642 78.7178 54.6978 79.6605 54.6978 80.8234C54.6978 81.9864 55.642 82.9291 56.8068 82.9291Z" fill="white"/>
<path d="M56.8069 83.6195C56.253 83.6195 55.7116 83.4555 55.251 83.1482C54.7905 82.841 54.4315 82.4043 54.2195 81.8934C54.0076 81.3825 53.9521 80.8203 54.0602 80.2779C54.1682 79.7355 54.435 79.2373 54.8266 78.8463C55.2183 78.4553 55.7173 78.189 56.2606 78.0811C56.8038 77.9732 57.3669 78.0286 57.8787 78.2402C58.3904 78.4518 58.8278 78.8102 59.1355 79.27C59.4433 79.7298 59.6075 80.2704 59.6075 80.8234C59.6069 81.5648 59.3116 82.2756 58.7866 82.7998C58.2615 83.3241 57.5495 83.6189 56.8069 83.6195ZM56.8069 79.4081C56.4827 79.4081 56.1683 79.519 55.9161 79.7224C55.6639 79.9257 55.4891 80.2092 55.4209 80.5256C55.3527 80.8421 55.3952 81.1723 55.5413 81.4612C55.6874 81.7501 55.9283 81.9804 56.2238 82.1135C56.5193 82.2466 56.8516 82.2745 57.1652 82.1927C57.4789 82.1109 57.755 81.9242 57.9474 81.6637C58.1399 81.4033 58.2372 81.0849 58.223 80.7615C58.2088 80.4382 58.0841 80.1294 57.8695 79.8868C57.7364 79.7365 57.5729 79.6161 57.3897 79.5336C57.2065 79.451 57.0079 79.4083 56.8069 79.4081Z" fill="#25252D"/>
<path d="M73.6219 19.2273H75.2355V24.9529H73.6219V19.2273Z" fill="white"/>
<path d="M73.6012 26.7847H75.2147V29.3184H73.6012V26.7847Z" fill="white"/>
<path d="M55.5092 18.6704H57.1227V24.396H55.5092V18.6704Z" fill="white"/>
<path d="M55.4884 26.2256H57.1019V28.7593H55.4884V26.2256Z" fill="white"/>
<path opacity="0.5" d="M91.1146 77.9331H103.9V79.544H91.1146V77.9331Z" fill="white"/>
<path opacity="0.5" d="M86.0044 77.894H88.5676V79.5049H86.0044V77.894Z" fill="white"/>
<path d="M0 36.25H2.87204V39.1174H0V36.25Z" fill="white"/>
<path d="M0 41.9778H2.87204V44.8452H0V41.9778Z" fill="white"/>
<path d="M0 47.7148H2.87204V50.5822H0V47.7148Z" fill="white"/>
<path d="M0 53.4497H2.87204V56.3171H0V53.4497Z" fill="white"/>
<path opacity="0.5" d="M88.6782 21.2961H92.6198V73.9334H88.6782V21.2961Z" fill="#21201F"/>
<path d="M41.799 0H44.671V2.8674H41.799V0Z" fill="white"/>
<path d="M47.5454 0H50.4174V2.8674H47.5454V0Z" fill="white"/>
<path d="M53.2894 0H56.1615V2.8674H53.2894V0Z" fill="white"/>
<path d="M59.0359 0H61.9079V2.8674H59.0359V0Z" fill="white"/>
<path d="M21.3789 79.7878H41.799V81.859H21.3789V79.7878Z" fill="#25252D"/>
<path d="M71.0565 39.2368C71.0565 38.6546 71.2501 38.0724 71.2501 37.2968C71.2501 36.5213 71.2501 35.9391 71.0565 35.3592L75.1432 32.0614C75.3041 31.9218 75.4115 31.7308 75.4472 31.5211C75.4829 31.3113 75.4447 31.0956 75.3392 30.9108L71.4552 24.1128C71.3004 23.9713 71.1079 23.8776 70.901 23.8429C70.6941 23.8082 70.4815 23.834 70.2889 23.9172L65.4322 25.8572C64.4618 25.0816 63.2978 24.4994 62.1315 23.9172L61.3455 18.8705C61.5391 18.2905 60.9559 17.9016 60.5687 17.9016H52.7985C52.4113 17.9016 51.8281 18.2905 51.8281 18.6771L51.0513 23.9126C49.8988 24.3015 48.9146 25.077 47.7505 25.8525L43.0875 23.9126C42.5066 23.7193 42.1171 23.9126 41.7299 24.3015L37.8436 31.088C37.65 31.2813 37.8436 31.8635 38.2332 32.2386L42.3107 35.343C42.3107 35.923 42.1171 36.4937 42.1171 37.2807C42.1171 38.0678 42.1171 38.6385 42.3107 39.2207L38.2332 42.5161C38.0693 42.6568 37.9602 42.8505 37.9248 43.0633C37.8894 43.2761 37.93 43.4946 38.0395 43.6806L41.9235 50.4671C42.0782 50.6079 42.2704 50.7011 42.4769 50.7354C42.6834 50.7697 42.8955 50.7437 43.0875 50.6604L47.9442 48.7388C48.9146 49.5144 50.0809 50.0966 51.2449 50.6765L52.0217 55.7186C52.0217 56.1075 52.4113 56.4942 52.9944 56.4942H60.7623C61.1518 56.4942 61.7327 56.1075 61.7327 55.7186L62.5118 50.6765C63.6758 50.0966 64.8422 49.5144 65.8126 48.7388L70.6669 50.6765C70.8753 50.7639 71.1083 50.7729 71.3228 50.7018C71.5373 50.6307 71.7187 50.4844 71.8333 50.2899L75.7172 43.4942C75.9131 43.1053 75.9131 42.5231 75.5236 42.3297L71.0565 39.2368ZM56.6847 44.0833C55.3403 44.0833 54.0261 43.6853 52.9083 42.9396C51.7904 42.1939 50.9192 41.134 50.4047 39.8939C49.8902 38.6538 49.7556 37.2893 50.0179 35.9729C50.2802 34.6564 50.9276 33.4472 51.8782 32.4981C52.8289 31.549 54.04 30.9026 55.3586 30.6407C56.6772 30.3789 58.0439 30.5133 59.286 31.0269C60.5281 31.5406 61.5897 32.4104 62.3366 33.5265C63.0835 34.6425 63.4822 35.9546 63.4822 37.2968C63.4607 39.09 62.7376 40.8038 61.4675 42.0718C60.1973 43.3399 58.4809 44.0618 56.6847 44.0833Z" fill="#71DDC3"/>
<path d="M75.7172 43.7589L71.831 50.5454C71.7182 50.7412 71.5373 50.8888 71.3227 50.96C71.1081 51.0313 70.8747 51.0214 70.6669 50.932L65.8103 48.9966C64.8445 49.7722 63.6735 50.3544 62.5095 50.932L61.735 55.981C61.735 56.3677 61.1496 56.7543 60.7623 56.7543H52.9921C52.4136 56.7543 52.024 56.3677 52.024 55.981L51.4731 52.421C54.4708 51.7722 57.3095 50.5353 59.8244 48.7821C62.3393 47.0289 64.4802 44.7944 66.1229 42.2082C67.7656 39.622 68.8773 36.7358 69.3934 33.7172C69.9096 30.6985 69.8198 27.6075 69.1295 24.6237L70.282 24.1635C70.8675 23.9679 71.2547 24.1635 71.446 24.3614L75.3277 31.1594C75.4372 31.3426 75.4783 31.5586 75.4437 31.7692C75.4091 31.9797 75.3011 32.1713 75.1387 32.31L71.0565 35.6055C71.2524 36.19 71.2524 36.7745 71.2524 37.5478C71.2524 38.321 71.0565 38.9078 71.0565 39.4854L75.5259 42.5899C75.9131 42.7878 75.9131 43.3723 75.7172 43.7589Z" fill="#71DDC3"/>
<path d="M60.7622 57.5321H52.9944C51.9226 57.5321 51.0443 56.7726 50.989 55.8199L50.2975 51.3646C49.4244 50.9452 48.5838 50.4614 47.7828 49.9171L43.4032 51.6615C43.028 51.8052 42.6197 51.8398 42.2255 51.7612C41.8314 51.6826 41.4677 51.494 41.1766 51.2173L41.0775 51.1207L39.9826 49.2083L41.7851 48.1796L42.6656 49.7192L42.7233 49.7054L48.1055 47.5537L48.578 47.9311C49.4631 48.6376 50.5465 49.1784 51.692 49.7514L52.1738 49.9815L52.2568 50.5131L53.0174 55.4517H60.6977H60.7115L61.5529 49.9908L62.0323 49.7606C63.1848 49.1853 64.2659 48.6445 65.151 47.938L65.6235 47.5606L70.9942 49.687L74.779 43.0754L69.7426 39.5682L70.2312 38.6178C70.4513 38.1918 70.561 37.7175 70.5501 37.2383C70.5392 36.7591 70.4082 36.2903 70.169 35.8747L69.7287 35.1083L74.3964 31.3365L70.7084 24.8791L70.6484 24.8929L65.2662 27.0423L64.7707 26.6649C63.8855 25.9584 62.8022 25.4176 61.6543 24.8446L61.1748 24.6145L60.3012 18.951H52.8515H52.8376L51.9848 24.7042L51.3786 24.9045C50.5926 25.1668 49.8688 25.6639 49.0321 26.2415C48.8016 26.4003 48.5711 26.5614 48.3244 26.7225L47.8634 27.0308L42.7325 24.8953C42.7082 24.8859 42.6824 24.8812 42.6564 24.8814C42.6196 24.9036 42.5849 24.929 42.5527 24.9574L38.8647 31.401C38.8847 31.4312 38.9062 31.4604 38.9292 31.4884L43.5646 35.014L43.2649 35.7481C43.2649 35.7619 42.6103 37.4303 43.2465 38.8019L43.5853 39.5337L38.9753 43.2595L40.031 45.1005L38.2308 46.1292L37.1106 44.1593C36.9032 43.779 36.8288 43.3404 36.8994 42.9131C36.97 42.4858 37.1814 42.0942 37.5001 41.8005L37.5808 41.7291L41.089 38.8917C40.8364 37.8565 40.8436 36.7752 41.1098 35.7435L37.5001 32.982C37.2012 32.6831 36.9742 32.3204 36.8363 31.9211C36.743 31.6898 36.7079 31.4393 36.734 31.1914C36.7601 30.9434 36.8467 30.7057 36.9861 30.4989L40.9046 23.6641L41.0014 23.5651C41.2957 23.23 41.6835 22.9903 42.1151 22.8767C42.5468 22.7632 43.0025 22.7809 43.424 22.9277L43.4954 22.9553L47.6445 24.6789L47.875 24.5247C48.5836 24.0018 49.3399 23.5464 50.1339 23.1647L50.8254 18.5759C50.8922 17.6048 51.9318 16.8638 52.8284 16.8638H60.5986C60.8976 16.8699 61.1913 16.9447 61.4567 17.0824C61.7221 17.2201 61.9522 17.4169 62.1291 17.6577C62.3911 18.0172 62.4997 18.4657 62.4311 18.905L63.065 23.2429C63.9376 23.6632 64.7782 24.147 65.5797 24.6904L69.9592 22.9461C70.3345 22.8023 70.7428 22.7677 71.1369 22.8464C71.5311 22.925 71.8948 23.1136 72.1859 23.3902L72.2827 23.4892L76.2634 30.4459C76.4711 30.8261 76.5458 31.2645 76.4757 31.6918C76.4055 32.1191 76.1946 32.5107 75.8762 32.8048L75.7955 32.8784L72.3311 35.6699C72.7022 36.7104 72.7111 37.8454 72.3564 38.8917L76.0652 41.4576C76.9457 41.9616 77.0563 43.1352 76.6414 43.966L76.6138 44.0166L72.7391 50.7847C72.5045 51.2139 72.1131 51.5362 71.6465 51.6845C71.1895 51.8416 70.6899 51.8211 70.2474 51.627L65.9693 49.9148C65.1679 50.4586 64.3274 50.9424 63.4545 51.3623L62.763 55.8222C62.6962 56.7911 61.6589 57.5321 60.7622 57.5321ZM56.6847 45.1212C52.4366 45.1212 48.8477 41.5404 48.8477 37.2969C48.8477 33.0533 52.4343 29.4725 56.6847 29.4725C60.9351 29.4725 64.5217 33.0556 64.5217 37.2969C64.5217 41.5381 60.9305 45.1189 56.6847 45.1189V45.1212ZM56.6847 31.5437C55.545 31.5437 54.4309 31.8811 53.4832 32.5133C52.5356 33.1454 51.797 34.044 51.3608 35.0952C50.9247 36.1465 50.8106 37.3033 51.0329 38.4193C51.2553 39.5353 51.8041 40.5604 52.61 41.365C53.4159 42.1696 54.4427 42.7175 55.5605 42.9395C56.6783 43.1615 57.837 43.0476 58.8899 42.6121C59.9429 42.1767 60.8429 41.4393 61.4761 40.4932C62.1092 39.5471 62.4472 38.4348 62.4472 37.2969C62.4269 35.7775 61.8132 34.3262 60.7368 33.252C59.6605 32.1778 58.2065 31.5656 56.6847 31.546V31.5437Z" fill="#25252D"/>
<path opacity="0.5" d="M46.7202 36.2842L45.1067 36.2175C45.1067 36.1484 45.4594 29.1733 51.865 27.2793L52.326 28.8235C47.0406 30.3768 46.7317 36.0426 46.7202 36.2842Z" fill="white"/>
</g>
<defs>
<clipPath id="clip0_159_115">
<rect width="112.353" height="100" fill="white"/>
</clipPath>
</defs>
</svg>
